<svg width="46" height="46" viewBox="0 0 46 46" fill="none" xmlns="http://www.w3.org/2000/svg">
<g clip-path="url(#clip0_2947_72962)">
<path opacity="0.2" fill-rule="evenodd" clip-rule="evenodd" d="M1.42443 31.3892C1.25306 30.7848 1.16138 30.1477 1.16138 29.4878C1.16138 26.9352 2.53078 24.7261 4.57884 23.4331L31.1832 4.63079C32.7323 3.53595 34.8769 3.90253 35.9732 5.44956L40.4672 11.791C41.5635 13.338 41.1964 15.4797 39.6473 16.5745L31.6629 22.2174H42.0871C43.9849 22.2174 45.5234 23.7538 45.5234 25.6491V33.4179C45.5234 35.3132 43.9849 36.8496 42.0871 36.8496H8.82078C8.61358 36.8496 8.4101 36.8311 8.21204 36.7957C6.00788 36.7319 3.87948 35.7074 2.52306 33.7934C1.99218 33.0443 1.62924 32.2293 1.42443 31.3892Z" fill="#007FFF"/>
<path fill-rule="evenodd" clip-rule="evenodd" d="M8.91635 37.5027C5.91731 37.1669 3.59167 34.7622 3.59167 31.8456C3.59167 28.7221 6.25907 26.1857 9.56436 26.149C9.59137 26.148 9.6185 26.1475 9.64575 26.1475H40.1931C41.3949 26.1475 42.3692 27.1204 42.3692 28.3207V35.4545C42.3692 36.6548 41.3949 37.6277 40.1931 37.6277H9.64575C9.3899 37.6277 9.14437 37.5837 8.91635 37.5027Z" fill="#1D1E22"/>
<path fill-rule="evenodd" clip-rule="evenodd" d="M9.64493 27.1248C9.62968 27.1248 9.61454 27.1251 9.59952 27.1257L9.58698 27.1261L9.57444 27.1263C6.75168 27.1577 4.57014 29.3098 4.57014 31.8451C4.57014 34.2139 6.46988 36.2442 9.02464 36.5302L9.13708 36.5428L9.24369 36.5807C9.36784 36.6248 9.50246 36.6492 9.64493 36.6492H40.1922C40.8533 36.6492 41.3891 36.1141 41.3891 35.454V28.3201C41.3891 27.66 40.8533 27.1248 40.1922 27.1248H9.64493ZM9.5408 25.1706C9.57541 25.1695 9.61012 25.1689 9.64493 25.1689H40.1922C41.9349 25.1689 43.3477 26.5798 43.3477 28.3201V35.454C43.3477 37.1943 41.9349 38.6051 40.1922 38.6051H9.64493C9.31739 38.6051 8.9999 38.555 8.70069 38.4613C5.30694 38.0314 2.61157 35.2739 2.61157 31.8451C2.61157 28.1372 5.75826 25.2187 9.5408 25.1706Z" fill="#007FFF"/>
<path opacity="0.4" d="M16.7908 29.2084C16.7908 28.9051 17.037 28.6592 17.3407 28.6592H33.2897C33.5935 28.6592 33.8397 28.9051 33.8397 29.2084V34.7006C33.8397 35.0039 33.5935 35.2498 33.2897 35.2498H17.3407C17.037 35.2498 16.7908 35.0039 16.7908 34.7006V29.2084Z" fill="#007FFF"/>
<path fill-rule="evenodd" clip-rule="evenodd" d="M12.2418 36.81C9.63298 38.2605 6.35474 37.6225 4.66113 35.2326C2.84886 32.6753 3.53438 29.0763 6.1886 27.1738C6.21085 27.1568 6.23351 27.1401 6.25659 27.1238L30.7451 9.81681C31.7261 9.12347 33.0842 9.35562 33.7785 10.3353L37.9052 16.1584C38.5995 17.1382 38.367 18.4945 37.3859 19.1878L12.8975 36.4948C12.6922 36.6398 12.4705 36.7444 12.2418 36.81Z" fill="#1D1E22"/>
<path fill-rule="evenodd" clip-rule="evenodd" d="M6.82359 27.922C6.81068 27.9311 6.79803 27.9404 6.78566 27.9499L6.77344 27.9593L6.76092 27.9682C4.51204 29.5802 3.98273 32.5805 5.46178 34.6676C6.84457 36.6189 9.56077 37.182 11.7667 35.9555L11.8647 35.901L11.9725 35.8701C12.097 35.8343 12.2188 35.7772 12.3331 35.6964L36.8215 18.3895C37.3611 18.0081 37.489 17.2622 37.1071 16.7233L32.9805 10.9002C32.5986 10.3614 31.8516 10.2337 31.3121 10.615L6.82359 27.922ZM5.60707 26.3877C5.63502 26.3666 5.66339 26.3458 5.69218 26.3255L30.1807 9.01848C31.6032 8.01312 33.5725 8.34974 34.5792 9.77033L38.7058 15.5934C39.7125 17.014 39.3755 18.9807 37.9529 19.986L13.4645 37.293C13.202 37.4785 12.9194 37.619 12.6268 37.7151C9.62941 39.324 5.84699 38.597 3.86307 35.7975C1.72035 32.7739 2.55715 28.5831 5.60707 26.3877Z" fill="#007FFF"/>
<path fill-rule="evenodd" clip-rule="evenodd" d="M10.2649 32.9257C10.9276 32.4574 11.0847 31.5412 10.6156 30.8793C10.1466 30.2175 9.22917 30.0607 8.56645 30.5291C7.90372 30.9974 7.74668 31.9136 8.2157 32.5755C8.68471 33.2373 9.60216 33.3941 10.2649 32.9257ZM11.1449 34.1675C12.4943 33.2138 12.8141 31.3482 11.8591 30.0005C10.9041 28.6529 9.03592 28.3336 7.68646 29.2873C6.337 30.241 6.01724 32.1066 6.97225 33.4543C7.92727 34.8019 9.79542 35.1212 11.1449 34.1675Z" fill="#007FFF"/>
<path opacity="0.4" d="M39.2924 31.9315C39.2924 33.1318 38.3181 34.1048 37.1162 34.1048C35.9144 34.1048 34.9401 33.1318 34.9401 31.9315C34.9401 30.7313 35.9144 29.7583 37.1162 29.7583C38.3181 29.7583 39.2924 30.7313 39.2924 31.9315Z" fill="#007FFF"/>
</g>
<defs>
<clipPath id="clip0_2947_72962">
<rect width="46" height="46" fill="white"/>
</clipPath>
</defs>
</svg>
