<svg width="64" height="64" viewBox="0 0 64 64" fill="none" xmlns="http://www.w3.org/2000/svg">
<path opacity="0.06" d="M46.1899 28.58C47.8451 29.159 49.5415 29.478 51.1771 30.1668C53.647 31.2164 55.8719 33.0765 57.6289 35.5607C58.5816 36.9141 59.7101 38.6136 61.0873 38.2675C62.9923 37.8056 63.0123 34.5936 62.6925 32.663C62.2217 29.8022 60.6413 27.6253 58.6054 26.4121C56.1693 24.9564 53.6375 25.0355 51.0388 25.2381C50.0544 25.3151 49.0873 25.5027 48.0963 25.3667C47.1143 25.2306 46.1524 24.8935 45.2473 24.3682C44.1459 23.7246 43.1859 22.791 42.1218 22.0653C41.6673 21.7539 40.8983 21.5024 40.5326 22.1284C40.0817 22.8833 40.6918 24.0535 41.0566 24.6576C42.2648 26.6478 44.3442 27.9351 46.1899 28.58Z" fill="#007FFF"/>
<g opacity="0.4">
<path d="M5.97627 45.9886C5.1205 45.2903 4.9929 44.0304 5.69128 43.1746L35.7898 6.29263C36.4881 5.43685 37.748 5.30926 38.6038 6.00763L47.9009 13.5948C48.7566 14.2931 48.8842 15.553 48.1859 16.4088L18.0874 53.2908C17.389 54.1465 16.1291 54.2741 15.2733 53.5758L5.97627 45.9886Z" fill="#007FFF"/>
<path d="M16.9812 41.8011C20.4043 44.5946 20.9147 49.6342 18.1212 53.0573C15.3277 56.4804 10.2881 56.9907 6.86504 54.1972C3.44195 51.4037 2.93157 46.3642 5.72507 42.9411C8.51857 39.518 13.5581 39.0076 16.9812 41.8011Z" fill="#007FFF"/>
</g>
<g opacity="0.1">
<rect width="21.5164" height="9.36273" rx="0.666667" transform="matrix(0.63226 -0.774756 -0.774756 -0.63226 23.2544 41.2563)" fill="#007FFF"/>
</g>
<path fill-rule="evenodd" clip-rule="evenodd" d="M11.029 58.6435C6.72466 58.3308 3.3335 54.8789 3.3335 50.6666C3.3335 46.455 6.7236 43.0035 11.027 42.6898C11.1269 42.6745 11.2292 42.6665 11.3333 42.6665H60.6667C61.7712 42.6665 62.6667 43.5619 62.6667 44.6665V56.6665C62.6667 57.7711 61.7712 58.6665 60.6667 58.6665H11.7047C11.6921 58.6666 11.6795 58.6666 11.6668 58.6666C11.6542 58.6666 11.6415 58.6666 11.6289 58.6665H11.3333C11.2299 58.6665 11.1283 58.6586 11.029 58.6435Z" fill="#007FFF"/>
<circle cx="11.3337" cy="50.6667" r="4.66667" fill="#258FFB"/>
<circle opacity="0.1" cx="38.3338" cy="15.6666" r="4" stroke="#FFFDFD" stroke-width="0.666667"/>
<path opacity="0.1" d="M29.4668 19.9332L28.5342 31.7332" stroke="#007FFF" stroke-width="0.666667" stroke-linecap="round"/>
<path opacity="0.1" d="M31.9503 21.3203L31.3077 28.1332" stroke="#007FFF" stroke-width="0.666667" stroke-linecap="round"/>
<path opacity="0.06" d="M9.97839 19.4029C10.6536 20.6232 11.6242 21.756 12.7663 21.7788C13.8235 21.6504 14.5982 19.4026 14.8424 18.6237C15.4986 16.5304 13.957 16.1822 11.7913 16.4371C8.33491 16.8438 9.80169 19.0836 9.97839 19.4029Z" fill="#007FFF"/>
</svg>
