<svg width="67" height="64" viewBox="0 0 67 64" fill="none" xmlns="http://www.w3.org/2000/svg">
<path opacity="0.2" d="M54.8844 4.41162H14.0456C9.97562 4.41162 6.67627 7.71097 6.67627 11.7809V49.6013C6.67627 53.6712 9.97562 56.9706 14.0456 56.9706H54.8844C58.9543 56.9706 62.2537 53.6712 62.2537 49.6013V11.7809C62.2537 7.71097 58.9543 4.41162 54.8844 4.41162Z" fill="#007FFF"/>
<path d="M57.7391 31.8402H55.5551V18.7984C55.5551 17.7952 55.3574 16.8017 54.9735 15.8748C54.5895 14.9479 54.0268 14.1056 53.3173 13.3962C52.6078 12.6868 51.7656 12.1241 50.8387 11.7402C49.9117 11.3562 48.9183 11.1587 47.915 11.1587H7.66611C5.63992 11.1587 3.69672 11.9636 2.26399 13.3963C0.831265 14.8291 0.0263672 16.7723 0.0263672 18.7984V56.0871C0.0263712 58.1132 0.831271 60.0564 2.264 61.4892C3.69673 62.9219 5.63992 63.7268 7.66611 63.7268H47.915C48.9142 63.7253 49.9032 63.5261 50.8251 63.1407C51.7469 62.7552 52.5834 62.1912 53.2863 61.4811C53.9892 60.7709 54.5446 59.9287 54.9205 59.0029C55.2965 58.0772 55.4855 57.0862 55.4768 56.0871V43.0449H57.739L57.7391 31.8402Z" fill="#F3F3F3"/>
<path d="M36.726 40.5397C38.4149 40.5397 39.7841 39.1706 39.7841 37.4816C39.7841 35.7927 38.4149 34.4236 36.726 34.4236C35.0371 34.4236 33.668 35.7927 33.668 37.4816C33.668 39.1706 35.0371 40.5397 36.726 40.5397Z" fill="#007FFF"/>
<path d="M64.8785 11.1661H55.5345V1.82227C55.5345 1.33897 55.3425 0.87547 55.0008 0.533729C54.659 0.191988 54.1955 0 53.7122 0C53.2289 0 52.7654 0.191988 52.4237 0.533729C52.082 0.87547 51.89 1.33897 51.89 1.82227V11.1661H42.546C42.0627 11.1661 41.5991 11.3581 41.2574 11.6999C40.9156 12.0416 40.7236 12.5051 40.7236 12.9885C40.7236 13.4718 40.9156 13.9353 41.2574 14.277C41.5991 14.6188 42.0627 14.8108 42.546 14.8108H51.89V24.1547C51.89 24.638 52.082 25.1015 52.4238 25.4432C52.7655 25.7849 53.229 25.9769 53.7123 25.9769C54.1956 25.9769 54.6591 25.7849 55.0008 25.4432C55.3426 25.1015 55.5346 24.638 55.5346 24.1547V14.8108H64.8786C65.3619 14.8108 65.8254 14.6188 66.1671 14.277C66.5089 13.9353 66.7009 13.4718 66.7009 12.9885C66.7009 12.5051 66.5089 12.0416 66.1671 11.6999C65.8254 11.3581 65.3619 11.1661 64.8786 11.1661H64.8785Z" fill="#007FFF"/>
<path d="M57.1516 28.9328H36.1391C33.8737 28.9358 31.7022 29.8378 30.1014 31.4407C28.5007 33.0436 27.6015 35.2163 27.6015 37.4817C27.6015 39.747 28.5007 41.9197 30.1014 43.5226C31.7022 45.1255 33.8737 46.0275 36.1391 46.0305H52.1212V56.2592C52.1209 56.8052 52.0105 57.3455 51.7964 57.8478C51.4824 58.5875 50.958 59.2187 50.2883 59.6629C49.6186 60.107 48.8332 60.3446 48.0296 60.3461H7.47578C6.39228 60.3434 5.35385 59.9122 4.5873 59.1464C3.82074 58.3807 3.38836 57.3427 3.38459 56.2592V18.5919C3.38774 17.5082 3.81993 16.4699 4.58662 15.704C5.35331 14.9381 6.3921 14.5071 7.47578 14.5051H33.1446V14.4973H34.9253C35.1475 14.4979 35.3677 14.4547 35.5732 14.3702C35.7787 14.2856 35.9654 14.1613 36.1228 14.0044C36.2802 13.8475 36.405 13.6611 36.4902 13.4558C36.5754 13.2506 36.6193 13.0306 36.6193 12.8084C36.6193 12.5861 36.5754 12.3661 36.4902 12.1609C36.405 11.9556 36.2802 11.7692 36.1228 11.6123C35.9654 11.4554 35.7787 11.3311 35.5732 11.2465C35.3677 11.162 35.1475 11.1188 34.9253 11.1194H33.1446V11.1155H7.47578C5.49489 11.1217 3.59693 11.9114 2.19628 13.3122C0.795634 14.713 0.00607774 16.611 0 18.5919V56.2591C0.00601868 58.24 0.795569 60.1381 2.19624 61.5389C3.59692 62.9396 5.49493 63.7293 7.47584 63.7354H48.0295C50.0105 63.7293 51.9085 62.9397 53.3092 61.5389C54.7099 60.1381 55.4994 58.2401 55.5055 56.2591V46.0305H57.1516C58.0937 46.0305 58.9972 45.6563 59.6634 44.9901C60.3296 44.3239 60.7038 43.4204 60.7038 42.4783V32.4851C60.7038 32.0186 60.6119 31.5567 60.4334 31.1257C60.2549 30.6947 59.9933 30.3031 59.6634 29.9733C59.3336 29.6434 58.942 29.3817 58.511 29.2032C58.08 29.0247 57.6181 28.9328 57.1516 28.9328ZM57.6097 42.4783C57.6096 42.5997 57.5613 42.7162 57.4754 42.802C57.3895 42.8879 57.2731 42.9363 57.1516 42.9364H36.1391C35.422 42.9376 34.7117 42.7974 34.0489 42.5238C33.386 42.2502 32.7836 41.8486 32.2761 41.342C31.7686 40.8353 31.366 40.2336 31.0913 39.5712C30.8166 38.9088 30.6753 38.1988 30.6753 37.4817C30.6753 36.7646 30.8166 36.0545 31.0913 35.3921C31.366 34.7297 31.7686 34.128 32.2761 33.6214C32.7836 33.1147 33.386 32.7131 34.0489 32.4395C34.7117 32.166 35.422 32.0257 36.1391 32.0269H57.1516C57.2731 32.0271 57.3895 32.0754 57.4754 32.1613C57.5613 32.2472 57.6096 32.3636 57.6097 32.4851V42.4783Z" fill="#007FFF"/>
</svg>
