<svg width="46" height="46" viewBox="0 0 46 46" fill="none" xmlns="http://www.w3.org/2000/svg">
<path opacity="0.2" fill-rule="evenodd" clip-rule="evenodd" d="M14.3072 34.1329L14.289 34.1328C14.1088 34.1707 13.9059 34.1367 13.7505 34.0063L6.68156 28.0739C6.61272 28.0161 6.56644 27.9505 6.54018 27.8821C6.50263 27.8389 6.47134 27.7919 6.44712 27.7421C6.40306 27.6515 6.38345 27.5538 6.38968 27.4562L6.38968 7.27098C6.3905 6.97102 6.46194 6.67416 6.59987 6.39744C6.73781 6.12072 6.93952 5.86959 7.19344 5.65849C7.44735 5.44738 7.74846 5.28045 8.07947 5.16729C8.41048 5.05413 8.76487 4.99697 9.12228 4.99908L31.7093 4.99908C32.4273 4.99908 33.1158 5.23844 33.6235 5.6645C34.1312 6.09057 34.4164 6.66843 34.4164 7.27098V8.75301C36.641 10.0793 38.179 12.745 38.2456 15.8362C38.2428 15.9103 38.2373 15.9836 38.2293 16.056C38.24 16.1599 38.2456 16.2657 38.2456 16.3729V18.338C38.2456 18.524 38.2289 18.7056 38.1973 18.8806H40.0771C41.4562 18.8806 42.5742 19.9637 42.5742 21.2997V25.9133C42.5742 26.1038 42.5514 26.2892 42.5085 26.467C41.9205 31.8562 37.2183 36.0567 31.5015 36.0656H31.4652C29.1117 36.0619 26.9301 35.3478 25.1368 34.1329L14.3072 34.1329Z" fill="#007FFF"/>
<path d="M3.83467 34.6336L11.1057 39.8297C11.1812 39.9037 11.274 39.9629 11.3778 40.0032C11.4817 40.0435 11.5942 40.064 11.7079 40.0634L29.5616 40.0634C29.9291 40.0664 30.2936 40.0059 30.6341 39.8856C30.9746 39.7652 31.2843 39.5872 31.5454 39.362C31.8064 39.1367 32.0136 38.8686 32.1551 38.5732C32.2965 38.2778 32.3693 37.961 32.3693 37.6409L32.3693 11.4214C32.3693 10.7789 32.0762 10.1627 31.5546 9.70844C31.033 9.25414 30.3255 8.99892 29.5878 8.99892L6.38052 8.99892C6.0133 8.99667 5.64918 9.05762 5.30908 9.17828C4.96898 9.29894 4.65961 9.47693 4.39872 9.70203C4.13784 9.92712 3.93057 10.1949 3.78885 10.49C3.64712 10.785 3.57374 11.1015 3.57289 11.4214L3.57289 34.075C3.56649 34.1791 3.58664 34.2832 3.6319 34.3798C3.67716 34.4764 3.74641 34.5631 3.83467 34.6336Z" fill="#1D1E22"/>
<path fill-rule="evenodd" clip-rule="evenodd" d="M22.1905 20.723C22.2799 16.2428 25.198 12.6455 28.7846 12.6455C32.3712 12.6455 35.2893 16.2428 35.3787 20.723C35.376 20.798 35.3709 20.8722 35.3634 20.9454C35.3735 21.0506 35.3787 21.1577 35.3787 21.2664V23.2558C35.3787 24.7208 34.4337 25.9084 33.2679 25.9084H24.2971C23.1313 25.9084 22.1863 24.7208 22.1863 23.2558V21.2664C22.1863 21.1504 22.1922 21.0362 22.2037 20.9242C22.1973 20.8578 22.1929 20.7907 22.1905 20.723Z" fill="#1D1E22"/>
<path fill-rule="evenodd" clip-rule="evenodd" d="M33.4563 20.1743L33.4811 19.9414C33.482 19.9328 33.4829 19.9241 33.4836 19.9154C33.3701 16.0743 30.8381 13.6974 28.5074 13.6974C26.1766 13.6974 23.6446 16.0743 23.5311 19.9154C23.5316 19.9217 23.5322 19.9279 23.5328 19.9342L23.5561 20.1672L23.5313 20.4C23.5272 20.4381 23.525 20.4781 23.525 20.5199V22.6152C23.525 22.8871 23.6174 23.0679 23.6829 23.1471C23.6843 23.1488 23.6857 23.1504 23.687 23.1519H33.3231C33.3244 23.1504 33.3257 23.1488 33.3271 23.1471C33.3927 23.0679 33.4851 22.8871 33.4851 22.6152V20.5199C33.4851 20.4808 33.4796 20.4072 33.4796 20.4072L33.4563 20.1743ZM21.2847 19.9476C21.3826 15.2291 24.5788 11.4404 28.5074 11.4404C32.4359 11.4404 35.6321 15.2291 35.73 19.9476C35.7271 20.0266 35.7215 20.1048 35.7133 20.1819C35.7244 20.2927 35.73 20.4055 35.73 20.5199V22.6152C35.73 24.1581 34.6949 25.4089 33.418 25.4089H23.592C22.3151 25.4089 21.28 24.1581 21.28 22.6152V20.5199C21.28 20.3978 21.2865 20.2775 21.2991 20.1595C21.2921 20.0896 21.2873 20.019 21.2847 19.9476Z" fill="#007FFF"/>
<path fill-rule="evenodd" clip-rule="evenodd" d="M19.9589 23.1943C18.542 23.1943 17.3933 24.3492 17.3933 25.7737V29.7636C17.3907 29.864 17.3894 29.9647 17.3894 30.0658C17.3894 30.1668 17.3907 30.2675 17.3933 30.3679V30.693C17.3933 30.8725 17.4115 31.0477 17.4462 31.2168C18.0199 36.9952 22.8658 41.5086 28.7623 41.5181H28.7995C34.6733 41.5086 39.5047 37.0298 40.1088 31.2834C40.1529 31.0938 40.1763 30.8962 40.1763 30.693V25.7737C40.1763 24.3492 39.0276 23.1943 37.6106 23.1943H19.9589Z" fill="#1D1E22"/>
<path fill-rule="evenodd" clip-rule="evenodd" d="M18.9914 29.7844L18.9908 29.8052C18.9886 29.8918 18.9875 29.9786 18.9875 30.0658C18.9875 30.1529 18.9886 30.2398 18.9908 30.3263L18.9914 30.3471V30.693C18.9914 30.7628 18.9984 30.8293 19.0113 30.8923L19.0281 30.9741L19.0364 31.0573C19.5294 36.0229 23.696 39.9028 28.7638 39.9115C28.7641 39.9115 28.7645 39.9115 28.7648 39.9115H28.797C28.7973 39.9115 28.7977 39.9115 28.798 39.9115C33.8462 39.9028 38.0004 36.0527 38.5195 31.1145L38.53 31.0148L38.5528 30.9171C38.5692 30.8467 38.5782 30.772 38.5782 30.693V25.7737C38.5782 25.2365 38.145 24.8009 37.6106 24.8009H19.9589C19.4246 24.8009 18.9914 25.2365 18.9914 25.7737V29.7844ZM28.7995 41.5181H28.7623C22.8658 41.5086 18.0199 36.9952 17.4462 31.2168C17.4115 31.0477 17.3933 30.8725 17.3933 30.693V30.3679C17.3907 30.2675 17.3894 30.1668 17.3894 30.0658C17.3894 29.9647 17.3907 29.864 17.3933 29.7636V25.7737C17.3933 24.3492 18.542 23.1943 19.9589 23.1943H37.6106C39.0276 23.1943 40.1763 24.3492 40.1763 25.7737V30.693C40.1763 30.8962 40.1529 31.0938 40.1088 31.2834C39.5047 37.0298 34.6733 41.5086 28.7995 41.5181Z" fill="#007FFF"/>
<path fill-rule="evenodd" clip-rule="evenodd" d="M17.1667 25.7733C17.1667 24.225 18.4155 22.9678 19.9585 22.9678H37.6102C39.1532 22.9678 40.402 24.225 40.402 25.7733V30.6926C40.402 30.9082 40.3778 31.1183 40.3318 31.3204C39.7096 37.173 34.7864 41.7342 28.7995 41.7438H28.7619C22.7511 41.7342 17.8121 37.1365 17.2219 31.2502C17.1857 31.0698 17.1667 30.8833 17.1667 30.6926V30.3704C17.1641 30.269 17.1628 30.1673 17.1628 30.0654C17.1628 29.9634 17.1641 29.8617 17.1667 29.7603V25.7733ZM19.9585 23.4201C18.6676 23.4201 17.619 24.4725 17.619 25.7733V29.7691C17.6165 29.8675 17.6152 29.9663 17.6152 30.0654C17.6152 30.1644 17.6164 30.2632 17.619 30.3616L17.6191 30.3675L17.619 30.6926C17.619 30.8567 17.6357 31.0167 17.6674 31.171L17.6697 31.1824L17.6709 31.1941C18.2332 36.859 22.984 41.2822 28.7622 41.2915H28.7988C34.5548 41.2823 39.2912 36.8929 39.8834 31.2593L39.8849 31.2454L39.8881 31.2317C39.9284 31.0588 39.9497 30.8784 39.9497 30.6926V25.7733C39.9497 24.4725 38.9012 23.4201 37.6102 23.4201H19.9585ZM19.9585 25.0267C19.5502 25.0267 19.2171 25.3598 19.2171 25.7733V29.7899L19.2165 29.8107C19.2143 29.8952 19.2132 29.9801 19.2132 30.0654C19.2132 30.1506 19.2143 30.2355 19.2165 30.3201L19.2172 30.3467L19.2171 30.6926C19.2171 30.7471 19.2226 30.7983 19.2325 30.8464L19.2516 30.9397L19.261 31.0345C19.7427 35.8867 23.8142 39.6764 28.7638 39.6849L28.7966 39.6849C33.7271 39.6765 37.787 35.9158 38.2942 31.0905L38.3062 30.9768L38.3321 30.8654C38.3446 30.8117 38.3516 30.7542 38.3516 30.6926V25.7733C38.3516 25.3598 38.0186 25.0267 37.6102 25.0267H19.9585ZM18.7648 25.7733C18.7648 25.1123 19.2981 24.5744 19.9585 24.5744H37.6102C38.2706 24.5744 38.804 25.1123 38.804 25.7733V30.6926C38.804 30.7889 38.7929 30.8809 38.7726 30.968L38.7531 31.052L38.7441 31.1378C38.2131 36.1888 33.9639 40.1284 28.798 40.1372L28.7966 40.1372H28.7644L28.763 40.1372C23.5771 40.1283 19.3152 36.1584 18.8109 31.0792L18.8038 31.0077L18.7894 30.9373C18.7734 30.8595 18.7648 30.7778 18.7648 30.6926V30.3496L18.7643 30.3317C18.7621 30.2432 18.7609 30.1544 18.7609 30.0654C18.7609 29.9763 18.7621 29.8875 18.7643 29.799L18.7648 29.7811V25.7733Z" fill="#007FFF"/>
<path fill-rule="evenodd" clip-rule="evenodd" d="M29.6931 30.2745C30.3702 29.9518 30.8385 29.2584 30.8385 28.455C30.8385 27.3434 29.9422 26.4424 28.8366 26.4424C27.731 26.4424 26.8347 27.3434 26.8347 28.455C26.8347 29.2572 27.3017 29.9499 27.9772 30.2732V31.6766C27.9772 31.9615 28.207 32.1925 28.4904 32.1925H29.18C29.4634 32.1925 29.6931 31.9615 29.6931 31.6766V30.2745Z" fill="#007FFF"/>
<path opacity="0.4" d="M8.43218 15.1768H15.7482C15.8682 15.1768 15.987 15.2004 16.0979 15.2463C16.2087 15.2922 16.3094 15.3595 16.3943 15.4444C16.4791 15.5292 16.5464 15.6299 16.5924 15.7408C16.6383 15.8516 16.6619 15.9704 16.6619 16.0904V16.1971C16.6619 16.3171 16.6383 16.436 16.5923 16.5468C16.5464 16.6577 16.4791 16.7585 16.3942 16.8433C16.3094 16.9282 16.2086 16.9955 16.0978 17.0414C15.9869 17.0874 15.868 17.111 15.748 17.111H8.43218C8.31217 17.111 8.19333 17.0874 8.08245 17.0414C7.97157 16.9955 7.87083 16.9282 7.78596 16.8433C7.7011 16.7585 7.63379 16.6577 7.58786 16.5468C7.54194 16.436 7.51831 16.3171 7.51831 16.1971V16.0906C7.51831 15.9706 7.54195 15.8518 7.58787 15.7409C7.6338 15.63 7.70111 15.5293 7.78598 15.4444C7.87084 15.3596 7.97158 15.2922 8.08246 15.2463C8.19333 15.2004 8.31217 15.1768 8.43218 15.1768Z" fill="#007FFF"/>
<path opacity="0.4" d="M8.43201 19.0479H15.7482C15.9905 19.0479 16.2229 19.1441 16.3943 19.3155C16.5656 19.4868 16.6619 19.7192 16.6619 19.9615V20.0682C16.6619 20.3106 16.5656 20.543 16.3942 20.7144C16.2228 20.8858 15.9904 20.982 15.748 20.982H8.43218C8.31217 20.982 8.19333 20.9584 8.08246 20.9125C7.97158 20.8666 7.87084 20.7993 7.78598 20.7144C7.70111 20.6295 7.6338 20.5288 7.58787 20.4179C7.54195 20.307 7.51831 20.1882 7.51831 20.0682V19.9615C7.51831 19.8415 7.54195 19.7227 7.58786 19.6119C7.63378 19.501 7.70109 19.4003 7.78593 19.3154C7.87078 19.2306 7.9715 19.1633 8.08235 19.1174C8.19321 19.0715 8.31202 19.0478 8.43201 19.0479V19.0479Z" fill="#007FFF"/>
<path opacity="0.4" d="M8.43218 22.9326H15.7482C15.8682 22.9326 15.987 22.9562 16.0979 23.0022C16.2087 23.0481 16.3095 23.1154 16.3943 23.2002C16.4791 23.2851 16.5464 23.3858 16.5924 23.4966C16.6383 23.6075 16.6619 23.7263 16.6619 23.8463V23.953C16.6619 24.1953 16.5656 24.4278 16.3942 24.5992C16.2229 24.7705 15.9904 24.8668 15.7481 24.8668H8.43218C8.31217 24.8668 8.19334 24.8432 8.08246 24.7973C7.97158 24.7513 7.87084 24.684 7.78598 24.5992C7.70112 24.5143 7.6338 24.4136 7.58787 24.3027C7.54195 24.1918 7.51831 24.073 7.51831 23.953V23.8465C7.51831 23.7265 7.54195 23.6076 7.58787 23.4967C7.6338 23.3859 7.70111 23.2851 7.78598 23.2003C7.87084 23.1154 7.97158 23.0481 8.08246 23.0022C8.19333 22.9562 8.31217 22.9326 8.43218 22.9326Z" fill="#007FFF"/>
<path opacity="0.4" d="M8.43218 26.8037H15.7482C15.8682 26.8037 15.987 26.8273 16.0979 26.8733C16.2087 26.9192 16.3095 26.9865 16.3943 27.0713C16.4791 27.1562 16.5464 27.2569 16.5924 27.3677C16.6383 27.4786 16.6619 27.5974 16.6619 27.7174V27.8242C16.6619 27.9442 16.6383 28.063 16.5924 28.1739C16.5464 28.2847 16.4791 28.3855 16.3943 28.4703C16.3095 28.5551 16.2087 28.6224 16.0979 28.6684C15.987 28.7143 15.8682 28.7379 15.7482 28.7379H8.43218C8.31217 28.7379 8.19334 28.7143 8.08246 28.6684C7.97159 28.6224 7.87084 28.5551 7.78598 28.4703C7.70112 28.3854 7.63381 28.2847 7.58788 28.1738C7.54195 28.0629 7.51831 27.9441 7.51831 27.8241V27.7176C7.51831 27.5976 7.54194 27.4787 7.58787 27.3678C7.6338 27.257 7.70111 27.1562 7.78597 27.0714C7.87083 26.9865 7.97158 26.9192 8.08245 26.8733C8.19333 26.8273 8.31217 26.8037 8.43218 26.8037Z" fill="#007FFF"/>
<path opacity="0.4" d="M8.43218 30.6807H15.7482C15.8682 30.6807 15.987 30.7043 16.0979 30.7502C16.2087 30.7961 16.3095 30.8634 16.3943 30.9483C16.4791 31.0331 16.5464 31.1338 16.5924 31.2447C16.6383 31.3555 16.6619 31.4743 16.6619 31.5943V31.7012C16.6619 31.8212 16.6383 31.94 16.5924 32.0508C16.5464 32.1617 16.4791 32.2624 16.3943 32.3473C16.3095 32.4321 16.2087 32.4994 16.0979 32.5453C15.987 32.5912 15.8682 32.6149 15.7482 32.6149H8.43218C8.31217 32.6149 8.19334 32.5912 8.08246 32.5453C7.97158 32.4994 7.87084 32.4321 7.78598 32.3472C7.70112 32.2624 7.6338 32.1616 7.58787 32.0507C7.54195 31.9399 7.51831 31.821 7.51831 31.701V31.5945C7.51831 31.3521 7.61459 31.1197 7.78597 30.9483C7.95735 30.777 8.18979 30.6807 8.43215 30.6807L8.43218 30.6807Z" fill="#007FFF"/>
<path opacity="0.4" d="M19.8424 15.1768H27.1582C27.4006 15.1768 27.633 15.273 27.8044 15.4444C27.9757 15.6158 28.072 15.8482 28.072 16.0906V16.1971C28.072 16.3171 28.0484 16.436 28.0025 16.5468C27.9566 16.6577 27.8892 16.7585 27.8044 16.8433C27.7195 16.9282 27.6188 16.9955 27.5079 17.0414C27.397 17.0874 27.2782 17.111 27.1582 17.111H19.8421C19.7222 17.111 19.6033 17.0874 19.4925 17.0414C19.3816 16.9955 19.2809 16.9282 19.1961 16.8434C19.1112 16.7585 19.0439 16.6578 18.998 16.547C18.9521 16.4361 18.9285 16.3173 18.9285 16.1973V16.0906C18.9285 15.9706 18.9521 15.8518 18.998 15.7409C19.0439 15.63 19.1113 15.5293 19.1961 15.4444C19.281 15.3596 19.3817 15.2922 19.4926 15.2463C19.6035 15.2004 19.7223 15.1768 19.8424 15.1768V15.1768Z" fill="#007FFF"/>
<path opacity="0.4" d="M19.8422 19.0479H27.1584C27.4007 19.0479 27.6331 19.1441 27.8044 19.3155C27.9758 19.4868 28.072 19.7192 28.072 19.9615V20.0682C28.072 20.3106 27.9757 20.543 27.8044 20.7144C27.633 20.8858 27.4006 20.982 27.1582 20.982H19.8421C19.7222 20.982 19.6033 20.9584 19.4925 20.9125C19.3816 20.8666 19.2809 20.7993 19.1961 20.7144C19.1112 20.6296 19.0439 20.5289 18.998 20.418C18.9521 20.3072 18.9285 20.1884 18.9285 20.0684V19.9615C18.9285 19.8415 18.9521 19.7227 18.998 19.6119C19.0439 19.501 19.1112 19.4003 19.1961 19.3155C19.2809 19.2306 19.3816 19.1633 19.4925 19.1174C19.6033 19.0715 19.7222 19.0479 19.8421 19.0479H19.8422Z" fill="#007FFF"/>
<path fill-rule="evenodd" clip-rule="evenodd" d="M11.1365 41.5889C10.9009 41.5897 10.6647 41.5472 10.4424 41.4609C10.2473 41.3852 10.0626 41.2756 9.90073 41.133L2.65782 35.9571L2.63687 35.9403C2.436 35.7798 2.26704 35.5735 2.15279 35.3297C2.04336 35.0962 1.98934 34.839 1.99928 34.577L1.99928 11.9469L1.99928 11.9442C2.00054 11.4718 2.10914 11.0086 2.31382 10.5825C2.51821 10.1569 2.81243 9.78049 3.17186 9.47038C3.53102 9.16048 3.94974 8.92146 4.40111 8.76132C4.85141 8.60157 5.32972 8.52184 5.80973 8.52441L22.073 8.52441C22.6253 8.52441 23.073 8.97213 23.073 9.52441C23.073 10.0767 22.6253 10.5244 22.073 10.5244L5.80077 10.5244C5.54744 10.5229 5.29868 10.565 5.06983 10.6462C4.841 10.7274 4.64098 10.8444 4.47837 10.9846C4.31601 11.1247 4.1957 11.2838 4.11664 11.4484C4.03806 11.612 3.9999 11.7814 3.99928 11.9483L3.99928 34.4575L11.1769 39.5868L11.179 39.5889L18.073 39.5889C18.6253 39.5889 19.073 40.0366 19.073 40.5889C19.073 41.1411 18.6253 41.5889 18.073 41.5889L11.1365 41.5889Z" fill="#007FFF"/>
</svg>
