<svg width="46" height="46" viewBox="0 0 46 46" fill="none" xmlns="http://www.w3.org/2000/svg">
<path opacity="0.2" fill-rule="evenodd" clip-rule="evenodd" d="M14.3074 34.1329L14.2892 34.1328C14.1089 34.1707 13.906 34.1367 13.7506 34.0063L6.68168 28.0739C6.61284 28.0161 6.56656 27.9505 6.5403 27.8821C6.50276 27.8389 6.47146 27.7919 6.44724 27.7421C6.40319 27.6515 6.38357 27.5538 6.3898 27.4562L6.3898 7.27098C6.39063 6.97102 6.46206 6.67416 6.59999 6.39744C6.73793 6.12072 6.93965 5.86959 7.19356 5.65849C7.44748 5.44738 7.74859 5.28045 8.07959 5.16729C8.41061 5.05413 8.76499 4.99697 9.1224 4.99908L31.7094 4.99908C32.4274 4.99908 33.116 5.23844 33.6237 5.6645C34.1313 6.09057 34.4166 6.66843 34.4166 7.27098V8.75301C36.6411 10.0793 38.1791 12.745 38.2457 15.8362C38.2429 15.9103 38.2374 15.9836 38.2294 16.056C38.2402 16.1599 38.2457 16.2657 38.2457 16.3729V18.338C38.2457 18.524 38.2291 18.7056 38.1974 18.8806H40.0772C41.4563 18.8806 42.5743 19.9637 42.5743 21.2997V25.9133C42.5743 26.1038 42.5516 26.2892 42.5086 26.467C41.9207 31.8562 37.2184 36.0567 31.5016 36.0656H31.4654C29.1118 36.0619 26.9302 35.3478 25.1369 34.1329L14.3074 34.1329Z" fill="#007FFF"/>
<path d="M3.83479 34.6336L11.1059 39.8297C11.1813 39.9037 11.2741 39.9629 11.3779 40.0032C11.4818 40.0435 11.5943 40.064 11.708 40.0634L29.5617 40.0634C29.9292 40.0664 30.2937 40.0059 30.6342 39.8856C30.9747 39.7652 31.2844 39.5872 31.5455 39.362C31.8065 39.1367 32.0138 38.8686 32.1552 38.5732C32.2966 38.2778 32.3694 37.961 32.3694 37.6409L32.3694 11.4214C32.3694 10.7789 32.0763 10.1627 31.5547 9.70844C31.0331 9.25414 30.3256 8.99892 29.5879 8.99892L6.38064 8.99892C6.01342 8.99667 5.6493 9.05762 5.3092 9.17828C4.9691 9.29894 4.65973 9.47693 4.39885 9.70203C4.13796 9.92712 3.93069 10.1949 3.78897 10.49C3.64725 10.785 3.57386 11.1015 3.57301 11.4214L3.57301 34.075C3.56661 34.1791 3.58676 34.2832 3.63202 34.3798C3.67728 34.4764 3.74653 34.5631 3.83479 34.6336Z" fill="#F3F3F3"/>
<path fill-rule="evenodd" clip-rule="evenodd" d="M22.1906 20.723C22.2801 16.2428 25.1981 12.6455 28.7847 12.6455C32.3713 12.6455 35.2894 16.2428 35.3788 20.723C35.3762 20.798 35.371 20.8722 35.3635 20.9454C35.3736 21.0506 35.3788 21.1577 35.3788 21.2664V23.2558C35.3788 24.7208 34.4338 25.9084 33.268 25.9084H24.2972C23.1314 25.9084 22.1864 24.7208 22.1864 23.2558V21.2664C22.1864 21.1504 22.1923 21.0362 22.2038 20.9242C22.1974 20.8578 22.193 20.7907 22.1906 20.723Z" fill="#F3F3F3"/>
<path fill-rule="evenodd" clip-rule="evenodd" d="M33.4564 20.1743L33.4813 19.9414C33.4822 19.9328 33.483 19.9241 33.4837 19.9154C33.3702 16.0743 30.8382 13.6974 28.5075 13.6974C26.1767 13.6974 23.6447 16.0743 23.5312 19.9154C23.5318 19.9217 23.5323 19.9279 23.5329 19.9342L23.5562 20.1672L23.5314 20.4C23.5273 20.4381 23.5251 20.4781 23.5251 20.5199V22.6152C23.5251 22.8871 23.6175 23.0679 23.6831 23.1471C23.6845 23.1488 23.6858 23.1504 23.6871 23.1519H33.3232C33.3245 23.1504 33.3259 23.1488 33.3273 23.1471C33.3928 23.0679 33.4852 22.8871 33.4852 22.6152V20.5199C33.4852 20.4808 33.4797 20.4072 33.4797 20.4072L33.4564 20.1743ZM21.2848 19.9476C21.3827 15.2291 24.5789 11.4404 28.5075 11.4404C32.436 11.4404 35.6322 15.2291 35.7302 19.9476C35.7273 20.0266 35.7216 20.1048 35.7134 20.1819C35.7245 20.2927 35.7302 20.4055 35.7302 20.5199V22.6152C35.7302 24.1581 34.695 25.4089 33.4182 25.4089H23.5922C22.3153 25.4089 21.2802 24.1581 21.2802 22.6152V20.5199C21.2802 20.3978 21.2866 20.2775 21.2992 20.1595C21.2922 20.0896 21.2874 20.019 21.2848 19.9476Z" fill="#007FFF"/>
<path fill-rule="evenodd" clip-rule="evenodd" d="M19.9591 23.1943C18.5421 23.1943 17.3934 24.3492 17.3934 25.7737V29.7636C17.3908 29.864 17.3895 29.9647 17.3895 30.0658C17.3895 30.1668 17.3908 30.2675 17.3934 30.3679V30.693C17.3934 30.8725 17.4116 31.0477 17.4464 31.2168C18.02 36.9952 22.8659 41.5086 28.7624 41.5181H28.7996C34.6735 41.5086 39.5048 37.0298 40.1089 31.2834C40.153 31.0938 40.1764 30.8962 40.1764 30.693V25.7737C40.1764 24.3492 39.0277 23.1943 37.6107 23.1943H19.9591Z" fill="#F3F3F3"/>
<path fill-rule="evenodd" clip-rule="evenodd" d="M18.9915 29.7844L18.991 29.8052C18.9887 29.8918 18.9876 29.9786 18.9876 30.0658C18.9876 30.1529 18.9887 30.2398 18.991 30.3263L18.9915 30.3471V30.693C18.9915 30.7628 18.9986 30.8293 19.0115 30.8923L19.0283 30.9741L19.0365 31.0573C19.5295 36.0229 23.6961 39.9028 28.7639 39.9115C28.7643 39.9115 28.7646 39.9115 28.7649 39.9115H28.7971C28.7974 39.9115 28.7978 39.9115 28.7981 39.9115C33.8464 39.9028 38.0005 36.0527 38.5197 31.1145L38.5302 31.0148L38.5529 30.9171C38.5693 30.8467 38.5783 30.772 38.5783 30.693V25.7737C38.5783 25.2365 38.1451 24.8009 37.6107 24.8009H19.9591C19.4247 24.8009 18.9915 25.2365 18.9915 25.7737V29.7844ZM28.7996 41.5181H28.7624C22.8659 41.5086 18.02 36.9952 17.4464 31.2168C17.4116 31.0477 17.3934 30.8725 17.3934 30.693V30.3679C17.3908 30.2675 17.3895 30.1668 17.3895 30.0658C17.3895 29.9647 17.3908 29.864 17.3934 29.7636V25.7737C17.3934 24.3492 18.5421 23.1943 19.9591 23.1943H37.6107C39.0277 23.1943 40.1764 24.3492 40.1764 25.7737V30.693C40.1764 30.8962 40.153 31.0938 40.1089 31.2834C39.5048 37.0298 34.6735 41.5086 28.7996 41.5181Z" fill="#007FFF"/>
<path fill-rule="evenodd" clip-rule="evenodd" d="M17.1669 25.7733C17.1669 24.225 18.4157 22.9678 19.9587 22.9678H37.6103C39.1533 22.9678 40.4021 24.225 40.4021 25.7733V30.6926C40.4021 30.9082 40.3779 31.1183 40.3319 31.3204C39.7097 37.173 34.7865 41.7342 28.7996 41.7438H28.762C22.7512 41.7342 17.8122 37.1365 17.222 31.2502C17.1858 31.0698 17.1669 30.8833 17.1669 30.6926V30.3704C17.1643 30.269 17.163 30.1673 17.163 30.0654C17.163 29.9634 17.1643 29.8617 17.1669 29.7603V25.7733ZM19.9587 23.4201C18.6677 23.4201 17.6192 24.4725 17.6192 25.7733V29.7691C17.6166 29.8675 17.6153 29.9663 17.6153 30.0654C17.6153 30.1644 17.6166 30.2632 17.6191 30.3616L17.6192 30.3675L17.6192 30.6926C17.6192 30.8567 17.6358 31.0167 17.6675 31.171L17.6698 31.1824L17.671 31.1941C18.2334 36.859 22.9841 41.2822 28.7623 41.2915H28.7989C34.5549 41.2823 39.2913 36.8929 39.8836 31.2593L39.885 31.2454L39.8882 31.2317C39.9285 31.0588 39.9498 30.8784 39.9498 30.6926V25.7733C39.9498 24.4725 38.9013 23.4201 37.6103 23.4201H19.9587ZM19.9587 25.0267C19.5503 25.0267 19.2172 25.3598 19.2172 25.7733V29.7899L19.2166 29.8107C19.2144 29.8952 19.2133 29.9801 19.2133 30.0654C19.2133 30.1506 19.2144 30.2355 19.2166 30.3201L19.2173 30.3467L19.2172 30.6926C19.2172 30.7471 19.2227 30.7983 19.2326 30.8464L19.2518 30.9397L19.2612 31.0345C19.7429 35.8867 23.8143 39.6764 28.7639 39.6849L28.7967 39.6849C33.7272 39.6765 37.7871 35.9158 38.2943 31.0905L38.3063 30.9768L38.3322 30.8654C38.3447 30.8117 38.3518 30.7542 38.3518 30.6926V25.7733C38.3518 25.3598 38.0187 25.0267 37.6103 25.0267H19.9587ZM18.7649 25.7733C18.7649 25.1123 19.2982 24.5744 19.9587 24.5744H37.6103C38.2708 24.5744 38.8041 25.1123 38.8041 25.7733V30.6926C38.8041 30.7889 38.793 30.8809 38.7728 30.968L38.7532 31.052L38.7442 31.1378C38.2132 36.1888 33.9641 40.1284 28.7981 40.1372L28.7967 40.1372H28.7645L28.7631 40.1372C23.5772 40.1283 19.3153 36.1584 18.8111 31.0792L18.804 31.0077L18.7895 30.9373C18.7736 30.8595 18.7649 30.7778 18.7649 30.6926V30.3496L18.7645 30.3317C18.7622 30.2432 18.761 30.1544 18.761 30.0654C18.761 29.9763 18.7622 29.8875 18.7645 29.799L18.7649 29.7811V25.7733Z" fill="#007FFF"/>
<path fill-rule="evenodd" clip-rule="evenodd" d="M29.6933 30.2745C30.3704 29.9518 30.8386 29.2584 30.8386 28.455C30.8386 27.3434 29.9423 26.4424 28.8367 26.4424C27.7311 26.4424 26.8348 27.3434 26.8348 28.455C26.8348 29.2572 27.3018 29.9499 27.9774 30.2732V31.6766C27.9774 31.9615 28.2071 32.1925 28.4905 32.1925H29.1801C29.4635 32.1925 29.6933 31.9615 29.6933 31.6766V30.2745Z" fill="#007FFF"/>
<path opacity="0.4" d="M8.4323 15.1768H15.7484C15.8683 15.1768 15.9871 15.2004 16.098 15.2463C16.2088 15.2922 16.3096 15.3595 16.3944 15.4444C16.4793 15.5292 16.5466 15.6299 16.5925 15.7408C16.6384 15.8516 16.662 15.9704 16.662 16.0904V16.1971C16.662 16.3171 16.6384 16.436 16.5925 16.5468C16.5465 16.6577 16.4792 16.7585 16.3944 16.8433C16.3095 16.9282 16.2088 16.9955 16.0979 17.0414C15.987 17.0874 15.8682 17.111 15.7481 17.111H8.4323C8.31229 17.111 8.19345 17.0874 8.08257 17.0414C7.9717 16.9955 7.87095 16.9282 7.78609 16.8433C7.70123 16.7585 7.63391 16.6577 7.58799 16.5468C7.54206 16.436 7.51843 16.3171 7.51843 16.1971V16.0906C7.51843 15.9706 7.54207 15.8518 7.588 15.7409C7.63392 15.63 7.70124 15.5293 7.7861 15.4444C7.87096 15.3596 7.9717 15.2922 8.08258 15.2463C8.19345 15.2004 8.31229 15.1768 8.4323 15.1768Z" fill="#007FFF"/>
<path opacity="0.4" d="M8.43213 19.0479H15.7483C15.9906 19.0479 16.223 19.1441 16.3944 19.3155C16.5657 19.4868 16.662 19.7192 16.662 19.9615V20.0682C16.662 20.3106 16.5657 20.543 16.3943 20.7144C16.223 20.8858 15.9905 20.982 15.7481 20.982H8.4323C8.31229 20.982 8.19345 20.9584 8.08258 20.9125C7.9717 20.8666 7.87096 20.7993 7.7861 20.7144C7.70124 20.6295 7.63392 20.5288 7.588 20.4179C7.54207 20.307 7.51843 20.1882 7.51843 20.0682V19.9615C7.51843 19.8415 7.54207 19.7227 7.58799 19.6119C7.6339 19.501 7.70121 19.4003 7.78605 19.3154C7.8709 19.2306 7.97162 19.1633 8.08248 19.1174C8.19333 19.0715 8.31214 19.0478 8.43213 19.0479Z" fill="#007FFF"/>
<path opacity="0.4" d="M8.4323 22.9326H15.7484C15.8683 22.9326 15.9871 22.9562 16.098 23.0022C16.2088 23.0481 16.3096 23.1154 16.3944 23.2002C16.4793 23.2851 16.5466 23.3858 16.5925 23.4966C16.6384 23.6075 16.662 23.7263 16.662 23.8463V23.953C16.662 24.1953 16.5657 24.4278 16.3944 24.5992C16.223 24.7705 15.9905 24.8668 15.7482 24.8668H8.4323C8.31229 24.8668 8.19346 24.8432 8.08258 24.7973C7.97171 24.7513 7.87096 24.684 7.7861 24.5992C7.70124 24.5143 7.63392 24.4136 7.588 24.3027C7.54207 24.1918 7.51843 24.073 7.51843 23.953V23.8465C7.51843 23.7265 7.54207 23.6076 7.588 23.4967C7.63392 23.3859 7.70124 23.2851 7.7861 23.2003C7.87096 23.1154 7.9717 23.0481 8.08258 23.0022C8.19345 22.9562 8.31229 22.9326 8.4323 22.9326Z" fill="#007FFF"/>
<path opacity="0.4" d="M8.4323 26.8037H15.7484C15.8683 26.8037 15.9871 26.8273 16.098 26.8733C16.2088 26.9192 16.3096 26.9865 16.3944 27.0713C16.4793 27.1562 16.5466 27.2569 16.5925 27.3677C16.6384 27.4786 16.662 27.5974 16.662 27.7174V27.8242C16.662 27.9442 16.6384 28.063 16.5925 28.1739C16.5466 28.2847 16.4793 28.3855 16.3944 28.4703C16.3096 28.5551 16.2088 28.6224 16.098 28.6684C15.9871 28.7143 15.8683 28.7379 15.7484 28.7379H8.4323C8.31229 28.7379 8.19346 28.7143 8.08258 28.6684C7.97171 28.6224 7.87096 28.5551 7.7861 28.4703C7.70124 28.3854 7.63393 28.2847 7.588 28.1738C7.54207 28.0629 7.51843 27.9441 7.51843 27.8241V27.7176C7.51843 27.5976 7.54207 27.4787 7.58799 27.3678C7.63392 27.257 7.70123 27.1562 7.78609 27.0714C7.87095 26.9865 7.9717 26.9192 8.08258 26.8733C8.19345 26.8273 8.31229 26.8037 8.4323 26.8037Z" fill="#007FFF"/>
<path opacity="0.4" d="M8.4323 30.6807H15.7484C15.8683 30.6807 15.9871 30.7043 16.098 30.7502C16.2088 30.7961 16.3096 30.8634 16.3944 30.9483C16.4793 31.0331 16.5466 31.1338 16.5925 31.2447C16.6384 31.3555 16.662 31.4743 16.662 31.5943V31.7012C16.662 31.8212 16.6384 31.94 16.5925 32.0508C16.5466 32.1617 16.4793 32.2624 16.3944 32.3473C16.3096 32.4321 16.2088 32.4994 16.098 32.5453C15.9871 32.5912 15.8683 32.6149 15.7484 32.6149H8.4323C8.31229 32.6149 8.19346 32.5912 8.08258 32.5453C7.97171 32.4994 7.87096 32.4321 7.7861 32.3472C7.70124 32.2624 7.63392 32.1616 7.588 32.0507C7.54207 31.9399 7.51843 31.821 7.51843 31.701V31.5945C7.51843 31.3521 7.61471 31.1197 7.78609 30.9483C7.95747 30.777 8.18991 30.6807 8.43227 30.6807L8.4323 30.6807Z" fill="#007FFF"/>
<path opacity="0.4" d="M19.8425 15.1768H27.1583C27.4007 15.1768 27.6331 15.273 27.8045 15.4444C27.9759 15.6158 28.0721 15.8482 28.0721 16.0906V16.1971C28.0722 16.3171 28.0485 16.436 28.0026 16.5468C27.9567 16.6577 27.8894 16.7585 27.8045 16.8433C27.7196 16.9282 27.6189 16.9955 27.508 17.0414C27.3972 17.0874 27.2783 17.111 27.1583 17.111H19.8423C19.7223 17.111 19.6035 17.0874 19.4926 17.0414C19.3818 16.9955 19.281 16.9282 19.1962 16.8434C19.1114 16.7585 19.0441 16.6578 18.9981 16.547C18.9522 16.4361 18.9286 16.3173 18.9286 16.1973V16.0906C18.9286 15.9706 18.9522 15.8518 18.9981 15.7409C19.0441 15.63 19.1114 15.5293 19.1962 15.4444C19.2811 15.3596 19.3819 15.2922 19.4927 15.2463C19.6036 15.2004 19.7225 15.1768 19.8425 15.1768Z" fill="#007FFF"/>
<path opacity="0.4" d="M19.8423 19.0479H27.1585C27.4008 19.0479 27.6332 19.1441 27.8045 19.3155C27.9759 19.4868 28.0721 19.7192 28.0721 19.9615V20.0682C28.0721 20.3106 27.9759 20.543 27.8045 20.7144C27.6331 20.8858 27.4007 20.982 27.1583 20.982H19.8423C19.7223 20.982 19.6035 20.9584 19.4926 20.9125C19.3818 20.8666 19.281 20.7993 19.1962 20.7144C19.1114 20.6296 19.0441 20.5289 18.9981 20.418C18.9522 20.3072 18.9286 20.1884 18.9286 20.0684V19.9615C18.9286 19.8415 18.9522 19.7227 18.9981 19.6119C19.0441 19.501 19.1114 19.4003 19.1962 19.3155C19.281 19.2306 19.3818 19.1633 19.4926 19.1174C19.6035 19.0715 19.7223 19.0479 19.8423 19.0479H19.8423Z" fill="#007FFF"/>
<path fill-rule="evenodd" clip-rule="evenodd" d="M10.3997 41.571C10.636 41.6628 10.8868 41.7079 11.1368 41.707ZM11.1368 41.707L18.0731 41.707C18.6906 41.707 19.1913 41.2064 19.1913 40.5888C19.1913 39.9712 18.6906 39.4706 18.0731 39.4706L11.2177 39.4706L4.11756 34.3966L4.11756 11.9486C4.11813 11.7997 4.15214 11.6476 4.22327 11.4995C4.29492 11.3504 4.40495 11.2041 4.55567 11.0741C4.70665 10.9438 4.89375 10.8341 5.10942 10.7576C5.32512 10.681 5.56024 10.6411 5.80011 10.6426L22.0731 10.6426C22.6906 10.6426 23.1913 10.1419 23.1913 9.52435C23.1913 8.90677 22.6906 8.40612 22.0731 8.40612L5.81051 8.40612C5.31704 8.40347 4.8251 8.48541 4.36164 8.64984C3.89711 8.81464 3.46547 9.06088 3.09468 9.3808C2.72362 9.70096 2.41911 10.0903 2.20732 10.5312C1.99519 10.9728 1.88242 11.4534 1.88112 11.9438L1.88111 11.9468L1.88111 34.5748C1.87085 34.8551 1.92885 35.1302 2.0458 35.3798C2.16821 35.641 2.34895 35.8615 2.56315 36.0326L2.58657 36.0513L9.82724 41.2257C9.99891 41.3759 10.194 41.4912 10.3997 41.571" fill="#007FFF"/>
</svg>
