<svg width="161" height="161" viewBox="0 0 161 161" fill="none" xmlns="http://www.w3.org/2000/svg">
<path d="M80.4101 160.82C124.593 160.82 160.41 125.003 160.41 80.8203C160.41 36.6375 124.593 0.820312 80.4101 0.820312C36.2273 0.820312 0.410156 36.6375 0.410156 80.8203C0.410156 125.003 36.2273 160.82 80.4101 160.82Z" fill="#F0F8FF"/>
<path d="M146.937 124.8C141.849 115.67 143.455 90.4634 132.883 69.7646C124.371 53.1185 109.137 39.8577 94.5996 40.0415H94.3964C93.3201 40.1809 92.3219 40.6782 91.5625 41.4536C91.4575 41.5636 91.328 41.6472 91.1846 41.6978C91.0412 41.7483 90.8879 41.7644 90.7372 41.7446C90.5864 41.7248 90.4425 41.6697 90.317 41.5839C90.1915 41.4981 90.088 41.3839 90.015 41.2505C86.8231 35.776 83.7763 31.8683 77.054 30.9108C76.8874 30.89 76.7183 30.9107 76.5617 30.9712C76.4052 31.0318 76.2661 31.1302 76.1569 31.2576C76.0476 31.385 75.9716 31.5376 75.9357 31.7015C75.8999 31.8655 75.9053 32.0358 75.9513 32.1972C76.1641 32.9033 76.3575 33.5707 76.5316 34.1317C76.5939 34.3059 76.6048 34.4944 76.5632 34.6747C76.5215 34.855 76.429 35.0196 76.2967 35.1489C76.1643 35.2782 75.9976 35.3669 75.8164 35.4043C75.6351 35.4417 75.4471 35.4264 75.2743 35.3601L66.0178 32.4584C65.8349 32.3876 65.6347 32.3742 65.444 32.4198C65.2532 32.4654 65.0809 32.5679 64.9497 32.7137C64.8186 32.8596 64.7349 33.0418 64.7097 33.2363C64.6845 33.4308 64.7191 33.6284 64.8088 33.8028C66.2306 37.0914 67.3043 39.6643 68.5037 42.1791C68.9231 42.9988 69.4254 43.7734 70.0028 44.4908L44.081 24.2465C43.8988 24.058 43.6492 23.9495 43.3871 23.945C43.125 23.9404 42.8718 24.0402 42.6833 24.2223C42.4947 24.4045 42.3862 24.6541 42.3817 24.9162C42.3772 25.1783 42.4769 25.4315 42.6591 25.62L60.7271 50.3328C60.8804 50.5308 60.9509 50.7806 60.9239 51.0295C60.8968 51.2785 60.7742 51.5072 60.5819 51.6676C59.1408 52.9347 55.7457 55.9332 53.4244 57.8193C52.2347 58.7865 50.5227 60.4888 50.7162 61.6011C51.8285 69.0101 47.2631 73.6626 43.2491 78.7986C38.1517 85.3371 33.3929 92.1754 28.5181 98.9074C26.3225 101.935 26.9318 104.537 30.114 106.326C34.0919 108.699 38.2175 110.815 42.4657 112.661C47.9692 114.876 52.0509 112.12 53.4437 106.326C53.8207 104.549 54.4735 102.842 55.3782 101.267C60.3401 93.2104 67.43 91.982 74.9067 94.4968L75.0614 94.5645C77.8664 95.9186 79.414 97.4662 80.1297 99.0428C81.6966 102.525 79.2786 106.355 77.0346 109.566L76.0674 110.959C70.5865 117.437 66.6676 125.087 64.6132 133.32C62.5588 141.553 62.4238 150.147 64.2188 158.441C64.2564 158.637 64.3537 158.816 64.4974 158.955C64.6411 159.093 64.8242 159.184 65.0215 159.215C80.4528 162.175 96.4122 160.585 110.956 154.638C125.5 148.691 138.001 138.644 146.937 125.719C147.013 125.578 147.053 125.42 147.053 125.26C147.053 125.099 147.013 124.941 146.937 124.8Z" fill="#72A2FF"/>
<path d="M115.995 62.0659C109.611 80.2499 91.1175 93.0174 80.12 99.1787C81.6869 102.661 79.2689 106.491 77.0249 109.702C115.618 85.444 114.186 76.3423 115.995 62.0659Z" fill="#5185EB"/>
<path d="M72.7983 54.1631C71.9568 54.3275 69.2969 56.7359 66.9949 58.3995C66.3242 58.8862 65.8552 59.6021 65.6769 60.4114C65.4986 61.2207 65.6235 62.0674 66.0277 62.7908C67.6535 62.7953 69.2447 62.3209 70.6027 61.427C71.6183 60.7469 72.4454 59.8209 73.0068 58.7352C73.5683 57.6494 73.846 56.4393 73.814 55.2174C73.7366 54.608 73.4657 54.0373 72.7983 54.1631Z" fill="white"/>
</svg>
