<svg width="161" height="161" viewBox="0 0 161 161" fill="none" xmlns="http://www.w3.org/2000/svg">
<path d="M80.4101 160.82C124.593 160.82 160.41 125.003 160.41 80.8201C160.41 36.6373 124.593 0.820068 80.4101 0.820068C36.2273 0.820068 0.410156 36.6373 0.410156 80.8201C0.410156 125.003 36.2273 160.82 80.4101 160.82Z" fill=" #2B2F35"/>
<path d="M146.937 124.8C141.849 115.669 143.455 90.4633 132.883 69.7645C124.371 53.1184 109.137 39.8576 94.5996 40.0414H94.3964C93.3201 40.1807 92.3219 40.6781 91.5625 41.4535C91.4575 41.5635 91.328 41.6471 91.1846 41.6977C91.0412 41.7482 90.8879 41.7642 90.7372 41.7444C90.5864 41.7247 90.4425 41.6696 90.317 41.5838C90.1915 41.4979 90.088 41.3837 90.015 41.2504C86.8231 35.7759 83.7763 31.8682 77.054 30.9107C76.8874 30.8898 76.7183 30.9106 76.5617 30.9711C76.4052 31.0316 76.2661 31.13 76.1569 31.2575C76.0476 31.3849 75.9716 31.5374 75.9357 31.7014C75.8999 31.8654 75.9053 32.0357 75.9513 32.1971C76.1641 32.9032 76.3575 33.5705 76.5316 34.1315C76.5939 34.3058 76.6048 34.4943 76.5632 34.6746C76.5215 34.8549 76.429 35.0195 76.2967 35.1488C76.1643 35.2781 75.9976 35.3667 75.8164 35.4042C75.6351 35.4416 75.4471 35.4263 75.2743 35.36L66.0178 32.4582C65.8349 32.3875 65.6347 32.374 65.444 32.4196C65.2532 32.4652 65.0809 32.5678 64.9497 32.7136C64.8186 32.8594 64.7349 33.0417 64.7097 33.2362C64.6845 33.4307 64.7191 33.6283 64.8088 33.8027C66.2306 37.0913 67.3043 39.6641 68.5037 42.1789C68.9231 42.9987 69.4254 43.7733 70.0028 44.4907L44.081 24.2464C43.8988 24.0579 43.6492 23.9494 43.3871 23.9449C43.125 23.9403 42.8718 24.0401 42.6833 24.2222C42.4947 24.4044 42.3862 24.6539 42.3817 24.916C42.3772 25.1782 42.4769 25.4313 42.6591 25.6199L60.7271 50.3327C60.8804 50.5307 60.9509 50.7805 60.9239 51.0294C60.8968 51.2783 60.7742 51.5071 60.5819 51.6675C59.1408 52.9346 55.7457 55.933 53.4244 57.8191C52.2347 58.7864 50.5227 60.4887 50.7162 61.601C51.8285 69.01 47.2631 73.6625 43.2491 78.7985C38.1517 85.337 33.3929 92.1753 28.5181 98.9073C26.3225 101.935 26.9318 104.537 30.114 106.326C34.0919 108.699 38.2175 110.815 42.4657 112.661C47.9692 114.876 52.0509 112.12 53.4437 106.326C53.8207 104.549 54.4735 102.842 55.3782 101.267C60.3401 93.2103 67.43 91.9819 74.9067 94.4967L75.0614 94.5644C77.8664 95.9185 79.414 97.4661 80.1297 99.0427C81.6966 102.525 79.2786 106.355 77.0346 109.566L76.0674 110.959C70.5865 117.437 66.6676 125.087 64.6132 133.32C62.5588 141.553 62.4238 150.147 64.2188 158.441C64.2564 158.637 64.3537 158.816 64.4974 158.955C64.6411 159.093 64.8242 159.184 65.0215 159.214C80.4528 162.175 96.4122 160.585 110.956 154.638C125.5 148.691 138.001 138.644 146.937 125.719C147.013 125.578 147.053 125.42 147.053 125.26C147.053 125.099 147.013 124.941 146.937 124.8Z" fill="#FD565F"/>
<path d="M115.994 62.0654C109.611 80.2494 91.117 93.0169 80.1195 99.1782C81.6864 102.66 79.2684 106.491 77.0244 109.702C115.617 85.4435 114.186 76.3418 115.994 62.0654Z" fill="#B63D4A"/>
<path d="M72.7983 54.1631C71.9568 54.3275 69.2969 56.7359 66.9949 58.3995C66.3242 58.8862 65.8552 59.6021 65.6769 60.4114C65.4986 61.2207 65.6235 62.0674 66.0277 62.7908C67.6535 62.7953 69.2447 62.3209 70.6027 61.427C71.6183 60.7469 72.4454 59.8209 73.0068 58.7352C73.5683 57.6494 73.846 56.4393 73.814 55.2174C73.7366 54.608 73.4657 54.0373 72.7983 54.1631Z" fill="white"/>
</svg>
