<svg viewBox="0 0 160 160" fill="none" xmlns="http://www.w3.org/2000/svg">
<path d="M80 160C124.183 160 160 124.183 160 80C160 35.8172 124.183 0 80 0C35.8172 0 0 35.8172 0 80C0 124.183 35.8172 160 80 160Z" fill="#F0F8FF"/>
<path d="M146.527 123.98C141.439 114.849 143.044 89.6432 132.473 68.9444C123.961 52.2983 108.727 39.0375 94.1895 39.2213H93.9863C92.9099 39.3606 91.9118 39.858 91.1524 40.6334C91.0473 40.7434 90.9178 40.827 90.7744 40.8776C90.631 40.9281 90.4778 40.9441 90.327 40.9243C90.1763 40.9046 90.0323 40.8495 89.9068 40.7637C89.7813 40.6778 89.6779 40.5636 89.6048 40.4303C86.4129 34.9558 83.3661 31.0481 76.6438 30.0906C76.4773 30.0697 76.3081 30.0905 76.1516 30.151C75.995 30.2115 75.856 30.3099 75.7467 30.4374C75.6375 30.5648 75.5614 30.7173 75.5256 30.8813C75.4897 31.0453 75.4951 31.2156 75.5412 31.377C75.754 32.0831 75.9474 32.7504 76.1215 33.3114C76.1837 33.4857 76.1947 33.6742 76.153 33.8545C76.1114 34.0348 76.0189 34.1994 75.8865 34.3287C75.7542 34.458 75.5874 34.5466 75.4062 34.5841C75.225 34.6215 75.0369 34.6062 74.8641 34.5399L65.6076 31.6381C65.4247 31.5674 65.2246 31.5539 65.0338 31.5995C64.8431 31.6451 64.6707 31.7477 64.5396 31.8935C64.4084 32.0393 64.3247 32.2216 64.2995 32.4161C64.2744 32.6106 64.3089 32.8082 64.3986 32.9826C65.8204 36.2712 66.8941 38.844 68.0935 41.3588C68.513 42.1786 69.0153 42.9532 69.5926 43.6706L43.6708 23.4263C43.4887 23.2378 43.239 23.1293 42.9769 23.1248C42.7148 23.1202 42.4616 23.22 42.2731 23.4021C42.0846 23.5843 41.9761 23.8338 41.9715 24.0959C41.967 24.3581 42.0668 24.6112 42.2489 24.7998L60.3169 49.5126C60.4702 49.7106 60.5408 49.9604 60.5137 50.2093C60.4867 50.4582 60.364 50.687 60.1718 50.8474C58.7306 52.1145 55.3356 55.1129 53.0142 56.999C51.8245 57.9663 50.1126 59.6686 50.306 60.7809C51.4184 68.1899 46.8529 72.8424 42.8389 77.9784C37.7416 84.5169 32.9828 91.3552 28.1079 98.0872C25.9123 101.115 26.5217 103.716 29.7039 105.506C33.6817 107.879 37.8074 109.995 42.0555 111.841C47.5591 114.056 51.6408 111.3 53.0336 105.506C53.4106 103.729 54.0633 102.022 54.9681 100.447C59.93 92.3902 67.0199 91.1618 74.4966 93.6766L74.6513 93.7443C77.4562 95.0984 79.0038 96.646 79.7196 98.2226C81.2865 101.705 78.8684 105.535 76.6245 108.746L75.6572 110.139C70.1764 116.617 66.2575 124.267 64.2031 132.5C62.1487 140.732 62.0137 149.327 63.8086 157.62C63.8462 157.817 63.9435 157.996 64.0872 158.135C64.231 158.273 64.4141 158.364 64.6114 158.394C80.0427 161.355 96.002 159.765 110.546 153.818C125.09 147.871 137.591 137.824 146.527 124.899C146.603 124.758 146.643 124.6 146.643 124.439C146.643 124.279 146.603 124.121 146.527 123.98Z" fill="#72A2FF"/>
<path d="M115.584 61.2454C109.2 79.4294 90.7068 92.1969 79.7094 98.3582C81.2763 101.84 78.8582 105.67 76.6143 108.882C115.207 84.6234 113.775 75.5217 115.584 61.2454Z" fill="#5185EB"/>
<path d="M72.3882 53.343C71.5467 53.5074 68.8868 55.9158 66.5848 57.5795C65.914 58.0662 65.445 58.782 65.2667 59.5913C65.0885 60.4007 65.2133 61.2473 65.6175 61.9708C67.2434 61.9752 68.8345 61.5009 70.1925 60.6069C71.2082 59.9268 72.0352 59.0008 72.5967 57.9151C73.1582 56.8294 73.4359 55.6192 73.4038 54.3973C73.3264 53.7879 73.0556 53.2172 72.3882 53.343Z" fill="white"/>
</svg>
