<svg width="120" height="120" viewBox="0 0 120 120" fill="none" xmlns="http://www.w3.org/2000/svg">
<path d="M60 120C93.1371 120 120 93.1371 120 60C120 26.8629 93.1371 0 60 0C26.8629 0 0 26.8629 0 60C0 93.1371 26.8629 120 60 120Z" fill="#25282D"/>
<path d="M109.895 92.9853C106.079 86.1373 107.283 67.2327 99.3545 51.7086C92.9707 39.224 81.5453 29.2784 70.6421 29.4162H70.4897C69.6825 29.5208 68.9339 29.8938 68.3643 30.4754C68.2855 30.5578 68.1884 30.6206 68.0808 30.6585C67.9733 30.6964 67.8584 30.7084 67.7453 30.6936C67.6322 30.6787 67.5243 30.6374 67.4301 30.5731C67.336 30.5087 67.2584 30.423 67.2036 30.323C64.8097 26.2171 62.5246 23.2864 57.4829 22.5682C57.358 22.5526 57.2311 22.5682 57.1137 22.6136C56.9963 22.659 56.892 22.7327 56.8101 22.8283C56.7281 22.9239 56.6711 23.0383 56.6442 23.1613C56.6173 23.2843 56.6213 23.412 56.6559 23.533C56.8155 24.0626 56.9606 24.5631 57.0911 24.9839C57.1378 25.1146 57.146 25.256 57.1148 25.3912C57.0835 25.5264 57.0142 25.6498 56.9149 25.7468C56.8156 25.8438 56.6906 25.9103 56.5547 25.9384C56.4188 25.9664 56.2777 25.9549 56.1481 25.9052L49.2057 23.7289C49.0686 23.6759 48.9184 23.6657 48.7754 23.7C48.6323 23.7342 48.5031 23.8111 48.4047 23.9204C48.3063 24.0298 48.2435 24.1665 48.2247 24.3124C48.2058 24.4583 48.2317 24.6064 48.299 24.7372C49.3653 27.2037 50.1706 29.1333 51.0701 31.0194C51.3848 31.6342 51.7615 32.2152 52.1945 32.7532L32.7531 17.57C32.6165 17.4286 32.4293 17.3473 32.2327 17.3439C32.0361 17.3405 31.8462 17.4153 31.7048 17.5519C31.5634 17.6885 31.4821 17.8757 31.4787 18.0723C31.4753 18.2688 31.5501 18.4587 31.6867 18.6001L45.2377 37.1348C45.3527 37.2833 45.4056 37.4706 45.3853 37.6573C45.365 37.844 45.273 38.0155 45.1289 38.1359C44.048 39.0862 41.5017 41.335 39.7607 42.7496C38.8684 43.475 37.5845 44.7517 37.7295 45.586C38.5638 51.1427 35.1397 54.6321 32.1292 58.4841C28.3062 63.388 24.7371 68.5167 21.0809 73.5657C19.4342 75.8363 19.8913 77.7876 22.2779 79.1297C25.2613 80.9095 28.3555 82.4967 31.5416 83.8813C35.6693 85.5425 38.7306 83.475 39.7752 79.1297C40.058 77.7971 40.5475 76.5169 41.2261 75.3357C44.9475 69.2929 50.2649 68.3716 55.8725 70.2577L55.9885 70.3085C58.0922 71.3241 59.2529 72.4848 59.7897 73.6672C60.9649 76.2788 59.1514 79.1515 57.4684 81.5599L56.7429 82.6045C52.6323 87.4627 49.6931 93.2005 48.1523 99.3751C46.6115 105.55 46.5103 111.996 47.8565 118.216C47.8847 118.363 47.9576 118.497 48.0654 118.601C48.1733 118.705 48.3106 118.773 48.4585 118.796C60.032 121.017 72.0015 119.824 82.9095 115.364C93.8174 110.904 103.193 103.368 109.895 93.6745C109.952 93.5686 109.982 93.4502 109.982 93.3299C109.982 93.2096 109.952 93.0912 109.895 92.9853Z" fill="#72A2FF"/>
<path d="M86.6884 45.9336C81.9006 59.5716 68.0304 69.1472 59.7823 73.7682C60.9575 76.3797 59.1439 79.2524 57.4609 81.6608C86.4055 63.4671 85.3319 56.6409 86.6884 45.9336Z" fill="#5185EB"/>
<path d="M54.2911 40.0073C53.66 40.1306 51.6651 41.9369 49.9386 43.1847C49.4355 43.5497 49.0838 44.0866 48.9501 44.6936C48.8164 45.3006 48.91 45.9355 49.2132 46.4781C50.4325 46.4815 51.6259 46.1257 52.6444 45.4553C53.4061 44.9452 54.0264 44.2507 54.4475 43.4364C54.8686 42.6221 55.0769 41.7145 55.0529 40.798C54.9948 40.341 54.7917 39.913 54.2911 40.0073Z" fill="white"/>
</svg>
