<svg width="313" height="53" viewBox="0 0 313 53" fill="none" xmlns="http://www.w3.org/2000/svg">
<rect y="0.920898" width="177.189" height="51.1473" rx="7.69911" fill="#3D4047"/>
<g filter="url(#filter0_i)">
<circle cx="25.5745" cy="26.4944" r="14.6135" fill="#3D4047"/>
</g>
<path d="M48.6816 25.4452C48.6816 25.4933 48.7298 25.5414 48.7298 25.5895L51.232 28.2361C51.3282 28.3324 51.4726 28.3324 51.5688 28.2842L54.071 25.6377C54.1191 25.5895 54.1191 25.5414 54.1191 25.4933C54.1191 25.3489 54.0229 25.2527 53.8785 25.2527C53.8304 25.2527 53.7823 25.2527 53.7342 25.3008L51.4244 27.7549L49.0666 25.3008C49.0185 25.2527 48.9704 25.2046 48.9222 25.2046C48.7779 25.2046 48.6816 25.3008 48.6816 25.4452Z" fill="white"/>
<path d="M125.832 28.4293C125.832 28.3812 125.784 28.3331 125.784 28.285L123.282 25.6384C123.185 25.5422 123.041 25.5422 122.945 25.5903L120.443 28.2368C120.395 28.285 120.395 28.3331 120.395 28.3812C120.395 28.5256 120.491 28.6218 120.635 28.6218C120.683 28.6218 120.731 28.6218 120.779 28.5737L123.089 26.1196L125.447 28.5737C125.495 28.6218 125.543 28.6699 125.591 28.6699C125.736 28.6699 125.832 28.5737 125.832 28.4293Z" fill="white"/>
<g clip-path="url(#clip0)">
<path fill-rule="evenodd" clip-rule="evenodd" d="M76.9922 14.1055C76.2835 14.1055 75.709 14.68 75.709 15.3887V20.5214C75.709 21.2301 76.2835 21.8046 76.9922 21.8046H82.1249C82.8336 21.8046 83.4081 21.2301 83.4081 20.5214V15.3887C83.4081 14.68 82.8336 14.1055 82.1249 14.1055H76.9922ZM79.9862 15.3895V17.5279H82.1247V18.3833H79.9862V20.5223H79.1308V18.3833H76.992V17.5279H79.1308V15.3895H79.9862Z" fill="white"/>
</g>
<path d="M74.3343 39.46C75.625 39.46 76.4082 38.5359 76.4082 37.0948V37.0885C76.4082 35.6412 75.6187 34.7264 74.3343 34.7264C73.0561 34.7264 72.2604 35.638 72.2604 37.0885V37.0948C72.2604 38.539 73.0373 39.46 74.3343 39.46ZM74.3343 38.94C73.3944 38.94 72.8368 38.2132 72.8368 37.0948V37.0885C72.8368 35.9607 73.4132 35.2464 74.3343 35.2464C75.2584 35.2464 75.8317 35.9607 75.8317 37.0885V37.0948C75.8317 38.2132 75.2616 38.94 74.3343 38.94ZM77.3423 40.4813H77.8874V38.8209H77.9376C78.1224 39.1812 78.5265 39.413 78.9902 39.413C79.8486 39.413 80.4062 38.727 80.4062 37.6681V37.6618C80.4062 36.6092 79.8454 35.9169 78.9902 35.9169C78.5203 35.9169 78.1443 36.1393 77.9376 36.5152H77.8874V35.9764H77.3423V40.4813ZM78.8649 38.9306C78.2508 38.9306 77.8749 38.4481 77.8749 37.6681V37.6618C77.8749 36.8818 78.2508 36.3993 78.8649 36.3993C79.482 36.3993 79.8486 36.8755 79.8486 37.6618V37.6681C79.8486 38.4544 79.482 38.9306 78.8649 38.9306ZM82.6624 39.413C83.4581 39.413 83.9406 38.9619 84.0565 38.5045L84.0627 38.4795H83.5176L83.5051 38.5077C83.4143 38.7113 83.1323 38.9275 82.6749 38.9275C82.0734 38.9275 81.6881 38.5202 81.6724 37.8216H84.1035V37.6086C84.1035 36.5998 83.5458 35.9169 82.6279 35.9169C81.71 35.9169 81.1148 36.6311 81.1148 37.6743V37.6775C81.1148 38.7364 81.6975 39.413 82.6624 39.413ZM82.6248 36.4024C83.1229 36.4024 83.4926 36.7189 83.549 37.3861H81.6818C81.7414 36.7439 82.1236 36.4024 82.6248 36.4024ZM84.975 39.3535H85.5201V37.3548C85.5201 36.7627 85.8616 36.3993 86.4004 36.3993C86.9392 36.3993 87.1899 36.6907 87.1899 37.2984V39.3535H87.735V37.1668C87.735 36.3648 87.312 35.9169 86.5539 35.9169C86.0558 35.9169 85.7394 36.1268 85.5702 36.4839H85.5201V35.9764H84.975V39.3535ZM91.5049 39.413C91.9591 39.413 92.3131 39.2157 92.5262 38.8554H92.5763V39.3535H93.1214V37.0415C93.1214 36.3398 92.6609 35.9169 91.837 35.9169C91.1164 35.9169 90.6026 36.274 90.5149 36.8034L90.5118 36.8222H91.0569L91.06 36.8128C91.1477 36.5497 91.414 36.3993 91.8182 36.3993C92.3225 36.3993 92.5763 36.6249 92.5763 37.0415V37.3485L91.6083 37.4081C90.8219 37.4551 90.3771 37.8028 90.3771 38.4043V38.4106C90.3771 39.0246 90.8627 39.413 91.5049 39.413ZM90.9347 38.398V38.3918C90.9347 38.0565 91.1603 37.8748 91.6741 37.8435L92.5763 37.7871V38.0941C92.5763 38.5766 92.1722 38.94 91.6177 38.94C91.2261 38.94 90.9347 38.7395 90.9347 38.398ZM94.1433 40.4813H94.6884V38.8209H94.7385C94.9233 39.1812 95.3275 39.413 95.7911 39.413C96.6495 39.413 97.2071 38.727 97.2071 37.6681V37.6618C97.2071 36.6092 96.6464 35.9169 95.7911 35.9169C95.3212 35.9169 94.9453 36.1393 94.7385 36.5152H94.6884V35.9764H94.1433V40.4813ZM95.6658 38.9306C95.0518 38.9306 94.6759 38.4481 94.6759 37.6681V37.6618C94.6759 36.8818 95.0518 36.3993 95.6658 36.3993C96.283 36.3993 96.6495 36.8755 96.6495 37.6618V37.6681C96.6495 38.4544 96.283 38.9306 95.6658 38.9306ZM98.0849 40.4813H98.63V38.8209H98.6801C98.865 39.1812 99.2691 39.413 99.7328 39.413C100.591 39.413 101.149 38.727 101.149 37.6681V37.6618C101.149 36.6092 100.588 35.9169 99.7328 35.9169C99.2628 35.9169 98.8869 36.1393 98.6801 36.5152H98.63V35.9764H98.0849V40.4813ZM99.6074 38.9306C98.9934 38.9306 98.6175 38.4481 98.6175 37.6681V37.6618C98.6175 36.8818 98.9934 36.3993 99.6074 36.3993C100.225 36.3993 100.591 36.8755 100.591 37.6618V37.6681C100.591 38.4544 100.225 38.9306 99.6074 38.9306Z" fill="white"/>
<path d="M98.0382 16.7115L97.4372 16.6351C97.3877 16.4826 97.3266 16.3356 97.2553 16.1959L97.6265 15.7179C97.7767 15.5245 97.7591 15.2515 97.5875 15.0853L97.084 14.5818C96.9162 14.4086 96.6432 14.3913 96.4494 14.5412L95.9722 14.9124C95.8325 14.8411 95.6854 14.78 95.5326 14.7305L95.4562 14.1305C95.4275 13.8897 95.2232 13.7085 94.9812 13.7085H94.2651C94.0231 13.7085 93.8189 13.8897 93.7901 14.1295L93.7137 14.7305C93.5609 14.78 93.4138 14.8408 93.2741 14.9124L92.7966 14.5412C92.6035 14.3913 92.3305 14.4086 92.1639 14.5802L91.6605 15.0834C91.4872 15.2515 91.4696 15.5245 91.6199 15.7183L91.991 16.1959C91.9194 16.3356 91.8586 16.4826 91.8091 16.6351L91.2091 16.7115C90.9684 16.7403 90.7871 16.9445 90.7871 17.1865V17.9026C90.7871 18.1446 90.9684 18.3488 91.2081 18.3776L91.8091 18.454C91.8586 18.6065 91.9197 18.7535 91.991 18.8932L91.6199 19.3711C91.4696 19.5645 91.4872 19.8375 91.6589 20.0038L92.1623 20.5073C92.3305 20.6802 92.6032 20.6975 92.7969 20.5475L93.2745 20.1764C93.4142 20.248 93.5612 20.3091 93.7137 20.3583L93.7901 20.958C93.8189 21.1993 94.0231 21.3806 94.2651 21.3806H94.9812C95.2232 21.3806 95.4275 21.1993 95.4562 20.9596L95.5326 20.3586C95.6851 20.3091 95.8322 20.248 95.9719 20.1767L96.4498 20.5479C96.6432 20.6981 96.9162 20.6805 97.0824 20.5089L97.5859 20.0054C97.7591 19.8372 97.7767 19.5645 97.6265 19.3708L97.2553 18.8932C97.3269 18.7535 97.388 18.6065 97.4372 18.454L98.0369 18.3776C98.2776 18.3488 98.4589 18.1446 98.4589 17.9026V17.1865C98.4592 16.9445 98.278 16.7403 98.0382 16.7115ZM94.6232 19.1429C93.7418 19.1429 93.0248 18.4259 93.0248 17.5445C93.0248 16.6632 93.7418 15.9462 94.6232 15.9462C95.5045 15.9462 96.2215 16.6632 96.2215 17.5445C96.2215 18.4259 95.5045 19.1429 94.6232 19.1429Z" fill="white"/>
<g filter="url(#filter1_d)">
<path d="M135 26.5668C135 12.7792 146.177 1.60205 159.965 1.60205L175.187 1.60205V51.5316H159.965C146.177 51.5316 135 40.3545 135 26.5668Z" fill="#C7C7C7"/>
</g>
<path d="M135 26.5668C135 12.4429 146.45 0.993164 160.574 0.993164L304.49 0.993164C308.742 0.993164 312.189 4.44017 312.189 8.69227V44.4414C312.189 48.6935 308.742 52.1405 304.49 52.1405L160.574 52.1405C146.45 52.1405 135 40.6908 135 26.5668Z" fill="#C7C7C7"/>
<g filter="url(#filter2_i)">
<ellipse cx="160.574" cy="26.5671" rx="14.6135" ry="14.6135" fill="#C7C7C7"/>
</g>
<defs>
<filter id="filter0_i" x="10.9609" y="11.8809" width="29.227" height="29.227" filterUnits="userSpaceOnUse" color-interpolation-filters="sRGB">
<feFlood flood-opacity="0" result="BackgroundImageFix"/>
<feBlend mode="normal" in="SourceGraphic" in2="BackgroundImageFix" result="shape"/>
<feColorMatrix in="SourceAlpha" type="matrix" values="0 0 0 0 0 0 0 0 0 0 0 0 0 0 0 0 0 0 127 0" result="hardAlpha"/>
<feOffset/>
<feGaussianBlur stdDeviation="1.28318"/>
<feComposite in2="hardAlpha" operator="arithmetic" k2="-1" k3="1"/>
<feColorMatrix type="matrix" values="0 0 0 0 0 0 0 0 0 0 0 0 0 0 0 0 0 0 1 0"/>
<feBlend mode="normal" in2="shape" result="effect1_innerShadow"/>
</filter>
<filter id="filter1_d" x="132.434" y="0.318866" width="42.7535" height="52.4959" filterUnits="userSpaceOnUse" color-interpolation-filters="sRGB">
<feFlood flood-opacity="0" result="BackgroundImageFix"/>
<feColorMatrix in="SourceAlpha" type="matrix" values="0 0 0 0 0 0 0 0 0 0 0 0 0 0 0 0 0 0 127 0" result="hardAlpha"/>
<feOffset dx="-1.28318"/>
<feGaussianBlur stdDeviation="0.641592"/>
<feColorMatrix type="matrix" values="0 0 0 0 0 0 0 0 0 0 0 0 0 0 0 0 0 0 1 0"/>
<feBlend mode="normal" in2="BackgroundImageFix" result="effect1_dropShadow"/>
<feBlend mode="normal" in="SourceGraphic" in2="effect1_dropShadow" result="shape"/>
</filter>
<filter id="filter2_i" x="145.961" y="11.9536" width="29.227" height="29.227" filterUnits="userSpaceOnUse" color-interpolation-filters="sRGB">
<feFlood flood-opacity="0" result="BackgroundImageFix"/>
<feBlend mode="normal" in="SourceGraphic" in2="BackgroundImageFix" result="shape"/>
<feColorMatrix in="SourceAlpha" type="matrix" values="0 0 0 0 0 0 0 0 0 0 0 0 0 0 0 0 0 0 127 0" result="hardAlpha"/>
<feOffset/>
<feGaussianBlur stdDeviation="1.28318"/>
<feComposite in2="hardAlpha" operator="arithmetic" k2="-1" k3="1"/>
<feColorMatrix type="matrix" values="0 0 0 0 0 0 0 0 0 0 0 0 0 0 0 0 0 0 0.25 0"/>
<feBlend mode="normal" in2="shape" result="effect1_innerShadow"/>
</filter>
<clipPath id="clip0">
<rect width="7.69911" height="7.69911" fill="white" transform="matrix(-1 0 0 1 83.4082 14.1055)"/>
</clipPath>
</defs>
</svg>
