<svg width="313" height="54" viewBox="0 0 313 54" fill="none" xmlns="http://www.w3.org/2000/svg">
<rect y="1.39844" width="177.189" height="51.1473" rx="7.69911" fill="#3D4047"/>
<g filter="url(#filter0_i)">
<circle cx="25.5745" cy="26.9719" r="14.6135" fill="#3D4047"/>
</g>
<path d="M52.818 24.4302C52.7699 24.4302 52.7218 24.4783 52.6736 24.4783L50.0271 26.9805C49.9308 27.0767 49.9308 27.2211 49.979 27.3173L52.6255 29.8196C52.6736 29.8677 52.7218 29.8677 52.7699 29.8677C52.9142 29.8677 53.0105 29.7714 53.0105 29.6271C53.0105 29.579 53.0105 29.5308 52.9624 29.4827L50.5083 27.173L52.9624 24.8151C53.0105 24.767 53.0586 24.7189 53.0586 24.6708C53.0586 24.5264 52.9624 24.4302 52.818 24.4302Z" fill="white"/>
<path d="M121.694 29.7227C121.742 29.7227 121.79 29.6745 121.838 29.6745L124.485 27.1723C124.581 27.0761 124.581 26.9317 124.533 26.8355L121.886 24.3333C121.838 24.2852 121.79 24.2852 121.742 24.2852C121.597 24.2852 121.501 24.3814 121.501 24.5258C121.501 24.5739 121.501 24.622 121.549 24.6701L124.003 26.9798L121.549 29.3377C121.501 29.3858 121.453 29.4339 121.453 29.4821C121.453 29.6264 121.549 29.7227 121.694 29.7227Z" fill="white"/>
<path fill-rule="evenodd" clip-rule="evenodd" d="M91.1987 18.4258C90.9964 18.1846 90.6369 18.1532 90.3958 18.3555L86.2971 21.7947L84.3124 19.8101C84.0882 19.5858 83.7245 19.5858 83.5002 19.8101C83.276 20.0343 83.276 20.398 83.5002 20.6223L85.731 22.8531C85.7572 22.8792 85.7852 22.9023 85.8146 22.9223C85.818 22.9265 85.8214 22.9307 85.8249 22.9349C86.0272 23.176 86.3867 23.2075 86.6279 23.0052L91.1284 19.2287C91.3696 19.0264 91.401 18.6669 91.1987 18.4258Z" fill="white"/>
<path fill-rule="evenodd" clip-rule="evenodd" d="M91.1987 18.4258C90.9964 18.1846 90.6369 18.1532 90.3958 18.3555L86.2971 21.7947L84.3124 19.8101C84.0882 19.5858 83.7245 19.5858 83.5002 19.8101C83.276 20.0343 83.276 20.398 83.5002 20.6223L85.731 22.8531C85.7572 22.8792 85.7852 22.9023 85.8146 22.9223C85.818 22.9265 85.8214 22.9307 85.8249 22.9349C86.0272 23.176 86.3867 23.2075 86.6279 23.0052L91.1284 19.2287C91.3696 19.0264 91.401 18.6669 91.1987 18.4258Z" fill="white"/>
<path fill-rule="evenodd" clip-rule="evenodd" d="M91.1987 18.4258C90.9964 18.1846 90.6369 18.1532 90.3958 18.3555L86.2971 21.7947L84.3124 19.8101C84.0882 19.5858 83.7245 19.5858 83.5002 19.8101C83.276 20.0343 83.276 20.398 83.5002 20.6223L85.731 22.8531C85.7572 22.8792 85.7852 22.9023 85.8146 22.9223C85.818 22.9265 85.8214 22.9307 85.8249 22.9349C86.0272 23.176 86.3867 23.2075 86.6279 23.0052L91.1284 19.2287C91.3696 19.0264 91.401 18.6669 91.1987 18.4258Z" fill="white"/>
<path d="M81.6224 32.6262C82.7502 32.6262 83.4457 32.0591 83.4457 31.1632V31.16C83.4457 30.4552 83.029 30.073 82.0735 29.8756L81.5942 29.7785C81.0616 29.6688 80.8423 29.4934 80.8423 29.1989V29.1958C80.8423 28.8574 81.1525 28.6444 81.6193 28.6413C82.0954 28.6413 82.4087 28.8668 82.462 29.1895L82.4682 29.2271H83.358L83.3548 29.1864C83.2953 28.4314 82.675 27.8737 81.6193 27.8737C80.6168 27.8737 79.8962 28.4282 79.8962 29.2678V29.271C79.8962 29.957 80.3004 30.3956 81.2402 30.5867L81.7164 30.6838C82.2771 30.7998 82.4996 30.9658 82.4996 31.2634V31.2665C82.4996 31.6143 82.1518 31.8555 81.6475 31.8555C81.118 31.8555 80.7515 31.6268 80.717 31.2885L80.7139 31.2571H79.8023L79.8054 31.3073C79.8586 32.1093 80.5416 32.6262 81.6224 32.6262ZM84.7432 28.5316C85.0252 28.5316 85.257 28.3061 85.257 28.0241C85.257 27.739 85.0252 27.5135 84.7432 27.5135C84.4613 27.5135 84.2263 27.739 84.2263 28.0241C84.2263 28.3061 84.4613 28.5316 84.7432 28.5316ZM84.2827 32.5103H85.1975V29.0611H84.2827V32.5103ZM87.6667 33.7226C88.7099 33.7226 89.3709 33.212 89.3709 32.4037V29.0611H88.4562V29.625H88.4123C88.2275 29.2365 87.8578 29.0047 87.3848 29.0047C86.5013 29.0047 85.9656 29.6876 85.9656 30.7026V30.7089C85.9656 31.6895 86.5013 32.3599 87.3691 32.3599C87.8484 32.3599 88.2118 32.1625 88.4029 31.7991H88.4593V32.4413C88.4593 32.8423 88.1742 33.071 87.6855 33.071C87.2783 33.071 87.0402 32.9332 86.99 32.7327L86.9869 32.7201H86.0815V32.7358C86.1567 33.3216 86.7112 33.7226 87.6667 33.7226ZM87.6793 31.6581C87.1843 31.6581 86.9023 31.2728 86.9023 30.7058V30.6995C86.9023 30.1325 87.1874 29.7471 87.6793 29.7471C88.1711 29.7471 88.4687 30.1325 88.4687 30.6995V30.7058C88.4687 31.2728 88.1742 31.6581 87.6793 31.6581ZM90.3114 32.5103H91.2262V30.5147C91.2262 30.0479 91.483 29.744 91.906 29.744C92.3383 29.744 92.5388 30.0009 92.5388 30.4865V32.5103H93.4536V30.2797C93.4536 29.4558 93.04 28.9859 92.2725 28.9859C91.7807 28.9859 91.4392 29.2208 91.2825 29.5936H91.2262V29.0611H90.3114V32.5103Z" fill="white"/>
<path d="M69.1174 39.9995H70.0635V36.259H71.42V35.4789H67.7609V36.259H69.1174V39.9995ZM71.8278 39.9995H72.7426V38.0697C72.7426 37.581 73.0715 37.2834 73.5916 37.2834C73.7326 37.2834 73.8735 37.3053 74.0114 37.3367V36.5378C73.9205 36.5127 73.7921 36.4939 73.6699 36.4939C73.2219 36.4939 72.9086 36.7132 72.799 37.086H72.7426V36.5503H71.8278V39.9995ZM75.5251 40.0528C75.9762 40.0528 76.3396 39.8617 76.5151 39.5421H76.5715V39.9995H77.4737V37.6437C77.4737 36.9075 76.9568 36.4751 76.042 36.4751C75.1742 36.4751 74.6041 36.8761 74.532 37.4808L74.5289 37.509H75.3747L75.381 37.4964C75.4531 37.2928 75.663 37.1769 75.9919 37.1769C76.3678 37.1769 76.5715 37.3461 76.5715 37.6437V37.9287L75.7381 37.9789C74.8798 38.029 74.4004 38.3924 74.4004 39.0127V39.019C74.4004 39.6455 74.8672 40.0528 75.5251 40.0528ZM75.2933 38.9626V38.9563C75.2933 38.7057 75.4844 38.5584 75.876 38.5334L76.5715 38.4895V38.7433C76.5715 39.1067 76.255 39.3855 75.8321 39.3855C75.5157 39.3855 75.2933 39.2257 75.2933 38.9626ZM78.3953 39.9995H79.3101V38.0039C79.3101 37.5372 79.567 37.2333 79.9899 37.2333C80.4222 37.2333 80.6227 37.4902 80.6227 37.9757V39.9995H81.5375V37.769C81.5375 36.9451 81.124 36.4751 80.3565 36.4751C79.8646 36.4751 79.5231 36.7101 79.3665 37.0829H79.3101V36.5503H78.3953V39.9995ZM83.8219 40.0716C84.7053 40.0716 85.335 39.6267 85.335 38.9438V38.9406C85.335 38.43 85.0124 38.1418 84.3231 37.9945L83.7498 37.8724C83.3927 37.794 83.2643 37.6875 83.2643 37.5027V37.4996C83.2643 37.2677 83.4898 37.1205 83.8062 37.1205C84.1477 37.1205 84.3513 37.2928 84.4015 37.4776L84.4046 37.4933H85.2536V37.4808C85.216 36.9263 84.7147 36.4751 83.8094 36.4751C82.9479 36.4751 82.3714 36.9075 82.3714 37.5559V37.5591C82.3714 38.076 82.6972 38.3987 83.3551 38.5396L83.9315 38.6618C84.2824 38.7401 84.4203 38.856 84.4203 39.0409V39.0471C84.4203 39.2758 84.1822 39.4262 83.8313 39.4262C83.471 39.4262 83.2611 39.2727 83.1891 39.0597L83.1828 39.0471H82.2837L82.2868 39.0597C82.3526 39.6518 82.8852 40.0716 83.8219 40.0716ZM87.0493 40.0528C87.5004 40.0528 87.8638 39.8617 88.0392 39.5421H88.0956V39.9995H88.9978V37.6437C88.9978 36.9075 88.4809 36.4751 87.5662 36.4751C86.6984 36.4751 86.1282 36.8761 86.0562 37.4808L86.053 37.509H86.8989L86.9052 37.4964C86.9772 37.2928 87.1871 37.1769 87.516 37.1769C87.892 37.1769 88.0956 37.3461 88.0956 37.6437V37.9287L87.2623 37.9789C86.4039 38.029 85.9246 38.3924 85.9246 39.0127V39.019C85.9246 39.6455 86.3914 40.0528 87.0493 40.0528ZM86.8174 38.9626V38.9563C86.8174 38.7057 87.0085 38.5584 87.4001 38.5334L88.0956 38.4895V38.7433C88.0956 39.1067 87.7792 39.3855 87.3563 39.3855C87.0399 39.3855 86.8174 39.2257 86.8174 38.9626ZM91.4389 40.0716C92.338 40.0716 92.8768 39.5891 92.9708 38.8373L92.9739 38.8185H92.1281L92.1218 38.831C92.0404 39.1756 91.8179 39.3542 91.442 39.3542C90.9533 39.3542 90.6808 38.9688 90.6808 38.2702V38.264C90.6808 37.5747 90.9502 37.1925 91.442 37.1925C91.8336 37.1925 92.0623 37.4118 92.1218 37.747L92.125 37.7533H92.9771V37.7439C92.8956 36.9733 92.3537 36.4751 91.4389 36.4751C90.3581 36.4751 89.7503 37.1299 89.7503 38.264V38.2702C89.7503 39.4168 90.3612 40.0716 91.4389 40.0716ZM95.18 40.012C95.3555 40.012 95.5246 39.9932 95.6374 39.9713V39.2915C95.5497 39.3009 95.487 39.3072 95.368 39.3072C95.0578 39.3072 94.9263 39.1693 94.9263 38.8592V37.2395H95.6374V36.5503H94.9263V35.7264H94.0021V36.5503H93.4695V37.2395H94.0021V39.0691C94.0021 39.7395 94.3404 40.012 95.18 40.012ZM96.8911 36.0209C97.1731 36.0209 97.4049 35.7953 97.4049 35.5134C97.4049 35.2283 97.1731 35.0027 96.8911 35.0027C96.6092 35.0027 96.3742 35.2283 96.3742 35.5134C96.3742 35.7953 96.6092 36.0209 96.8911 36.0209ZM96.4306 39.9995H97.3454V36.5503H96.4306V39.9995ZM99.824 40.0716C100.886 40.0716 101.525 39.4012 101.525 38.2765V38.2702C101.525 37.155 100.877 36.4751 99.824 36.4751C98.7714 36.4751 98.1229 37.1581 98.1229 38.2702V38.2765C98.1229 39.398 98.762 40.0716 99.824 40.0716ZM99.824 39.3542C99.3353 39.3542 99.0596 38.9563 99.0596 38.2765V38.2702C99.0596 37.5967 99.3384 37.1925 99.824 37.1925C100.306 37.1925 100.588 37.5967 100.588 38.2702V38.2765C100.588 38.9563 100.31 39.3542 99.824 39.3542ZM102.296 39.9995H103.211V38.0039C103.211 37.5372 103.468 37.2333 103.891 37.2333C104.323 37.2333 104.524 37.4902 104.524 37.9757V39.9995H105.439V37.769C105.439 36.9451 105.025 36.4751 104.257 36.4751C103.766 36.4751 103.424 36.7101 103.268 37.0829H103.211V36.5503H102.296V39.9995Z" fill="white"/>
<g filter="url(#filter1_d)">
<path d="M135 27.0443C135 13.2567 146.177 2.07959 159.965 2.07959L175.187 2.07959L175.187 52.0091L159.965 52.0091C146.177 52.0091 135 40.832 135 27.0443Z" fill="#C7C7C7"/>
</g>
<path d="M135 27.0444C135 12.9204 146.45 1.4707 160.574 1.4707L304.49 1.4707C308.742 1.4707 312.189 4.91771 312.189 9.16981V44.9189C312.189 49.171 308.742 52.618 304.49 52.618L160.574 52.618C146.45 52.618 135 41.1683 135 27.0444Z" fill="#C7C7C7"/>
<g filter="url(#filter2_i)">
<ellipse cx="160.574" cy="27.0452" rx="14.6135" ry="14.6135" fill="#C7C7C7"/>
</g>
<defs>
<filter id="filter0_i" x="10.9609" y="12.3584" width="29.227" height="29.227" filterUnits="userSpaceOnUse" color-interpolation-filters="sRGB">
<feFlood flood-opacity="0" result="BackgroundImageFix"/>
<feBlend mode="normal" in="SourceGraphic" in2="BackgroundImageFix" result="shape"/>
<feColorMatrix in="SourceAlpha" type="matrix" values="0 0 0 0 0 0 0 0 0 0 0 0 0 0 0 0 0 0 127 0" result="hardAlpha"/>
<feOffset/>
<feGaussianBlur stdDeviation="1.28318"/>
<feComposite in2="hardAlpha" operator="arithmetic" k2="-1" k3="1"/>
<feColorMatrix type="matrix" values="0 0 0 0 0 0 0 0 0 0 0 0 0 0 0 0 0 0 1 0"/>
<feBlend mode="normal" in2="shape" result="effect1_innerShadow"/>
</filter>
<filter id="filter1_d" x="132.434" y="0.796405" width="42.7535" height="52.4959" filterUnits="userSpaceOnUse" color-interpolation-filters="sRGB">
<feFlood flood-opacity="0" result="BackgroundImageFix"/>
<feColorMatrix in="SourceAlpha" type="matrix" values="0 0 0 0 0 0 0 0 0 0 0 0 0 0 0 0 0 0 127 0" result="hardAlpha"/>
<feOffset dx="-1.28318"/>
<feGaussianBlur stdDeviation="0.641592"/>
<feColorMatrix type="matrix" values="0 0 0 0 0 0 0 0 0 0 0 0 0 0 0 0 0 0 1 0"/>
<feBlend mode="normal" in2="BackgroundImageFix" result="effect1_dropShadow"/>
<feBlend mode="normal" in="SourceGraphic" in2="effect1_dropShadow" result="shape"/>
</filter>
<filter id="filter2_i" x="145.961" y="12.4316" width="29.227" height="29.227" filterUnits="userSpaceOnUse" color-interpolation-filters="sRGB">
<feFlood flood-opacity="0" result="BackgroundImageFix"/>
<feBlend mode="normal" in="SourceGraphic" in2="BackgroundImageFix" result="shape"/>
<feColorMatrix in="SourceAlpha" type="matrix" values="0 0 0 0 0 0 0 0 0 0 0 0 0 0 0 0 0 0 127 0" result="hardAlpha"/>
<feOffset/>
<feGaussianBlur stdDeviation="1.28318"/>
<feComposite in2="hardAlpha" operator="arithmetic" k2="-1" k3="1"/>
<feColorMatrix type="matrix" values="0 0 0 0 0 0 0 0 0 0 0 0 0 0 0 0 0 0 0.25 0"/>
<feBlend mode="normal" in2="shape" result="effect1_innerShadow"/>
</filter>
</defs>
</svg>
