<svg width="200" height="200" viewBox="0 0 200 200" fill="none" xmlns="http://www.w3.org/2000/svg">
<rect x="0.75" y="0.75" width="198.5" height="198.5" rx="3.25" stroke="url(#paint0_linear)" stroke-width="1.5"/>
<path transform="translate(0 30)" d="M174.766 76.865C175.043 76.865 175.31 76.9673 175.516 77.1522C175.723 77.337 175.854 77.5916 175.884 77.867L175.891 77.9891V119.387C175.891 119.664 175.789 119.932 175.604 120.138C175.419 120.344 175.164 120.475 174.889 120.505L174.767 120.512H42.4715C42.1945 120.512 41.9271 120.41 41.7208 120.225C41.5144 120.04 41.3836 119.786 41.3533 119.51L41.3465 119.387V77.9891C41.3465 77.712 41.4488 77.4447 41.6336 77.2383C41.8185 77.032 42.0731 76.9011 42.3484 76.8708L42.4706 76.8641H57.7706V75.29H71.7206V76.865H102.693L102.768 77.016L103.95 78.215H42.6927V119.163H174.541V78.2112H163.568L162.181 76.865H174.766ZM87.6331 1.13812L87.7927 1.29004L169.833 83.3314C173.711 87.2089 175.911 92.4536 175.961 97.937C176.011 103.42 173.906 108.704 170.099 112.652L169.833 112.923L168.56 114.196C164.682 118.073 159.438 120.273 153.955 120.323C148.471 120.372 143.188 118.268 139.241 114.461L138.97 114.195L123.018 98.2429V110.166H59.5706V87.2141H111.988L56.9283 32.1535C56.1536 31.3788 55.7059 30.3362 55.6777 29.241C55.6494 28.1458 56.0427 27.0816 56.7763 26.2679L56.9283 26.1083L81.7475 1.28812C82.5224 0.513725 83.5651 0.0664109 84.6603 0.0384985C85.7555 0.0105862 86.8197 0.404206 87.6331 1.13812ZM82.7013 2.24389L57.885 27.0631C57.359 27.589 57.0531 28.2955 57.0295 29.039C57.0059 29.7824 57.2664 30.5069 57.7581 31.065L57.885 31.1997L139.926 113.24C143.552 116.865 148.455 118.924 153.581 118.972C158.708 119.021 163.649 117.056 167.343 113.501L167.608 113.24L168.881 111.967C172.506 108.342 174.565 103.439 174.613 98.312C174.662 93.1853 172.697 88.2441 169.142 84.5506L168.881 84.2852L86.8379 2.24485C86.2893 1.69632 85.5454 1.38815 84.7696 1.38815C83.9939 1.38815 83.2499 1.69632 82.7013 2.24485V2.24389ZM41.3465 89.5862V90.9324H24.0042C23.3749 90.9323 22.7692 91.172 22.3104 91.6026C21.8515 92.0333 21.5739 92.6226 21.534 93.2506L21.5292 93.4073V105.556C21.5292 106.186 21.7689 106.791 22.1995 107.25C22.6302 107.709 23.2194 107.987 23.8475 108.027L24.0042 108.031H41.3465V109.378H24.0042C23.0229 109.378 22.0791 109 21.3681 108.324C20.657 107.648 20.2331 106.724 20.184 105.744V105.552V105.101H15.9052C15.688 105.101 15.474 105.048 15.2815 104.948C15.0889 104.847 14.9235 104.702 14.7994 104.524C8.35038 105.024 3.72538 104.306 0.961914 102.312V100.535C3.19557 102.791 7.70807 103.708 14.5552 103.189V98.2074L14.4831 98.2141C8.30422 98.7073 3.78595 98.092 0.961914 96.315V94.6535C3.38018 96.6545 7.89845 97.415 14.5648 96.865C14.6002 96.5342 14.7569 96.2282 15.0046 96.0061C15.2523 95.784 15.5734 95.6615 15.9061 95.6622H20.1802V93.4131C20.1802 92.4318 20.5574 91.488 21.2337 90.777C21.91 90.0659 22.8337 89.642 23.8138 89.5929H24.0061L41.3465 89.5862ZM113.339 88.5631H60.9206V108.812H121.668V96.8891L113.339 88.5631ZM160.472 90.8862C161.857 92.2709 162.802 94.0356 163.184 95.957C163.567 97.8784 163.372 99.8702 162.622 101.68C161.873 103.491 160.604 105.038 158.975 106.126C157.346 107.215 155.431 107.796 153.472 107.796C151.512 107.796 149.597 107.215 147.968 106.126C146.339 105.038 145.07 103.491 144.321 101.68C143.571 99.8702 143.376 97.8784 143.759 95.957C144.141 94.0356 145.086 92.2709 146.472 90.8862C148.329 89.031 150.846 87.989 153.471 87.989C156.096 87.989 158.614 89.031 160.471 90.8862H160.472ZM147.426 91.841C146.231 93.0367 145.416 94.5602 145.086 96.2187C144.756 97.8773 144.926 99.5964 145.573 101.159C146.22 102.721 147.316 104.056 148.722 104.996C150.128 105.935 151.781 106.437 153.472 106.437C155.163 106.437 156.816 105.935 158.222 104.996C159.628 104.056 160.724 102.721 161.371 101.159C162.018 99.5964 162.188 97.8773 161.858 96.2187C161.528 94.5602 160.713 93.0367 159.518 91.841C158.724 91.0468 157.781 90.4168 156.744 89.987C155.706 89.5571 154.594 89.3359 153.471 89.3359C152.348 89.3359 151.236 89.5571 150.199 89.987C149.161 90.4168 148.218 91.0468 147.424 91.841H147.426ZM20.1792 97.0102H15.9052V103.76H20.1792V97.0102ZM107.262 101.388V103.585H105.462V101.384L107.262 101.388ZM102.77 101.388V103.585H100.97V101.384L102.77 101.388ZM98.2696 101.388V103.585H96.4696V101.384L98.2696 101.388ZM89.2696 101.388V103.585H87.4696V101.384L89.2696 101.388ZM80.2696 101.388V103.585H78.4696V101.384L80.2696 101.388ZM93.7686 101.388V103.585H91.9696V101.384L93.7686 101.388ZM84.7686 101.388V103.585H82.9696V101.384L84.7686 101.388ZM75.7686 101.388V103.585H73.9706V101.384L75.7686 101.388ZM121.73 60.766L121.955 60.992C122.458 61.4872 122.397 61.3766 121.803 61.99C121.65 62.1477 121.493 62.3006 121.338 62.4564C122.046 62.2725 122.795 62.3238 123.472 62.6025C123.791 62.7565 124.073 62.9772 124.299 63.2497C124.335 63.2783 124.364 63.3149 124.383 63.3565C124.402 63.3982 124.411 63.4438 124.409 63.4896C124.408 63.5354 124.395 63.5802 124.373 63.6203C124.351 63.6605 124.32 63.6949 124.282 63.7208C124.11 63.8766 123.947 64.0429 123.79 64.2122C123.65 64.3622 123.516 64.3775 123.385 64.2122C123.006 63.7987 122.491 63.5346 121.934 63.4674C121.378 63.4002 120.815 63.5344 120.348 63.8458C119.876 64.0989 119.443 64.4188 119.063 64.7958C118.341 65.5157 117.62 66.2362 116.9 66.9574C116.621 67.2372 116.565 67.2612 116.332 67.0323L116.101 66.8016C115.568 66.2775 115.611 66.3747 116.265 65.7189C117.889 64.0894 119.515 62.4625 121.145 60.8381C121.443 60.5468 121.486 60.5189 121.731 60.766H121.73ZM116.821 56.3429C117.549 56.5268 118.207 56.9207 118.714 57.4756C119.22 58.0305 119.552 58.722 119.669 59.4641C119.737 60.3389 119.484 61.2086 118.955 61.9093C118.718 62.2356 118.448 62.5372 118.149 62.8093C118.121 62.8481 118.084 62.8794 118.041 62.9006C117.998 62.9218 117.95 62.9322 117.902 62.931C117.854 62.9298 117.807 62.9169 117.765 62.8935C117.723 62.8702 117.687 62.837 117.661 62.7968C117.017 62.142 116.365 61.4958 115.715 60.8468C115.065 60.1977 114.425 59.567 113.792 58.9179C113.606 58.7256 113.503 58.7179 113.329 58.9487C113.022 59.3404 112.818 59.8026 112.735 60.2934C112.652 60.7841 112.692 61.2878 112.853 61.7588C113.014 62.2298 113.291 62.653 113.657 62.9901C114.023 63.3272 114.468 63.5675 114.95 63.6891C115.216 63.7863 115.494 63.8468 115.776 63.8689C115.96 63.8747 116.036 63.9583 115.988 64.142C115.983 64.1612 115.98 64.1814 115.975 64.2016C115.731 65.192 115.879 65.1362 114.894 64.9131C113.771 64.669 112.787 63.9976 112.151 63.041C111.515 62.0845 111.275 60.9179 111.484 59.7881C111.744 58.6274 112.45 57.6154 113.45 56.9707C114.45 56.326 115.663 56.1002 116.827 56.342L116.821 56.3429ZM114.749 57.7247C114.365 57.9237 114.365 57.9247 114.679 58.2381L116.069 59.6275C116.56 60.1192 117.052 60.6106 117.545 61.1016L117.611 61.1699C117.625 61.1905 117.645 61.2073 117.667 61.219C117.689 61.2306 117.714 61.2367 117.739 61.2367C117.765 61.2367 117.789 61.2306 117.812 61.219C117.834 61.2073 117.853 61.1905 117.868 61.1699C118.152 60.8725 118.344 60.4986 118.419 60.094C118.494 59.6894 118.449 59.2717 118.291 58.892C118.143 58.5762 117.932 58.2939 117.671 58.0625C117.41 57.8311 117.104 57.6553 116.773 57.5459C116.442 57.4366 116.092 57.3959 115.744 57.4265C115.397 57.4571 115.059 57.5582 114.752 57.7237L114.749 57.7247ZM113.019 51.8737C113.453 52.4167 113.666 53.1035 113.615 53.7968C113.772 53.7378 113.909 53.6326 114.005 53.4949C114.156 53.3468 114.294 53.3275 114.445 53.4862C115.25 54.3112 115.232 54.0727 114.489 54.8208C112.819 56.5035 111.136 58.1737 109.462 59.8535C108.861 60.4925 108.041 60.882 107.166 60.9449C106.66 60.9705 106.155 60.877 105.692 60.6718C105 60.3709 104.381 59.926 103.876 59.3667C103.37 58.8074 102.99 58.1466 102.76 57.4285C102.676 57.2073 102.74 57.0872 102.963 57.0227C103.129 56.9771 103.29 56.916 103.444 56.84C103.714 56.7025 103.835 56.8006 103.934 57.066C104.248 57.979 104.861 58.7586 105.675 59.2775C106.086 59.5722 106.59 59.7076 107.093 59.6586C107.596 59.6096 108.064 59.3796 108.41 59.0112C108.637 58.7891 108.86 58.5622 109.126 58.2958C108.891 58.3105 108.656 58.3053 108.422 58.2804C107.591 58.103 106.852 57.6309 106.342 56.9514C105.832 56.2719 105.585 55.4307 105.647 54.5833C105.805 53.5472 106.277 52.5845 106.999 51.8247C107.721 51.0649 108.658 50.5444 109.685 50.3333C110.331 50.2422 110.989 50.3389 111.581 50.6119C112.173 50.8849 112.674 51.3226 113.023 51.8727L113.019 51.8737ZM109.495 51.7227C108.954 51.9249 108.469 52.2498 108.075 52.6718C107.979 52.7679 107.883 52.8506 107.798 52.9506C107.487 53.2614 107.252 53.6404 107.112 54.0576C106.973 54.4748 106.932 54.9188 106.994 55.3545C107.044 55.7189 107.186 56.0647 107.405 56.3599C107.625 56.6551 107.915 56.8902 108.25 57.0435C108.584 57.1969 108.952 57.2634 109.319 57.2371C109.686 57.2108 110.04 57.0924 110.349 56.8929C110.996 56.4956 111.556 55.9725 111.997 55.3545C112.369 54.9636 112.573 54.4416 112.563 53.9017C112.554 53.3618 112.332 52.8473 111.946 52.4698C111.677 52.093 111.292 51.8154 110.85 51.6801C110.407 51.5449 109.933 51.5595 109.499 51.7218L109.495 51.7227ZM107.724 47.4612C107.749 47.6766 107.739 47.8958 107.745 48.1208C107.876 48.0862 107.937 47.9852 108.01 47.9102L110.414 45.5141C110.69 45.2381 110.74 45.2352 111.001 45.4997L111.174 45.6718C111.72 46.2083 111.646 46.1131 111.009 46.7506C108.637 49.1301 106.261 51.5067 103.881 53.8804C103.577 54.1843 103.535 54.2266 103.31 54.0112L103.192 53.8939C102.585 53.2804 102.591 53.4266 103.184 52.8189C103.244 52.7583 103.336 52.715 103.34 52.5814C102.84 52.6571 102.329 52.6025 101.857 52.4227C101.435 52.2705 101.048 52.0365 100.717 51.7341C100.386 51.4316 100.118 51.0668 99.9287 50.6605C99.7392 50.2543 99.6318 49.8146 99.6128 49.3667C99.5937 48.9188 99.6634 48.4715 99.8177 48.0506C100.098 47.1854 100.603 46.41 101.281 45.8034C101.959 45.1968 102.785 44.7808 103.676 44.5977C104.132 44.5037 104.602 44.5042 105.057 44.5992C105.513 44.6942 105.944 44.8817 106.324 45.1501C106.703 45.4184 107.024 45.7619 107.266 46.1593C107.508 46.5567 107.666 46.9995 107.729 47.4602L107.724 47.4612ZM104.147 45.8612C103.471 46.0231 102.844 46.3409 102.314 46.7893C101.784 47.2377 101.366 47.804 101.095 48.4429C100.927 48.8256 100.874 49.2488 100.942 49.6611C101.01 50.0733 101.197 50.4568 101.479 50.765C101.733 51.0776 102.068 51.3145 102.447 51.4501C102.826 51.5858 103.235 51.6149 103.629 51.5343C104.356 51.347 105.019 50.9672 105.548 50.4348C106.077 49.9024 106.452 49.2372 106.635 48.5093C106.701 48.1615 106.685 47.8029 106.586 47.4629C106.487 47.1228 106.31 46.8109 106.068 46.5527C105.825 46.2944 105.525 46.0972 105.192 45.977C104.859 45.8568 104.503 45.8171 104.151 45.8612H104.147ZM99.3638 38.9381C99.9571 39.0369 100.515 39.287 100.983 39.6643C101.452 40.0415 101.815 40.5332 102.038 41.0917C102.261 41.6503 102.336 42.257 102.256 42.8531C102.176 43.4492 101.944 44.0146 101.582 44.4949C101.344 44.8203 101.075 45.1226 100.78 45.3977C100.588 45.5958 100.435 45.5785 100.247 45.3872C99.6042 44.7314 98.9513 44.0862 98.3013 43.4362C97.6513 42.7862 97.0273 42.1699 96.3984 41.5285C96.2311 41.3574 96.134 41.3208 95.9561 41.542C95.7025 41.8451 95.5139 42.1972 95.402 42.5762C95.2901 42.9553 95.2572 43.3534 95.3056 43.7457C95.3539 44.138 95.4823 44.5162 95.6829 44.8568C95.8835 45.1973 96.1519 45.4931 96.4715 45.7256C97.0205 46.1429 97.674 46.4008 98.36 46.4708C98.5792 46.4949 98.6283 46.5795 98.5898 46.7862C98.4167 47.716 98.3975 47.7381 97.4725 47.5198C96.6577 47.3599 95.9065 46.9678 95.3094 46.3909C94.7122 45.8139 94.2946 45.0767 94.1066 44.2679C93.9187 43.4591 93.9685 42.6133 94.25 41.8322C94.5316 41.051 95.0329 40.3679 95.6936 39.865C96.1835 39.4212 96.7749 39.1044 97.4158 38.9424C98.0568 38.7805 98.7277 38.7783 99.3696 38.9362L99.3638 38.9381ZM97.1927 40.4189C97.0004 40.5324 97.059 40.6227 97.1783 40.742L97.9177 41.4785L98.6552 42.217C99.1545 42.7163 99.6539 43.215 100.153 43.7131L100.222 43.7804C100.303 43.8545 100.392 43.8977 100.498 43.7593C100.792 43.4479 100.982 43.0538 101.043 42.6305C101.104 42.2072 101.033 41.7754 100.84 41.3939C100.676 41.0795 100.449 40.8025 100.172 40.5806C99.8959 40.3586 99.5763 40.1966 99.2339 40.1047C98.8915 40.0129 98.5338 39.9932 98.1834 40.0469C97.833 40.1007 97.4976 40.2267 97.1984 40.417L97.1927 40.4189ZM96.4302 30.9324C96.5263 31.0285 96.6311 31.1314 96.7292 31.2324C96.9917 31.5016 96.9927 31.5487 96.7206 31.8208L91.7561 36.7862C91.1792 37.3631 90.6023 37.9477 90.0196 38.517C89.8273 38.7025 89.8398 38.8304 90.0196 39.0122C91.0677 40.0477 92.1061 41.092 93.1465 42.1343C93.4109 42.3987 93.435 42.4516 93.209 42.6804L92.9908 42.9006C92.5235 43.3756 92.6061 43.3122 92.034 42.7439C90.7892 41.5061 89.5475 40.265 88.309 39.0208C88.0206 38.7323 88.0033 38.7016 88.2388 38.4612L95.7725 30.9275C96.0908 30.615 96.1196 30.615 96.436 30.9304L96.4302 30.9324ZM83.0215 30.2881C83.6225 30.8977 84.2311 31.5006 84.8359 32.1064C84.9542 32.2247 85.0283 32.3535 84.8859 32.4968C84.6093 32.8172 84.3025 33.1102 83.9696 33.3718C83.5313 33.6714 82.9981 33.799 82.4717 33.7304C81.9452 33.6617 81.4626 33.4016 81.1158 32.9997C80.3638 32.2718 80.4071 32.4497 81.085 31.7497C81.2677 31.5574 81.4552 31.3785 81.6408 31.1939C81.9398 30.8948 82.2436 30.5997 82.5369 30.2948C82.5621 30.2528 82.5975 30.2179 82.6399 30.1934C82.6823 30.1689 82.7303 30.1556 82.7792 30.1547C82.8282 30.1539 82.8766 30.1655 82.9198 30.1885C82.963 30.2115 82.9997 30.2451 83.0263 30.2862L83.0215 30.2881ZM79.56 26.8266C80.1465 27.4234 80.7379 28.0154 81.334 28.6025C81.3756 28.6317 81.4095 28.6706 81.4327 28.7158C81.4559 28.761 81.4678 28.8112 81.4673 28.862C81.4668 28.9128 81.454 28.9627 81.43 29.0075C81.4059 29.0522 81.3713 29.0905 81.3292 29.1189C80.7273 29.715 80.1286 30.3138 79.5331 30.915C79.5051 30.9573 79.4671 30.992 79.4225 31.0159C79.3778 31.0399 79.328 31.0525 79.2773 31.0525C79.2266 31.0525 79.1768 31.0399 79.1321 31.0159C79.0875 30.992 79.0495 30.9573 79.0215 30.915C78.4363 30.3176 77.8446 29.7259 77.2465 29.14C77.0542 28.9554 77.0706 28.8102 77.2571 28.6343C77.5648 28.3458 77.8581 28.0381 78.1571 27.7381C78.4561 27.4381 78.7619 27.1448 79.0533 26.8381C79.2311 26.6497 79.3783 26.6333 79.5629 26.8218L79.56 26.8266ZM86.5292 19.9035C87.8754 21.2583 89.2215 22.5958 90.5677 23.9525C90.9302 24.339 91.1332 24.8482 91.1358 25.3781C91.1385 25.9079 90.9407 26.4192 90.5821 26.8093C89.2292 28.1804 87.8581 29.5343 86.5004 30.9016C86.3081 31.0939 86.1792 31.0737 86.0004 30.892C85.1292 30.0083 84.2485 29.1343 83.3715 28.2573C82.4946 27.3804 81.6408 26.5323 80.7831 25.6679C80.5446 25.4285 80.5244 25.3795 80.7283 25.1708L80.7888 25.1093C82.5196 23.3785 84.2504 21.6442 85.9811 19.9064C86.1908 19.6948 86.3283 19.691 86.5321 19.8977L86.5292 19.9035ZM76.0484 23.317C76.6523 23.9247 77.2581 24.5304 77.8658 25.1343C78.0331 25.2997 78.0129 25.44 77.8523 25.5958C77.5408 25.8977 77.2379 26.2073 76.9311 26.5141C76.6244 26.8208 76.3148 27.1237 76.0129 27.4352C75.988 27.4733 75.9542 27.5047 75.9144 27.5267C75.8746 27.5487 75.8301 27.5607 75.7846 27.5617C75.7392 27.5626 75.6942 27.5525 75.6535 27.5321C75.6129 27.5118 75.5778 27.4818 75.5513 27.4448C75.257 27.1691 74.988 26.8676 74.7475 26.5439C74.5021 26.1648 74.3859 25.7166 74.416 25.2661C74.4462 24.8156 74.6211 24.3869 74.9148 24.0439C75.1504 23.7948 75.4004 23.5631 75.6379 23.3131C75.66 23.2789 75.6901 23.2506 75.7258 23.2309C75.7614 23.2111 75.8014 23.2005 75.8421 23.1999C75.8828 23.1994 75.9231 23.2089 75.9592 23.2276C75.9954 23.2464 76.0264 23.2737 76.0494 23.3073L76.0484 23.317ZM79.5379 19.8554C80.1315 20.4586 80.7302 21.0573 81.334 21.6516C81.4956 21.8112 81.5129 21.94 81.3427 22.1073C80.7247 22.715 80.1116 23.3275 79.5033 23.9448C79.3533 24.0958 79.2273 24.1131 79.0696 23.9535C78.4677 23.3439 77.8616 22.7384 77.2513 22.1372C77.0773 21.967 77.1061 21.8391 77.2677 21.6843C77.5811 21.3852 77.8821 21.0737 78.1888 20.767C78.4956 20.4602 78.7936 20.1737 79.084 19.867C79.2436 19.6948 79.3715 19.6804 79.5388 19.8458L79.5379 19.8554ZM84.135 17.5189C84.3725 17.7362 84.5898 17.9766 84.8225 18.1997C84.9831 18.3525 84.9706 18.4823 84.8158 18.6323C84.5042 18.9333 84.2013 19.2439 83.8946 19.5506C83.5879 19.8573 83.2917 20.1458 82.9985 20.4506C82.8417 20.6131 82.7033 20.6304 82.5379 20.4641C81.9347 19.8551 81.3289 19.2493 80.7206 18.6468C80.6866 18.6244 80.6588 18.594 80.6395 18.5583C80.6203 18.5225 80.6102 18.4826 80.6102 18.442C80.6102 18.4014 80.6203 18.3614 80.6395 18.3256C80.6588 18.2899 80.6866 18.2595 80.7206 18.2372C80.9831 17.9872 81.2283 17.717 81.4975 17.4747C81.8718 17.1707 82.3411 17.0081 82.8232 17.0151C83.3053 17.0221 83.7697 17.1984 84.135 17.5131V17.5189ZM79.5677 97.6343V96.0189H80.2408C80.66 96.0401 81.0719 95.9028 81.3946 95.6343C81.5348 95.5142 81.6466 95.3646 81.7221 95.1962C81.7975 95.0278 81.8348 94.8447 81.8311 94.6602C81.8373 94.4685 81.8011 94.2778 81.7251 94.1016C81.6492 93.9254 81.5353 93.7682 81.3917 93.641C81.0552 93.3626 80.6258 93.2218 80.1898 93.2468H79.0388V97.6343H79.5677ZM80.2408 95.5698H79.5677V93.692H80.1994C80.4941 93.6728 80.785 93.7659 81.0138 93.9525C81.1102 94.0418 81.1859 94.1511 81.2357 94.2726C81.2855 94.3942 81.3083 94.5252 81.3023 94.6564C81.3058 94.7793 81.2826 94.9015 81.2343 95.0145C81.186 95.1276 81.1137 95.2288 81.0225 95.3112C80.8066 95.4931 80.5293 95.5853 80.2475 95.5689L80.2408 95.5698ZM83.1523 97.6343V93.2448H82.6244V97.6343H83.1523ZM84.7215 97.6343V95.615C84.7215 94.8772 84.7106 94.3003 84.6888 93.8843L84.7994 94.0862C84.8776 94.2253 85.01 94.4545 85.1965 94.7737C85.3831 95.0929 85.5872 95.4372 85.809 95.8064L86.91 97.6429H87.5744V93.2535H87.0465V95.1093C87.0465 95.9516 87.0552 96.5833 87.0725 97.0045L85.9619 95.0948L84.8609 93.2448H84.1965V97.6343H84.7215ZM91.6446 97.7064C91.9138 97.7144 92.18 97.6478 92.4138 97.5141V97.0256C92.2062 97.1664 91.9609 97.2415 91.71 97.241C91.5424 97.2512 91.3747 97.2248 91.2184 97.1635C91.0621 97.1022 90.9211 97.0076 90.8052 96.8862C90.5889 96.641 90.4726 96.3236 90.4792 95.9968C90.4698 95.666 90.5903 95.3447 90.8148 95.1016C90.9294 94.9808 91.0687 94.8859 91.2231 94.8236C91.3776 94.7612 91.5436 94.7327 91.71 94.74C91.9597 94.7343 92.2052 94.8047 92.4138 94.942V94.4612C92.1816 94.3368 91.9214 94.2739 91.6581 94.2785C91.4253 94.2673 91.193 94.3069 90.9771 94.3946C90.7613 94.4823 90.5671 94.6159 90.4081 94.7862C90.1051 95.1161 89.9405 95.5499 89.9484 95.9977C89.9382 96.4468 90.1031 96.8823 90.4081 97.2122C90.5672 97.3787 90.7604 97.5091 90.9744 97.5944C91.1885 97.6797 91.4183 97.7179 91.6485 97.7064H91.6446ZM94.5494 97.6929C94.7643 97.7038 94.9788 97.6662 95.1772 97.583C95.3756 97.4998 95.5528 97.373 95.6956 97.2122C95.9802 96.8715 96.1285 96.4375 96.1119 95.9939C96.1292 95.5501 95.9847 95.1151 95.7052 94.7699C95.5618 94.6076 95.3835 94.48 95.1836 94.3967C94.9837 94.3134 94.7675 94.2766 94.5513 94.2891C94.3412 94.2824 94.1323 94.3231 93.94 94.4082C93.7478 94.4932 93.5771 94.6204 93.4408 94.7804C93.151 95.1226 92.9989 95.5602 93.0138 96.0083C92.9978 96.4481 93.1451 96.8783 93.4273 97.216C93.5669 97.3752 93.7407 97.5009 93.9357 97.5836C94.1306 97.6664 94.3417 97.7041 94.5533 97.6939L94.5494 97.6929ZM94.5494 97.2372C94.4074 97.2414 94.2666 97.2107 94.1393 97.1476C94.012 97.0846 93.9022 96.9911 93.8196 96.8756C93.6334 96.6223 93.5373 96.3139 93.5465 95.9997C93.5365 95.6811 93.6303 95.3679 93.8138 95.1074C93.8967 94.9905 94.0073 94.896 94.1357 94.8324C94.2641 94.7688 94.4062 94.738 94.5494 94.7429C94.698 94.7325 94.8468 94.7595 94.9822 94.8214C95.1176 94.8834 95.2353 94.9784 95.3244 95.0977C95.5024 95.3639 95.5912 95.6797 95.5783 95.9997C95.5894 96.3154 95.4954 96.6259 95.311 96.8823C95.2231 96.9988 95.1082 97.092 94.9761 97.154C94.8441 97.216 94.699 97.2449 94.5533 97.2381L94.5494 97.2372ZM98.0792 97.6862C98.2813 97.6945 98.482 97.6488 98.6606 97.5538C98.8393 97.4588 98.9894 97.318 99.0956 97.1458V97.6343H99.61V93.0295H99.0956V94.8333C98.9929 94.66 98.8458 94.5173 98.6695 94.42C98.4931 94.3226 98.294 94.2741 98.0927 94.2795C97.8967 94.2752 97.7025 94.3164 97.5251 94.3998C97.3478 94.4832 97.1922 94.6066 97.0706 94.7602C96.8153 95.1147 96.6761 95.5395 96.672 95.9763C96.6678 96.4131 96.799 96.8404 97.0475 97.1997C97.1676 97.3588 97.3246 97.4864 97.5051 97.5713C97.6855 97.6563 97.8839 97.696 98.0831 97.6872L98.0792 97.6862ZM98.1244 97.217C97.9963 97.2182 97.8697 97.1887 97.7553 97.131C97.6409 97.0733 97.5419 96.989 97.4667 96.8852C97.2839 96.6348 97.192 96.3296 97.2061 96.0198C97.1837 95.6842 97.2792 95.3512 97.4763 95.0785C97.5564 94.9745 97.6597 94.8907 97.7778 94.8336C97.896 94.7765 98.0259 94.7478 98.1571 94.7497C98.2786 94.7515 98.3984 94.778 98.5093 94.8276C98.6203 94.8772 98.7199 94.9488 98.8023 95.0381C98.9087 95.1645 98.9889 95.3108 99.0385 95.4684C99.088 95.626 99.1057 95.7919 99.0908 95.9564C99.122 96.3013 99.0206 96.6452 98.8071 96.9179C98.7215 97.0127 98.6169 97.0883 98.5001 97.14C98.3833 97.1917 98.2569 97.2183 98.1292 97.2179L98.1244 97.217ZM102.032 97.666C102.356 97.6759 102.678 97.6066 102.97 97.4641V96.9833C102.704 97.1473 102.395 97.2267 102.084 97.2112C101.788 97.2251 101.497 97.1327 101.264 96.9506C101.046 96.7594 100.913 96.4903 100.893 96.2016H103.147C103.169 96.0746 103.18 95.9459 103.179 95.817C103.206 95.4086 103.075 95.0055 102.815 94.69C102.689 94.5568 102.536 94.4523 102.366 94.3838C102.197 94.3152 102.014 94.2842 101.831 94.2929C101.632 94.2865 101.434 94.3241 101.251 94.4028C101.069 94.4816 100.905 94.5997 100.773 94.7487C100.484 95.0967 100.338 95.5412 100.363 95.9929C100.349 96.2158 100.382 96.4392 100.461 96.6481C100.54 96.8571 100.662 97.047 100.82 97.2053C100.977 97.3635 101.167 97.4865 101.375 97.5661C101.584 97.6457 101.807 97.6801 102.03 97.667L102.032 97.666ZM102.664 95.7708H100.893C100.903 95.4892 101.011 95.2199 101.198 95.0093C101.279 94.9233 101.377 94.8551 101.486 94.8091C101.595 94.763 101.712 94.7402 101.83 94.742C101.944 94.7358 102.058 94.7544 102.163 94.7966C102.269 94.8388 102.364 94.9035 102.443 94.9862C102.597 95.1683 102.676 95.4025 102.664 95.641V95.7708Z" fill="url(#paint0_linear)"/>
<defs>
<linearGradient id="paint0_linear" x1="88.4618" y1="0.0371094" x2="88.4618" y2="120.512" gradientUnits="userSpaceOnUse">
<stop stop-color="#31FD9F"/>
<stop offset="1" stop-color="#10B8EA"/>
</linearGradient>
</defs>
<defs>
<linearGradient id="paint0_linear" x1="228.6" y1="34" x2="-26.4" y2="159.4" gradientUnits="userSpaceOnUse">
<stop stop-color="#31FD9F"/>
<stop offset="1" stop-color="#10B8EA"/>
</linearGradient>
</defs>
</svg>
