<svg width="313" height="54" viewBox="0 0 313 54" fill="none" xmlns="http://www.w3.org/2000/svg">
<rect y="1.39844" width="177.189" height="51.1473" rx="7.69911" fill="#3D4047"/>
<g filter="url(#filter0_i)">
<circle cx="25.5745" cy="26.9719" r="14.6135" fill="#3D4047"/>
</g>
<path d="M121.694 29.7231C121.742 29.7231 121.79 29.675 121.838 29.675L124.485 27.1728C124.581 27.0766 124.581 26.9322 124.533 26.836L121.886 24.3338C121.838 24.2856 121.79 24.2856 121.742 24.2856C121.597 24.2856 121.501 24.3819 121.501 24.5262C121.501 24.5744 121.501 24.6225 121.549 24.6706L124.003 26.9803L121.549 29.3382C121.501 29.3863 121.453 29.4344 121.453 29.4825C121.453 29.6269 121.549 29.7231 121.694 29.7231Z" fill="white"/>
<g clip-path="url(#clip0)">
<path d="M87 17.1455C85.4715 17.1455 84.0854 17.9818 83.0626 19.34C82.9791 19.4513 82.9791 19.6068 83.0626 19.7181C84.0854 21.078 85.4715 21.9142 87 21.9142C88.5285 21.9142 89.9146 21.078 90.9374 19.7197C91.0209 19.6084 91.0209 19.453 90.9374 19.3417C89.9146 17.9818 88.5285 17.1455 87 17.1455ZM87.1096 21.2089C86.095 21.2727 85.2571 20.4365 85.321 19.4202C85.3733 18.5823 86.0525 17.9032 86.8904 17.8508C87.905 17.787 88.7429 18.6233 88.679 19.6395C88.625 20.4758 87.9459 21.1549 87.1096 21.2089ZM87.0589 20.4332C86.5123 20.4676 86.0607 20.0176 86.0967 19.471C86.1245 19.0193 86.4911 18.6544 86.9427 18.6249C87.4893 18.5905 87.941 19.0406 87.905 19.5872C87.8755 20.0405 87.5089 20.4054 87.0589 20.4332Z" fill="white"/>
</g>
<path d="M80.5103 32.5107H81.6757L83.1825 27.9901H82.1174L81.1211 31.4581H81.0648L80.0654 27.9901H79.0034L80.5103 32.5107ZM84.3579 28.5321C84.6399 28.5321 84.8717 28.3066 84.8717 28.0246C84.8717 27.7395 84.6399 27.514 84.3579 27.514C84.076 27.514 83.841 27.7395 83.841 28.0246C83.841 28.3066 84.076 28.5321 84.3579 28.5321ZM83.8974 32.5107H84.8122V29.0616H83.8974V32.5107ZM87.2751 32.5828C88.2839 32.5828 88.7287 32.0001 88.8352 31.5678L88.8415 31.5364H87.9894L87.98 31.5552C87.9173 31.6868 87.6949 31.8999 87.2939 31.8999C86.8083 31.8999 86.5045 31.5709 86.4951 31.0039H88.8697V30.7188C88.8697 29.6756 88.2431 28.9864 87.2375 28.9864C86.2319 28.9864 85.5897 29.6912 85.5897 30.7877V30.7908C85.5897 31.8967 86.2256 32.5828 87.2751 32.5828ZM87.2532 29.6724C87.6511 29.6724 87.9361 29.9293 87.9925 30.4306H86.5045C86.5608 29.9419 86.8553 29.6724 87.2532 29.6724ZM90.2362 32.5107H91.1948L91.8057 30.1048H91.8621L92.4793 32.5107H93.4504L94.3683 29.0616H93.463L92.9492 31.5584H92.8928L92.285 29.0616H91.4141L90.8095 31.5584H90.7531L90.2393 29.0616H89.3152L90.2362 32.5107Z" fill="white"/>
<path d="M69.1174 40H70.0635V36.2595H71.42V35.4794H67.7609V36.2595H69.1174V40ZM71.8278 40H72.7426V38.0702C72.7426 37.5815 73.0715 37.2839 73.5916 37.2839C73.7326 37.2839 73.8735 37.3058 74.0114 37.3371V36.5383C73.9205 36.5132 73.7921 36.4944 73.6699 36.4944C73.2219 36.4944 72.9086 36.7137 72.799 37.0865H72.7426V36.5508H71.8278V40ZM75.5251 40.0533C75.9762 40.0533 76.3396 39.8622 76.5151 39.5426H76.5715V40H77.4737V37.6442C77.4737 36.908 76.9568 36.4756 76.042 36.4756C75.1742 36.4756 74.6041 36.8766 74.532 37.4812L74.5289 37.5094H75.3747L75.381 37.4969C75.4531 37.2933 75.663 37.1774 75.9919 37.1774C76.3678 37.1774 76.5715 37.3465 76.5715 37.6442V37.9292L75.7381 37.9794C74.8798 38.0295 74.4004 38.3929 74.4004 39.0132V39.0194C74.4004 39.646 74.8672 40.0533 75.5251 40.0533ZM75.2933 38.9631V38.9568C75.2933 38.7062 75.4844 38.5589 75.876 38.5339L76.5715 38.49V38.7438C76.5715 39.1072 76.255 39.386 75.8321 39.386C75.5157 39.386 75.2933 39.2262 75.2933 38.9631ZM78.3953 40H79.3101V38.0044C79.3101 37.5376 79.567 37.2338 79.9899 37.2338C80.4222 37.2338 80.6227 37.4906 80.6227 37.9762V40H81.5375V37.7695C81.5375 36.9455 81.124 36.4756 80.3565 36.4756C79.8646 36.4756 79.5231 36.7106 79.3665 37.0834H79.3101V36.5508H78.3953V40ZM83.8219 40.0721C84.7053 40.0721 85.335 39.6272 85.335 38.9443V38.9411C85.335 38.4305 85.0124 38.1423 84.3231 37.995L83.7498 37.8728C83.3927 37.7945 83.2643 37.688 83.2643 37.5032V37.5C83.2643 37.2682 83.4898 37.121 83.8062 37.121C84.1477 37.121 84.3513 37.2933 84.4015 37.4781L84.4046 37.4938H85.2536V37.4812C85.216 36.9267 84.7147 36.4756 83.8094 36.4756C82.9479 36.4756 82.3714 36.908 82.3714 37.5564V37.5596C82.3714 38.0765 82.6972 38.3992 83.3551 38.5401L83.9315 38.6623C84.2824 38.7406 84.4203 38.8565 84.4203 39.0414V39.0476C84.4203 39.2763 84.1822 39.4267 83.8313 39.4267C83.471 39.4267 83.2611 39.2732 83.1891 39.0602L83.1828 39.0476H82.2837L82.2868 39.0602C82.3526 39.6523 82.8852 40.0721 83.8219 40.0721ZM87.0493 40.0533C87.5004 40.0533 87.8638 39.8622 88.0392 39.5426H88.0956V40H88.9978V37.6442C88.9978 36.908 88.4809 36.4756 87.5662 36.4756C86.6984 36.4756 86.1282 36.8766 86.0562 37.4812L86.053 37.5094H86.8989L86.9052 37.4969C86.9772 37.2933 87.1871 37.1774 87.516 37.1774C87.892 37.1774 88.0956 37.3465 88.0956 37.6442V37.9292L87.2623 37.9794C86.4039 38.0295 85.9246 38.3929 85.9246 39.0132V39.0194C85.9246 39.646 86.3914 40.0533 87.0493 40.0533ZM86.8174 38.9631V38.9568C86.8174 38.7062 87.0085 38.5589 87.4001 38.5339L88.0956 38.49V38.7438C88.0956 39.1072 87.7792 39.386 87.3563 39.386C87.0399 39.386 86.8174 39.2262 86.8174 38.9631ZM91.4389 40.0721C92.338 40.0721 92.8768 39.5896 92.9708 38.8377L92.9739 38.8189H92.1281L92.1218 38.8315C92.0404 39.1761 91.8179 39.3546 91.442 39.3546C90.9533 39.3546 90.6808 38.9693 90.6808 38.2707V38.2644C90.6808 37.5752 90.9502 37.193 91.442 37.193C91.8336 37.193 92.0623 37.4123 92.1218 37.7475L92.125 37.7538H92.9771V37.7444C92.8956 36.9737 92.3537 36.4756 91.4389 36.4756C90.3581 36.4756 89.7503 37.1304 89.7503 38.2644V38.2707C89.7503 39.4173 90.3612 40.0721 91.4389 40.0721ZM95.18 40.0125C95.3555 40.0125 95.5246 39.9937 95.6374 39.9718V39.292C95.5497 39.3014 95.487 39.3077 95.368 39.3077C95.0578 39.3077 94.9263 39.1698 94.9263 38.8597V37.24H95.6374V36.5508H94.9263V35.7269H94.0021V36.5508H93.4695V37.24H94.0021V39.0696C94.0021 39.74 94.3404 40.0125 95.18 40.0125ZM96.8911 36.0214C97.1731 36.0214 97.4049 35.7958 97.4049 35.5139C97.4049 35.2288 97.1731 35.0032 96.8911 35.0032C96.6092 35.0032 96.3742 35.2288 96.3742 35.5139C96.3742 35.7958 96.6092 36.0214 96.8911 36.0214ZM96.4306 40H97.3454V36.5508H96.4306V40ZM99.824 40.0721C100.886 40.0721 101.525 39.4016 101.525 38.277V38.2707C101.525 37.1554 100.877 36.4756 99.824 36.4756C98.7714 36.4756 98.1229 37.1586 98.1229 38.2707V38.277C98.1229 39.3985 98.762 40.0721 99.824 40.0721ZM99.824 39.3546C99.3353 39.3546 99.0596 38.9568 99.0596 38.277V38.2707C99.0596 37.5972 99.3384 37.193 99.824 37.193C100.306 37.193 100.588 37.5972 100.588 38.2707V38.277C100.588 38.9568 100.31 39.3546 99.824 39.3546ZM102.296 40H103.211V38.0044C103.211 37.5376 103.468 37.2338 103.891 37.2338C104.323 37.2338 104.524 37.4906 104.524 37.9762V40H105.439V37.7695C105.439 36.9455 105.025 36.4756 104.257 36.4756C103.766 36.4756 103.424 36.7106 103.268 37.0834H103.211V36.5508H102.296V40Z" fill="white"/>
<g filter="url(#filter1_d)">
<path d="M135 27.0443C135 13.2567 146.177 2.07959 159.965 2.07959L175.187 2.07959L175.187 52.0091L159.965 52.0091C146.177 52.0091 135 40.832 135 27.0443Z" fill="#C7C7C7"/>
</g>
<path d="M135 27.0444C135 12.9204 146.45 1.4707 160.574 1.4707L304.49 1.4707C308.742 1.4707 312.189 4.91771 312.189 9.16981V44.9189C312.189 49.171 308.742 52.618 304.49 52.618L160.574 52.618C146.45 52.618 135 41.1683 135 27.0444Z" fill="#C7C7C7"/>
<g filter="url(#filter2_i)">
<ellipse cx="160.574" cy="27.0452" rx="14.6135" ry="14.6135" fill="#C7C7C7"/>
</g>
<defs>
<filter id="filter0_i" x="10.9609" y="12.3584" width="29.227" height="29.227" filterUnits="userSpaceOnUse" color-interpolation-filters="sRGB">
<feFlood flood-opacity="0" result="BackgroundImageFix"/>
<feBlend mode="normal" in="SourceGraphic" in2="BackgroundImageFix" result="shape"/>
<feColorMatrix in="SourceAlpha" type="matrix" values="0 0 0 0 0 0 0 0 0 0 0 0 0 0 0 0 0 0 127 0" result="hardAlpha"/>
<feOffset/>
<feGaussianBlur stdDeviation="1.28318"/>
<feComposite in2="hardAlpha" operator="arithmetic" k2="-1" k3="1"/>
<feColorMatrix type="matrix" values="0 0 0 0 0 0 0 0 0 0 0 0 0 0 0 0 0 0 1 0"/>
<feBlend mode="normal" in2="shape" result="effect1_innerShadow"/>
</filter>
<filter id="filter1_d" x="132.434" y="0.796405" width="42.7535" height="52.4959" filterUnits="userSpaceOnUse" color-interpolation-filters="sRGB">
<feFlood flood-opacity="0" result="BackgroundImageFix"/>
<feColorMatrix in="SourceAlpha" type="matrix" values="0 0 0 0 0 0 0 0 0 0 0 0 0 0 0 0 0 0 127 0" result="hardAlpha"/>
<feOffset dx="-1.28318"/>
<feGaussianBlur stdDeviation="0.641592"/>
<feColorMatrix type="matrix" values="0 0 0 0 0 0 0 0 0 0 0 0 0 0 0 0 0 0 1 0"/>
<feBlend mode="normal" in2="BackgroundImageFix" result="effect1_dropShadow"/>
<feBlend mode="normal" in="SourceGraphic" in2="effect1_dropShadow" result="shape"/>
</filter>
<filter id="filter2_i" x="145.961" y="12.4316" width="29.227" height="29.227" filterUnits="userSpaceOnUse" color-interpolation-filters="sRGB">
<feFlood flood-opacity="0" result="BackgroundImageFix"/>
<feBlend mode="normal" in="SourceGraphic" in2="BackgroundImageFix" result="shape"/>
<feColorMatrix in="SourceAlpha" type="matrix" values="0 0 0 0 0 0 0 0 0 0 0 0 0 0 0 0 0 0 127 0" result="hardAlpha"/>
<feOffset/>
<feGaussianBlur stdDeviation="1.28318"/>
<feComposite in2="hardAlpha" operator="arithmetic" k2="-1" k3="1"/>
<feColorMatrix type="matrix" values="0 0 0 0 0 0 0 0 0 0 0 0 0 0 0 0 0 0 0.25 0"/>
<feBlend mode="normal" in2="shape" result="effect1_innerShadow"/>
</filter>
<clipPath id="clip0">
<rect width="8" height="8" fill="white" transform="translate(83 15.5298)"/>
</clipPath>
</defs>
</svg>
