<svg width="64" height="64" viewBox="0 0 64 64" fill="none" xmlns="http://www.w3.org/2000/svg">
<g opacity="0.9">
<path opacity="0.2" d="M55.065 2H13.9058C9.65255 2 6.20459 5.44796 6.20459 9.70123V47.867C6.20459 52.1203 9.65255 55.5683 13.9058 55.5683H55.065C59.3182 55.5683 62.7662 52.1203 62.7662 47.867V9.70123C62.7662 5.44796 59.3182 2 55.065 2Z" fill="#007FFF"/>
<path d="M48.7385 8.69531H7.74C3.49093 8.69531 0.0463867 12.1399 0.0463867 16.3889V54.5666C0.0463867 58.8157 3.49093 62.2602 7.74 62.2602H48.7385C52.9875 62.2602 56.4321 58.8157 56.4321 54.5666V16.3889C56.4321 12.1399 52.9875 8.69531 48.7385 8.69531Z" fill="#1D1E22"/>
<path d="M54.7594 39.8601C54.5335 39.8599 54.3098 39.9042 54.1011 39.9906C53.8923 40.0769 53.7027 40.2036 53.543 40.3633C53.3832 40.523 53.2566 40.7127 53.1702 40.9214C53.0839 41.1302 53.0395 41.3539 53.0398 41.5798V54.6426C53.0359 55.7453 52.5958 56.8016 51.8157 57.5809C51.0355 58.3601 49.9787 58.7989 48.876 58.8015H7.60808C6.50541 58.7989 5.44856 58.3601 4.6684 57.5809C3.88823 56.8016 3.44816 55.7453 3.44433 54.6426V16.3115C3.4488 15.2086 3.88891 14.1521 4.66879 13.3722C5.44868 12.5923 6.50515 12.1522 7.60808 12.1477H20.666C21.1218 12.1463 21.5586 11.9643 21.8804 11.6415C22.2023 11.3187 22.383 10.8814 22.383 10.4255C22.383 9.96967 22.2023 9.5324 21.8804 9.20957C21.5586 8.88675 21.1218 8.70472 20.666 8.70337H7.60808C5.59221 8.70961 3.66068 9.51317 2.23524 10.9386C0.809801 12.3641 0.0062372 14.2956 0 16.3114V54.6426C0.0062372 56.6585 0.809801 58.59 2.23524 60.0154C3.66068 61.4409 5.59221 62.2444 7.60808 62.2507H48.8759C50.8918 62.2444 52.8233 61.4409 54.2488 60.0154C55.6742 58.59 56.4778 56.6585 56.484 54.6426V41.5797C56.4833 41.123 56.3012 40.6852 55.9778 40.3627C55.6544 40.0403 55.2161 39.8594 54.7594 39.8601Z" fill="#007FFF"/>
<g opacity="0.4">
<path d="M11.156 17.8621H23.3347C23.5344 17.8621 23.7322 17.9014 23.9167 17.9778C24.1013 18.0543 24.2689 18.1663 24.4102 18.3075C24.5514 18.4488 24.6634 18.6164 24.7399 18.801C24.8163 18.9855 24.8557 19.1833 24.8557 19.383V19.5606C24.8557 19.7604 24.8163 19.9582 24.7399 20.1428C24.6634 20.3274 24.5514 20.4951 24.4101 20.6363C24.2688 20.7776 24.1011 20.8897 23.9165 20.9661C23.732 21.0425 23.5341 21.0819 23.3344 21.0819H11.156C10.9563 21.0819 10.7584 21.0425 10.5739 20.9661C10.3893 20.8896 10.2216 20.7776 10.0803 20.6363C9.93905 20.4951 9.827 20.3273 9.75055 20.1428C9.6741 19.9582 9.63476 19.7604 9.63477 19.5606V19.3833C9.63476 19.1835 9.67411 18.9857 9.75056 18.8011C9.82701 18.6166 9.93907 18.4489 10.0803 18.3076C10.2216 18.1663 10.3893 18.0543 10.5739 17.9778C10.7584 17.9014 10.9563 17.8621 11.156 17.8621Z" fill="#007FFF"/>
<path d="M11.1558 24.3081H23.3346C23.738 24.3081 24.1249 24.4683 24.4101 24.7536C24.6953 25.0388 24.8556 25.4257 24.8556 25.829V26.0066C24.8556 26.4101 24.6953 26.797 24.41 27.0823C24.1248 27.3676 23.7378 27.5279 23.3344 27.5279H11.156C10.9563 27.5279 10.7584 27.4885 10.5739 27.4121C10.3893 27.3356 10.2216 27.2236 10.0803 27.0823C9.93907 26.9411 9.82701 26.7734 9.75056 26.5888C9.67411 26.4042 9.63476 26.2064 9.63477 26.0066V25.829C9.63477 25.6293 9.67411 25.4315 9.75055 25.247C9.82699 25.0625 9.93903 24.8948 10.0803 24.7536C10.2215 24.6123 10.3892 24.5003 10.5737 24.4239C10.7582 24.3474 10.956 24.3081 11.1558 24.3081Z" fill="#007FFF"/>
<path d="M11.156 30.7742H23.3347C23.5344 30.7742 23.7322 30.8135 23.9167 30.8899C24.1013 30.9664 24.2689 31.0784 24.4102 31.2196C24.5514 31.3609 24.6634 31.5285 24.7399 31.7131C24.8163 31.8976 24.8557 32.0954 24.8557 32.2951V32.4727C24.8557 32.8762 24.6954 33.2631 24.4101 33.5484C24.1248 33.8337 23.7379 33.9939 23.3344 33.9939H11.156C10.9563 33.9939 10.7584 33.9546 10.5739 33.8781C10.3893 33.8017 10.2216 33.6897 10.0803 33.5484C9.93908 33.4071 9.82702 33.2394 9.75057 33.0549C9.67411 32.8703 9.63477 32.6725 9.63477 32.4727V32.2954C9.63476 32.0956 9.67411 31.8978 9.75056 31.7132C9.82701 31.5287 9.93907 31.361 10.0803 31.2197C10.2216 31.0785 10.3893 30.9664 10.5739 30.89C10.7584 30.8135 10.9563 30.7742 11.156 30.7742Z" fill="#007FFF"/>
<path d="M11.156 37.2197H23.3347C23.5344 37.2197 23.7322 37.2591 23.9167 37.3355C24.1013 37.4119 24.2689 37.524 24.4102 37.6652C24.5514 37.8064 24.6634 37.9741 24.7399 38.1586C24.8163 38.3432 24.8557 38.5409 24.8557 38.7407V38.9185C24.8557 39.1183 24.8163 39.3161 24.7399 39.5006C24.6634 39.6851 24.5514 39.8528 24.4102 39.994C24.2689 40.1352 24.1013 40.2473 23.9167 40.3237C23.7322 40.4001 23.5344 40.4395 23.3347 40.4395H11.156C10.9563 40.4395 10.7584 40.4001 10.5739 40.3237C10.3893 40.2473 10.2216 40.1352 10.0803 39.9939C9.93908 39.8527 9.82702 39.685 9.75057 39.5004C9.67412 39.3159 9.63477 39.118 9.63477 38.9183V38.741C9.63476 38.5412 9.67411 38.3434 9.75056 38.1588C9.82701 37.9742 9.93906 37.8065 10.0803 37.6653C10.2216 37.524 10.3893 37.412 10.5739 37.3355C10.7584 37.2591 10.9563 37.2197 11.156 37.2197Z" fill="#007FFF"/>
<path d="M11.156 43.6702H23.3347C23.5344 43.6702 23.7322 43.7095 23.9167 43.7859C24.1013 43.8624 24.2689 43.9744 24.4102 44.1156C24.5514 44.2569 24.6634 44.4245 24.7399 44.6091C24.8163 44.7936 24.8557 44.9914 24.8557 45.1911V45.369C24.8557 45.5687 24.8163 45.7665 24.7399 45.951C24.6634 46.1356 24.5514 46.3032 24.4102 46.4445C24.2689 46.5857 24.1013 46.6977 23.9167 46.7742C23.7322 46.8506 23.5344 46.8899 23.3347 46.8899H11.156C10.9563 46.8899 10.7584 46.8506 10.5739 46.7741C10.3893 46.6977 10.2216 46.5856 10.0803 46.4444C9.93908 46.3031 9.82702 46.1354 9.75057 45.9509C9.67411 45.7663 9.63477 45.5685 9.63477 45.3687V45.1914C9.63477 44.788 9.79504 44.401 10.0803 44.1157C10.3656 43.8305 10.7525 43.6702 11.156 43.6702L11.156 43.6702Z" fill="#007FFF"/>
<path d="M11.156 50.116H23.3347C23.5344 50.116 23.7322 50.1553 23.9167 50.2317C24.1013 50.3082 24.2689 50.4202 24.4102 50.5614C24.5514 50.7027 24.6634 50.8703 24.7399 51.0549C24.8163 51.2394 24.8557 51.4372 24.8557 51.6369V51.8145C24.8557 52.218 24.6954 52.6049 24.4101 52.8902C24.1248 53.1755 23.7379 53.3357 23.3344 53.3357H11.156C10.9563 53.3357 10.7584 53.2964 10.5739 53.2199C10.3893 53.1435 10.2216 53.0314 10.0803 52.8902C9.93907 52.7489 9.82701 52.5812 9.75056 52.3966C9.67411 52.2121 9.63476 52.0143 9.63477 51.8145V51.6372C9.63477 51.4374 9.67411 51.2396 9.75057 51.055C9.82702 50.8705 9.93908 50.7028 10.0803 50.5615C10.2216 50.4202 10.3893 50.3082 10.5739 50.2317C10.7584 50.1553 10.9563 50.116 11.156 50.116Z" fill="#007FFF"/>
<path d="M33.1434 17.8621H45.3217C45.7251 17.8621 46.1121 18.0223 46.3974 18.3076C46.6826 18.5929 46.8429 18.9798 46.8429 19.3833V19.5606C46.8429 19.7604 46.8036 19.9582 46.7271 20.1428C46.6507 20.3273 46.5386 20.495 46.3974 20.6363C46.2561 20.7776 46.0884 20.8896 45.9038 20.9661C45.7193 21.0425 45.5215 21.0819 45.3217 21.0819H33.143C32.9433 21.0819 32.7455 21.0425 32.561 20.9661C32.3764 20.8897 32.2088 20.7776 32.0675 20.6364C31.9263 20.4952 31.8143 20.3275 31.7378 20.143C31.6614 19.9585 31.6221 19.7607 31.6221 19.5609V19.3833C31.6221 19.1836 31.6614 18.9857 31.7379 18.8012C31.8143 18.6166 31.9264 18.4489 32.0676 18.3076C32.2089 18.1663 32.3766 18.0543 32.5612 17.9778C32.7458 17.9014 32.9436 17.8621 33.1434 17.8621Z" fill="#007FFF"/>
<path d="M33.1431 24.3081H45.322C45.7253 24.3081 46.1122 24.4683 46.3974 24.7536C46.6827 25.0388 46.8429 25.4257 46.8429 25.829V26.0066C46.8429 26.4101 46.6826 26.797 46.3974 27.0823C46.1121 27.3676 45.7251 27.5279 45.3217 27.5279H33.143C32.9433 27.5279 32.7455 27.4885 32.561 27.4121C32.3764 27.3357 32.2088 27.2236 32.0675 27.0824C31.9263 26.9412 31.8143 26.7735 31.7378 26.589C31.6614 26.4044 31.6221 26.2067 31.6221 26.0069V25.829C31.6221 25.6293 31.6614 25.4315 31.7378 25.247C31.8143 25.0625 31.9263 24.8948 32.0675 24.7536C32.2088 24.6123 32.3764 24.5003 32.561 24.4239C32.7455 24.3474 32.9433 24.3081 33.143 24.3081H33.1431Z" fill="#007FFF"/>
<path d="M33.1434 30.7742H45.3217C45.7251 30.7742 46.1121 30.9344 46.3974 31.2197C46.6826 31.505 46.8429 31.8919 46.8429 32.2954V32.4727C46.8429 32.8761 46.6826 33.2631 46.3974 33.5484C46.1121 33.8336 45.7251 33.9939 45.3217 33.9939H33.143C32.9433 33.9939 32.7455 33.9546 32.561 33.8781C32.3764 33.8017 32.2088 33.6897 32.0675 33.5484C31.9263 33.4072 31.8143 33.2395 31.7378 33.055C31.6614 32.8705 31.6221 32.6727 31.6221 32.473V32.2954C31.6221 32.0956 31.6614 31.8978 31.7379 31.7132C31.8143 31.5287 31.9264 31.361 32.0677 31.2197C32.2089 31.0784 32.3766 30.9664 32.5612 30.8899C32.7458 30.8135 32.9436 30.7742 33.1434 30.7742Z" fill="#007FFF"/>
<path d="M33.1433 37.2197H45.3216C45.7251 37.2197 46.112 37.38 46.3973 37.6653C46.6826 37.9506 46.8429 38.3375 46.8429 38.741V38.9185C46.8429 39.3219 46.6826 39.7088 46.3974 39.994C46.1122 40.2792 45.7253 40.4395 45.3219 40.4395H33.143C32.7396 40.4395 32.3528 40.2792 32.0675 39.994C31.7823 39.7088 31.6221 39.3219 31.6221 38.9185V38.741C31.6221 38.5412 31.6614 38.3434 31.7379 38.1588C31.8143 37.9742 31.9264 37.8065 32.0676 37.6653C32.2089 37.524 32.3766 37.412 32.5612 37.3355C32.7457 37.2591 32.9435 37.2197 33.1433 37.2197Z" fill="#007FFF"/>
<path d="M33.1433 43.6702H45.3216C45.7251 43.6702 46.112 43.8304 46.3973 44.1157C46.6826 44.401 46.8429 44.7879 46.8429 45.1914V45.369C46.8429 45.7724 46.6826 46.1592 46.3974 46.4445C46.1122 46.7297 45.7253 46.8899 45.3219 46.8899H33.143C32.7396 46.8899 32.3528 46.7297 32.0675 46.4445C31.7823 46.1592 31.6221 45.7724 31.6221 45.369V45.1914C31.6221 44.7879 31.7823 44.401 32.0676 44.1157C32.3529 43.8304 32.7398 43.6702 33.1433 43.6702H33.1433Z" fill="#007FFF"/>
<path d="M33.1434 50.116H45.3217C45.7251 50.116 46.1121 50.2762 46.3974 50.5615C46.6826 50.8468 46.8429 51.2337 46.8429 51.6372V51.8145C46.8429 52.2179 46.6826 52.6049 46.3974 52.8902C46.1121 53.1754 45.7251 53.3357 45.3217 53.3357H33.143C32.9433 53.3357 32.7455 53.2964 32.561 53.2199C32.3764 53.1435 32.2088 53.0315 32.0675 52.8902C31.9263 52.749 31.8143 52.5813 31.7378 52.3968C31.6614 52.2123 31.6221 52.0145 31.6221 51.8148V51.6372C31.6221 51.4374 31.6614 51.2396 31.7379 51.055C31.8143 50.8704 31.9264 50.7027 32.0677 50.5615C32.2089 50.4202 32.3766 50.3082 32.5612 50.2317C32.7458 50.1553 32.9436 50.116 33.1434 50.116Z" fill="#007FFF"/>
</g>
<path d="M61.5197 4.0564C61.2398 4.05594 60.9626 4.11076 60.7039 4.21771C60.4453 4.32466 60.2102 4.48163 60.0124 4.67961L29.3663 35.3313L21.2547 27.2141C21.0569 27.0154 20.8219 26.8577 20.5631 26.75C20.3043 26.6422 20.0268 26.5866 19.7464 26.5862C19.4661 26.5859 19.1885 26.6409 18.9294 26.748C18.6703 26.8551 18.4349 27.0123 18.2367 27.2105C18.0385 27.4087 17.8813 27.6441 17.7741 27.9031C17.667 28.1622 17.612 28.4398 17.6123 28.7202C17.6126 29.0005 17.6682 29.278 17.7759 29.5368C17.8836 29.7957 18.0414 30.0307 18.24 30.2285L27.9522 39.9355C28.7333 40.7162 29.9992 40.7161 30.7801 39.9353L63.027 7.69396C63.3252 7.396 63.5284 7.01625 63.6107 6.60279C63.693 6.18932 63.6508 5.76072 63.4894 5.37125C63.3281 4.98177 63.0547 4.64894 62.7041 4.41488C62.3535 4.18083 61.9413 4.05607 61.5197 4.0564Z" fill="#007FFF"/>
</g>
</svg>
