<svg width="167" height="28" viewBox="0 0 167 28" fill="none" xmlns="http://www.w3.org/2000/svg">
<path d="M0 1.02856H17.4857V5.14285H4.57143V13.1429H15.4286V17.1429H4.57143V27.7714H0V1.02856Z" fill="#007FFF"/>
<path d="M24.9142 27.3142C23.6571 26.8571 22.6285 26.1714 21.8285 25.3714C21.0285 24.5714 20.3428 23.5428 19.8857 22.4C19.4285 21.2571 19.2 20 19.2 18.6285C19.2 16.8 19.5428 15.2 20.3428 13.8285C21.1428 12.4571 22.2857 11.3143 23.7714 10.4C25.2571 9.59997 26.9714 9.14282 28.8 9.14282C30.6285 9.14282 32.3428 9.48568 33.8285 10.2857C35.3142 11.0857 36.4571 12.2285 37.2571 13.6C38.0571 15.0857 38.5142 16.6857 38.5142 18.5143C38.5142 20.3428 38.0571 21.9428 37.2571 23.4285C36.4571 24.9142 35.3142 25.9428 33.8285 26.7428C32.3428 27.5428 30.7428 27.8857 28.9142 27.8857C27.4285 28 26.1714 27.7714 24.9142 27.3142ZM32.6857 22.6285C33.7142 21.6 34.1714 20.2285 34.1714 18.6285C34.1714 16.9142 33.7142 15.6571 32.6857 14.5143C31.6571 13.3714 30.4 12.9143 28.9142 12.9143C27.3142 12.9143 26.0571 13.4857 25.0285 14.5143C24 15.5428 23.5428 16.9143 23.5428 18.5143C23.5428 20.1143 24 21.4857 25.0285 22.5143C26.0571 23.5428 27.3142 24.1143 28.9142 24.1143C30.4 24.1143 31.6571 23.6571 32.6857 22.6285Z" fill="#007FFF"/>
<path d="M53.3715 9.14285V13.8286C52.9143 13.8286 52.4572 13.8286 52.1143 13.8286C51.0857 13.8286 50.1715 14.0571 49.3715 14.5143C48.5715 14.9714 48 15.6571 47.6572 16.3428C47.3143 17.1428 47.0857 18.0571 47.0857 19.0857V27.7714H42.8572V9.37142H47.0857V12.1143C47.7715 11.0857 48.6858 10.4 49.6 9.82856C50.5143 9.25714 51.6572 9.02856 52.8 9.02856C53.1429 9.02856 53.2572 9.02856 53.3715 9.14285Z" fill="#007FFF"/>
<path d="M69.8286 9.48571C70.7429 9.82857 71.5429 10.1714 72.2286 10.7429C72.9143 11.3143 73.6 12 74.0572 12.8C74.6286 13.6 74.9715 14.5143 75.3143 15.4286C75.6572 16.3429 75.7715 17.4857 75.7715 18.5143C75.7715 19.8857 75.5429 21.1429 75.0858 22.4C74.6286 23.5429 74.0572 24.5714 73.2572 25.3714C72.4572 26.1714 71.5429 26.8571 70.4 27.2C69.2572 27.6571 68.1143 27.8857 66.8572 27.8857C64.2286 27.8857 62.2858 26.9714 60.9143 25.1429H60.8V27.6571H56.8V0H61.0286V11.5429H61.1429C62.5143 9.94286 64.4572 9.02857 66.9715 9.02857C68 9.02857 68.9143 9.25714 69.8286 9.48571ZM70.0572 22.6286C71.0858 21.6 71.5429 20.2286 71.5429 18.6286C71.5429 16.9143 71.0858 15.5429 70.0572 14.5143C69.0286 13.4857 67.7715 12.9143 66.2858 12.9143C65.7143 12.9143 65.0286 13.0286 64.4572 13.1429C63.8858 13.2571 63.4286 13.6 62.9715 13.9429C62.5143 14.2857 62.1715 14.7429 61.8286 15.2C61.4858 15.6571 61.2572 16.2286 61.1429 16.8C61.0286 17.3714 60.9143 17.9429 60.9143 18.6286C60.9143 20.2286 61.4858 21.6 62.5143 22.6286C63.5429 23.6571 64.8 24.1143 66.2858 24.1143C67.8858 24.1143 69.1429 23.6571 70.0572 22.6286Z" fill="#007FFF"/>
<path d="M84.8 27.3142C83.5428 26.8571 82.5143 26.1714 81.7143 25.3714C80.9143 24.5714 80.2286 23.5428 79.7714 22.4C79.3143 21.2571 79.0857 20 79.0857 18.6285C79.0857 16.8 79.4286 15.2 80.2286 13.8285C81.0286 12.4571 82.1714 11.3143 83.6571 10.4C85.1428 9.59997 86.8571 9.14282 88.6857 9.14282C90.5143 9.14282 92.2286 9.48568 93.7143 10.2857C95.2 11.0857 96.3428 12.2285 97.1428 13.6C97.9428 15.0857 98.4 16.6857 98.4 18.5143C98.4 20.3428 97.9428 21.9428 97.1428 23.4285C96.3428 24.9142 95.2 25.9428 93.7143 26.7428C92.2286 27.5428 90.6285 27.8857 88.8 27.8857C87.3143 28 86.0571 27.7714 84.8 27.3142ZM92.5714 22.6285C93.6 21.6 94.0571 20.2285 94.0571 18.6285C94.0571 16.9142 93.6 15.6571 92.5714 14.5143C91.5428 13.3714 90.2857 12.9143 88.8 12.9143C87.2 12.9143 85.9428 13.4857 84.9143 14.5143C83.8857 15.5428 83.4286 16.9143 83.4286 18.5143C83.4286 20.1143 83.8857 21.4857 84.9143 22.5143C85.9428 23.5428 87.2 24.1143 88.8 24.1143C90.2857 24.1143 91.5428 23.6571 92.5714 22.6285Z" fill="#007FFF"/>
<path d="M103.086 0H107.314V27.6571H103.086V0Z" fill="#007FFF"/>
<path d="M129.714 20H116.343C116.571 21.2571 117.257 22.2857 118.171 23.0857C119.086 23.8857 120.229 24.2286 121.6 24.2286C123.543 24.2286 125.029 23.5428 126.171 22.0571L129.143 24.5714C128.343 25.6 127.2 26.5143 125.943 27.0857C124.686 27.6571 123.086 28 121.371 28C119.543 28 117.943 27.6571 116.571 26.8571C115.2 26.0571 114.057 25.0286 113.257 23.5429C112.457 22.0571 112 20.4571 112 18.5143C112 17.1429 112.229 15.8857 112.686 14.6286C113.143 13.3714 113.714 12.4571 114.514 11.6571C115.314 10.8571 116.229 10.1714 117.371 9.71428C118.514 9.25714 119.657 9.02856 120.914 9.02856C122.743 9.02856 124.229 9.37142 125.6 10.1714C126.971 10.9714 128 12.1143 128.686 13.4857C129.371 14.8571 129.714 16.4571 129.714 18.2857C129.829 18.9714 129.714 19.5428 129.714 20ZM118.057 13.8286C117.257 14.5143 116.686 15.4286 116.343 16.5714H125.486C125.257 15.7714 125.029 15.2 124.686 14.6286C124.343 14.0571 123.771 13.6 123.2 13.3714C122.629 13.0286 121.829 12.9143 121.143 12.9143C120 12.9143 118.971 13.2571 118.057 13.8286Z" fill="#007FFF"/>
<path d="M154.629 17.8286L148 27.6571H142.743L151.657 14.2857L142.857 1.02856H148.114L154.514 10.7429H154.629L161.029 1.02856H166.171L157.486 14.4L166.4 27.7714H161.029L154.629 17.8286Z" fill="#007FFF"/>
</svg>
