<svg width="200" height="36" viewBox="0 0 200 36" fill="none" xmlns="http://www.w3.org/2000/svg">
<path d="M38.2263 28.2843V7.51788H52.0023V11.2032H42.2919V16.7311H50.3937V20.4164H42.2919V28.2843H38.2263Z" />
<path d="M64.3897 28.5183C61.2699 28.5183 58.7253 27.5238 56.7559 25.5349C54.7865 23.5265 53.8018 20.9819 53.8018 17.9011C53.8018 14.8007 54.7865 12.2561 56.7559 10.2672C58.7253 8.25884 61.2699 7.25464 64.3897 7.25464C67.4706 7.25464 69.9957 8.23934 71.9651 10.2087C73.954 12.1781 74.9484 14.7422 74.9484 17.9011C74.9484 21.0599 73.954 23.624 71.9651 25.5934C69.9957 27.5433 67.4706 28.5183 64.3897 28.5183ZM64.419 24.6867C66.2129 24.6867 67.7046 24.0433 68.894 22.7563C70.0834 21.4694 70.6782 19.851 70.6782 17.9011C70.6782 15.9512 70.0834 14.3328 68.894 13.0458C67.7046 11.7589 66.2129 11.1154 64.419 11.1154C62.5666 11.1154 61.0457 11.7687 59.8562 13.0751C58.6668 14.3815 58.0721 15.9902 58.0721 17.9011C58.0721 19.812 58.6668 21.4206 59.8562 22.7271C61.0457 24.0335 62.5666 24.6867 64.419 24.6867Z" />
<path d="M94.6411 28.2843H89.7859L85.1354 21.1769H82.737V28.2843H78.6715V7.51788H86.5393C88.9377 7.51788 90.7413 8.15159 91.9502 9.41902C93.1592 10.667 93.7637 12.3341 93.7637 14.4205C93.7637 17.6573 92.3402 19.7437 89.4934 20.6797L94.6411 28.2843ZM82.737 11.1739V17.5501H85.6033C86.8513 17.5501 87.8165 17.2674 88.4989 16.7019C89.1814 16.1169 89.5226 15.3272 89.5226 14.3328C89.5226 13.3578 89.1911 12.5876 88.5282 12.0221C87.8847 11.4567 86.9683 11.1739 85.7788 11.1739H82.737Z" />
<path d="M108.924 17.2576C110.269 17.5891 111.303 18.2131 112.024 19.1295C112.765 20.046 113.135 21.1867 113.135 22.5516C113.135 24.2675 112.551 25.6519 111.381 26.7049C110.23 27.7578 108.563 28.2843 106.379 28.2843H97.7801V7.51788H105.268C107.471 7.51788 109.148 7.94685 110.298 8.80481C111.468 9.66276 112.053 10.9204 112.053 12.5779C112.053 13.5918 111.8 14.518 111.293 15.3565C110.786 16.1949 109.996 16.8189 108.924 17.2284V17.2576ZM101.816 11.1447V16.0292H104.77C105.648 16.0292 106.389 15.8244 106.993 15.415C107.598 14.986 107.9 14.3718 107.9 13.5723C107.9 11.9539 106.769 11.1447 104.507 11.1447H101.816ZM105.151 24.6575C106.282 24.6575 107.179 24.4332 107.842 23.9848C108.504 23.5363 108.836 22.8831 108.836 22.0251C108.836 21.1867 108.524 20.5334 107.9 20.0655C107.296 19.578 106.389 19.3343 105.18 19.3343H101.816V24.6575H105.151Z" />
<path d="M126 28.5183C122.88 28.5183 120.336 27.5238 118.366 25.5349C116.397 23.5265 115.412 20.9819 115.412 17.9011C115.412 14.8007 116.397 12.2561 118.366 10.2672C120.336 8.25884 122.88 7.25464 126 7.25464C129.081 7.25464 131.606 8.23934 133.575 10.2087C135.564 12.1781 136.559 14.7422 136.559 17.9011C136.559 21.0599 135.564 23.624 133.575 25.5934C131.606 27.5433 129.081 28.5183 126 28.5183ZM126.029 24.6867C127.823 24.6867 129.315 24.0433 130.504 22.7563C131.694 21.4694 132.288 19.851 132.288 17.9011C132.288 15.9512 131.694 14.3328 130.504 13.0458C129.315 11.7589 127.823 11.1154 126.029 11.1154C124.177 11.1154 122.656 11.7687 121.467 13.0751C120.277 14.3815 119.682 15.9902 119.682 17.9011C119.682 19.812 120.277 21.4206 121.467 22.7271C122.656 24.0335 124.177 24.6867 126.029 24.6867Z" />
<path d="M140.282 28.2843V7.51788H144.406V24.6282H153.648V28.2843H140.282Z" />
<path d="M156.848 28.2843V7.51788H170.127V11.2032H160.885V16.1754H168.284V19.8022H160.885V24.6282H170.741V28.2843H156.848Z" />
<path d="M194.763 28.2843L190.083 21.0014H190.025L185.345 28.2843H180.548L187.334 17.8426L180.753 7.51788H185.462L190.025 14.6837H190.083L194.646 7.51788H199.355L192.774 17.8426L199.56 28.2843H194.763Z" />
<path fill-rule="evenodd" clip-rule="evenodd" d="M12.2471 33.438C12.7492 33.9612 13.2509 34.4838 13.765 34.9838C14.0586 35.269 14.1466 35.3702 14.2851 35.5295C14.3631 35.6193 14.4572 35.7275 14.6131 35.8974C16.6708 33.8853 21.382 29.249 22.9208 27.4029C25.4737 24.3386 27.6633 21.1254 27.7961 16.9284C27.8746 14.4361 27.25 11.972 25.9936 9.81802C25.9712 10.0776 25.9545 10.3028 25.9396 10.5056C25.9121 10.8778 25.8902 11.1742 25.8484 11.4678C25.4518 13.8546 24.4184 16.0902 22.8572 17.9388C19.6244 22.1695 17.5078 24.3147 13.2597 28.6201C12.3953 29.4962 11.4427 30.4617 10.3744 31.5524C11.0154 32.1548 11.6316 32.7968 12.2471 33.438ZM5.675 26.5484C5.90778 26.8 6.22596 27.1439 6.39463 27.3118L6.39179 27.3109C6.81385 27.7311 7.19064 28.1195 7.55854 28.4987C8.14328 29.1015 8.70557 29.6811 9.39154 30.3286C12.0939 27.445 13.9412 25.5083 15.3183 24.0646C17.8686 21.3909 18.806 20.4081 20.5747 18.2329C22.0501 16.4706 23.3712 14.5846 24.5231 12.5958C25.099 11.7031 25.3872 10.6553 25.3489 9.59364C25.3105 8.53201 24.9475 7.50769 24.3087 6.65889C21.4399 2.9315 16.9127 0.530369 13.3466 1.34529C13.1626 1.41017 12.9946 1.51366 12.8539 1.64882C12.7132 1.78397 12.603 1.94766 12.5307 2.12891C11.2927 0.726748 10.2805 -0.239965 8.21042 0.0522309L8.85363 1.24473L5.41843 0.915536C5.64061 1.22689 5.8403 1.50984 6.02587 1.77278C6.41081 2.31821 6.73497 2.77751 7.07294 3.22559C7.21964 3.40591 7.38394 3.57117 7.56342 3.71891C7.31004 4.02678 7.05609 4.33427 6.80217 4.64173C5.91998 5.70993 5.03808 6.77778 4.18135 7.85993C3.93658 8.16825 3.61213 8.66252 3.707 8.9272C4.29243 10.5022 3.65291 11.77 2.99792 13.0685C2.91948 13.224 2.84081 13.3799 2.76401 13.5369C2.11075 14.8732 1.51112 16.2351 0.910982 17.5981C0.670077 18.1452 0.429092 18.6926 0.184526 19.2385C0.0809032 19.397 0.0186962 19.5789 0.00360204 19.7676C-0.0114921 19.9564 0.0210092 20.1459 0.0981294 20.3188C0.17525 20.4918 0.294524 20.6426 0.445029 20.7575C0.595534 20.8724 0.77246 20.9477 0.959604 20.9765C2.05969 21.3534 3.18268 21.6598 4.32175 21.8939C5.78652 22.1557 6.64034 21.2687 6.68778 19.7716C6.70696 19.1113 6.86265 18.462 7.14504 17.8648C7.52842 17.05 8.18603 16.396 9.00285 16.0171C9.81967 15.6381 10.7437 15.5584 11.6134 15.7919C12.2407 15.9132 12.8894 15.8565 13.4861 15.6281C14.0828 15.3998 14.6037 15.0089 14.9897 14.4998C15.1623 14.296 15.3391 14.0957 15.5157 13.8955C15.8333 13.5356 16.1505 13.1761 16.4431 12.7969C18.1631 10.577 19.8698 8.3485 19.8385 5.25199C19.999 5.72626 20.1258 6.21131 20.218 6.70348C20.5073 9.08563 19.3319 10.9972 17.9601 12.7049C14.1483 17.5567 9.98192 22.1191 5.49528 26.3546C5.54334 26.4061 5.60535 26.4732 5.675 26.5484Z" />
</svg>
