<svg width="40" height="40" viewBox="0 0 40 40" fill="none" xmlns="http://www.w3.org/2000/svg">
<path fill-rule="evenodd" clip-rule="evenodd" d="M17.9095 36.2466C18.4388 36.7981 18.9676 37.349 19.5095 37.8761C19.819 38.1766 19.9118 38.2833 20.0577 38.4512C20.14 38.5458 20.2391 38.6599 20.4035 38.8391C22.5725 36.7181 27.5385 31.8311 29.1605 29.8851C31.8515 26.6551 34.1595 23.2681 34.2995 18.8441C34.3823 16.2169 33.7239 13.6195 32.3995 11.3491C32.3759 11.6227 32.3584 11.8601 32.3426 12.0738C32.3136 12.4662 32.2905 12.7786 32.2465 13.0881C31.8284 15.604 30.7391 17.9605 29.0935 19.9091C25.6859 24.3686 23.4548 26.6298 18.9769 31.1681C18.0657 32.0916 17.0616 33.1093 15.9355 34.2591C16.6112 34.894 17.2608 35.5707 17.9095 36.2466ZM10.982 28.9844C11.2273 29.2496 11.5627 29.612 11.7405 29.7891L11.7375 29.7881C12.1824 30.231 12.5796 30.6404 12.9674 31.0402C13.5837 31.6755 14.1764 32.2865 14.8995 32.9691C17.7481 29.9294 19.6953 27.888 21.1468 26.3662C23.8351 23.5479 24.8232 22.512 26.6875 20.2191C28.2428 18.3615 29.6353 16.3735 30.8495 14.2771C31.4566 13.3361 31.7604 12.2316 31.72 11.1125C31.6795 9.99349 31.2968 8.91377 30.6235 8.01906C27.5995 4.09006 22.8275 1.55906 19.0685 2.41806C18.8745 2.48645 18.6975 2.59553 18.5491 2.738C18.4008 2.88046 18.2847 3.05301 18.2085 3.24406C16.9035 1.76606 15.8365 0.747056 13.6545 1.05506L14.3325 2.31206L10.7115 1.96506C10.9457 2.29325 11.1562 2.59151 11.3518 2.86867C11.7576 3.4436 12.0992 3.92775 12.4555 4.40006C12.6101 4.59013 12.7833 4.76433 12.9725 4.92006C12.7054 5.24457 12.4378 5.56868 12.1701 5.89276C11.2402 7.01875 10.3106 8.14437 9.40751 9.28506C9.14951 9.61006 8.80751 10.1311 8.90751 10.4101C9.5246 12.0702 8.85049 13.4066 8.16007 14.7753C8.07739 14.9392 7.99447 15.1036 7.91351 15.2691C7.22492 16.6776 6.59284 18.1132 5.96025 19.55C5.70632 20.1267 5.4523 20.7036 5.19451 21.2791C5.08528 21.4461 5.01971 21.6379 5.0038 21.8368C4.98789 22.0358 5.02215 22.2356 5.10344 22.4178C5.18473 22.6001 5.31045 22.7591 5.4691 22.8802C5.62775 23.0013 5.81424 23.0807 6.01151 23.1111C7.1711 23.5084 8.35483 23.8313 9.55551 24.0781C11.0995 24.3541 11.9995 23.4191 12.0495 21.8411C12.0697 21.145 12.2338 20.4606 12.5315 19.8311C12.9356 18.9722 13.6288 18.2828 14.4898 17.8834C15.3508 17.484 16.3248 17.4 17.2415 17.6461C17.9027 17.7739 18.5866 17.7141 19.2156 17.4734C19.8445 17.2327 20.3936 16.8207 20.8005 16.2841C20.9824 16.0692 21.1687 15.8581 21.3549 15.6471C21.6896 15.2678 22.0241 14.8887 22.3325 14.4891C24.1455 12.1491 25.9445 9.80006 25.9115 6.53606C26.0807 7.03599 26.2144 7.54726 26.3115 8.06606C26.6165 10.5771 25.3775 12.5921 23.9315 14.3921C19.9135 19.5063 15.5218 24.3154 10.7925 28.7801C10.8432 28.8344 10.9085 28.905 10.982 28.9844Z"/>
</svg>