<svg width="304" height="307" viewBox="0 0 304 307" fill="none" xmlns="http://www.w3.org/2000/svg">
<mask id="mask0_4940_282976" style="mask-type:alpha" maskUnits="userSpaceOnUse" x="0" y="0" width="304" height="307">
<rect width="303.937" height="306.676" fill="#C4C4C4"/>
</mask>
<g mask="url(#mask0_4940_282976)">
<g opacity="0.6">
<ellipse cx="238.682" cy="245.239" rx="16.5065" ry="16.5065" transform="rotate(30 238.682 245.239)" fill="#D04A25"/>
<ellipse cx="237.127" cy="242.907" rx="16.5335" ry="16.5335" transform="rotate(30 237.127 242.907)" fill="#ED6C53"/>
<ellipse cx="237.127" cy="242.907" rx="16.5335" ry="16.5335" transform="rotate(30 237.127 242.907)" fill="#F3725A"/>
<ellipse cx="237.127" cy="242.907" rx="16.5335" ry="16.5335" transform="rotate(30 237.127 242.907)" fill="url(#paint0_linear_4940_282976)"/>
<ellipse cx="237.117" cy="242.87" rx="15.2368" ry="15.2368" transform="rotate(30 237.117 242.87)" fill="url(#paint1_linear_4940_282976)"/>
<path fill-rule="evenodd" clip-rule="evenodd" d="M230.344 249.711C231.369 250.303 232.693 250.721 234.163 250.923C234.209 250.929 234.256 250.935 234.302 250.939C234.345 250.944 234.387 250.948 234.429 250.952L234.448 250.954L234.451 250.954C235.025 251.12 235.647 251.252 236.294 251.338C240.449 251.897 243.141 250.513 244.282 249.011C245.674 247.171 245.508 244.546 244.743 242.208C244.496 240.894 244.005 239.585 243.418 238.456C242.677 237.022 241.77 235.81 240.848 234.96C239.929 234.113 238.98 233.613 238.156 233.636C237.365 233.655 236.543 234.086 235.66 234.931C234.936 235.183 234.178 235.76 233.364 236.667C232.542 237.583 231.658 238.843 230.69 240.465C229.679 242.163 228.988 243.631 228.625 244.861C228.261 246.089 228.22 247.092 228.526 247.851C228.805 248.546 229.439 249.189 230.344 249.711ZM235.888 249.774C237.251 249.957 238.457 249.931 239.507 249.761C238.281 250.277 236.635 250.554 234.57 250.326C234.153 250.201 233.764 250.058 233.409 249.898C233.037 249.73 232.703 249.544 232.412 249.344C231.841 248.952 231.443 248.507 231.253 248.038L231.232 247.981C231.475 248.186 231.754 248.382 232.068 248.563C233.093 249.155 234.417 249.573 235.888 249.774ZM241.63 248.201C241.582 248.268 241.529 248.333 241.472 248.399C241.419 248.459 241.362 248.52 241.301 248.582C240.011 249.143 238.233 249.44 235.973 249.139C234.813 248.983 233.773 248.687 232.931 248.297C232.1 247.911 231.468 247.436 231.098 246.917C231.16 245.575 231.914 243.668 233.38 241.213C234.304 239.664 235.148 238.459 235.92 237.584C236.675 236.729 237.355 236.198 237.967 235.969C239.044 236.699 240.203 238.103 241.125 239.887C241.795 241.183 242.336 242.718 242.501 244.203C242.666 245.688 242.454 247.113 241.63 248.201ZM241.697 239.599C240.882 238.024 239.868 236.715 238.852 235.861C239.008 235.883 239.174 235.928 239.347 235.996C239.496 236.054 239.652 236.13 239.812 236.223C240.994 236.905 242.283 238.432 243.259 240.319C243.593 240.959 243.891 241.66 244.127 242.386C244.444 244.098 244.305 245.803 243.36 247.056C243.169 247.308 242.929 247.558 242.637 247.791C243.192 246.64 243.293 245.287 243.112 243.925C242.912 242.417 242.366 240.89 241.697 239.599ZM236.011 235.49C236.163 235.448 236.314 235.424 236.459 235.421C236.581 235.418 236.708 235.429 236.839 235.456C236.976 235.484 237.118 235.528 237.265 235.588C236.638 235.934 235.982 236.512 235.284 237.33C234.523 238.221 233.709 239.401 232.826 240.883C231.744 242.695 231.03 244.247 230.691 245.528C230.69 244.959 230.825 244.275 231.1 243.478C231.472 242.399 232.097 241.119 232.976 239.644C234.1 237.757 235.107 236.378 236.011 235.49ZM239.409 234.654C240.252 235.141 241.153 236.063 241.956 237.242C241.552 236.785 241.139 236.392 240.728 236.077C239.981 235.505 239.233 235.181 238.567 235.202C238.389 235.206 238.219 235.233 238.04 235.278C237.625 235.031 237.214 234.87 236.824 234.809C237.319 234.461 237.774 234.291 238.186 234.281C238.543 234.269 238.953 234.391 239.409 234.654ZM230.391 246.98L230.409 247.012C230.424 247.041 230.441 247.07 230.457 247.098C230.456 247.533 230.524 247.924 230.661 248.269C230.868 248.785 231.271 249.269 231.832 249.699C231.232 249.479 230.707 249.214 230.278 248.918C229.71 248.526 229.314 248.082 229.125 247.617C228.872 246.983 228.912 246.096 229.266 244.95C229.62 243.807 230.282 242.419 231.252 240.792C232.201 239.2 233.065 237.973 233.855 237.093C233.396 237.74 232.918 238.479 232.422 239.315C231.408 241.011 230.718 242.479 230.355 243.709C229.992 244.938 229.953 245.942 230.258 246.701L230.259 246.703C230.29 246.775 230.323 246.846 230.359 246.917L230.391 246.98ZM243.871 247.445C244.245 246.948 244.507 246.394 244.674 245.806C244.636 246.854 244.36 247.83 243.758 248.622C242.918 249.73 241.068 250.793 238.225 250.822C239.767 250.496 240.923 249.848 241.679 249.115C242.67 248.667 243.401 248.064 243.871 247.445Z" fill="white"/>
</g>
<g opacity="0.8">
<ellipse cx="26.3347" cy="132.285" rx="24.1009" ry="24.1009" transform="rotate(30 26.3347 132.285)" fill="#D04A25"/>
<ellipse cx="24.065" cy="128.879" rx="24.1403" ry="24.1403" transform="rotate(30 24.065 128.879)" fill="#ED6C53"/>
<ellipse cx="24.065" cy="128.879" rx="24.1403" ry="24.1403" transform="rotate(30 24.065 128.879)" fill="#F3725A"/>
<ellipse cx="24.065" cy="128.879" rx="24.1403" ry="24.1403" transform="rotate(30 24.065 128.879)" fill="url(#paint2_linear_4940_282976)"/>
<ellipse cx="24.0507" cy="128.825" rx="22.247" ry="22.247" transform="rotate(30 24.0507 128.825)" fill="url(#paint3_linear_4940_282976)"/>
<path fill-rule="evenodd" clip-rule="evenodd" d="M14.1602 138.814C15.6581 139.678 17.59 140.288 19.7376 140.582C19.8046 140.592 19.8721 140.6 19.9398 140.607C20.002 140.614 20.0643 140.62 20.1256 140.625L20.1528 140.628L20.1573 140.628C20.9961 140.871 21.9034 141.063 22.849 141.188C28.9155 142.005 32.845 139.984 34.5117 137.792C36.5446 135.105 36.3012 131.272 35.1851 127.858C34.824 125.94 34.1069 124.029 33.2504 122.38C32.1679 120.287 30.8438 118.517 29.4971 117.276C28.1551 116.039 26.7697 115.309 25.5664 115.342C24.412 115.371 23.2117 116 21.9222 117.233C20.8659 117.602 19.7591 118.443 18.5707 119.768C17.3706 121.105 16.0793 122.945 14.6664 125.314C13.1898 127.792 12.1814 129.936 11.6502 131.732C11.1199 133.525 11.0601 134.989 11.5061 136.098C11.9134 137.112 12.839 138.051 14.1602 138.814ZM22.2555 138.906C24.2452 139.173 26.007 139.135 27.5392 138.887C25.7499 139.639 23.3468 140.044 20.3315 139.711C19.7219 139.529 19.1537 139.32 18.6356 139.086C18.0932 138.841 17.6053 138.57 17.1807 138.278C16.347 137.705 15.7649 137.055 15.4877 136.371L15.457 136.287C15.8126 136.587 16.2194 136.873 16.6773 137.137C18.1752 138.002 20.1079 138.612 22.2555 138.906ZM30.64 136.609C30.5696 136.706 30.4923 136.801 30.4086 136.897C30.3311 136.985 30.248 137.074 30.1593 137.165C28.275 137.984 25.6788 138.418 22.3791 137.977C20.6866 137.75 19.168 137.319 17.9377 136.748C16.7252 136.186 15.8015 135.492 15.2623 134.734C15.3516 132.775 16.4536 129.989 18.5929 126.405C19.9429 124.144 21.1755 122.384 22.3024 121.107C23.4052 119.858 24.3978 119.083 25.2912 118.748C26.8633 119.814 28.5563 121.864 29.9014 124.47C30.8796 126.362 31.6701 128.603 31.9111 130.771C32.1525 132.94 31.8429 135.02 30.64 136.609ZM30.7379 124.049C29.5478 121.75 28.0666 119.838 26.5825 118.591C26.8112 118.624 27.0528 118.689 27.3067 118.788C27.5242 118.874 27.7508 118.984 27.9854 119.119C29.7113 120.115 31.5933 122.345 33.0185 125.1C33.5055 126.035 33.9409 127.058 34.2858 128.119C34.7473 130.617 34.5457 133.107 33.1646 134.937C32.8867 135.305 32.5356 135.669 32.1097 136.009C32.9201 134.33 33.0669 132.354 32.8026 130.365C32.5105 128.163 31.7132 125.934 30.7379 124.049ZM22.4354 118.049C22.6568 117.987 22.8779 117.953 23.0892 117.949C23.2673 117.944 23.4524 117.961 23.6441 118C23.8439 118.04 24.0515 118.105 24.2658 118.193C23.35 118.697 22.3922 119.542 21.3736 120.736C20.2632 122.037 19.0745 123.759 17.7846 125.924C16.2044 128.57 15.1627 130.835 14.6675 132.705C14.6663 131.875 14.8631 130.877 15.2641 129.713C15.8073 128.137 16.7203 126.268 18.0036 124.115C19.6444 121.359 21.1151 119.346 22.4354 118.049ZM27.3963 116.829C28.6273 117.54 29.9432 118.886 31.1146 120.607C30.5261 119.94 29.9223 119.367 29.3221 118.907C28.2323 118.072 27.1396 117.598 26.1674 117.629C25.9076 117.635 25.6585 117.675 25.3981 117.74C24.791 117.38 24.1914 117.144 23.622 117.055C24.3447 116.547 25.0092 116.299 25.6102 116.285C26.1321 116.266 26.7305 116.445 27.3963 116.829ZM14.2299 134.825L14.2554 134.873C14.2782 134.915 14.3019 134.957 14.3262 134.998C14.3246 135.634 14.4229 136.205 14.6243 136.708C14.9256 137.461 15.5138 138.168 16.3334 138.796C15.4572 138.474 14.6914 138.088 14.0648 137.655C13.2351 137.083 12.6565 136.435 12.3811 135.756C12.0115 134.83 12.0701 133.536 12.5874 131.863C13.1034 130.193 14.0698 128.167 15.4864 125.791C16.8721 123.467 18.1343 121.674 19.2867 120.391C18.6165 121.334 17.9192 122.414 17.1954 123.634C15.715 126.11 14.7065 128.254 14.1763 130.051C13.6471 131.845 13.5892 133.31 14.0351 134.418L14.0364 134.421C14.0815 134.526 14.1297 134.63 14.1823 134.734L14.2299 134.825ZM33.9109 135.505C34.4577 134.78 34.8397 133.971 35.0841 133.112C35.0278 134.642 34.6255 136.068 33.7466 137.223C32.5196 138.841 29.8184 140.393 25.6683 140.436C27.919 139.96 29.6078 139.014 30.7104 137.944C32.1579 137.289 33.2248 136.409 33.9109 135.505Z" fill="white"/>
</g>
<path d="M78.6445 82.7906C73.4515 76.6056 75.1012 67.47 76.5823 63.1797L106.891 33.8668L158.152 29.602L240.619 68.7488L296.826 143.028L286.743 183.022C286.743 183.022 284.359 186.907 282.287 188.911C281.252 189.911 279.441 191.251 279.441 191.251C276.654 192.63 275.122 193.04 268.364 192.325C261.607 191.611 253.368 186.493 250.15 184.303C246.774 185.839 237.67 188.152 226.776 184.253C215.881 180.353 207.47 173.601 204.756 170.54C198.568 170.619 181.422 168.521 162.335 159.492C143.247 150.464 132.255 133.498 129.202 126.424C126.156 125.662 117.726 123.082 107.913 116.619C98.0997 110.157 94.9023 99.4803 94.5302 94.9499C90.4221 92.5781 83.8375 88.9757 78.6445 82.7906Z" fill="#A90D2D"/>
<path d="M76.5449 63.1581C75.0637 67.4485 73.1553 76.4346 78.3483 82.6197C83.2611 88.471 89.4193 92.0109 93.548 94.3841C93.7733 94.5136 93.9926 94.6397 94.2053 94.7625C95.952 91.4661 99.323 86.2492 105.215 79.209C114.206 68.4656 127.078 58.3029 132.39 54.5645L134.878 48.5313L80.8397 58.6839L76.5449 63.1581Z" fill="#A90D2D"/>
<path d="M254.621 187.454C252.643 186.408 250.986 185.392 249.894 184.649C246.517 186.185 237.04 188.283 226.146 184.383C215.426 180.546 207.361 173.613 204.519 170.475C210.545 160.628 216.939 145.925 221.08 136.404C222.991 132.011 224.421 128.721 225.115 127.519C227.013 124.233 233.24 104.823 236.116 95.5283L269.849 107.654L284.823 127.441L254.621 187.454Z" fill="#DE96CC"/>
<path d="M249.854 81.2292L228.33 138.338L207.909 173.708C206.343 172.368 205.149 171.187 204.385 170.325C198.197 170.405 181.051 168.306 161.963 159.278C142.876 150.25 131.998 133.844 128.945 126.77C127.747 126.47 125.697 125.802 123.054 124.708L184.885 42.2539L240.248 68.5346L249.854 81.2292Z" fill="#A90D2D"/>
<path d="M93.1784 94.1715L94.7792 87.6245L146.415 35.2746C156.948 44.3433 177.111 63.354 173.501 66.8468C168.988 71.2128 155.866 87.0407 144.512 102.395C135.428 114.678 130.349 123.763 128.945 126.77C125.899 126.008 117.355 122.867 107.542 116.405C97.7287 109.943 94.5312 99.2662 94.1592 94.7358C93.9375 94.6079 93.7087 94.4763 93.4732 94.341C93.3761 94.2851 93.2778 94.2286 93.1784 94.1715Z" fill="#DE96CC"/>
<path d="M128.501 85.277C133.71 78.3252 140.99 71.4076 143.98 68.8178C148.923 63.7047 149.914 66.2685 154.783 69.0799C159.265 71.6673 155.557 75.502 143.455 90.4251C135.73 99.952 128.867 111.381 126.768 114.153C124.67 116.926 121.724 117.715 117.243 115.127C112.761 112.54 111.756 109.968 114.128 105.86C116.5 101.752 121.99 93.9668 128.501 85.277Z" fill="#EFACE0"/>
<path d="M252.167 156.676C255.583 148.689 257.934 138.925 258.682 135.041C260.638 128.203 257.923 128.627 253.053 125.816C248.572 123.229 247.105 128.357 240.232 146.299C235.844 157.753 229.377 169.411 228.026 172.615C226.674 175.818 227.464 178.764 231.945 181.351C236.427 183.938 239.156 183.523 241.528 179.415C243.9 175.306 247.897 166.659 252.167 156.676Z" fill="#EFACE0"/>
<path d="M181.483 139.269C186.565 131.846 196.394 114.018 200.673 106.031C208.571 91.6689 207.604 87.1267 217.083 96.5832C223.861 103.346 223.616 106.829 220.64 114.571C217.663 122.314 201.65 150.913 197.337 158.382C193.025 165.852 185.34 161.913 176.104 158.074C166.867 154.235 175.13 148.548 181.483 139.269Z" fill="#C7243F"/>
<path fill-rule="evenodd" clip-rule="evenodd" d="M117.434 228.739L166.909 61.1107L170.217 62.0873L120.742 229.716L117.434 228.739Z" fill="#FFE5E0"/>
<path fill-rule="evenodd" clip-rule="evenodd" d="M122.183 226.555L242.127 101.603L244.616 103.992L124.672 228.944L122.183 226.555Z" fill="#FFE5E0"/>
<path fill-rule="evenodd" clip-rule="evenodd" d="M124.873 227.513L275.633 149.234L277.223 152.296L126.463 230.574L124.873 227.513Z" fill="#FFE5E0"/>
<path d="M288.037 177.481L120.584 226.726L121.558 230.036L286.626 181.492L288.037 177.481Z" fill="#FFE5E0"/>
<path fill-rule="evenodd" clip-rule="evenodd" d="M76.7722 62.8503L117.787 229.855L121.137 229.032L79.5281 59.6072L79.1118 59.6605L78.0252 61.025L76.7722 62.8503Z" fill="#FFE5E0"/>
<path fill-rule="evenodd" clip-rule="evenodd" d="M115.498 228.225L108.025 56.5984L111.471 56.4483L118.944 228.075L115.498 228.225Z" fill="#FFE5E0"/>
<path d="M164.759 67.0122L211.005 7.92455L214.843 7.56064C230.155 12.6315 241.778 19.9128 249.014 24.8889C254.763 28.8419 257.678 30.7107 260.334 32.895C263.711 35.6717 266.669 38.9582 274.495 47.6842L255.142 90.1735L242.385 112.269C240.323 110.933 238.524 109.862 237.192 109.189L234.751 104.792C234.696 104.698 234.638 104.599 234.576 104.493C232.474 100.908 226.364 90.4883 208.224 80.0151C190.505 69.7854 173.566 67.3088 166.607 68.4368C166.15 68.0778 165.529 67.5902 164.759 67.0122Z" fill="#FF5D6A"/>
<path d="M247.034 23.5454C247.727 24.0086 248.387 24.4573 249.014 24.8887C254.763 28.8417 257.678 30.7106 260.335 32.8948C263.937 35.8571 267.063 39.3995 276.131 49.5075C289.86 64.8107 298.264 80.8213 301.951 104.48L276.26 160.549C273.361 157.993 270.621 156.271 269.186 155.546C269.322 154.984 269.471 154.411 269.623 153.824C271.485 146.644 273.859 137.489 259.427 125.014C252.077 118.66 241.817 111.527 237.192 109.189L237.096 109.015C254.847 70.3092 254.946 67.7138 255.239 60.0576C255.284 58.8748 255.334 57.5711 255.454 55.9948C255.618 41.3688 250.947 29.4759 247.034 23.5454Z" fill="#FFE3E1"/>
<path d="M275.379 48.6694C275.625 48.9436 275.876 49.2228 276.131 49.5073C291.886 67.0684 300.629 85.5611 303.277 115.473C305.396 139.403 293.083 170.504 286.662 183.063C286.73 179.783 285.792 171.805 281.495 166.138C277.199 160.47 271.499 156.715 269.187 155.545C269.202 155.48 269.218 155.415 269.235 155.349C269.703 154.475 270.226 153.49 270.78 152.444C272.334 149.512 274.138 146.107 275.713 143.379C280.888 134.416 292.266 89.6965 283.165 67.5115C279.575 58.7629 277.064 52.7017 275.379 48.6694Z" fill="#FF5E6A"/>
<path d="M166.608 68.4368C163.409 65.926 152.216 57.1397 138.051 54.9373C120.937 52.2764 112.592 58.4968 109.344 63.2607C108.851 62.674 107.603 61.7403 105.42 60.7514L145.033 7.15789C156.158 3.51898 168.605 1.34866 182.202 1.75205C204.236 2.40571 222.165 9.37912 235.004 16.2852C221.256 15.8016 213.04 20.7442 201.878 27.4601C201.296 27.8097 200.707 28.1642 200.109 28.5229C188.685 35.3721 173.254 57.501 166.608 68.4368Z" fill="#FFE3DE"/>
<path fill-rule="evenodd" clip-rule="evenodd" d="M137.621 54.6585C139.808 51.3403 143.17 46.9912 147.976 42.1554C158.668 31.3982 174.62 16.7063 192.135 11.3819C202.419 8.25552 210.881 7.63565 216.064 7.81536C206.204 4.40424 194.754 1.87545 181.91 1.4944C168.312 1.091 155.865 3.26133 144.741 6.90023L105.127 60.4938C107.31 61.4826 108.559 62.4164 109.051 63.003C112.291 58.2519 120.6 52.052 137.621 54.6585Z" fill="#FFF1E3"/>
<path d="M109.344 63.2605C108.262 61.9719 103.532 59.0089 93.2691 57.4655C83.717 56.029 78.3091 60.4649 76.4313 63.3524C81.4065 54.977 94.5702 37.2501 107.847 27.0417C124.861 13.9591 150.38 0.807811 182.202 1.75184C189.872 1.97937 197.044 2.97259 203.677 4.46215C192.238 4.58445 174.107 6.37259 154.095 19.3851C133.39 32.8486 114.145 54.0815 109.344 63.2605Z" fill="#FF9C82"/>
<path fill-rule="evenodd" clip-rule="evenodd" d="M195.786 73.9552C189.116 71.2738 182.914 69.6555 177.754 68.8417C183.667 60.6568 192.198 49.8543 200.751 40.3469C210.35 29.6773 220.702 25.2586 224.787 23.515C224.842 23.4912 224.897 23.4679 224.95 23.4451C228.916 21.751 230.683 21.2777 232.119 23.1026C232.907 24.103 229.228 27.9129 225.008 32.2847C221.53 35.8877 217.683 39.8723 215.663 42.9807C214.985 44.0236 214.275 45.0394 213.406 46.2828C210.608 50.285 206.161 56.6462 195.842 73.8627C195.823 73.8936 195.804 73.9244 195.786 73.9552Z" fill="#FF937A"/>
<path fill-rule="evenodd" clip-rule="evenodd" d="M244.359 21.7954C244.725 23.0908 244.923 24.5086 244.864 26.0393C244.81 27.4467 244.779 28.8327 244.747 30.2156C244.57 37.9657 244.394 45.6183 240.283 56.3996C236.028 67.5558 232.522 74.6477 227.669 84.4667C226.577 86.6766 225.416 89.0247 224.163 91.5884C230.438 97.4365 233.275 102.274 234.576 104.494C234.638 104.599 234.696 104.698 234.751 104.792L237.192 109.189C238.524 109.862 240.323 110.933 242.385 112.269L250.501 98.212L265.057 59.201L251.298 26.4535C250.589 25.9694 249.83 25.4502 249.014 24.889C247.623 23.9323 246.069 22.8904 244.359 21.7954Z" fill="#EC1E3E"/>
<path fill-rule="evenodd" clip-rule="evenodd" d="M251.623 26.6744C257.909 34.5982 264.84 45.6595 265.469 53.312C266.585 66.9032 267.212 82.2039 252.835 115.731C252.387 116.776 251.925 117.74 251.45 118.627C245.881 114.45 240.281 110.75 237.192 109.189L237.096 109.015C254.847 70.3092 254.946 67.7138 255.239 60.0576C255.284 58.8748 255.334 57.5711 255.454 55.9948C255.618 41.3688 250.947 29.4759 247.034 23.5454C247.727 24.0086 248.387 24.4573 249.014 24.8887C249.956 25.5364 250.822 26.1281 251.623 26.6744Z" fill="#FAD1DC"/>
<path fill-rule="evenodd" clip-rule="evenodd" d="M275.779 49.2017C283.9 62.9079 293.949 86.128 292.877 108.474C291.534 136.507 286.01 152.56 278.907 163.168C275.051 158.999 270.778 156.234 268.853 155.26C268.869 155.195 268.885 155.129 268.901 155.064C269.37 154.191 269.892 153.205 270.446 152.16L270.447 152.158L270.447 152.158C272.001 149.226 273.805 145.822 275.379 143.094C280.554 134.131 291.933 89.4114 282.831 67.2263C279.242 58.4778 276.731 52.4166 275.046 48.3843L275.779 49.2017Z" fill="#EC1F3C"/>
<path fill-rule="evenodd" clip-rule="evenodd" d="M202.524 4.20928C202.273 4.19742 202.012 4.18495 201.744 4.17207C195.415 3.86871 184.346 3.33816 171.756 5.18224C148.366 8.60838 127.228 22.7959 111.55 36.1518C100.191 45.8283 94.5663 53.7785 92.7088 57.3872C92.894 57.411 93.0808 57.4371 93.2693 57.4654C103.532 59.0088 108.262 61.9718 109.344 63.2604C114.146 54.0813 133.391 32.8484 154.095 19.385C174.107 6.37247 192.238 4.58432 203.677 4.46202C203.295 4.37611 202.91 4.29185 202.524 4.20928Z" fill="#FF5E6A"/>
<ellipse cx="107.277" cy="257.176" rx="48.0524" ry="48.0524" transform="rotate(30 107.277 257.176)" fill="#D04A25"/>
<ellipse cx="102.751" cy="250.386" rx="48.131" ry="48.131" transform="rotate(30 102.751 250.386)" fill="#ED6C53"/>
<ellipse cx="102.751" cy="250.386" rx="48.131" ry="48.131" transform="rotate(30 102.751 250.386)" fill="#F3725A"/>
<ellipse cx="102.751" cy="250.386" rx="48.131" ry="48.131" transform="rotate(30 102.751 250.386)" fill="url(#paint4_linear_4940_282976)"/>
<ellipse cx="102.723" cy="250.278" rx="44.356" ry="44.356" transform="rotate(30 102.723 250.278)" fill="url(#paint5_linear_4940_282976)"/>
<path fill-rule="evenodd" clip-rule="evenodd" d="M83.0036 270.194C85.9901 271.918 89.8419 273.133 94.1238 273.72C94.2573 273.74 94.3921 273.755 94.527 273.769C94.651 273.783 94.7751 273.794 94.8974 273.805L94.9518 273.81L94.9606 273.811C96.6331 274.295 98.4421 274.679 100.327 274.929C112.423 276.557 120.257 272.528 123.581 268.156C127.634 262.799 127.148 255.158 124.923 248.351C124.203 244.526 122.773 240.716 121.066 237.428C118.907 233.255 116.267 229.726 113.582 227.252C110.907 224.786 108.144 223.331 105.745 223.396C103.444 223.453 101.051 224.708 98.4794 227.167C96.3734 227.901 94.1667 229.579 91.7973 232.22C89.4044 234.887 86.8299 238.554 84.0129 243.277C81.0689 248.219 79.0582 252.493 77.9992 256.074C76.9419 259.649 76.8226 262.569 77.712 264.779C78.524 266.801 80.3694 268.673 83.0036 270.194ZM99.1441 270.378C103.111 270.91 106.624 270.835 109.679 270.34C106.111 271.84 101.32 272.646 95.3079 271.982C94.0925 271.621 92.9598 271.203 91.9266 270.736C90.8453 270.249 89.8726 269.708 89.0259 269.126C87.3637 267.983 86.2031 266.687 85.6504 265.323L85.5892 265.157C86.2982 265.754 87.1092 266.324 88.0222 266.851C91.0087 268.576 94.8621 269.791 99.1441 270.378ZM115.861 265.799C115.721 265.992 115.567 266.182 115.4 266.372C115.245 266.549 115.08 266.726 114.903 266.906C111.146 268.539 105.969 269.405 99.3904 268.527C96.016 268.073 92.9882 267.213 90.5353 266.076C88.1176 264.954 86.2761 263.571 85.201 262.059C85.3791 258.153 87.5762 252.6 91.8416 245.453C94.5332 240.946 96.9907 237.436 99.2376 234.891C101.436 232.4 103.415 230.854 105.197 230.187C108.331 232.313 111.707 236.4 114.389 241.595C116.339 245.367 117.915 249.836 118.395 254.158C118.877 258.483 118.259 262.631 115.861 265.799ZM116.056 240.755C113.683 236.172 110.73 232.36 107.771 229.874C108.227 229.939 108.709 230.069 109.215 230.267C109.649 230.437 110.101 230.657 110.568 230.927C114.009 232.913 117.762 237.359 120.603 242.851C121.574 244.715 122.442 246.756 123.13 248.871C124.05 253.852 123.648 258.816 120.895 262.465C120.341 263.198 119.641 263.924 118.791 264.603C120.407 261.254 120.7 257.314 120.173 253.349C119.591 248.959 118.001 244.515 116.056 240.755ZM99.5028 228.794C99.9441 228.671 100.385 228.603 100.806 228.594C101.161 228.583 101.53 228.617 101.913 228.695C102.311 228.776 102.725 228.905 103.152 229.081C101.326 230.086 99.4166 231.77 97.3857 234.15C95.1718 236.744 92.8018 240.179 90.2299 244.494C87.0793 249.77 85.0025 254.286 84.015 258.015C84.0127 256.359 84.405 254.37 85.2045 252.049C86.2876 248.906 88.1079 245.18 90.6665 240.887C93.9379 235.393 96.8703 231.378 99.5028 228.794ZM109.394 226.361C111.848 227.778 114.472 230.461 116.807 233.893C115.634 232.563 114.43 231.421 113.233 230.504C111.061 228.839 108.882 227.894 106.944 227.956C106.426 227.969 105.929 228.047 105.41 228.178C104.199 227.459 103.004 226.988 101.869 226.812C103.309 225.799 104.634 225.305 105.833 225.276C106.873 225.239 108.066 225.595 109.394 226.361ZM83.1425 262.242L83.1934 262.337C83.2389 262.42 83.2862 262.503 83.3346 262.587C83.3314 263.854 83.5274 264.992 83.9289 265.996C84.5297 267.497 85.7024 268.906 87.3365 270.159C85.5896 269.517 84.0627 268.746 82.8134 267.884C81.1591 266.743 80.0056 265.452 79.4564 264.098C78.7195 262.252 78.8364 259.67 79.8678 256.335C80.8965 253.006 82.8235 248.966 85.6478 244.229C88.4106 239.595 90.9271 236.021 93.2248 233.462C91.8886 235.343 90.4984 237.495 89.0551 239.929C86.1036 244.866 84.0929 249.14 83.0356 252.722C81.9805 256.299 81.8651 259.221 82.7541 261.43L82.7568 261.436C82.8467 261.645 82.9429 261.852 83.0476 262.059L83.1425 262.242ZM122.383 263.596C123.473 262.151 124.235 260.538 124.722 258.825C124.609 261.877 123.807 264.719 122.055 267.022C119.609 270.248 114.223 273.342 105.948 273.428C110.436 272.479 113.803 270.593 116.001 268.459C118.887 267.153 121.015 265.4 122.383 263.596Z" fill="white"/>
</g>
<defs>
<linearGradient id="paint0_linear_4940_282976" x1="222.075" y1="247.536" x2="253.607" y2="240.129" gradientUnits="userSpaceOnUse">
<stop stop-color="#FF6C2E"/>
<stop offset="1" stop-color="#F3725A" stop-opacity="0"/>
</linearGradient>
<linearGradient id="paint1_linear_4940_282976" x1="247.275" y1="234.405" x2="221.881" y2="253.663" gradientUnits="userSpaceOnUse">
<stop stop-color="#FFA756"/>
<stop offset="1" stop-color="#F8765E" stop-opacity="0"/>
</linearGradient>
<linearGradient id="paint2_linear_4940_282976" x1="2.08755" y1="135.637" x2="48.1264" y2="124.823" gradientUnits="userSpaceOnUse">
<stop stop-color="#FF6C2E"/>
<stop offset="1" stop-color="#F3725A" stop-opacity="0"/>
</linearGradient>
<linearGradient id="paint3_linear_4940_282976" x1="38.882" y1="116.466" x2="1.8037" y2="144.583" gradientUnits="userSpaceOnUse">
<stop stop-color="#FFA756"/>
<stop offset="1" stop-color="#F8765E" stop-opacity="0"/>
</linearGradient>
<linearGradient id="paint4_linear_4940_282976" x1="58.9328" y1="263.861" x2="150.725" y2="242.299" gradientUnits="userSpaceOnUse">
<stop stop-color="#FF6C2E"/>
<stop offset="1" stop-color="#F3725A" stop-opacity="0"/>
</linearGradient>
<linearGradient id="paint5_linear_4940_282976" x1="132.293" y1="225.636" x2="58.3667" y2="281.697" gradientUnits="userSpaceOnUse">
<stop stop-color="#FFA756"/>
<stop offset="1" stop-color="#F8765E" stop-opacity="0"/>
</linearGradient>
</defs>
</svg>
