<svg width="46" height="46" viewBox="0 0 46 46" fill="none" xmlns="http://www.w3.org/2000/svg">
<g opacity="0.2">
<path d="M20.5142 14.9149C20.3923 16.0406 20.2741 17.1317 20.5184 18.1919C16.3116 22.1692 5.20315 32.679 4.18959 33.4628C3.98943 33.6067 3.8218 33.7911 3.6976 34.0041C3.5734 34.217 3.49541 34.4538 3.4687 34.6988C3.38896 35.4349 3.76232 36.1937 4.10017 36.6333C4.60695 37.2927 6.80401 39.8173 7.30119 39.4331C8.77543 38.2787 9.08139 37.9614 9.68508 37.4837C10.595 36.7675 9.86397 35.0237 10.222 34.3879C10.58 33.7521 10.8971 33.6551 11.4019 33.6046C11.9068 33.5542 12.7429 34.004 13.426 34.0867C14.1438 34.1732 14.5663 33.9124 15.1576 33.4683C15.6337 33.1169 15.9858 32.7783 16.0573 32.1991C16.159 31.4216 15.145 30.2692 16.074 29.5376C17.0031 28.806 18.0681 30.2968 18.9713 30.2895C19.8744 30.2822 21.091 29.1612 21.2608 28.6452C21.4306 28.1292 20.4521 26.6477 20.7088 25.8958C20.7976 25.6426 21.3915 25.0937 21.7992 25.0503C22.2069 25.0068 23.8992 25.8823 24.3069 25.8388C24.8031 25.7875 25.4213 25.3375 25.9112 25.1015C27.1905 25.8271 28.3862 26.1932 29.9535 26.363C35.885 27.0056 41.1919 22.9022 41.8091 17.2044C42.4264 11.5066 38.1193 6.38188 32.1878 5.73927C26.2562 5.09667 21.1315 9.21715 20.5142 14.9149ZM36.4827 14.615C36.4233 15.163 36.2028 15.6812 35.849 16.1039C35.4951 16.5266 35.0239 16.8348 34.4948 16.9897C33.9658 17.1446 33.4027 17.1391 32.8768 16.9739C32.3508 16.8088 31.8857 16.4914 31.5401 16.0619C31.1946 15.6324 30.9842 15.1101 30.9355 14.561C30.8868 14.0119 31.002 13.4607 31.2666 12.9771C31.5312 12.4935 31.9332 12.0992 32.4219 11.8441C32.9106 11.589 33.4639 11.4845 34.012 11.5438C34.7469 11.6235 35.42 11.9918 35.8834 12.5677C36.3468 13.1437 36.5623 13.8801 36.4827 14.615Z" fill="#007FFF"/>
</g>
<path d="M32.1279 17.6987C32.1279 19.1662 30.9382 20.3559 29.4707 20.3559C28.0031 20.3559 26.8135 19.1662 26.8135 17.6987C26.8135 16.2312 28.0031 15.0415 29.4707 15.0415C30.9382 15.0415 32.1279 16.2312 32.1279 17.6987Z" fill="#F3F3F3"/>
<path d="M18.4128 17.6291C18.3055 18.6198 18.2015 19.5799 18.4165 20.513C14.7144 24.0131 4.93855 33.2621 4.04657 33.9519C3.87043 34.0785 3.72291 34.2408 3.61361 34.4283C3.50431 34.6157 3.43568 34.824 3.41217 35.0396C3.342 35.6874 3.67056 36.3552 3.96789 36.7421C4.41387 37.3223 6.34736 39.5441 6.7849 39.206C8.08228 38.1901 8.35153 37.9108 8.88281 37.4904C9.68352 36.8601 9.04024 35.3256 9.35528 34.766C9.67032 34.2065 9.94942 34.1211 10.3937 34.0767C10.838 34.0323 11.5738 34.4281 12.175 34.501C12.8066 34.5771 13.1784 34.3476 13.6988 33.9568C14.1178 33.6475 14.4276 33.3495 14.4906 32.8398C14.5801 32.1556 13.6877 31.1414 14.5053 30.4976C15.3229 29.8537 16.2602 31.1657 17.055 31.1593C17.8498 31.1529 18.9204 30.1664 19.0698 29.7123C19.2192 29.2581 18.3582 27.9544 18.5841 27.2927C18.6622 27.0699 19.1848 26.5868 19.5436 26.5486C19.9024 26.5103 21.3918 27.2808 21.7506 27.2425C22.1872 27.1973 22.7312 26.8014 23.1624 26.5937C24.2882 27.2322 25.3404 27.5544 26.7197 27.7038C31.9397 28.2693 36.6099 24.6582 37.1531 19.6439C37.6963 14.6297 33.906 10.1197 28.686 9.55421C23.466 8.9887 18.9561 12.6149 18.4128 17.6291ZM32.4657 17.3652C32.4134 17.8475 32.2193 18.3034 31.9079 18.6754C31.5965 19.0474 31.1818 19.3187 30.7163 19.455C30.2507 19.5913 29.7551 19.5865 29.2923 19.4411C28.8295 19.2958 28.4201 19.0165 28.116 18.6385C27.8119 18.2605 27.6268 17.8008 27.5839 17.3176C27.5411 16.8344 27.6425 16.3493 27.8753 15.9237C28.1082 15.4981 28.462 15.1511 28.892 14.9266C29.3221 14.7021 29.809 14.6102 30.2913 14.6624C30.9381 14.7325 31.5305 15.0566 31.9383 15.5635C32.346 16.0703 32.5357 16.7184 32.4657 17.3652Z" fill="#F3F3F3" stroke="#007FFF" stroke-width="1.78709" stroke-linejoin="round"/>
</svg>
