<svg width="313" height="54" viewBox="0 0 313 54" fill="none" xmlns="http://www.w3.org/2000/svg">
<rect y="1.51611" width="177.189" height="51.1473" rx="7.69911" fill="#3D4047"/>
<g filter="url(#filter0_i)">
<circle cx="25.5745" cy="27.0896" r="14.6135" fill="#3D4047"/>
</g>
<path fill-rule="evenodd" clip-rule="evenodd" d="M67.0007 20.6548H71.674C72.1078 20.6697 72.5201 20.8474 72.829 21.1524C73.1378 21.4575 73.3205 21.8676 73.3408 22.3012V27.0256C73.3408 27.2403 73.259 27.3119 73.0443 27.3119H67.0109C66.6837 27.3119 66.6837 27.2915 66.6837 26.9847V20.9718C66.6837 20.7366 66.7553 20.6548 67.0007 20.6548ZM65.0063 23.2932H62.9099C62.883 23.2991 62.8552 23.2996 62.8281 23.2945C62.801 23.2894 62.7753 23.2789 62.7524 23.2637C62.7294 23.2484 62.7098 23.2286 62.6947 23.2056C62.6796 23.1825 62.6694 23.1567 62.6645 23.1296C62.6591 23.1184 62.6562 23.1062 62.6562 23.0938C62.6562 23.0814 62.6591 23.0692 62.6645 23.058V22.1683C62.7006 21.7704 62.8784 21.3987 63.1656 21.1209C63.4528 20.8432 63.8302 20.6778 64.2291 20.6549H65.0267C65.2005 20.6549 65.2721 20.7367 65.2721 20.9719V23.0171C65.2721 23.2012 65.2005 23.2932 65.0063 23.2932ZM65.0067 24.6735H62.9615C62.7263 24.6735 62.6649 24.7451 62.6649 24.9394V26.9846C62.6649 27.1687 62.7263 27.2607 62.9206 27.2607H65.0271C65.2112 27.2607 65.2726 27.1789 65.2726 27.0051V24.8781C65.2726 24.7451 65.1908 24.6735 65.0067 24.6735ZM66.9805 28.6928H69.0257C69.0593 28.6869 69.0937 28.6879 69.127 28.6956C69.1602 28.7033 69.1916 28.7176 69.2192 28.7376C69.2469 28.7576 69.2702 28.7829 69.2879 28.8121C69.3056 28.8413 69.3173 28.8737 69.3222 28.9075C69.3324 28.9373 69.3324 28.9697 69.3222 28.9995V31.0447C69.3345 31.1097 69.3211 31.1769 69.2848 31.2322C69.2486 31.2875 69.1924 31.3266 69.1279 31.3413H66.9805C66.7657 31.3413 66.7044 31.2493 66.7044 31.0447V30.0221C66.7044 29.91 66.7066 29.7832 66.7089 29.656C66.7134 29.4003 66.718 29.1429 66.7044 28.9995C66.6839 28.7848 66.7657 28.6928 66.9805 28.6928ZM73.0857 28.6934H70.9791C70.9458 28.6832 70.9102 28.6832 70.8768 28.6934C70.8465 28.7006 70.8179 28.7137 70.7927 28.7321C70.7675 28.7504 70.7462 28.7736 70.73 28.8002C70.7138 28.8269 70.7031 28.8565 70.6985 28.8873C70.6938 28.9181 70.6954 28.9495 70.703 28.9797V30.6568C70.703 30.7503 70.7014 30.8317 70.7001 30.9026C70.6958 31.131 70.6935 31.2497 70.7518 31.3102C70.8149 31.3757 70.9491 31.3727 71.2288 31.3665C71.2941 31.365 71.3674 31.3634 71.4495 31.3624C71.8816 31.3949 72.3105 31.2668 72.6539 31.0026C72.9974 30.7384 73.2312 30.3567 73.3106 29.9308C73.3405 29.5906 73.3405 29.2484 73.3106 28.9082C73.3413 28.7241 73.2186 28.6934 73.0857 28.6934ZM62.8286 28.6923H65.0067C65.201 28.6923 65.2726 28.8354 65.3033 29.0502V31.0954C65.3131 31.1547 65.3009 31.2156 65.2689 31.2665C65.2368 31.3174 65.1872 31.3548 65.1294 31.3715H65.0374C64.6953 31.3843 64.3529 31.3637 64.0148 31.3102C63.6545 31.2342 63.3284 31.0438 63.0852 30.7673C62.8419 30.4909 62.6945 30.1433 62.665 29.7762V28.9275C62.656 28.8747 62.6681 28.8204 62.6987 28.7764C62.7293 28.7325 62.7759 28.7022 62.8286 28.6923Z" fill="white"/>
<path fill-rule="evenodd" clip-rule="evenodd" d="M96.0017 21.3096H96.4107C96.7001 21.3096 96.699 21.3592 96.6905 21.7473V21.7474V21.7475C96.6888 21.8256 96.6868 21.9175 96.6868 22.0254V30.2982C96.6868 30.5219 96.6868 30.6202 96.6381 30.6633C96.5999 30.697 96.5319 30.697 96.4107 30.697H96.1039L96.0712 30.6977C95.8424 30.7027 95.7305 30.7052 95.6757 30.6504C95.6233 30.598 95.6233 30.4932 95.6233 30.288V30.0835C95.6233 30.06 95.631 30.0354 95.6388 30.0104C95.6549 29.9593 95.6714 29.9066 95.6233 29.8585C95.3723 30.1815 95.0457 30.4379 94.6723 30.605C94.0092 30.8952 93.259 30.9155 92.5812 30.6616C91.9034 30.4076 91.3512 29.8994 91.0421 29.2449C90.7034 28.5833 90.5467 27.8435 90.588 27.1014C90.6293 26.3593 90.8672 25.6415 91.2772 25.0216C91.4769 24.7162 91.7348 24.4532 92.0363 24.2478C92.3378 24.0423 92.6768 23.8984 93.0341 23.8243C93.3913 23.7501 93.7597 23.7473 94.118 23.8159C94.4764 23.8845 94.8176 24.0232 95.1222 24.224L95.2858 24.3365C95.3657 24.404 95.4419 24.479 95.5188 24.5546L95.5189 24.5547L95.5189 24.5547C95.57 24.605 95.6214 24.6556 95.6744 24.7046C95.6989 24.6177 95.6989 24.5257 95.6744 24.4387V21.6573C95.6744 21.3096 95.7051 21.3096 96.0017 21.3096ZM94.4564 29.6967C94.7557 29.5561 95.0107 29.3362 95.1938 29.0609C95.504 28.5314 95.6657 27.9281 95.6621 27.3145C95.6585 26.7009 95.4897 26.0996 95.1734 25.5738C94.8979 25.1713 94.4739 24.8947 93.9946 24.8046C93.5152 24.7144 93.0197 24.8182 92.6169 25.0932C92.4638 25.2039 92.3262 25.3346 92.2078 25.4818C91.8027 26.0253 91.6099 26.698 91.6658 27.3736C91.6356 27.8456 91.7272 28.3174 91.9317 28.7439C92.0574 29.0606 92.272 29.3343 92.5495 29.532C92.8271 29.7298 93.1559 29.8431 93.4963 29.8585C93.8251 29.8933 94.1572 29.8373 94.4564 29.6967ZM83.6895 29.695C84.0474 29.695 84.0474 29.7155 84.0474 29.9916L84.0167 30.0427C84.0156 30.1268 84.0157 30.2001 84.0159 30.2641V30.2641V30.2641V30.2642C84.0163 30.4847 84.0165 30.5931 83.9624 30.6454C83.9101 30.6959 83.8069 30.6939 83.604 30.6898H83.6039C83.5379 30.6885 83.4613 30.687 83.3725 30.687H79.0674C78.87 30.687 78.7785 30.687 78.736 30.6413C78.6992 30.6018 78.6992 30.528 78.6992 30.3904V21.7085C78.6992 21.3302 78.7094 21.3302 79.0776 21.3302H79.4253C79.7525 21.3302 79.7525 21.3608 79.7525 21.6778V29.4087C79.7525 29.6234 79.8343 29.695 80.049 29.695H83.6895ZM102.547 23.9372H103.058C103.383 23.9372 103.382 23.9915 103.376 24.3655C103.375 24.4506 103.373 24.5522 103.375 24.6735V30.4921C103.392 31.2085 103.141 31.9055 102.669 32.4453C102.386 32.7525 102.036 32.9904 101.647 33.1407C101.072 33.3669 100.455 33.4675 99.8373 33.4357C99.22 33.404 98.6166 33.2406 98.0676 32.9566C97.8938 32.8748 97.8631 32.7725 97.9552 32.6089C98.0234 32.4842 98.0816 32.3543 98.129 32.2203C98.2006 31.9851 98.3335 31.9749 98.538 32.0669C99.2481 32.4162 100.056 32.5136 100.829 32.343C101.238 32.2762 101.608 32.0631 101.872 31.7432C102.135 31.4234 102.273 31.0187 102.26 30.6046V29.7763C102.136 29.9247 101.995 30.0585 101.841 30.1751C101.259 30.5563 100.558 30.7125 99.8694 30.6147C99.1807 30.5168 98.5511 30.1715 98.0983 29.6434C97.5883 28.9531 97.3029 28.1227 97.2809 27.2647C97.259 26.4067 97.5015 25.5628 97.9756 24.8474C98.299 24.4248 98.7367 24.1039 99.237 23.9226C99.7373 23.7414 100.279 23.7074 100.798 23.8248C101.36 23.8912 101.878 24.1646 102.25 24.5917C102.303 24.4658 102.32 24.328 102.301 24.1929C102.301 24.0191 102.373 23.9372 102.547 23.9372ZM101.851 28.9889C102.013 28.7818 102.125 28.5404 102.178 28.2833C102.321 27.68 102.342 27.0541 102.24 26.4426C102.241 26.2193 102.198 25.998 102.113 25.7914C102.029 25.5848 101.904 25.3972 101.746 25.2393C101.588 25.0814 101.4 24.9564 101.194 24.8716C100.987 24.7867 100.766 24.7437 100.542 24.7451C100.164 24.6883 99.7781 24.7578 99.4435 24.9426C99.1089 25.1275 98.8446 25.4175 98.6914 25.7677C98.5076 26.2036 98.4271 26.6761 98.4562 27.1482V27.4754C98.4518 27.8317 98.5298 28.1841 98.6842 28.5051C98.8385 28.8262 99.065 29.1073 99.3459 29.3264C99.5321 29.4698 99.7449 29.5748 99.972 29.6355C100.199 29.6962 100.436 29.7113 100.669 29.6799C100.902 29.6485 101.126 29.5713 101.329 29.4527C101.532 29.3341 101.71 29.1765 101.851 28.9889ZM89.9275 26.1757C89.8234 25.5355 89.5191 24.9448 89.0583 24.4884C88.5594 24.0678 87.9395 23.8173 87.2885 23.7731C86.6375 23.729 85.9894 23.8936 85.4383 24.243C84.9764 24.5223 84.5903 24.9108 84.3139 25.3745C84.0375 25.8381 83.8793 26.3626 83.8533 26.9017C83.7446 27.7495 83.9403 28.6083 84.4055 29.3253C84.9365 30.0895 85.7401 30.6214 86.6511 30.8115C87.5621 31.0017 88.5113 30.8358 89.3037 30.3479C89.9684 29.9388 89.9684 29.9082 89.5287 29.3253C89.4367 29.1821 89.3549 29.1617 89.2117 29.2742C88.7657 29.6024 88.2392 29.8038 87.688 29.857H87.5346C86.9098 29.911 86.2891 29.7154 85.8081 29.313C85.3271 28.9106 85.0251 28.3341 84.9679 27.7096C84.9679 27.4846 85.019 27.4437 85.2133 27.4437H89.6719C89.8969 27.4437 89.9889 27.3619 89.9889 27.1369V26.7892C89.9863 26.5833 89.9657 26.378 89.9275 26.1757ZM88.6595 26.5438H85.2133C85.0702 26.5438 84.9884 26.5438 85.0293 26.3495C85.047 26.2652 85.0494 26.2309 85.0505 26.2142C85.051 26.2063 85.0513 26.2023 85.0528 26.1988C85.0543 26.1951 85.0572 26.1919 85.063 26.1854L85.063 26.1854L85.0631 26.1854L85.0631 26.1854C85.0672 26.1808 85.0728 26.1746 85.0804 26.1654C85.2494 25.6372 85.6209 25.1975 86.1135 24.9426C86.6061 24.6876 87.1796 24.6383 87.7085 24.8054C88.042 24.9129 88.3341 25.121 88.5447 25.4011C88.7552 25.6813 88.8739 26.0197 88.8845 26.37C88.9039 26.5449 88.7848 26.5443 88.6764 26.5439L88.6595 26.5438ZM113.918 23.8862C113.631 23.8582 113.341 23.8931 113.069 23.9885C112.515 24.2188 112.051 24.6248 111.75 25.144V24.3873C111.75 24.1533 111.75 24.0401 111.693 23.9858C111.64 23.9349 111.538 23.9356 111.34 23.9369C111.305 23.9371 111.268 23.9374 111.228 23.9374H111.075C110.717 23.9374 110.707 23.9374 110.697 24.3157V29.9605C110.697 30.5945 110.697 30.6763 110.983 30.6865H111.484C111.77 30.6865 111.781 30.6354 111.781 30.3082V27.813C111.789 27.3735 111.854 26.9369 111.975 26.5143C112.065 26.0635 112.313 25.6598 112.675 25.3765C113.038 25.0932 113.489 24.9491 113.948 24.9702C114.122 24.9702 114.184 24.9088 114.184 24.735C114.173 24.5477 114.173 24.3599 114.184 24.1726V24.101C114.176 24.0377 114.144 23.9798 114.094 23.9397C114.045 23.8996 113.981 23.8805 113.918 23.8862ZM107.357 23.7803C107.968 23.8094 108.556 24.0167 109.051 24.3766C109.645 24.8566 110.027 25.5506 110.114 26.3093C110.152 26.6491 110.152 26.9921 110.114 27.3319C110.123 27.3956 110.106 27.4601 110.068 27.5117C110.03 27.5634 109.973 27.5979 109.91 27.608H105.39C105.134 27.608 105.134 27.6592 105.134 27.8944C105.213 28.5369 105.544 29.1217 106.054 29.5204C106.564 29.9192 107.211 30.0994 107.854 30.0214C108.194 29.9793 108.521 29.8679 108.815 29.6941C109.026 29.5996 109.222 29.4756 109.398 29.326C109.501 29.1828 109.674 29.326 109.674 29.326C109.892 29.6777 110.015 29.8202 109.992 29.9333C109.97 30.0437 109.808 30.1263 109.46 30.3486C108.664 30.8515 107.705 31.0259 106.783 30.8352C105.862 30.6444 105.051 30.1033 104.52 29.326C103.994 28.501 103.814 27.5019 104.019 26.545C104.223 25.5881 104.797 24.7503 105.615 24.213C106.141 23.9017 106.746 23.7512 107.357 23.7803ZM105.451 26.5547H108.826C108.918 26.5547 108.989 26.5343 108.907 26.4116C108.905 26.0802 108.807 25.7565 108.626 25.4791C108.445 25.2017 108.187 24.9823 107.885 24.847C107.36 24.6596 106.782 24.6879 106.278 24.9255C105.774 25.1632 105.385 25.5909 105.195 26.115V26.2173C105.144 26.3853 105.119 26.4696 105.15 26.512C105.182 26.5547 105.271 26.5547 105.451 26.5547Z" fill="white"/>
<g filter="url(#filter1_d)">
<path d="M135 27.162C135 13.3744 146.177 2.19726 159.965 2.19726L175.187 2.19726L175.187 52.1268L159.965 52.1268C146.177 52.1268 135 40.9497 135 27.162Z" fill="#C7C7C7"/>
</g>
<path d="M135 27.162C135 13.0381 146.45 1.58838 160.574 1.58838L304.49 1.58838C308.742 1.58838 312.189 5.03539 312.189 9.28749V45.0366C312.189 49.2887 308.742 52.7357 304.49 52.7357L160.574 52.7357C146.45 52.7357 135 41.286 135 27.162Z" fill="#C7C7C7"/>
<g filter="url(#filter2_i)">
<ellipse cx="160.574" cy="27.1628" rx="14.6135" ry="14.6135" fill="#C7C7C7"/>
</g>
<defs>
<filter id="filter0_i" x="10.9609" y="12.4761" width="29.227" height="29.227" filterUnits="userSpaceOnUse" color-interpolation-filters="sRGB">
<feFlood flood-opacity="0" result="BackgroundImageFix"/>
<feBlend mode="normal" in="SourceGraphic" in2="BackgroundImageFix" result="shape"/>
<feColorMatrix in="SourceAlpha" type="matrix" values="0 0 0 0 0 0 0 0 0 0 0 0 0 0 0 0 0 0 127 0" result="hardAlpha"/>
<feOffset/>
<feGaussianBlur stdDeviation="1.28318"/>
<feComposite in2="hardAlpha" operator="arithmetic" k2="-1" k3="1"/>
<feColorMatrix type="matrix" values="0 0 0 0 0 0 0 0 0 0 0 0 0 0 0 0 0 0 1 0"/>
<feBlend mode="normal" in2="shape" result="effect1_innerShadow"/>
</filter>
<filter id="filter1_d" x="132.434" y="0.914081" width="42.7536" height="52.4959" filterUnits="userSpaceOnUse" color-interpolation-filters="sRGB">
<feFlood flood-opacity="0" result="BackgroundImageFix"/>
<feColorMatrix in="SourceAlpha" type="matrix" values="0 0 0 0 0 0 0 0 0 0 0 0 0 0 0 0 0 0 127 0" result="hardAlpha"/>
<feOffset dx="-1.28318"/>
<feGaussianBlur stdDeviation="0.641592"/>
<feColorMatrix type="matrix" values="0 0 0 0 0 0 0 0 0 0 0 0 0 0 0 0 0 0 1 0"/>
<feBlend mode="normal" in2="BackgroundImageFix" result="effect1_dropShadow"/>
<feBlend mode="normal" in="SourceGraphic" in2="effect1_dropShadow" result="shape"/>
</filter>
<filter id="filter2_i" x="145.961" y="12.5493" width="29.227" height="29.227" filterUnits="userSpaceOnUse" color-interpolation-filters="sRGB">
<feFlood flood-opacity="0" result="BackgroundImageFix"/>
<feBlend mode="normal" in="SourceGraphic" in2="BackgroundImageFix" result="shape"/>
<feColorMatrix in="SourceAlpha" type="matrix" values="0 0 0 0 0 0 0 0 0 0 0 0 0 0 0 0 0 0 127 0" result="hardAlpha"/>
<feOffset/>
<feGaussianBlur stdDeviation="1.28318"/>
<feComposite in2="hardAlpha" operator="arithmetic" k2="-1" k3="1"/>
<feColorMatrix type="matrix" values="0 0 0 0 0 0 0 0 0 0 0 0 0 0 0 0 0 0 0.25 0"/>
<feBlend mode="normal" in2="shape" result="effect1_innerShadow"/>
</filter>
</defs>
</svg>
