<svg width="313" height="54" viewBox="0 0 313 54" fill="none" xmlns="http://www.w3.org/2000/svg">
<rect y="1.39844" width="177.189" height="51.1473" rx="7.69911" fill="#3D4047"/>
<g filter="url(#filter0_i)">
<circle cx="25.5745" cy="26.9719" r="14.6135" fill="#3D4047"/>
</g>
<path d="M48.6816 25.5853C48.6816 25.6334 48.7298 25.6816 48.7298 25.7297L51.232 28.3763C51.3282 28.4725 51.4726 28.4725 51.5688 28.4244L54.071 25.7778C54.1191 25.7297 54.1191 25.6816 54.1191 25.6334C54.1191 25.4891 54.0229 25.3928 53.8785 25.3928C53.8304 25.3928 53.7823 25.3928 53.7342 25.441L51.4244 27.8951L49.0666 25.441C49.0185 25.3928 48.9704 25.3447 48.9222 25.3447C48.7779 25.3447 48.6816 25.441 48.6816 25.5853Z" fill="white"/>
<path d="M125.832 28.5685C125.832 28.5204 125.784 28.4722 125.784 28.4241L123.282 25.7776C123.185 25.6813 123.041 25.6813 122.945 25.7294L120.443 28.376C120.395 28.4241 120.395 28.4722 120.395 28.5204C120.395 28.6647 120.491 28.761 120.635 28.761C120.683 28.761 120.731 28.761 120.779 28.7128L123.089 26.2588L125.447 28.7128C125.495 28.761 125.543 28.8091 125.591 28.8091C125.736 28.8091 125.832 28.7128 125.832 28.5685Z" fill="white"/>
<g clip-path="url(#clip0)">
<path d="M85.092 18.4155H85.3326V17.4531C85.3326 16.3916 86.1958 15.5283 87.2574 15.5283C88.3189 15.5283 89.1821 16.3916 89.1821 17.4531V18.4155H89.4227C89.8205 18.4155 90.1445 18.7391 90.1445 19.1373V22.5056C90.1445 22.9038 89.8205 23.2274 89.4227 23.2274H85.092C84.6942 23.2274 84.3702 22.9038 84.3702 22.5056V19.1373C84.3702 18.7391 84.6942 18.4155 85.092 18.4155ZM88.5405 17.4531C88.5405 16.7454 87.9651 16.1699 87.2574 16.1699C86.5497 16.1699 85.9742 16.7454 85.9742 17.4531V18.4155H88.5405V17.4531Z" fill="white"/>
</g>
<path d="M63.4534 30.5107H66.2541V30.0032H64.0173V28.4494H66.1382V27.9481H64.0173V26.4977H66.2541V25.9901H63.4534V30.5107ZM67.2321 30.5107H67.7772V28.512C67.7772 27.9199 68.1187 27.5565 68.6575 27.5565C69.1964 27.5565 69.447 27.8479 69.447 28.4556V30.5107H69.9921V28.3241C69.9921 27.5221 69.5692 27.0741 68.811 27.0741C68.3129 27.0741 67.9965 27.284 67.8273 27.6411H67.7772V27.1336H67.2321V30.5107ZM72.2044 30.5358C72.3109 30.5358 72.4143 30.5233 72.5208 30.5045V30.0408C72.4206 30.0502 72.3673 30.0534 72.2702 30.0534C71.9193 30.0534 71.7815 29.8936 71.7815 29.4957V27.5847H72.5208V27.1336H71.7815V26.2596H71.2176V27.1336H70.685V27.5847H71.2176V29.6336C71.2176 30.2789 71.509 30.5358 72.2044 30.5358ZM74.6893 30.5703C75.485 30.5703 75.9675 30.1191 76.0834 29.6618L76.0897 29.6367H75.5446L75.532 29.6649C75.4412 29.8685 75.1592 30.0847 74.7019 30.0847C74.1004 30.0847 73.715 29.6774 73.6994 28.9788H76.1304V28.7658C76.1304 27.757 75.5728 27.0741 74.6549 27.0741C73.737 27.0741 73.1417 27.7884 73.1417 28.8316V28.8347C73.1417 29.8936 73.7244 30.5703 74.6893 30.5703ZM74.6517 27.5597C75.1498 27.5597 75.5195 27.8761 75.5759 28.5434H73.7088C73.7683 27.9011 74.1505 27.5597 74.6517 27.5597ZM77.0019 30.5107H77.547V28.418C77.547 27.9231 77.9167 27.5941 78.4367 27.5941C78.5558 27.5941 78.6591 27.6067 78.7719 27.6255V27.096C78.7187 27.0866 78.6028 27.0741 78.4994 27.0741C78.042 27.0741 77.7256 27.2809 77.5971 27.6349H77.547V27.1336H77.0019V30.5107ZM81.3702 30.5107H81.9341V28.8974H83.0744C83.9234 28.8974 84.5249 28.299 84.5249 27.4406V27.4344C84.5249 26.576 83.9234 25.9901 83.0744 25.9901H81.3702V30.5107ZM82.9303 26.4914C83.5757 26.4914 83.9485 26.8454 83.9485 27.4406V27.4469C83.9485 28.0421 83.5757 28.3961 82.9303 28.3961H81.9341V26.4914H82.9303ZM85.4747 30.5107H86.0386V25.9901H85.4747V30.5107ZM87.2172 30.5107H87.7748V27.0052H87.8249L90.2779 30.5107H90.8261V25.9901H90.2685V29.5083H90.2184L87.7654 25.9901H87.2172V30.5107ZM95.6549 30.6173C96.6167 30.6173 97.331 30.0816 97.4813 29.2545V29.2482H96.9112L96.9049 29.2545C96.7639 29.7745 96.2846 30.0972 95.6549 30.0972C94.784 30.0972 94.2389 29.3861 94.2389 28.2551V28.2489C94.2389 27.1179 94.784 26.4037 95.6518 26.4037C96.2752 26.4037 96.7577 26.7702 96.908 27.3498L96.9112 27.356H97.4782L97.4813 27.3498C97.3466 26.482 96.6042 25.8836 95.6518 25.8836C94.4238 25.8836 93.6594 26.7921 93.6594 28.2489V28.2551C93.6594 29.7088 94.4269 30.6173 95.6549 30.6173ZM99.772 30.5703C100.734 30.5703 101.329 29.9061 101.329 28.8253V28.819C101.329 27.7351 100.734 27.0741 99.772 27.0741C98.8102 27.0741 98.215 27.7351 98.215 28.819V28.8253C98.215 29.9061 98.8102 30.5703 99.772 30.5703ZM99.772 30.0878C99.1329 30.0878 98.7726 29.621 98.7726 28.8253V28.819C98.7726 28.0202 99.1329 27.5565 99.772 27.5565C100.411 27.5565 100.771 28.0202 100.771 28.819V28.8253C100.771 29.621 100.411 30.0878 99.772 30.0878ZM103.447 30.5703C103.917 30.5703 104.293 30.3478 104.5 29.9719H104.55V30.5107H105.095V25.7928H104.55V27.6662H104.5C104.315 27.3059 103.911 27.0741 103.447 27.0741C102.589 27.0741 102.031 27.7602 102.031 28.819V28.8253C102.031 29.8779 102.592 30.5703 103.447 30.5703ZM103.573 30.0878C102.956 30.0878 102.589 29.6116 102.589 28.8253V28.819C102.589 28.0327 102.956 27.5565 103.573 27.5565C104.187 27.5565 104.563 28.039 104.563 28.819V28.8253C104.563 29.6054 104.187 30.0878 103.573 30.0878ZM107.546 30.5703C108.341 30.5703 108.824 30.1191 108.94 29.6618L108.946 29.6367H108.401L108.388 29.6649C108.297 29.8685 108.016 30.0847 107.558 30.0847C106.957 30.0847 106.571 29.6774 106.556 28.9788H108.987V28.7658C108.987 27.757 108.429 27.0741 107.511 27.0741C106.593 27.0741 105.998 27.7884 105.998 28.8316V28.8347C105.998 29.8936 106.581 30.5703 107.546 30.5703ZM107.508 27.5597C108.006 27.5597 108.376 27.8761 108.432 28.5434H106.565C106.625 27.9011 107.007 27.5597 107.508 27.5597Z" fill="white"/>
<rect x="62.877" y="38.6255" width="3.84955" height="0.513274" fill="white"/>
<rect x="69.293" y="38.6255" width="3.84955" height="0.513274" fill="white"/>
<rect x="75.709" y="38.6255" width="3.84955" height="0.513274" fill="white"/>
<rect x="82.125" y="38.6255" width="3.84955" height="0.513274" fill="white"/>
<rect x="88.541" y="38.6255" width="3.84955" height="0.513274" fill="white"/>
<rect x="94.957" y="38.6255" width="3.84955" height="0.513274" fill="white"/>
<rect x="101.373" y="38.6255" width="3.84955" height="0.513274" fill="white"/>
<rect x="107.789" y="38.6255" width="3.84955" height="0.513274" fill="white"/>
<g filter="url(#filter1_d)">
<path d="M135 27.0443C135 13.2567 146.177 2.07959 159.965 2.07959L175.187 2.07959L175.187 52.0091L159.965 52.0091C146.177 52.0091 135 40.832 135 27.0443Z" fill="#C7C7C7"/>
</g>
<path d="M135 27.0444C135 12.9204 146.45 1.4707 160.574 1.4707L304.49 1.4707C308.742 1.4707 312.189 4.91771 312.189 9.16981V44.9189C312.189 49.171 308.742 52.618 304.49 52.618L160.574 52.618C146.45 52.618 135 41.1683 135 27.0444Z" fill="#C7C7C7"/>
<g filter="url(#filter2_i)">
<ellipse cx="160.574" cy="27.0452" rx="14.6135" ry="14.6135" fill="#C7C7C7"/>
</g>
<defs>
<filter id="filter0_i" x="10.9609" y="12.3584" width="29.227" height="29.227" filterUnits="userSpaceOnUse" color-interpolation-filters="sRGB">
<feFlood flood-opacity="0" result="BackgroundImageFix"/>
<feBlend mode="normal" in="SourceGraphic" in2="BackgroundImageFix" result="shape"/>
<feColorMatrix in="SourceAlpha" type="matrix" values="0 0 0 0 0 0 0 0 0 0 0 0 0 0 0 0 0 0 127 0" result="hardAlpha"/>
<feOffset/>
<feGaussianBlur stdDeviation="1.28318"/>
<feComposite in2="hardAlpha" operator="arithmetic" k2="-1" k3="1"/>
<feColorMatrix type="matrix" values="0 0 0 0 0 0 0 0 0 0 0 0 0 0 0 0 0 0 1 0"/>
<feBlend mode="normal" in2="shape" result="effect1_innerShadow"/>
</filter>
<filter id="filter1_d" x="132.434" y="0.796405" width="42.7535" height="52.4959" filterUnits="userSpaceOnUse" color-interpolation-filters="sRGB">
<feFlood flood-opacity="0" result="BackgroundImageFix"/>
<feColorMatrix in="SourceAlpha" type="matrix" values="0 0 0 0 0 0 0 0 0 0 0 0 0 0 0 0 0 0 127 0" result="hardAlpha"/>
<feOffset dx="-1.28318"/>
<feGaussianBlur stdDeviation="0.641592"/>
<feColorMatrix type="matrix" values="0 0 0 0 0 0 0 0 0 0 0 0 0 0 0 0 0 0 1 0"/>
<feBlend mode="normal" in2="BackgroundImageFix" result="effect1_dropShadow"/>
<feBlend mode="normal" in="SourceGraphic" in2="effect1_dropShadow" result="shape"/>
</filter>
<filter id="filter2_i" x="145.961" y="12.4316" width="29.227" height="29.227" filterUnits="userSpaceOnUse" color-interpolation-filters="sRGB">
<feFlood flood-opacity="0" result="BackgroundImageFix"/>
<feBlend mode="normal" in="SourceGraphic" in2="BackgroundImageFix" result="shape"/>
<feColorMatrix in="SourceAlpha" type="matrix" values="0 0 0 0 0 0 0 0 0 0 0 0 0 0 0 0 0 0 127 0" result="hardAlpha"/>
<feOffset/>
<feGaussianBlur stdDeviation="1.28318"/>
<feComposite in2="hardAlpha" operator="arithmetic" k2="-1" k3="1"/>
<feColorMatrix type="matrix" values="0 0 0 0 0 0 0 0 0 0 0 0 0 0 0 0 0 0 0.25 0"/>
<feBlend mode="normal" in2="shape" result="effect1_innerShadow"/>
</filter>
<clipPath id="clip0">
<rect width="7.69911" height="7.69911" fill="white" transform="matrix(-1 0 0 1 91.1074 15.5283)"/>
</clipPath>
</defs>
</svg>
