<svg width="218" height="218" viewBox="0 0 218 218" fill="none" xmlns="http://www.w3.org/2000/svg">
<path d="M108.995 188.99C153.175 188.99 188.99 153.175 188.99 108.995C188.99 64.8151 153.175 29 108.995 29C64.8151 29 29 64.8151 29 108.995C29 153.175 64.8151 188.99 108.995 188.99Z" fill="#F0F8FF"/>
<path d="M118.494 130.149L118.484 130.159L118.494 130.149Z" fill="#94111A"/>
<path fill-rule="evenodd" clip-rule="evenodd" d="M157.517 87.9942C145.69 73.7802 128.087 64.3106 114.112 67.709C112.747 68.2913 112.069 68.7399 110.952 70.8401C105.998 65.3893 101.969 61.6664 93.8459 62.8978L96.4328 67.5753L82.9062 66.4775C83.7733 67.6518 84.554 68.7235 85.281 69.7213C86.8587 71.887 88.1834 73.7055 89.5884 75.4699C90.1595 76.1684 90.799 76.808 91.4976 77.3791C90.4585 78.6784 89.4168 79.9762 88.375 81.2741C85.0233 85.4495 81.6702 89.6267 78.4005 93.865C77.4459 95.0677 76.2049 97.0437 76.6059 98.0843C79.013 104.291 76.5116 109.383 73.9894 114.518C73.7109 115.085 73.4322 115.652 73.1598 116.222C70.5628 121.72 68.1913 127.323 65.8199 132.926L65.819 132.928C64.9918 134.883 64.1643 136.838 63.3274 138.788C61.8764 142.177 63.022 144.516 66.4776 145.575C70.8264 146.999 75.2615 148.144 79.756 149.002C85.6268 149.957 88.9774 146.272 88.9393 140.211C88.9371 138.314 89.2766 136.432 89.9416 134.655C90.6857 132.551 91.8227 130.607 93.2922 128.927L93.3401 128.946C95.6441 126.424 98.7993 124.843 102.199 124.507V124.475C103.139 124.364 104.087 124.324 105.034 124.355C106.375 124.374 107.705 124.602 108.976 125.032C110.573 125.503 111.993 126.44 113.052 127.724C115.353 130.741 113.835 134.989 112.356 138.578C112.26 138.815 112.164 139.043 112.07 139.269C111.966 139.516 111.864 139.761 111.764 140.01C107.821 147.546 105.689 155.898 105.538 164.402C105.387 172.907 107.222 181.329 110.895 189C126.614 188.622 141.873 183.622 154.767 174.624C167.661 165.626 177.619 153.029 183.397 138.406C180.406 135.384 178.004 129.13 175.097 121.56C171.119 111.2 166.194 98.3746 157.517 87.9942ZM93.3401 94.0272H93.2922V93.9508L93.3401 93.9561V94.0272ZM102.169 87.3972L102.16 87.4032L102.169 87.3972ZM102.16 87.4032L102.17 87.3642L102.16 87.4032ZM102.17 87.3642V87.3966V87.3642Z" fill="#72A2FF"/>
<path d="M139.38 84.0517C137.28 102.972 122.283 119.372 113.09 127.725C115.391 130.741 113.873 134.989 112.394 138.578C144.248 106.628 140.85 98.1988 139.38 84.0517Z" fill="#5185EB"/>
<path d="M93.3398 93.9508V128.946C95.6438 126.424 98.799 124.843 102.198 124.507V87.3642C101.253 91.2207 99.4684 94.6763 93.3398 93.9508Z" fill="#C1D6FF"/>
<path d="M102.218 87.3642C99.5638 89.1779 93.8935 90.1325 93.8935 90.1325C93.8935 90.1325 93.7694 90.8866 93.3398 93.9508C99.4684 94.6763 101.253 91.2207 102.218 87.3642Z" fill="#E5E5E5"/>
</svg>
