<svg width="218" height="218" viewBox="0 0 218 218" fill="none" xmlns="http://www.w3.org/2000/svg">
<path d="M109 199C153.183 199 189 163.183 189 119C189 74.8172 153.183 39 109 39C64.8172 39 29 74.8172 29 119C29 163.183 64.8172 199 109 199Z" fill="#25282D"/>
<path d="M175.527 162.98C170.439 153.849 172.044 128.643 161.473 107.944C152.961 91.2983 137.727 78.0375 123.189 78.2213H122.986C121.91 78.3607 120.912 78.8581 120.152 79.6334C120.047 79.7434 119.918 79.827 119.774 79.8776C119.631 79.9281 119.478 79.9442 119.327 79.9244C119.176 79.9046 119.032 79.8496 118.907 79.7637C118.781 79.6779 118.678 79.5637 118.605 79.4303C115.413 73.9558 112.366 70.0482 105.644 69.0906C105.477 69.0698 105.308 69.0905 105.152 69.151C104.995 69.2116 104.856 69.31 104.747 69.4374C104.637 69.5648 104.561 69.7174 104.526 69.8813C104.49 70.0453 104.495 70.2156 104.541 70.377C104.754 71.0831 104.947 71.7505 105.121 72.3115C105.184 72.4857 105.195 72.6742 105.153 72.8545C105.111 73.0348 105.019 73.1994 104.887 73.3287C104.754 73.458 104.587 73.5467 104.406 73.5841C104.225 73.6215 104.037 73.6062 103.864 73.5399L94.6076 70.6382C94.4247 70.5674 94.2246 70.554 94.0338 70.5996C93.8431 70.6452 93.6707 70.7477 93.5396 70.8935C93.4084 71.0394 93.3247 71.2216 93.2995 71.4161C93.2744 71.6107 93.3089 71.8082 93.3986 71.9826C94.8204 75.2712 95.8941 77.8441 97.0935 80.3589C97.513 81.1786 98.0153 81.9532 98.5926 82.6706L72.6708 62.4263C72.4887 62.2378 72.239 62.1293 71.9769 62.1248C71.7148 62.1202 71.4616 62.22 71.2731 62.4022C71.0846 62.5843 70.9761 62.8339 70.9715 63.096C70.967 63.3581 71.0668 63.6113 71.2489 63.7998L89.3169 88.5127C89.4702 88.7107 89.5408 88.9604 89.5137 89.2093C89.4867 89.4583 89.364 89.687 89.1718 89.8474C87.7306 91.1145 84.3356 94.113 82.0142 95.9991C80.8245 96.9663 79.1126 98.6686 79.306 99.7809C80.4184 107.19 75.8529 111.842 71.8389 116.978C66.7416 123.517 61.9828 130.355 57.1079 137.087C54.9123 140.115 55.5217 142.716 58.7039 144.506C62.6817 146.879 66.8074 148.995 71.0555 150.841C76.5591 153.056 80.6408 150.3 82.0336 144.506C82.4106 142.729 83.0633 141.022 83.9681 139.447C88.93 131.39 96.0199 130.162 103.497 132.677L103.651 132.744C106.456 134.098 108.004 135.646 108.72 137.223C110.286 140.705 107.868 144.535 105.624 147.746L104.657 149.139C99.1764 155.617 95.2575 163.267 93.2031 171.5C91.1487 179.733 91.0137 188.327 92.8086 196.62C92.8462 196.817 92.9435 196.996 93.0872 197.135C93.231 197.273 93.4141 197.364 93.6114 197.394C109.043 200.355 125.002 198.765 139.546 192.818C154.09 186.871 166.591 176.824 175.527 163.899C175.603 163.758 175.643 163.6 175.643 163.44C175.643 163.279 175.603 163.121 175.527 162.98Z" fill="#72A2FF"/>
<path d="M144.584 100.245C138.2 118.429 119.707 131.197 108.709 137.358C110.276 140.84 107.858 144.67 105.614 147.882C144.207 123.623 142.775 114.522 144.584 100.245Z" fill="#5185EB"/>
<path d="M101.388 92.343C100.547 92.5074 97.8868 94.9158 95.5848 96.5795C94.914 97.0662 94.445 97.782 94.2667 98.5913C94.0885 99.4007 94.2133 100.247 94.6175 100.971C96.2434 100.975 97.8345 100.501 99.1925 99.6069C100.208 98.9268 101.035 98.0008 101.597 96.9151C102.158 95.8294 102.436 94.6192 102.404 93.3973C102.326 92.7879 102.056 92.2172 101.388 92.343Z" fill="white"/>
<path d="M53.075 93.375C52.875 92.875 52.175 92.875 51.975 93.375C51.275 95.475 50.375 96.375 48.375 97.275C47.875 97.475 47.875 98.175 48.375 98.375C50.475 99.075 51.375 99.975 52.275 101.975C52.475 102.475 53.175 102.475 53.375 101.975C54.075 99.875 54.975 98.975 56.975 98.075C57.475 97.875 57.475 97.175 56.975 96.975C54.875 96.275 53.975 95.375 53.075 93.375Z" fill="white"/>
<path d="M134.075 39.375C133.875 38.875 133.175 38.875 132.975 39.375C132.275 41.475 131.375 42.375 129.375 43.275C128.875 43.475 128.875 44.175 129.375 44.375C131.475 45.075 132.375 45.975 133.275 47.975C133.475 48.475 134.175 48.475 134.375 47.975C135.075 45.875 135.975 44.975 137.975 44.075C138.475 43.875 138.475 43.175 137.975 42.975C135.875 42.275 134.875 41.375 134.075 39.375Z" fill="#A99999"/>
<path d="M170.617 63.5936C170.405 62.8487 169.394 62.7955 169.074 63.4872C167.85 66.2542 166.467 67.478 163.594 68.3826C162.849 68.5954 162.795 69.6064 163.487 69.9257C166.254 71.1495 167.478 72.533 168.383 75.4064C168.595 76.1513 169.606 76.2045 169.926 75.5128C171.15 72.7458 172.533 71.522 175.406 70.6174C176.151 70.4046 176.205 69.3936 175.513 69.0743C172.746 67.8505 171.522 66.5202 170.617 63.5936Z" fill="#2DCBE0"/>
<path d="M59.4832 6.51946C55.3513 2.55333 51.5179 8.39076 51.0007 12.5397C49.1839 11.2253 47.9811 8.75183 49.6946 6.38156C50.9966 4.55236 47.856 2.70491 46.554 4.53411C43.1958 9.20764 46.1683 15.4247 51.5946 16.728C53.6588 22.2878 60.4126 24.5409 66.0324 24.2535C68.3219 24.1262 68.2199 20.5804 66.0005 20.7797C62.3236 20.9969 57.4566 20.1302 55.4817 16.7265C59.8428 15.4223 63.6164 10.6245 59.4832 6.51946ZM56.33 10.853C56.1339 12.1657 55.4459 12.8359 54.6853 13.1562C55.0802 10.8088 57.0561 6.78088 56.33 10.853Z" fill="#6ED588"/>
<path d="M206.137 87.1472C210.077 86.2603 208.135 81.7348 205.897 79.8166C207.377 79.2595 209.299 79.5144 210.026 81.4443C210.596 82.9216 212.904 81.7934 212.335 80.316C210.893 76.5228 206.08 75.8522 203.203 78.5364C199.13 77.5872 195.177 80.6826 193.16 84.0994C192.344 85.4954 194.469 86.8149 195.215 85.4321C196.518 83.1852 198.921 80.6602 201.691 80.8229C200.761 83.8951 202.115 87.9809 206.137 87.1472ZM204.815 83.6069C204.12 82.9809 203.993 82.3155 204.101 81.7436C205.328 82.8891 206.928 85.6182 204.815 83.6069Z" fill="#007FFF"/>
<path d="M22.2007 67.4122C18.6399 69.3177 21.7179 73.1615 24.3872 74.4133C23.1095 75.3449 21.1886 75.6118 19.973 73.9458C19.0304 72.6737 17.1065 74.3766 18.0491 75.6487C20.4503 78.9201 25.2676 78.283 27.3252 74.9287C31.5036 74.7574 34.4877 70.7201 35.5209 66.8891C35.9349 65.3261 33.535 64.621 33.1845 66.1527C32.5281 68.6657 30.8853 71.7401 28.1722 72.3219C28.2489 69.1131 25.8549 65.5362 22.2007 67.4122ZM24.4187 70.4718C25.2561 70.8897 25.5555 71.4972 25.6044 72.0771C24.1164 71.3003 21.8465 69.0967 24.4187 70.4718Z" fill="#007FFF"/>
<path d="M172.2 34.5689C171.3 34.5689 170.4 34.6689 169.5 34.9689C168 30.8689 170.8 25.7689 175.3 24.5689C177.5 23.9689 176.6 20.4689 174.3 21.0689C168.5 22.6689 164.3 28.1689 165.6 34.2689C165.7 34.9689 166 35.6689 166.4 36.4689C163.8 38.2689 162 41.3689 162 44.6689C162 46.9689 165.6 46.9689 165.6 44.6689C165.6 42.5689 166.6 40.6689 168.3 39.4689C170.5 42.1689 173.8 44.0689 176.8 42.1689C181.7 39.1689 175.6 34.6689 172.2 34.5689ZM172.4 38.3689C172.3 38.3689 172.3 38.2689 172.2 38.2689C172.4 38.2689 172.6 38.2689 172.9 38.2689C174 38.3689 175.7 40.5689 172.4 38.3689Z" fill="#6ED588"/>
<path d="M19.0261 82.343C17.9421 81.2623 16.2669 82.9847 17.3509 84.0654C18.1064 84.8085 18.5662 85.7541 18.6319 86.8348C18.7305 88.3884 21.0955 88.3884 20.997 86.8348C20.8985 85.1124 20.2086 83.5588 19.0261 82.343Z" fill="#F4B65A"/>
<path d="M75.0382 13.5717C73.4122 11.7705 70.8993 14.6412 72.5253 16.4424C73.6586 17.6808 74.3484 19.2568 74.4469 21.0581C74.5947 23.6473 78.1423 23.6473 77.9945 21.0581C77.8467 18.1873 76.812 15.5981 75.0382 13.5717Z" fill="#F4B65A"/>
<path d="M27.648 142.099C29.5928 139.735 25.844 136.728 23.8992 139.093C22.5642 140.739 20.7693 141.835 18.6302 142.172C15.5561 142.664 16.0074 147.373 19.0815 146.88C22.4918 146.355 25.4531 144.685 27.648 142.099Z" fill="#2DCBE0"/>
<path d="M116.854 14.7224C116.035 17.6856 114.339 19.9598 112.057 21.4069C109.659 22.923 111.765 27.1956 114.163 25.6795C117.439 23.6121 119.779 20.1665 120.891 16.0317C121.71 12.9996 117.673 11.6902 116.854 14.7224Z" fill="#007FFF"/>
<path d="M50.7084 47.8314C47.7087 47.7156 45.1089 46.5583 43.0424 44.6488C40.9758 42.6814 37.5761 45.6325 39.6426 47.5999C42.5091 50.2617 46.4421 51.824 50.6418 51.9976C53.7749 52.1134 53.7749 47.9471 50.7084 47.8314Z" fill="#DEC053"/>
<path d="M194.054 99.2681C190.197 99.109 186.854 97.5177 184.197 94.8921C181.54 92.1869 177.169 96.2447 179.826 98.9499C183.512 102.61 188.568 104.758 193.968 104.997C197.996 105.156 197.996 99.4273 194.054 99.2681Z" fill="#DEC053"/>
</svg>
