<svg width="46" height="46" viewBox="0 0 46 46" fill="none" xmlns="http://www.w3.org/2000/svg">
<path opacity="0.2" d="M7.55741 28.7531C6.27659 27.7266 5.40201 26.2856 5.08745 24.6835C4.92147 23.6665 4.99239 22.6254 5.29482 21.6398C5.59726 20.6542 6.12319 19.7501 6.83238 18.9968C7.54157 18.2434 8.41523 17.6607 9.38659 17.2932C10.3579 16.9258 11.4013 16.7832 12.4367 16.8766C13.0435 16.9307 13.6518 16.7903 14.1721 16.4762C14.6923 16.1621 15.0971 15.6909 15.3268 15.1318C16.1824 13.1047 17.6892 11.4138 19.6133 10.3214C21.5375 9.22898 23.7717 8.79597 25.9696 9.08951C28.1674 9.38304 30.2061 10.3867 31.7697 11.945C33.3332 13.5032 34.3343 15.529 34.6177 17.7082C34.6636 18.0919 34.7897 18.4618 34.9879 18.7945C35.1861 19.1272 35.4521 19.4153 35.7689 19.6406C36.0857 19.8658 36.4464 20.0232 36.8279 20.1027C37.2095 20.1822 37.6036 20.1822 37.9851 20.1025C38.6861 19.9616 39.4086 19.9635 40.1088 20.1081C40.8089 20.2527 41.4721 20.537 42.0578 20.9436C42.6436 21.3502 43.1397 21.8706 43.516 22.4733C43.8922 23.0759 44.1408 23.7481 44.2465 24.4489C44.3443 25.1808 44.2828 25.9251 44.0659 26.6314C43.8491 27.3378 43.482 27.99 42.9894 28.544C42.4968 29.098 41.8901 29.541 41.2101 29.8432C40.5302 30.1454 39.7928 30.2997 39.0476 30.2958H12.0904C10.4433 30.3259 8.83823 29.7796 7.55741 28.7531Z" fill="#007FFF"/>
<path d="M5.55741 32.7531C4.27659 31.7266 3.40201 30.2856 3.08745 28.6835C2.92147 27.6665 2.99239 26.6254 3.29482 25.6398C3.59726 24.6542 4.12319 23.7501 4.83238 22.9968C5.54157 22.2434 6.41523 21.6607 7.38659 21.2932C8.35794 20.9258 9.40126 20.7832 10.4367 20.8766C11.0435 20.9307 11.6518 20.7903 12.1721 20.4762C12.6923 20.1621 13.0971 19.6909 13.3268 19.1318C14.1824 17.1047 15.6892 15.4138 17.6133 14.3214C19.5375 13.229 21.7717 12.796 23.9696 13.0895C26.1674 13.383 28.2061 14.3867 29.7697 15.945C31.3332 17.5032 32.3343 19.529 32.6177 21.7082C32.6636 22.0919 32.7897 22.4618 32.9879 22.7945C33.1861 23.1272 33.4521 23.4153 33.7689 23.6406C34.0857 23.8658 34.4464 24.0232 34.8279 24.1027C35.2095 24.1822 35.6036 24.1822 35.9851 24.1025C36.6861 23.9616 37.4086 23.9635 38.1088 24.1081C38.8089 24.2527 39.4721 24.537 40.0578 24.9436C40.6436 25.3502 41.1397 25.8706 41.516 26.4733C41.8922 27.0759 42.1408 27.7481 42.2465 28.4489C42.3443 29.1808 42.2828 29.9251 42.0659 30.6314C41.8491 31.3378 41.482 31.99 40.9894 32.544C40.4968 33.098 39.8901 33.541 39.2101 33.8432C38.5302 34.1454 37.7928 34.2997 37.0476 34.2958H10.0904C8.44328 34.3259 6.83823 33.7796 5.55741 32.7531Z" fill="#F3F3F3"/>
<path d="M16.2002 13.5519C18.3566 12.2702 20.8653 11.7598 23.3357 12.1053C25.8058 12.4507 28.0896 13.6308 29.836 15.453C30.4714 16.1159 31.0228 16.8503 31.4823 17.6384C31.8161 18.2109 31.5437 18.9261 30.9402 19.2C30.3367 19.4739 29.6319 19.2015 29.2832 18.6379C28.9444 18.0904 28.5495 17.5791 28.1033 17.1136C26.7226 15.673 24.929 14.7514 23.0034 14.4822C21.0781 14.213 19.1185 14.6093 17.4265 15.615C15.735 16.6204 14.4017 18.1815 13.6416 20.0638C13.3204 20.8789 12.7526 21.5743 12.0132 22.0416C11.2713 22.5106 10.3988 22.7227 9.52524 22.6412L9.52402 22.6411C8.67794 22.5613 7.82461 22.683 7.02848 22.9983C6.23216 23.3137 5.51193 23.8154 4.92471 24.4685C4.33733 25.1218 3.89901 25.9088 3.64638 26.7708C3.39546 27.627 3.33511 28.532 3.47032 29.4168C3.73773 30.8202 4.46993 32.073 5.52873 32.9614C6.59105 33.8527 7.91504 34.3218 9.26749 34.296L9.29039 34.2958H14.8334C15.4947 34.2958 16.0314 34.8308 16.0334 35.492C16.0355 36.1562 15.4976 36.6958 14.8334 36.6958H9.30133C7.36378 36.7299 5.48234 36.0553 3.98609 34.7999C2.4878 33.5428 1.47259 31.7852 1.10801 29.8411C1.10575 29.829 1.10367 29.8169 1.10177 29.8047C0.90865 28.5659 0.991045 27.2976 1.34326 26.0958C1.6955 24.8939 2.30905 23.788 3.14006 22.8638C3.97122 21.9395 4.99831 21.221 6.1447 20.767C7.29099 20.313 8.52397 20.1362 9.74854 20.2516C10.0885 20.2833 10.4324 20.2016 10.7309 20.0129C11.0303 19.8237 11.2711 19.5345 11.4097 19.1814L11.4138 19.171C12.3654 16.8108 14.0447 14.8331 16.2002 13.5519Z" fill="#007FFF"/>
<path d="M36.2476 34.2958L36.2542 34.2958C36.8211 34.2989 37.3835 34.1761 37.9039 33.9339C38.4245 33.6917 38.8925 33.3349 39.2747 32.8849C39.6571 32.4347 39.9443 31.902 40.1144 31.3217C40.2837 30.7444 40.3326 30.1354 40.2574 29.5359C40.1733 28.9609 39.9781 28.4115 39.6853 27.9205C39.391 27.427 39.0048 27.0039 38.5523 26.6751C38.1 26.3464 37.5905 26.1183 37.0552 26.0026C36.913 25.9718 36.7697 25.9492 36.6258 25.9345C35.9664 25.8675 35.3216 25.4723 35.1851 24.8238C35.0486 24.1752 35.466 23.5265 36.1287 23.5155C36.609 23.5075 37.0899 23.5546 37.5624 23.6568C38.4274 23.8438 39.2441 24.211 39.9633 24.7337C40.6824 25.2562 41.2884 25.9229 41.7466 26.6912C42.2047 27.4595 42.5061 28.3142 42.6342 29.2032L42.6368 29.2223C42.7556 30.1524 42.681 31.0982 42.4174 31.997C42.1539 32.8958 41.7069 33.7286 41.104 34.4385C40.501 35.1485 39.7557 35.7194 38.9164 36.1099C38.078 36.5 37.1669 36.7003 36.2447 36.6958H30.7086C30.046 36.6958 29.5087 36.1587 29.5086 35.4961C29.5084 34.8332 30.0457 34.2958 30.7086 34.2958H36.2476Z" fill="#007FFF"/>
<path d="M41.5928 12C41.4169 11.9997 41.2427 12.0342 41.0801 12.1014C40.9176 12.1686 40.7699 12.2672 40.6455 12.3916L21.3866 31.6541L16.289 26.553C16.1647 26.4282 16.017 26.3291 15.8544 26.2613C15.6917 26.1936 15.5173 26.1587 15.3412 26.1585C15.165 26.1582 14.9905 26.1928 14.8277 26.2601C14.6649 26.3274 14.517 26.4262 14.3924 26.5508C14.2678 26.6753 14.169 26.8232 14.1017 26.986C14.0344 27.1488 13.9998 27.3233 14 27.4995C14.0002 27.6757 14.0351 27.8501 14.1028 28.0127C14.1705 28.1754 14.2696 28.3231 14.3945 28.4474L19.9725 34.0224C20.7536 34.8031 22.0195 34.8029 22.8004 34.0222L42.54 14.286C42.7274 14.0987 42.8551 13.8601 42.9068 13.6002C42.9586 13.3404 42.9321 13.071 42.8306 12.8263C42.7292 12.5815 42.5575 12.3724 42.3371 12.2253C42.1167 12.0782 41.8577 11.9998 41.5928 12Z" fill="#007FFF"/>
</svg>
