<svg width="46" height="46" viewBox="0 0 46 46" fill="none" xmlns="http://www.w3.org/2000/svg">
<path opacity="0.2" d="M7.55741 29.6806C6.27659 28.6059 5.40201 27.0973 5.08745 25.4199C4.92147 24.3552 4.99239 23.2652 5.29482 22.2333C5.59726 21.2014 6.12319 20.2549 6.83238 19.4662C7.54157 18.6774 8.41523 18.0674 9.38659 17.6827C10.3579 17.2979 11.4013 17.1487 12.4367 17.2464C13.0435 17.303 13.6518 17.1561 14.1721 16.8273C14.6923 16.4984 15.0971 16.0051 15.3268 15.4197C16.1824 13.2974 17.6892 11.5272 19.6133 10.3835C21.5375 9.23973 23.7717 8.78639 25.9696 9.09371C28.1674 9.40103 30.2061 10.4518 31.7697 12.0833C33.3332 13.7147 34.3343 15.8356 34.6177 18.1171C34.6636 18.5188 34.7897 18.9061 34.9879 19.2544C35.1861 19.6027 35.4521 19.9044 35.7689 20.1402C36.0857 20.376 36.4464 20.5408 36.8279 20.624C37.2095 20.7073 37.6036 20.7072 37.9851 20.6238C38.6861 20.4763 39.4086 20.4783 40.1088 20.6297C40.8089 20.7811 41.4721 21.0787 42.0578 21.5044C42.6436 21.9301 43.1397 22.475 43.516 23.1059C43.8922 23.7368 44.1408 24.4406 44.2465 25.1743C44.3443 25.9406 44.2828 26.7198 44.0659 27.4593C43.8491 28.1989 43.482 28.8817 42.9894 29.4617C42.4968 30.0417 41.8901 30.5055 41.2101 30.8219C40.5302 31.1383 39.7928 31.2999 39.0476 31.2958H12.0904C10.4433 31.3272 8.83823 30.7553 7.55741 29.6806Z" fill="#007FFF"/>
<path d="M5.55741 33.6806C4.27659 32.6059 3.40201 31.0973 3.08745 29.4199C2.92147 28.3552 2.99239 27.2652 3.29482 26.2333C3.59726 25.2014 4.12319 24.2549 4.83238 23.4662C5.54157 22.6774 6.41523 22.0674 7.38659 21.6827C8.35794 21.2979 9.40126 21.1487 10.4367 21.2464C11.0435 21.303 11.6518 21.1561 12.1721 20.8273C12.6923 20.4984 13.0971 20.0051 13.3268 19.4197C14.1824 17.2974 15.6892 15.5272 17.6133 14.3835C19.5375 13.2397 21.7717 12.7864 23.9696 13.0937C26.1674 13.401 28.2061 14.4518 29.7697 16.0833C31.3332 17.7147 32.3343 19.8356 32.6177 22.1171C32.6636 22.5188 32.7897 22.9061 32.9879 23.2544C33.1861 23.6027 33.4521 23.9044 33.7689 24.1402C34.0857 24.376 34.4464 24.5408 34.8279 24.624C35.2095 24.7073 35.6036 24.7072 35.9851 24.6238C36.6861 24.4763 37.4086 24.4783 38.1088 24.6297C38.8089 24.7811 39.4721 25.0787 40.0578 25.5044C40.6436 25.9301 41.1397 26.475 41.516 27.1059C41.8922 27.7368 42.1408 28.4406 42.2465 29.1743C42.3443 29.9406 42.2828 30.7198 42.0659 31.4593C41.8491 32.1989 41.482 32.8817 40.9894 33.4617C40.4968 34.0417 39.8901 34.5055 39.2101 34.8219C38.5302 35.1383 37.7928 35.2999 37.0476 35.2958H10.0904C8.44328 35.3272 6.83823 34.7553 5.55741 33.6806Z" fill="#1D1E22"/>
<path d="M16.2002 13.5519C18.3566 12.2702 20.8653 11.7598 23.3357 12.1053C25.8058 12.4507 28.0896 13.6308 29.836 15.453C30.4714 16.1159 31.0228 16.8503 31.4823 17.6384C31.8161 18.2109 31.5437 18.9261 30.9402 19.2C30.3367 19.4739 29.6319 19.2015 29.2832 18.6379C28.9444 18.0904 28.5495 17.5791 28.1033 17.1136C26.7226 15.673 24.929 14.7514 23.0034 14.4822C21.0781 14.213 19.1185 14.6093 17.4265 15.615C15.735 16.6204 14.4017 18.1815 13.6416 20.0638C13.3204 20.8789 12.7526 21.5743 12.0132 22.0416C11.2713 22.5106 10.3988 22.7227 9.52524 22.6412L9.52402 22.6411C8.67794 22.5613 7.82461 22.683 7.02848 22.9983C6.23216 23.3137 5.51193 23.8154 4.92471 24.4685C4.33733 25.1218 3.89901 25.9088 3.64638 26.7708C3.39546 27.627 3.33511 28.532 3.47032 29.4168C3.73773 30.8202 4.46993 32.073 5.52873 32.9614C6.59105 33.8527 7.91504 34.3218 9.26749 34.296L9.29039 34.2958H14.8334C15.4947 34.2958 16.0314 34.8308 16.0334 35.492C16.0355 36.1562 15.4976 36.6958 14.8334 36.6958H9.30133C7.36378 36.7299 5.48234 36.0553 3.98609 34.7999C2.4878 33.5428 1.47259 31.7852 1.10801 29.8411C1.10575 29.829 1.10367 29.8169 1.10177 29.8047C0.90865 28.5659 0.991045 27.2976 1.34326 26.0958C1.6955 24.8939 2.30905 23.788 3.14006 22.8638C3.97122 21.9395 4.99831 21.221 6.1447 20.767C7.29099 20.313 8.52397 20.1362 9.74854 20.2516C10.0885 20.2833 10.4324 20.2016 10.7309 20.0129C11.0303 19.8237 11.2711 19.5345 11.4097 19.1814L11.4138 19.171C12.3654 16.8108 14.0447 14.8331 16.2002 13.5519Z" fill="#007FFF"/>
<path d="M36.2476 34.2958L36.2542 34.2958C36.8211 34.2989 37.3835 34.1761 37.9039 33.9339C38.4245 33.6917 38.8925 33.3349 39.2747 32.8849C39.6571 32.4347 39.9443 31.902 40.1144 31.3217C40.2837 30.7444 40.3326 30.1354 40.2574 29.5359C40.1733 28.9609 39.9781 28.4115 39.6853 27.9205C39.391 27.427 39.0048 27.0039 38.5523 26.6751C38.1 26.3464 37.5905 26.1183 37.0552 26.0026C36.913 25.9718 36.7697 25.9492 36.6258 25.9345C35.9664 25.8675 35.3216 25.4723 35.1851 24.8238C35.0486 24.1752 35.466 23.5265 36.1287 23.5155C36.609 23.5075 37.0899 23.5546 37.5624 23.6568C38.4274 23.8438 39.2441 24.211 39.9633 24.7337C40.6824 25.2562 41.2884 25.9229 41.7466 26.6912C42.2047 27.4595 42.5061 28.3142 42.6342 29.2032L42.6368 29.2223C42.7556 30.1524 42.681 31.0982 42.4174 31.997C42.1539 32.8958 41.7069 33.7286 41.104 34.4385C40.501 35.1485 39.7557 35.7194 38.9164 36.1099C38.078 36.5 37.1669 36.7003 36.2447 36.6958H30.7086C30.046 36.6958 29.5087 36.1587 29.5086 35.4961C29.5084 34.8332 30.0457 34.2958 30.7086 34.2958H36.2476Z" fill="#007FFF"/>
<path d="M41.5928 12C41.4169 11.9997 41.2427 12.0342 41.0801 12.1014C40.9176 12.1686 40.7699 12.2672 40.6455 12.3916L21.3866 31.6541L16.289 26.553C16.1647 26.4282 16.017 26.3291 15.8544 26.2613C15.6917 26.1936 15.5173 26.1587 15.3412 26.1585C15.165 26.1582 14.9905 26.1928 14.8277 26.2601C14.6649 26.3274 14.517 26.4262 14.3924 26.5508C14.2678 26.6753 14.169 26.8232 14.1017 26.986C14.0344 27.1488 13.9998 27.3233 14 27.4995C14.0002 27.6757 14.0351 27.8501 14.1028 28.0127C14.1705 28.1754 14.2696 28.3231 14.3945 28.4474L19.9725 34.0224C20.7536 34.8031 22.0195 34.8029 22.8004 34.0222L42.54 14.286C42.7274 14.0987 42.8551 13.8601 42.9068 13.6002C42.9586 13.3404 42.9321 13.071 42.8306 12.8263C42.7292 12.5815 42.5575 12.3724 42.3371 12.2253C42.1167 12.0782 41.8577 11.9998 41.5928 12Z" fill="#007FFF"/>
</svg>
