<svg width="64" height="64" viewBox="0 0 64 64" fill="none" xmlns="http://www.w3.org/2000/svg">
<g opacity="0.4">
<path d="M7.17752 40.7143L15.4596 48.9889C15.5456 49.0857 15.6512 49.1631 15.7695 49.2158C15.8878 49.2685 16.0159 49.2954 16.1454 49.2945L36.4817 49.2945C36.9002 49.2985 37.3154 49.2194 37.7032 49.062C38.0911 48.9045 38.4439 48.6718 38.7412 48.3772C39.0386 48.0826 39.2746 47.732 39.4357 47.3457C39.5968 46.9593 39.6797 46.5449 39.6797 46.1263L39.6797 11.835C39.6797 10.9948 39.3459 10.1889 38.7517 9.59478C38.1576 9.00063 37.3517 8.66683 36.5115 8.66683L10.0774 8.66683C9.65908 8.66389 9.24433 8.74361 8.85695 8.90141C8.46956 9.05922 8.11716 9.292 7.82 9.58639C7.52284 9.88079 7.28676 10.231 7.12533 10.6169C6.96391 11.0028 6.8803 11.4168 6.87933 11.835L6.87934 39.9837C6.87205 40.1199 6.89501 40.2561 6.94656 40.3824C6.99811 40.5087 7.07699 40.622 7.17752 40.7143ZM15.2136 46.1263L10.0923 41.005L15.2136 41.005L15.2136 46.1263Z" fill="#007FFF"/>
<path d="M7.68907 39.7068C7.09513 39.7068 6.79768 40.4249 7.21766 40.8449L15.4906 49.1178C15.9121 49.5393 16.6327 49.238 16.6287 48.642L16.5732 40.369C16.5708 40.0025 16.273 39.7068 15.9066 39.7068L7.68907 39.7068Z" fill="#007FFF"/>
</g>
<path opacity="0.2" fill-rule="evenodd" clip-rule="evenodd" d="M20.0954 22.7468C19.9543 22.7468 19.8398 22.8612 19.8398 23.0024V24.4539C19.8398 24.5951 19.9543 24.7095 20.0954 24.7095H24.0003C24.1414 24.7095 24.2559 24.5951 24.2559 24.4539V23.0024C24.2559 22.8612 24.1414 22.7468 24.0003 22.7468H20.0954ZM52.9707 22.7468C52.8296 22.7468 52.7152 22.8612 52.7152 23.0024V24.4539C52.7152 24.5951 52.8296 24.7095 52.9707 24.7095H56.8756C57.0168 24.7095 57.1312 24.5951 57.1312 24.4539V23.0024C57.1312 22.8612 57.0168 22.7468 56.8756 22.7468H52.9707ZM34.5602 23.0024C34.5602 22.8612 34.6746 22.7468 34.8158 22.7468H38.7207C38.8618 22.7468 38.9762 22.8612 38.9762 23.0024V24.4539C38.9762 24.5951 38.8618 24.7095 38.7207 24.7095H34.8158C34.6746 24.7095 34.5602 24.5951 34.5602 24.4539V23.0024ZM41.4296 24.7095C41.9716 24.7095 42.4109 24.2701 42.4109 23.7282C42.4109 23.1862 41.9716 22.7468 41.4296 22.7468C40.8876 22.7468 40.4482 23.1862 40.4482 23.7282C40.4482 24.2701 40.8876 24.7095 41.4296 24.7095ZM61.0564 23.7282C61.0564 24.2701 60.6171 24.7095 60.0751 24.7095C59.5331 24.7095 59.0938 24.2701 59.0938 23.7282C59.0938 23.1862 59.5331 22.7468 60.0751 22.7468C60.6171 22.7468 61.0564 23.1862 61.0564 23.7282ZM29.1627 24.7095C29.7046 24.7095 30.144 24.2701 30.144 23.7282C30.144 23.1862 29.7046 22.7468 29.1627 22.7468C28.6207 22.7468 28.1813 23.1862 28.1813 23.7282C28.1813 24.2701 28.6207 24.7095 29.1627 24.7095ZM45.3546 23.7282C45.3546 24.2701 44.9152 24.7095 44.3733 24.7095C43.8313 24.7095 43.3919 24.2701 43.3919 23.7282C43.3919 23.1862 43.8313 22.7468 44.3733 22.7468C44.9152 22.7468 45.3546 23.1862 45.3546 23.7282ZM63.0184 24.7095C63.5604 24.7095 63.9998 24.2701 63.9998 23.7282C63.9998 23.1862 63.5604 22.7468 63.0184 22.7468C62.4765 22.7468 62.0371 23.1862 62.0371 23.7282C62.0371 24.2701 62.4765 24.7095 63.0184 24.7095ZM51.2429 23.7282C51.2429 24.2701 50.8036 24.7095 50.2616 24.7095C49.7196 24.7095 49.2803 24.2701 49.2803 23.7282C49.2803 23.1862 49.7196 22.7468 50.2616 22.7468C50.8036 22.7468 51.2429 23.1862 51.2429 23.7282ZM32.1063 24.7095C32.6483 24.7095 33.0877 24.2701 33.0877 23.7282C33.0877 23.1862 32.6483 22.7468 32.1063 22.7468C31.5644 22.7468 31.125 23.1862 31.125 23.7282C31.125 24.2701 31.5644 24.7095 32.1063 24.7095Z" fill="#007FFF"/>
<path opacity="0.2" fill-rule="evenodd" clip-rule="evenodd" d="M6.00369 29.7869C5.86897 29.7869 5.75977 29.8961 5.75977 30.0308V31.0107C5.75977 31.1455 5.86898 31.2547 6.00369 31.2547H8.81841C8.95312 31.2547 9.06233 31.1455 9.06233 31.0107V30.0308C9.06233 29.8961 8.95312 29.7869 8.81841 29.7869H6.00369ZM16.645 29.7869C16.5103 29.7869 16.401 29.8961 16.401 30.0308V31.0107C16.401 31.1455 16.5103 31.2547 16.645 31.2547H19.4597C19.5944 31.2547 19.7036 31.1455 19.7036 31.0107V30.0308C19.7036 29.8961 19.5944 29.7869 19.4597 29.7869H16.645ZM20.4382 30.0308C20.4382 29.8961 20.5474 29.7869 20.6821 29.7869H23.4968C23.6315 29.7869 23.7407 29.8961 23.7407 30.0308V31.0107C23.7407 31.1455 23.6315 31.2547 23.4968 31.2547H20.6821C20.5474 31.2547 20.4382 31.1455 20.4382 31.0107V30.0308ZM24.7189 29.7869C24.5841 29.7869 24.4749 29.8961 24.4749 30.0308V31.0107C24.4749 31.1455 24.5841 31.2547 24.7189 31.2547H27.5336C27.6683 31.2547 27.7775 31.1455 27.7775 31.0107V30.0308C27.7775 29.8961 27.6683 29.7869 27.5336 29.7869H24.7189ZM30.7126 30.0308C30.7126 29.8961 30.8218 29.7869 30.9565 29.7869H33.7712C33.9059 29.7869 34.0151 29.8961 34.0151 30.0308V31.0107C34.0151 31.1455 33.9059 31.2547 33.7712 31.2547H30.9565C30.8218 31.2547 30.7126 31.1455 30.7126 31.0107V30.0308ZM37.9288 29.7869C37.7941 29.7869 37.6849 29.8961 37.6849 30.0308V31.0107C37.6849 31.1455 37.7941 31.2547 37.9288 31.2547H40.7435C40.8783 31.2547 40.9875 31.1455 40.9875 31.0107V30.0308C40.9875 29.8961 40.8783 29.7869 40.7435 29.7869H37.9288ZM41.721 30.0308C41.721 29.8961 41.8302 29.7869 41.965 29.7869H44.7797C44.9144 29.7869 45.0236 29.8961 45.0236 30.0308V31.0107C45.0236 31.1455 44.9144 31.2547 44.7797 31.2547H41.965C41.8302 31.2547 41.721 31.1455 41.721 31.0107V30.0308ZM46.0014 29.7869C45.8667 29.7869 45.7575 29.8961 45.7575 30.0308V31.0107C45.7575 31.1455 45.8667 31.2547 46.0014 31.2547H48.8161C48.9508 31.2547 49.0601 31.1455 49.0601 31.0107V30.0308C49.0601 29.8961 48.9508 29.7869 48.8161 29.7869H46.0014ZM51.9961 30.0308C51.9961 29.8961 52.1053 29.7869 52.24 29.7869H55.0547C55.1894 29.7869 55.2987 29.8961 55.2987 30.0308V31.0107C55.2987 31.1455 55.1894 31.2547 55.0547 31.2547H52.24C52.1053 31.2547 51.9961 31.1455 51.9961 31.0107V30.0308ZM10.5308 31.2547C10.9361 31.2547 11.2647 30.9261 11.2647 30.5208C11.2647 30.1154 10.9361 29.7869 10.5308 29.7869C10.1255 29.7869 9.79688 30.1154 9.79688 30.5208C9.79688 30.9261 10.1255 31.2547 10.5308 31.2547ZM13.4659 30.5208C13.4659 30.9261 13.1373 31.2547 12.732 31.2547C12.3266 31.2547 11.998 30.9261 11.998 30.5208C11.998 30.1154 12.3266 29.7869 12.732 29.7869C13.1373 29.7869 13.4659 30.1154 13.4659 30.5208ZM35.8501 31.2547C36.2554 31.2547 36.584 30.9261 36.584 30.5208C36.584 30.1154 36.2554 29.7869 35.8501 29.7869C35.4448 29.7869 35.1162 30.1154 35.1162 30.5208C35.1162 30.9261 35.4448 31.2547 35.8501 31.2547Z" fill="#007FFF"/>
<path opacity="0.2" fill-rule="evenodd" clip-rule="evenodd" d="M2.7343 41.3066C2.58368 41.3066 2.46159 41.4287 2.46159 41.5793V42.6749C2.46159 42.8256 2.58368 42.9477 2.7343 42.9477H5.88116C6.03177 42.9477 6.15387 42.8256 6.15387 42.6749V41.5793C6.15387 41.4287 6.03177 41.3066 5.88116 41.3066H2.7343ZM9.70891 41.3066C9.55829 41.3066 9.4362 41.4287 9.4362 41.5793V42.6749C9.4362 42.8256 9.55829 42.9477 9.70891 42.9477H12.8558C13.0064 42.9477 13.1285 42.8256 13.1285 42.6749V41.5793C13.1285 41.4287 13.0064 41.3066 12.8558 41.3066H9.70891ZM18.8717 41.5793C18.8717 41.4287 18.9938 41.3066 19.1445 41.3066H22.2913C22.4419 41.3066 22.564 41.4287 22.564 41.5793V42.6749C22.564 42.8256 22.4419 42.9477 22.2913 42.9477H19.1445C18.9938 42.9477 18.8717 42.8256 18.8717 42.6749V41.5793ZM27.3502 41.3066C27.1996 41.3066 27.0775 41.4287 27.0775 41.5793V42.6749C27.0775 42.8256 27.1996 42.9477 27.3502 42.9477H30.497C30.6477 42.9477 30.7698 42.8256 30.7698 42.6749V41.5793C30.7698 41.4287 30.6477 41.3066 30.497 41.3066H27.3502ZM32 41.5793C32 41.4287 32.1221 41.3066 32.2727 41.3066H35.4196C35.5702 41.3066 35.6923 41.4287 35.6923 41.5793V42.6749C35.6923 42.8256 35.5702 42.9477 35.4196 42.9477H32.2727C32.1221 42.9477 32 42.8256 32 42.6749V41.5793ZM39.6568 41.3066C39.5062 41.3066 39.3841 41.4287 39.3841 41.5793V42.6749C39.3841 42.8256 39.5062 42.9477 39.6568 42.9477H42.8037C42.9543 42.9477 43.0764 42.8256 43.0764 42.6749V41.5793C43.0764 41.4287 42.9543 41.3066 42.8037 41.3066H39.6568ZM44.3079 41.5793C44.3079 41.4287 44.43 41.3066 44.5807 41.3066H47.7275C47.8781 41.3066 48.0002 41.4287 48.0002 41.5793V42.6749C48.0002 42.8256 47.8781 42.9477 47.7275 42.9477H44.5807C44.43 42.9477 44.3079 42.8256 44.3079 42.6749V41.5793ZM49.0924 41.3066C48.9418 41.3066 48.8197 41.4287 48.8197 41.5793V42.6749C48.8197 42.8256 48.9418 42.9477 49.0924 42.9477H52.2392C52.3898 42.9477 52.5119 42.8256 52.5119 42.6749V41.5793C52.5119 41.4287 52.3898 41.3066 52.2392 41.3066H49.0924ZM55.7936 41.5793C55.7936 41.4287 55.9157 41.3066 56.0663 41.3066H59.2132C59.3638 41.3066 59.4859 41.4287 59.4859 41.5793V42.6749C59.4859 42.8256 59.3638 42.9477 59.2132 42.9477H56.0663C55.9157 42.9477 55.7936 42.8256 55.7936 42.6749V41.5793ZM24.6154 42.9477C25.0686 42.9477 25.4359 42.5803 25.4359 42.1271C25.4359 41.674 25.0686 41.3066 24.6154 41.3066C24.1623 41.3066 23.7949 41.674 23.7949 42.1271C23.7949 42.5803 24.1623 42.9477 24.6154 42.9477ZM61.9477 42.1271C61.9477 42.5803 61.5803 42.9477 61.1271 42.9477C60.674 42.9477 60.3066 42.5803 60.3066 42.1271C60.3066 41.674 60.674 41.3066 61.1271 41.3066C61.5803 41.3066 61.9477 41.674 61.9477 42.1271ZM63.1792 42.9477C63.6324 42.9477 63.9997 42.5803 63.9997 42.1271C63.9997 41.674 63.6324 41.3066 63.1792 41.3066C62.7261 41.3066 62.3587 41.674 62.3587 42.1271C62.3587 42.5803 62.7261 42.9477 63.1792 42.9477ZM15.5902 42.1271C15.5902 42.5803 15.2229 42.9477 14.7697 42.9477C14.3166 42.9477 13.9492 42.5803 13.9492 42.1271C13.9492 41.674 14.3166 41.3066 14.7697 41.3066C15.2229 41.3066 15.5902 41.674 15.5902 42.1271ZM0.820506 42.9478C1.27366 42.9478 1.64101 42.5804 1.64101 42.1273C1.64101 41.6741 1.27366 41.3068 0.820506 41.3068C0.367353 41.3068 0 41.6741 0 42.1273C0 42.5804 0.367353 42.9478 0.820506 42.9478Z" fill="#007FFF"/>
<path fill-rule="evenodd" clip-rule="evenodd" d="M40.9025 30.8307L40.9311 30.564C40.9322 30.5542 40.9331 30.5442 40.9339 30.5342C40.8033 26.1344 37.8875 23.4118 35.2035 23.4118C32.5195 23.4118 29.6038 26.1344 29.4731 30.5342C29.4737 30.5414 29.4744 30.5486 29.4751 30.5557L29.5019 30.8226L29.4733 31.0893C29.4686 31.1329 29.466 31.1788 29.466 31.2267V33.6267C29.466 33.9382 29.5724 34.1452 29.648 34.236C29.6495 34.2379 29.6511 34.2397 29.6526 34.2415H40.7491C40.7506 34.2397 40.7522 34.2379 40.7538 34.236C40.8293 34.1452 40.9357 33.9382 40.9357 33.6267V31.2267C40.9357 31.1818 40.9334 31.1388 40.9293 31.0976L40.9025 30.8307ZM40.716 34.2754C40.716 34.2753 40.7162 34.2751 40.7168 34.2747L40.716 34.2754ZM29.6858 34.2754C29.6858 34.2754 29.6855 34.2752 29.685 34.2747L29.6858 34.2754ZM26.8862 30.5711C26.999 25.1664 30.6796 20.8267 35.2035 20.8267C39.7274 20.8267 43.4081 25.1664 43.5209 30.5711C43.5175 30.6616 43.511 30.7511 43.5016 30.8395C43.5143 30.9664 43.5209 31.0956 43.5209 31.2267V33.6267C43.5209 35.394 42.3289 36.8267 40.8585 36.8267H29.5433C28.0729 36.8267 26.8809 35.394 26.8809 33.6267V31.2267C26.8809 31.0868 26.8883 30.949 26.9028 30.8138C26.8948 30.7338 26.8892 30.6528 26.8862 30.5711Z" fill="#007FFF"/>
<path fill-rule="evenodd" clip-rule="evenodd" d="M25.3603 34.2905C23.7286 34.2905 22.4058 35.6133 22.4058 37.245V41.8153C22.4029 41.9303 22.4014 42.0456 22.4014 42.1613C22.4014 42.277 22.4029 42.3924 22.4058 42.5074V42.8798C22.4058 43.0854 22.4268 43.2861 22.4668 43.4798C23.1274 50.0986 28.7077 55.2684 35.4979 55.2793H35.5408C42.3048 55.2684 47.8684 50.1382 48.564 43.5561C48.6148 43.3389 48.6417 43.1125 48.6417 42.8798V37.245C48.6417 35.6133 47.319 34.2905 45.6872 34.2905H25.3603Z" fill="#007FFF"/>
<path opacity="0.2" fill-rule="evenodd" clip-rule="evenodd" d="M36.5724 41.2162C37.3521 40.8465 37.8913 40.0522 37.8913 39.1319C37.8913 37.8588 36.8592 36.8267 35.586 36.8267C34.3129 36.8267 33.2808 37.8588 33.2808 39.1319C33.2808 40.0509 33.8185 40.8443 34.5964 41.2146V42.8221C34.5964 43.1485 34.861 43.413 35.1873 43.413H35.9815C36.3078 43.413 36.5724 43.1485 36.5724 42.8221V41.2162Z" fill="#B7D0EA"/>
<g opacity="0.2">
<path fill-rule="evenodd" clip-rule="evenodd" d="M14.2757 17.7243C14.2757 18.1317 13.9454 18.4619 13.538 18.4619C13.1306 18.4619 12.8003 18.1317 12.8003 17.7243C12.8003 17.3168 13.1306 16.9866 13.538 16.9866C13.9454 16.9866 14.2757 17.3168 14.2757 17.7243ZM15.9966 18.4619C16.404 18.4619 16.7343 18.1317 16.7343 17.7243C16.7343 17.3168 16.404 16.9866 15.9966 16.9866C15.5892 16.9866 15.259 17.3168 15.259 17.7243C15.259 18.1317 15.5892 18.4619 15.9966 18.4619ZM26.325 17.1982C26.325 17.0813 26.4198 16.9866 26.5367 16.9866H29.433C29.5499 16.9866 29.6446 17.0813 29.6446 17.1982V18.2503C29.6446 18.3672 29.5499 18.4619 29.433 18.4619H26.5367C26.4198 18.4619 26.325 18.3672 26.325 18.2503V17.1982ZM32.5946 17.1982C32.5946 17.0813 32.6893 16.9866 32.8062 16.9866H35.7025C35.8194 16.9866 35.9141 17.0813 35.9141 17.1982V18.2503C35.9141 18.3672 35.8194 18.4619 35.7025 18.4619H32.8062C32.6893 18.4619 32.5946 18.3672 32.5946 18.2503V17.1982ZM43.5032 16.9866C43.3863 16.9866 43.2915 17.0813 43.2915 17.1982V18.2503C43.2915 18.3672 43.3863 18.4619 43.5032 18.4619H46.3994C46.5163 18.4619 46.6111 18.3672 46.6111 18.2503V17.1982C46.6111 17.0813 46.5163 16.9866 46.3994 16.9866H43.5032ZM56.2007 17.1982C56.2007 17.0813 56.2954 16.9866 56.4123 16.9866H59.3086C59.4255 16.9866 59.5203 17.0813 59.5203 17.1982V18.2503C59.5203 18.3672 59.4255 18.4619 59.3086 18.4619H56.4123C56.2954 18.4619 56.2007 18.3672 56.2007 18.2503V17.1982ZM18.2099 18.4619C18.6173 18.4619 18.9475 18.1317 18.9475 17.7243C18.9475 17.3168 18.6173 16.9866 18.2099 16.9866C17.8024 16.9866 17.4722 17.3168 17.4722 17.7243C17.4722 18.1317 17.8024 18.4619 18.2099 18.4619ZM23.3736 17.7243C23.3736 18.1317 23.0434 18.4619 22.636 18.4619C22.2285 18.4619 21.8983 18.1317 21.8983 17.7243C21.8983 17.3168 22.2285 16.9866 22.636 16.9866C23.0434 16.9866 23.3736 17.3168 23.3736 17.7243ZM31.119 18.4619C31.5264 18.4619 31.8567 18.1317 31.8567 17.7243C31.8567 17.3168 31.5264 16.9866 31.119 16.9866C30.7116 16.9866 30.3813 17.3168 30.3813 17.7243C30.3813 18.1317 30.7116 18.4619 31.119 18.4619ZM38.1275 17.7243C38.1275 18.1317 37.7973 18.4619 37.3899 18.4619C36.9825 18.4619 36.6522 18.1317 36.6522 17.7243C36.6522 17.3168 36.9825 16.9866 37.3899 16.9866C37.7973 16.9866 38.1275 17.3168 38.1275 17.7243ZM41.816 18.4619C42.2234 18.4619 42.5537 18.1317 42.5537 17.7243C42.5537 17.3168 42.2234 16.9866 41.816 16.9866C41.4086 16.9866 41.0783 17.3168 41.0783 17.7243C41.0783 18.1317 41.4086 18.4619 41.816 18.4619ZM48.8235 17.7243C48.8235 18.1317 48.4932 18.4619 48.0858 18.4619C47.6784 18.4619 47.3481 18.1317 47.3481 17.7243C47.3481 17.3168 47.6784 16.9866 48.0858 16.9866C48.4932 16.9866 48.8235 17.3168 48.8235 17.7243ZM52.5123 18.4619C52.9197 18.4619 53.2499 18.1317 53.2499 17.7243C53.2499 17.3168 52.9197 16.9866 52.5123 16.9866C52.1049 16.9866 51.7746 17.3168 51.7746 17.7243C51.7746 18.1317 52.1049 18.4619 52.5123 18.4619Z" fill="#007FFF"/>
</g>
</svg>
