<svg width="7" height="12" viewBox="0 0 7 12" fill="none" xmlns="http://www.w3.org/2000/svg">
<path d="M0.470001 11.39C0.600001 11.39 0.719998 11.34 0.809998 11.25L6.25999 6.06C6.46999 5.88 6.49 5.57 6.31 5.37C6.3 5.36 6.28 5.34 6.27 5.33L0.809998 0.139999C0.719998 0.0499994 0.600001 0 0.470001 0C0.210001 0 0 0.199999 0 0.459999C0 0.469999 0 0.469996 0 0.479996C0 0.609996 0.0499994 0.729998 0.139999 0.809998L5.27 5.7L0.139999 10.59C0.0499994 10.68 0 10.8 0 10.93C0 11.19 0.199999 11.4 0.459999 11.4C0.459999 11.39 0.470001 11.39 0.470001 11.39Z" fill="#999999"/>
</svg>
