<svg width="7" height="12" viewBox="0 0 7 12" fill="none" xmlns="http://www.w3.org/2000/svg">
<path d="M5.96237 0.010025C5.83237 0.010025 5.71238 0.0600243 5.62238 0.150024L0.172379 5.34003C-0.0376209 5.52003 -0.057624 5.83002 0.122376 6.03002C0.132376 6.04002 0.152369 6.06002 0.162369 6.07002L5.62238 11.26C5.71238 11.35 5.83237 11.4 5.96237 11.4C6.22237 11.4 6.43237 11.2 6.43237 10.94C6.43237 10.93 6.43237 10.93 6.43237 10.92C6.43237 10.79 6.38237 10.67 6.29237 10.59L1.16237 5.70003L6.29237 0.810028C6.38237 0.720028 6.43237 0.600024 6.43237 0.470024C6.43237 0.210024 6.23237 2.28707e-05 5.97237 2.2848e-05C5.97237 0.0100228 5.96237 0.010025 5.96237 0.010025Z" fill="#999999"/>
</svg>
