<svg width="12" height="12" viewBox="0 0 12 12" fill="none" xmlns="http://www.w3.org/2000/svg">
<path d="M5.95798 11.4C5.82798 11.4 5.70798 11.35 5.61798 11.26L0.157975 6.07003C-0.0420253 5.89003 -0.052024 5.58003 0.127976 5.38003C0.137976 5.37003 0.157985 5.35003 0.167985 5.34003L5.61798 0.140029C5.70798 0.0500294 5.82798 3.0028e-05 5.95798 3.00394e-05C6.21798 3.00621e-05 6.42798 0.200029 6.42798 0.460029C6.42798 0.470029 6.42798 0.470033 6.42798 0.480033C6.42798 0.610033 6.37798 0.73003 6.28798 0.82003L1.15797 5.71003L6.28798 10.6C6.37798 10.69 6.42798 10.81 6.42798 10.94C6.42798 11.2 6.22799 11.41 5.96799 11.41C5.96799 11.4 5.95798 11.4 5.95798 11.4ZM10.958 11.4C10.828 11.4 10.708 11.35 10.618 11.26L5.15797 6.07003C4.95797 5.89003 4.94798 5.58003 5.12798 5.38003C5.13798 5.37003 5.15798 5.35003 5.16798 5.34003L10.618 0.14003C10.708 0.0500298 10.828 3.04651e-05 10.958 3.04765e-05C11.218 3.04992e-05 11.428 0.20003 11.428 0.46003C11.428 0.47003 11.428 0.470034 11.428 0.480034C11.428 0.610034 11.378 0.73003 11.288 0.82003L6.15797 5.71003L11.288 10.6C11.378 10.69 11.428 10.81 11.428 10.94C11.428 11.2 11.228 11.41 10.968 11.41C10.968 11.4 10.958 11.4 10.958 11.4Z" fill="#999999"/>
</svg>
