<svg width="12" height="12" viewBox="0 0 12 12" fill="none" xmlns="http://www.w3.org/2000/svg">
<path d="M5.47 0.0100021C5.6 0.0100021 5.72 0.0600015 5.81 0.150002L11.27 5.34C11.47 5.52 11.48 5.83 11.3 6.03C11.29 6.04 11.27 6.06 11.26 6.07L5.81 11.27C5.72 11.36 5.6 11.41 5.47 11.41C5.21 11.41 5 11.21 5 10.95C5 10.94 5 10.94 5 10.93C5 10.8 5.05 10.68 5.14 10.59L10.27 5.7L5.14 0.810005C5.05 0.720005 5 0.600001 5 0.470001C5 0.210001 5.19999 0 5.45999 0C5.45999 0.01 5.47 0.0100021 5.47 0.0100021ZM0.470001 0.0100021C0.600001 0.0100021 0.719998 0.0600015 0.809998 0.150002L6.27 5.34C6.47 5.52 6.48 5.83 6.3 6.03C6.29 6.04 6.26999 6.06 6.25999 6.07L0.809998 11.27C0.719998 11.36 0.600001 11.41 0.470001 11.41C0.210001 11.41 0 11.21 0 10.95C0 10.94 0 10.94 0 10.93C0 10.8 0.0499994 10.68 0.139999 10.59L5.27 5.7L0.139999 0.810005C0.0499994 0.720005 0 0.600001 0 0.470001C0 0.210001 0.199991 0 0.459991 0C0.459991 0.01 0.470001 0.0100021 0.470001 0.0100021Z" fill="#999999"/>
</svg>
