<svg width="16" height="16" viewBox="0 0 16 16" fill="none" xmlns="http://www.w3.org/2000/svg">
<path fill-rule="evenodd" clip-rule="evenodd" d="M12.3536 1.76777C12.525 1.59632 12.7575 1.5 13 1.5C13.2425 1.5 13.475 1.59632 13.6465 1.76777C13.8179 1.93922 13.9142 2.17175 13.9142 2.41421C13.9142 2.65668 13.8179 2.88921 13.6465 3.06066L7.41105 9.29607L5.68719 9.72703L6.11816 8.00317L12.3536 1.76777ZM13 0.5C12.4923 0.5 12.0054 0.701676 11.6465 1.06066L5.31312 7.39399C5.24904 7.45807 5.20359 7.53836 5.18161 7.62628L4.51494 10.2929C4.47234 10.4633 4.52227 10.6436 4.64646 10.7678C4.77065 10.892 4.95089 10.9419 5.12128 10.8993L7.78794 10.2326C7.87586 10.2106 7.95615 10.1652 8.02023 10.1011L14.3536 3.76777C14.7125 3.40878 14.9142 2.92189 14.9142 2.41421C14.9142 1.90653 14.7125 1.41964 14.3536 1.06066C13.9946 0.701676 13.5077 0.5 13 0.5ZM2.33333 1.91406C1.8471 1.91406 1.38079 2.10722 1.03697 2.45103C0.693154 2.79485 0.5 3.26117 0.5 3.7474V13.0807C0.5 13.567 0.693154 14.0333 1.03697 14.3771C1.38079 14.7209 1.8471 14.9141 2.33333 14.9141H11.6667C12.1529 14.9141 12.6192 14.7209 12.963 14.3771C13.3068 14.0333 13.5 13.567 13.5 13.0807V8.41406C13.5 8.13792 13.2761 7.91406 13 7.91406C12.7239 7.91406 12.5 8.13792 12.5 8.41406V13.0807C12.5 13.3017 12.4122 13.5137 12.2559 13.67C12.0996 13.8263 11.8877 13.9141 11.6667 13.9141H2.33333C2.11232 13.9141 1.90036 13.8263 1.74408 13.67C1.5878 13.5137 1.5 13.3017 1.5 13.0807V3.7474C1.5 3.52638 1.5878 3.31442 1.74408 3.15814C1.90036 3.00186 2.11232 2.91406 2.33333 2.91406H7C7.27614 2.91406 7.5 2.6902 7.5 2.41406C7.5 2.13792 7.27614 1.91406 7 1.91406H2.33333Z"/>
</svg>
