<svg viewBox="0 0 24 24" fill="none" xmlns="http://www.w3.org/2000/svg">
<g clip-path="url(#clip0)">
<path d="M24.0001 12.07C24.0201 5.42 18.6501 0.02 12.0001 0C5.35006 0.02 -0.0199443 5.42 5.56849e-05 12.07C-0.00994432 17.99 4.28006 23.05 10.1201 24V15.56H7.08006V12.07H10.1301V9.41C10.1301 6.38 11.9201 4.71 14.6601 4.71C15.5601 4.72 16.4601 4.8 17.3501 4.95V7.92H15.8401C14.8901 7.8 14.0101 8.47 13.8901 9.42C13.8701 9.55 13.8701 9.67 13.8801 9.8V12.07H17.2101L16.6801 15.56H13.8801V24C19.7201 23.05 24.0101 18 24.0001 12.07Z" fill="#999999"/>
</g>
<defs>
<clipPath id="clip0">
<rect width="24" height="24" fill="white"/>
</clipPath>
</defs>
</svg>
