<?xml version="1.0" standalone="no"?>
<!DOCTYPE svg PUBLIC "-//W3C//DTD SVG 20010904//EN"
 "http://www.w3.org/TR/2001/REC-SVG-20010904/DTD/svg10.dtd">
<svg version="1.0" xmlns="http://www.w3.org/2000/svg"
 width="122.000000pt" height="110.000000pt" viewBox="0 0 122.000000 110.000000"
 preserveAspectRatio="xMidYMid meet">

<g transform="translate(0.000000,110.000000) scale(0.100000,-0.100000)"
fill="#000000" stroke="none">
<path d="M576 1075 c-21 -7 -46 -21 -57 -31 -18 -16 -173 -277 -403 -680 -78
-136 -86 -156 -86 -203 0 -46 4 -56 39 -94 l39 -42 509 3 508 4 34 33 c25 25
36 45 42 84 l8 51 -196 337 c-250 433 -288 495 -312 517 -29 27 -82 35 -125
21z m91 -252 c7 -29 -14 -324 -26 -371 -10 -36 -48 -43 -55 -10 -8 39 -26 263
-26 325 0 69 10 83 62 83 33 0 39 -4 45 -27z m-13 -522 c25 -27 17 -72 -15
-90 -24 -13 -29 -13 -53 2 -17 12 -26 26 -26 44 0 55 59 83 94 44z"/>
</g>
</svg>
