<?xml version="1.0" encoding="utf-8"?>
<!-- Generator: Adobe Illustrator 24.0.1, SVG Export Plug-In . SVG Version: 6.00 Build 0)  -->
<svg version="1.1" id="home" xmlns="http://www.w3.org/2000/svg" xmlns:xlink="http://www.w3.org/1999/xlink" x="0px" y="0px"
	 viewBox="0 0 90 90" style="enable-background:new 0 0 90 90;" xml:space="preserve">
<style type="text/css">
	.st0{fill:none;}
	.st1{fill:#FD3B4C;}
	.st2{fill-rule:evenodd;clip-rule:evenodd;fill:#F4863B;}
	.st3{fill:#FFFFFF;}
	.st4{fill-rule:evenodd;clip-rule:evenodd;fill:#5C7BFC;}
	.st5{fill-rule:evenodd;clip-rule:evenodd;fill:#FEB92B;}
	.st6{fill-rule:evenodd;clip-rule:evenodd;fill:#3EAF66;}
	.st7{fill:#8F4DDB;}
	.st8{fill:#1D1E22;}
	.st9{fill:#FD565F;}
	.st10{fill:#25282D;}
	.st11{fill:#E6E6E6;}
	.st12{fill-rule:evenodd;clip-rule:evenodd;fill:#FD3B4C;}
	.st13{fill-rule:evenodd;clip-rule:evenodd;fill:#FFFFFF;}
	.st14{fill:#12B263;}
	.st15{fill:#3EAF66;}
	.st16{fill:#DC001A;}
	.st17{fill:#F6504B;}
	.st18{fill:#DB001A;}
	.st19{fill:#F54F4A;}
	.st20{fill:#231F20;}
	.st21{fill-rule:evenodd;clip-rule:evenodd;}
</style>
<path d="M62.1,4.5c-1.2,0-2.2-1-2.2-2.2s1-2.2,2.2-2.2h12C82.9,0,90,7.1,90,15.9v10.3c0,1.2-1,2.2-2.2,2.2s-2.2-1-2.2-2.2V15.9
	c0-6.3-5.1-11.4-11.4-11.4H62.1z M85.5,62.1c0-1.2,1-2.2,2.2-2.2s2.2,1,2.2,2.2v12C90,82.9,82.9,90,74.1,90l0,0h-12
	c-1.2,0-2.2-1-2.2-2.2s1-2.2,2.2-2.2h12c6.3,0,11.4-5.1,11.4-11.4V62.1z M26.2,85.5c1.2,0,2.2,1,2.2,2.2s-1,2.2-2.2,2.2l0,0H15.9
	C7.1,90,0,82.9,0,74.1h0v-12c0-1.2,1-2.2,2.2-2.2s2.2,1,2.2,2.2v12c0,6.3,5.1,11.4,11.4,11.4H26.2z M4.5,26.2c0,1.2-1,2.2-2.2,2.2
	S0,27.4,0,26.2V15.9C0,7.1,7.1,0,15.9,0h10.3c1.2,0,2.2,1,2.2,2.2s-1,2.2-2.2,2.2H15.9C9.6,4.5,4.5,9.6,4.5,15.9V26.2z M42.8,29.2
	c0-1.2,1-2.2,2.2-2.2s2.2,1,2.2,2.2V45c0,3.7-3,6.8-6.8,6.8h-2.2c-1.2,0-2.2-1-2.2-2.2s1-2.2,2.2-2.2h2.2c1.2,0,2.2-1,2.2-2.2V29.2z
	 M24.8,29.2c0-1.2,1-2.2,2.2-2.2s2.2,1,2.2,2.2v9c0,1.2-1,2.2-2.2,2.2s-2.2-1-2.2-2.2V29.2z M60.8,29.2c0-1.2,1-2.2,2.2-2.2
	c1.2,0,2.2,1,2.2,2.2v9c0,1.2-1,2.2-2.2,2.2c-1.2,0-2.2-1-2.2-2.2V29.2z M27,63.2c-0.9-0.8-1-2.3-0.2-3.2s2.3-1,3.2-0.2l0,0
	c4.1,3.7,9.5,5.7,15,5.6c5.5,0.1,10.9-1.9,15-5.6c0.9-0.8,2.3-0.8,3.2,0.2s0.8,2.3-0.2,3.2l0,0c-4.9,4.5-11.4,6.9-18,6.8
	C38.4,70.1,31.9,67.6,27,63.2z"/>
</svg>
