<?xml version="1.0" encoding="utf-8"?>
<!-- Generator: Adobe Illustrator 24.0.1, SVG Export Plug-In . SVG Version: 6.00 Build 0)  -->
<svg version="1.1" id="home" xmlns="http://www.w3.org/2000/svg" xmlns:xlink="http://www.w3.org/1999/xlink" x="0px" y="0px"
	 viewBox="0 0 24 24" style="enable-background:new 0 0 24 24;" xml:space="preserve">
<style type="text/css">
	.st0{fill:none;}
	.st1{fill:#FD3B4C;}
	.st2{fill-rule:evenodd;clip-rule:evenodd;fill:#F4863B;}
	.st3{fill:#FFFFFF;}
	.st4{fill-rule:evenodd;clip-rule:evenodd;fill:#5C7BFC;}
	.st5{fill-rule:evenodd;clip-rule:evenodd;fill:#FEB92B;}
	.st6{fill-rule:evenodd;clip-rule:evenodd;fill:#3EAF66;}
	.st7{fill:#8F4DDB;}
	.st8{fill:#1D1E22;}
	.st9{fill:#FD565F;}
	.st10{fill:#25282D;}
	.st11{fill:#E6E6E6;}
	.st12{fill-rule:evenodd;clip-rule:evenodd;fill:#FD3B4C;}
	.st13{fill-rule:evenodd;clip-rule:evenodd;fill:#FFFFFF;}
	.st14{fill:#12B263;}
	.st15{fill:#3EAF66;}
	.st16{fill:#DC001A;}
	.st17{fill:#F6504B;}
	.st18{fill:#DB001A;}
	.st19{fill:#F54F4A;}
	.st20{fill:#231F20;}
	.st21{fill-rule:evenodd;clip-rule:evenodd;}
</style>
<path d="M12,0c0.5,0,0.9,0.4,0.9,0.8l0,0.1v10.2L23,11c0.2,0,0.3,0,0.5,0.1l0.1,0.1l0.1,0.1c0.2,0.2,0.3,0.4,0.3,0.7
	c0,1.6-0.3,3.2-0.9,4.7c-0.6,1.4-1.5,2.7-2.6,3.8c-1.1,1.1-2.4,2-3.8,2.6c-1.5,0.6-3.1,1-4.7,1c-1.6,0-3.2-0.3-4.7-0.9
	c-1.4-0.6-2.7-1.5-3.8-2.6c-1.1-1.1-2-2.4-2.6-3.8C0.3,15.2,0,13.6,0,12c0-1.6,0.3-3.2,0.9-4.7c0.6-1.4,1.5-2.7,2.6-3.8
	c1.1-1.1,2.4-2,3.8-2.6C8.8,0.3,10.4,0,12,0z M11.1,12.1V1.9l-0.1,0C5.8,2.5,1.9,6.8,1.9,12c0,5.6,4.5,10.1,10.1,10.1
	c5.2,0,9.5-3.9,10.1-9.1v-0.1L12,13c-0.2,0-0.4-0.1-0.6-0.2l-0.1-0.1c-0.1-0.1-0.2-0.3-0.3-0.5L11.1,12.1z M14.3,1.2
	c0.1-0.5,0.6-0.7,1.1-0.7l0.1,0l0.4,0.1c1.8,0.6,3.4,1.6,4.7,3C22,5,23,6.8,23.5,8.7c0.1,0.5-0.2,1-0.7,1.2c-0.1,0-0.2,0-0.2,0
	c-0.4,0-0.8-0.3-0.9-0.7C20.8,6,18.2,3.4,15,2.3C14.5,2.2,14.2,1.7,14.3,1.2C14.3,1.2,14.3,1.2,14.3,1.2L14.3,1.2z"/>
</svg>
