<?xml version="1.0" encoding="utf-8"?>
<!-- Generator: Adobe Illustrator 24.0.1, SVG Export Plug-In . SVG Version: 6.00 Build 0)  -->
<svg version="1.1" id="home" xmlns="http://www.w3.org/2000/svg" xmlns:xlink="http://www.w3.org/1999/xlink" x="0px" y="0px"
	 viewBox="0 0 26 26" style="enable-background:new 0 0 26 26;" xml:space="preserve">
<style type="text/css">
	.st0{fill:none;}
	.st1{fill:#FD3B4C;}
	.st2{fill-rule:evenodd;clip-rule:evenodd;fill:#F4863B;}
	.st3{fill:#FFFFFF;}
	.st4{fill-rule:evenodd;clip-rule:evenodd;fill:#5C7BFC;}
	.st5{fill-rule:evenodd;clip-rule:evenodd;fill:#FEB92B;}
	.st6{fill-rule:evenodd;clip-rule:evenodd;fill:#3EAF66;}
	.st7{fill:#8F4DDB;}
	.st8{fill:#1D1E22;}
	.st9{fill:#FD565F;}
	.st10{fill:#25282D;}
	.st11{fill:#E6E6E6;}
	.st12{fill-rule:evenodd;clip-rule:evenodd;fill:#FD3B4C;}
	.st13{fill-rule:evenodd;clip-rule:evenodd;fill:#FFFFFF;}
	.st14{fill:#12B263;}
	.st15{fill:#3EAF66;}
	.st16{fill:#DC001A;}
	.st17{fill:#F6504B;}
	.st18{fill:#DB001A;}
	.st19{fill:#F54F4A;}
	.st20{fill:#231F20;}
	.st21{fill-rule:evenodd;clip-rule:evenodd;}
</style>
<g>
	<path d="M20.7,15.4L20.7,15.4l-0.1-0.2c-0.5-0.6-1.4-0.7-2-0.3l-3,1.7l0,0l-0.1-0.1c-0.1-0.1-0.3-0.2-0.5-0.3l-4.8-1.7l-0.1,0
		c-0.1,0-0.1,0-0.2,0l0,0l-2.4,0.3l-0.1,0c-0.3,0.1-0.5,0.3-0.5,0.6v4v0.1c0,0.3,0.3,0.5,0.6,0.5h1.4l5.2,1c0,0,0.1,0,0.1,0
		c0.1,0,0.2,0,0.3-0.1l5.6-3.2l0.1-0.1c0.3-0.2,0.6-0.6,0.7-1C21.1,16.2,21,15.7,20.7,15.4z M19.8,16.3L19.8,16.3
		c-0.1,0.2-0.1,0.2-0.2,0.3l-5.4,3.1l-5.1-1c0,0-0.1,0-0.1,0H8.2v-2.9l1.7-0.2l4.7,1.7l0,0c0,0,0,0,0,0c0,0,0,0,0,0.1
		c0,0-0.1,0.1-0.1,0L12,16.6l-0.1,0c-0.3-0.1-0.6,0.1-0.7,0.4c-0.1,0.3,0.1,0.6,0.4,0.7c0,0,0,0,0,0l2.6,0.9l0.1,0
		c0.3,0.1,0.5,0,0.8-0.1l0.1,0c0.2-0.1,0.4-0.3,0.5-0.6l0-0.1l0.1,0c0,0,0.1,0,0.1-0.1l3.2-1.9l0.1,0c0.2-0.1,0.4,0,0.5,0.2
		C19.8,16.1,19.8,16.2,19.8,16.3z"/>
	<path d="M8.8,8.5C8.6,8.8,8.4,9.1,8.4,9.4c0,0.4,0.2,0.8,0.5,1l-0.1,0.1c-0.2,0.2-0.4,0.6-0.4,0.9c0,1.3,2.1,2.2,4.8,2.2
		c2.7,0,4.8-0.9,4.8-2.2l0-0.1c0-0.3-0.2-0.6-0.4-0.8l-0.1-0.1l0,0h0l0,0c0.3-0.3,0.5-0.6,0.5-1l0-0.1c0-0.3-0.2-0.6-0.4-0.8
		l-0.1-0.1l0,0c0.3-0.3,0.5-0.6,0.5-1.1c0-1.3-2.1-2.2-4.9-2.2c-2.7,0-4.9,0.9-4.9,2.2c0,0.4,0.2,0.8,0.5,1.1L8.8,8.5z M13.3,12.7
		c-2.1,0-3.8-0.7-3.8-1.2c0-0.1,0.1-0.2,0.1-0.3l0,0l0,0v0l0,0l0-0.1c0,0,0,0,0-0.1l0,0l0.2,0.1c1,0.4,2.1,0.6,3.2,0.6h0.2h0.2
		c1.1,0,2.3-0.2,3.3-0.6l0.2,0.2l0,0.1c0.1,0.1,0.1,0.1,0.1,0.2C17.1,12,15.4,12.7,13.3,12.7z M13.1,6.2h0.2h0.2
		c2,0,3.6,0.7,3.6,1.2c0,0.5-1.7,1.2-3.8,1.2c-2.1,0-3.8-0.7-3.8-1.2C9.5,6.8,11.1,6.2,13.1,6.2z M9.5,9.4c0-0.1,0-0.1,0.1-0.2l0,0
		l0,0l0,0v0l0,0l0-0.1c0,0,0,0,0-0.1l0-0.1c1.1,0.5,2.3,0.7,3.5,0.6c1.2,0,2.4-0.2,3.5-0.6l0.2,0.2l0,0.1c0.1,0.1,0.1,0.1,0.1,0.2
		c0,0.5-1.7,1.2-3.8,1.2C11.2,10.6,9.5,10,9.5,9.4L9.5,9.4z"/>
	<path d="M5.6,14.3c-0.3,0-0.6,0.3-0.6,0.6v5v0.1c0,0.3,0.3,0.5,0.6,0.5c0.3,0,0.6-0.3,0.6-0.6c0,0,0,0,0,0v-5v-0.1
		C6.2,14.5,5.9,14.3,5.6,14.3z"/>
	<polygon points="10,14.4 10,14.4 10,14.4 	"/>
	<polygon points="5.6,14.3 5.6,14.3 5.6,14.3 	"/>
</g>
</svg>
