<?xml version="1.0" encoding="utf-8"?>
<!-- Generator: Adobe Illustrator 24.0.1, SVG Export Plug-In . SVG Version: 6.00 Build 0)  -->
<svg version="1.1" id="home" xmlns="http://www.w3.org/2000/svg" xmlns:xlink="http://www.w3.org/1999/xlink" x="0px" y="0px"
	 viewBox="0 0 26 26" style="enable-background:new 0 0 26 26;" xml:space="preserve">
<style type="text/css">
	.st0{fill:none;}
	.st1{fill:#FD3B4C;}
	.st2{fill-rule:evenodd;clip-rule:evenodd;fill:#F4863B;}
	.st3{fill:#FFFFFF;}
	.st4{fill-rule:evenodd;clip-rule:evenodd;fill:#5C7BFC;}
	.st5{fill-rule:evenodd;clip-rule:evenodd;fill:#FEB92B;}
	.st6{fill-rule:evenodd;clip-rule:evenodd;fill:#3EAF66;}
	.st7{fill:#8F4DDB;}
	.st8{fill:#1D1E22;}
	.st9{fill:#FD565F;}
	.st10{fill:#25282D;}
	.st11{fill:#E6E6E6;}
	.st12{fill-rule:evenodd;clip-rule:evenodd;fill:#FD3B4C;}
	.st13{fill-rule:evenodd;clip-rule:evenodd;fill:#FFFFFF;}
	.st14{fill:#12B263;}
	.st15{fill:#3EAF66;}
	.st16{fill:#DC001A;}
	.st17{fill:#F6504B;}
	.st18{fill:#DB001A;}
	.st19{fill:#F54F4A;}
	.st20{fill:#231F20;}
	.st21{fill-rule:evenodd;clip-rule:evenodd;}
</style>
<g>
	<path d="M24.4,10.9l-3.9-6.7C19.8,2.9,18.4,2,16.9,2H9.1C7.6,2,6.2,2.9,5.4,4.2l-3.9,6.7c-0.8,1.3-0.8,2.9,0,4.2l3.9,6.7
		C6.2,23.1,7.6,24,9.1,24h7.8c1.5,0,2.9-0.8,3.7-2.1l3.9-6.7C25.2,13.8,25.2,12.2,24.4,10.9z M22.8,14.2L19,20.9
		c-0.4,0.7-1.2,1.2-2.1,1.2H9.1c-0.9,0-1.6-0.5-2.1-1.2l-3.9-6.7c-0.4-0.7-0.4-1.7,0-2.4L7,5.1c0.4-0.7,1.2-1.2,2.1-1.2h7.8
		c0.9,0,1.6,0.5,2.1,1.2l3.9,6.7C23.3,12.5,23.3,13.5,22.8,14.2z"/>
	<path d="M13,8.7c-2.4,0-4.3,1.9-4.3,4.3c0,2.4,1.9,4.3,4.3,4.3c2.4,0,4.3-1.9,4.3-4.3C17.3,10.6,15.4,8.7,13,8.7z M13,15.5
		c-1.4,0-2.5-1.1-2.5-2.5s1.1-2.5,2.5-2.5s2.5,1.1,2.5,2.5S14.4,15.5,13,15.5z"/>
</g>
</svg>
