<?xml version="1.0" encoding="utf-8"?>
<!-- Generator: Adobe Illustrator 24.0.1, SVG Export Plug-In . SVG Version: 6.00 Build 0)  -->
<svg version="1.1" id="home" xmlns="http://www.w3.org/2000/svg" xmlns:xlink="http://www.w3.org/1999/xlink" x="0px" y="0px"
	 viewBox="0 0 16 16" style="enable-background:new 0 0 16 16;" xml:space="preserve">
<style type="text/css">
	.st0{fill:none;}
	.st1{fill:#FD3B4C;}
	.st2{fill-rule:evenodd;clip-rule:evenodd;fill:#F4863B;}
	.st3{fill:#FFFFFF;}
	.st4{fill-rule:evenodd;clip-rule:evenodd;fill:#5C7BFC;}
	.st5{fill-rule:evenodd;clip-rule:evenodd;fill:#FEB92B;}
	.st6{fill-rule:evenodd;clip-rule:evenodd;fill:#3EAF66;}
	.st7{fill:#8F4DDB;}
	.st8{fill:#1D1E22;}
	.st9{fill:#FD565F;}
	.st10{fill:#25282D;}
	.st11{fill:#E6E6E6;}
	.st12{fill-rule:evenodd;clip-rule:evenodd;fill:#FD3B4C;}
	.st13{fill-rule:evenodd;clip-rule:evenodd;fill:#FFFFFF;}
	.st14{fill:#12B263;}
	.st15{fill:#3EAF66;}
	.st16{fill:#DC001A;}
	.st17{fill:#F6504B;}
	.st18{fill:#DB001A;}
	.st19{fill:#F54F4A;}
	.st20{fill:#231F20;}
	.st21{fill-rule:evenodd;clip-rule:evenodd;}
</style>
<path id="Combined_Shape-2" d="M2.6,10.5C1.7,9.9,0.8,9.1,0.1,8.3C0,8.1,0,7.9,0.1,7.7c0.7-0.8,1.6-1.6,2.5-2.3C4.1,4.2,6,3.4,8,3.3
	c2.1,0,4.1,0.8,5.7,2.2c0.8,0.7,1.6,1.4,2.2,2.3c0.1,0.2,0.1,0.4,0,0.5c-0.7,0.8-1.6,1.6-2.5,2.3c-1.5,1.3-3.4,2-5.4,2.2
	C6,12.6,4.1,11.8,2.6,10.5z M3.5,5.8C2.7,6.4,1.9,7,1.2,7.8L1,8l0.2,0.2C1.8,8.9,2.5,9.5,3.2,10l0.3,0.2c1.3,1,2.8,1.6,4.5,1.6
	c1.6-0.1,3.2-0.7,4.5-1.7c0.9-0.6,1.7-1.3,2.4-2L15.1,8l-0.1-0.2C14.4,7.1,13.7,6.5,13,6l-0.3-0.2c-1.4-1-3-1.6-4.7-1.6
	C6.4,4.2,4.8,4.8,3.5,5.8z M5.3,8c0-1.5,1.2-2.7,2.7-2.7s2.7,1.2,2.7,2.7S9.5,10.7,8,10.7S5.3,9.5,5.3,8L5.3,8z M6.1,8
	c0,1,0.8,1.9,1.9,1.9c1,0,1.9-0.8,1.9-1.9c0-1-0.8-1.9-1.9-1.9c0,0,0,0,0,0C7,6.1,6.1,7,6.1,8L6.1,8z"/>
</svg>
