<svg width="24" height="24" viewBox="0 0 24 24" fill="none" xmlns="http://www.w3.org/2000/svg">
<path fill-rule="evenodd" clip-rule="evenodd" d="M12 24C18.6274 24 24 18.6274 24 12C24 5.37258 18.6274 0 12 0C5.37258 0 0 5.37258 0 12C0 18.6274 5.37258 24 12 24ZM7.6673 15.8477C7.62913 15.8084 7.59504 15.7733 7.56937 15.7472C9.66714 13.8593 11.6151 11.8257 13.3974 9.6631C14.0389 8.90106 14.5882 8.04996 14.4529 6.98822C14.4095 6.76885 14.3499 6.5527 14.2744 6.34137C14.289 7.72147 13.4913 8.71495 12.687 9.70416C12.549 9.87439 12.3995 10.0359 12.2499 10.1975L12.2499 10.1975L12.2499 10.1975L12.2499 10.1976C12.1684 10.2855 12.087 10.3735 12.0073 10.463C11.8269 10.6899 11.5833 10.8641 11.3044 10.9659C11.0254 11.0677 10.7221 11.093 10.4288 11.0389C10.0222 10.9348 9.59011 10.9704 9.20817 11.1393C8.82624 11.3083 8.51879 11.5999 8.33961 11.9631C8.2076 12.2293 8.13484 12.5188 8.12593 12.8131C8.10635 13.4802 7.70473 13.8754 7.02064 13.7586C6.48812 13.6542 5.96312 13.5176 5.44883 13.3496C5.3613 13.3368 5.27854 13.3032 5.20814 13.252C5.13774 13.2008 5.08195 13.1335 5.04589 13.0564C5.00982 12.9793 4.99462 12.8948 5.00169 12.8107C5.00876 12.7265 5.03788 12.6454 5.08637 12.5748C5.18813 12.3571 5.28883 12.1389 5.38952 11.9208L5.3896 11.9206C5.68186 11.2874 5.97411 10.6543 6.29235 10.0332C6.32834 9.96302 6.3652 9.89331 6.40197 9.8238L6.40201 9.82371C6.70803 9.24507 7.00677 8.68021 6.73313 7.9785C6.68726 7.86065 6.84052 7.63827 6.95351 7.50282C7.35377 7.02265 7.76473 6.54853 8.17579 6.07431L8.17582 6.07429L8.17584 6.07426C8.29614 5.93547 8.41645 5.79667 8.53651 5.65771C8.45268 5.59242 8.37586 5.51936 8.30717 5.43961C8.15001 5.2415 7.99938 5.03788 7.8209 4.79658C7.73321 4.67804 7.63879 4.5504 7.53357 4.40986L9.1395 4.55651L8.83912 4.02324C9.80682 3.89312 10.28 4.32401 10.859 4.949C10.8927 4.8682 10.9443 4.79522 11.0101 4.73498C11.0759 4.67473 11.1544 4.62861 11.2405 4.5997C12.9074 4.23655 15.0257 5.30682 16.3653 6.96795C16.6639 7.34629 16.8336 7.80284 16.8515 8.276C16.8694 8.74916 16.7347 9.21618 16.4655 9.61404C15.9269 10.5006 15.3094 11.3413 14.6196 12.1268C13.7971 13.0914 13.3592 13.5292 12.181 14.707L12.181 14.707L12.1809 14.7071C11.5353 15.3525 10.6674 16.22 9.39233 17.5182C9.07114 17.229 8.80788 16.9705 8.53405 16.7016C8.36247 16.5331 8.18674 16.3605 7.99001 16.1738C7.91451 16.1022 7.77481 15.9584 7.66741 15.8478L7.6673 15.8477ZM10.7272 18.9052C10.4391 18.619 10.1505 18.3325 9.85045 18.0637C10.3497 17.5777 10.795 17.1475 11.1991 16.7571L11.2006 16.7556L11.2007 16.7555C13.186 14.8373 14.1757 13.8811 15.6868 11.9956C16.4167 11.1716 16.8998 10.1751 17.0852 9.11117C17.1048 8.98053 17.1149 8.84855 17.1277 8.68297L17.1277 8.68284C17.1347 8.59229 17.1424 8.4917 17.1529 8.37579C17.7408 9.33568 18.0333 10.434 17.997 11.545C17.9349 13.4157 16.9113 14.8481 15.7176 16.2138C14.9982 17.0366 12.7955 19.103 11.8334 20C11.759 19.9233 11.7146 19.8748 11.6776 19.8345L11.6776 19.8345C11.6136 19.7647 11.5718 19.7192 11.4357 19.5931C11.1958 19.3706 10.9616 19.1381 10.7272 18.9052Z" fill="#999999"/>
</svg>
