<?xml version="1.0" encoding="utf-8"?>
<!-- Generator: Adobe Illustrator 24.0.1, SVG Export Plug-In . SVG Version: 6.00 Build 0)  -->
<svg version="1.1" id="home" xmlns="http://www.w3.org/2000/svg" xmlns:xlink="http://www.w3.org/1999/xlink" x="0px" y="0px"
	 viewBox="0 0 24 24" style="enable-background:new 0 0 24 24;" xml:space="preserve">
<style type="text/css">
	.st0{fill:none;}
	.st1{fill:#FD3B4C;}
	.st2{fill-rule:evenodd;clip-rule:evenodd;fill:#F4863B;}
	.st3{fill:#FFFFFF;}
	.st4{fill-rule:evenodd;clip-rule:evenodd;fill:#5C7BFC;}
	.st5{fill-rule:evenodd;clip-rule:evenodd;fill:#FEB92B;}
	.st6{fill-rule:evenodd;clip-rule:evenodd;fill:#3EAF66;}
	.st7{fill:#8F4DDB;}
	.st8{fill:#1D1E22;}
	.st9{fill:#FD565F;}
	.st10{fill:#25282D;}
	.st11{fill:#E6E6E6;}
	.st12{fill-rule:evenodd;clip-rule:evenodd;fill:#FD3B4C;}
	.st13{fill-rule:evenodd;clip-rule:evenodd;fill:#FFFFFF;}
	.st14{fill:#12B263;}
	.st15{fill:#3EAF66;}
	.st16{fill:#DC001A;}
	.st17{fill:#F6504B;}
	.st18{fill:#DB001A;}
	.st19{fill:#F54F4A;}
	.st20{fill:#231F20;}
	.st21{fill-rule:evenodd;clip-rule:evenodd;}
</style>
<g>
	<path d="M22.9,13.1h-7.3l1.3-1c0.3-0.3,0.4-0.7,0.1-1c-0.1-0.2-0.3-0.3-0.6-0.3c-0.2,0-0.3,0.1-0.5,0.2l-2.9,2.4
		c-0.4,0.3-0.2,1-0.1,1.1c0.8,0.7,2.7,2.2,2.9,2.4l0,0c0.1,0.1,0.3,0.2,0.5,0.2c0.2,0,0.4-0.1,0.6-0.3c0.3-0.3,0.2-0.8-0.1-1l-1.3-1
		h7.3c0.4,0,0.7-0.3,0.7-0.7S23.3,13.1,22.9,13.1z"/>
	<path d="M22.1,17.2c0-0.3-0.2-0.5-0.5-0.5h-0.5c-0.3,0-0.5,0.2-0.5,0.5v1.1c0,0.7-0.7,1.3-1.5,1.3H4.8c-0.8,0-1.4-0.6-1.5-1.3V5.8
		C3.4,5,4,4.4,4.8,4.4h3.9c0,0,0,0,0,0c0.6,0,1.2,0.4,1.3,0.9l0.5,1.2c0.4,1.2,1.6,2,2.9,2c0,0,0,0,0,0h5.7c0.8,0,1.4,0.6,1.5,1.3
		v0.7c0,0.3,0.2,0.5,0.5,0.5h0.5c0.3,0,0.5-0.2,0.5-0.5v-0.4h0V9.9c0,0,0,0,0,0V9.8c0-0.1,0-0.1,0-0.2c-0.1-0.8-0.5-1.5-1.2-2V7.2
		c0-1.6-1.4-2.8-3-2.8h-6.5c-0.6-0.9-1.6-1.4-2.6-1.4H4.9c-1.7,0-3,1.3-3,2.8v12.5c0,1.6,1.4,2.8,3,2.8h14.2c1.5,0,2.7-1,3-2.3
		c0-0.1,0.1-0.1,0.1-0.2v-0.3c0,0,0,0,0,0v-0.7h0V17.2z M17.9,5.8c0.8,0,1.4,0.6,1.4,1.3h-6c0,0,0,0,0,0c-0.6,0-1.2-0.4-1.4-0.9
		l-0.1-0.3H17.9z"/>
</g>
</svg>
