<svg width="17" height="16" viewBox="0 0 17 16" fill="none" xmlns="http://www.w3.org/2000/svg">
<path d="M5.47195 14C5.60195 14 5.72195 13.95 5.81195 13.86L11.262 8.67C11.472 8.49 11.492 8.18 11.312 7.98C11.302 7.96 11.282 7.95 11.272 7.93L5.82195 2.74C5.73195 2.65 5.61195 2.6 5.48195 2.6C5.22195 2.6 5.00195 2.8 5.00195 3.06C5.00195 3.07 5.00195 3.07 5.00195 3.08C5.00195 3.21 5.05195 3.33 5.14195 3.42L10.272 8.29L5.14195 13.18C5.05195 13.27 5.00195 13.4 5.00195 13.52C5.00195 13.78 5.20195 13.99 5.46195 14L5.47195 14Z" fill="#AFAFAF"/>
</svg>
