<?xml version="1.0" encoding="utf-8"?>
<!-- Generator: Adobe Illustrator 24.0.1, SVG Export Plug-In . SVG Version: 6.00 Build 0)  -->
<svg version="1.1" id="home" xmlns="http://www.w3.org/2000/svg" xmlns:xlink="http://www.w3.org/1999/xlink" x="0px" y="0px"
	 viewBox="0 0 34 34" style="enable-background:new 0 0 34 34;" xml:space="preserve">
<style type="text/css">
	.st0{fill:none;}
	.st1{fill:#FD3B4C;}
	.st2{fill-rule:evenodd;clip-rule:evenodd;fill:#F4863B;}
	.st3{fill:#FFFFFF;}
	.st4{fill-rule:evenodd;clip-rule:evenodd;fill:#5C7BFC;}
	.st5{fill-rule:evenodd;clip-rule:evenodd;fill:#FEB92B;}
	.st6{fill-rule:evenodd;clip-rule:evenodd;fill:#3EAF66;}
	.st7{fill:#8F4DDB;}
	.st8{fill:#1D1E22;}
	.st9{fill:#FD565F;}
	.st10{fill:#25282D;}
	.st11{fill:#E6E6E6;}
	.st12{fill-rule:evenodd;clip-rule:evenodd;fill:#FD3B4C;}
	.st13{fill-rule:evenodd;clip-rule:evenodd;fill:#FFFFFF;}
	.st14{fill:#12B263;}
	.st15{fill:#3EAF66;}
	.st16{fill:#DC001A;}
	.st17{fill:#F6504B;}
	.st18{fill:#DB001A;}
	.st19{fill:#F54F4A;}
	.st20{fill:#231F20;}
	.st21{fill-rule:evenodd;clip-rule:evenodd;}
</style>
<circle class="st4" cx="17" cy="17" r="17"/>
<path class="st3" d="M23,25H11c-0.3,0-0.6-0.2-0.7-0.6v-9.4c0.1-0.3,0.4-0.6,0.7-0.6h2.5c0.3,0,0.5,0.3,0.5,0.6
	c0,0.3-0.2,0.5-0.5,0.5c0,0,0,0,0,0h-2.2v8.4h11.3v-8.4h-2.5c-0.3,0-0.5-0.2-0.5-0.5c0,0,0,0,0,0c0-0.3,0.2-0.6,0.5-0.6H23
	c0.4,0,0.6,0.3,0.7,0.6v9.4C23.6,24.8,23.3,25,23,25z M17,19.4c-0.3,0-0.5-0.2-0.5-0.5V11l-1.4,1.7c-0.2,0.2-0.5,0.3-0.8,0.1
	c-0.2-0.2-0.3-0.5-0.1-0.7c0,0,0,0,0,0c0,0,1.6-2,2.4-2.9c0.1,0,0.6-0.2,0.8,0.1l2.4,2.9c0.1,0.1,0.1,0.2,0.1,0.3
	c0,0.2-0.1,0.3-0.2,0.4c-0.2,0.2-0.6,0.1-0.8-0.1L17.5,11v7.8C17.5,19.1,17.3,19.4,17,19.4z"/>
</svg>
