<svg width="24" height="24" viewBox="0 0 24 24" fill="none" xmlns="http://www.w3.org/2000/svg">
<path d="M24 12.7901C23.99 12.8312 23.99 12.8722 23.98 12.9132C23.95 13.5696 23.87 14.226 23.7301 14.8721C23.6101 15.467 23.4402 16.0516 23.2303 16.6157C22.9104 17.4977 22.4906 18.3387 21.9808 19.1181C21.3611 20.0822 20.6014 20.9437 19.7518 21.6924C19.192 22.1744 18.6022 22.6052 17.9625 22.9847C17.3728 23.3334 16.763 23.6205 16.1233 23.8564C15.9733 23.9282 15.8234 23.9692 15.6635 23.9897C15.5035 24.0103 15.3436 23.9692 15.2137 23.8667C15.0737 23.7539 15.0038 23.5898 15.0038 23.4154C14.9938 23.2308 15.0038 23.0359 15.0038 22.8513C15.0038 21.9283 15.0137 21.0155 15.0137 20.0924C15.0237 19.6925 14.9738 19.3027 14.8838 18.913C14.7838 18.4925 14.5739 18.1028 14.274 17.7951C14.264 17.7746 14.2441 17.7643 14.2341 17.7438C14.274 17.7336 14.324 17.7233 14.364 17.713C14.9138 17.6515 15.4636 17.5387 16.0033 17.3746C16.6731 17.1797 17.3028 16.8618 17.8526 16.431C18.2824 16.0823 18.6422 15.6618 18.9121 15.1798C19.202 14.6465 19.4119 14.0721 19.5219 13.4773C19.6618 12.7594 19.7218 12.0312 19.6718 11.303C19.6218 10.3184 19.272 9.37488 18.6622 8.60567C18.6123 8.54414 18.5622 8.47234 18.5123 8.42106C18.4723 8.38004 18.4623 8.3185 18.4823 8.27748C18.5523 8.0621 18.6122 7.84673 18.6422 7.62109C18.7022 7.22111 18.7122 6.82112 18.6622 6.42114C18.6123 6.00064 18.5123 5.58014 18.3623 5.18016C18.3423 5.11862 18.2924 5.0776 18.2224 5.0776C17.9325 5.05709 17.6426 5.08785 17.3628 5.1699C16.6131 5.39553 15.9134 5.74424 15.2736 6.1955C15.2236 6.22627 15.1837 6.25704 15.1437 6.28781C15.0737 6.34934 14.9837 6.36986 14.8938 6.33909C14.274 6.16474 13.6343 6.05192 12.9946 5.99039C12.4048 5.93911 11.8051 5.9391 11.2153 5.98013C10.7255 6.0109 10.2457 6.08269 9.77592 6.18525C9.55601 6.23653 9.34611 6.28781 9.1262 6.34935C9.06622 6.36986 9.00624 6.3596 8.95626 6.31858C8.59641 6.07243 8.22657 5.8468 7.84673 5.65194C7.42691 5.4263 6.98708 5.26221 6.52728 5.14939C6.29737 5.09811 6.05749 5.0776 5.82759 5.09811C5.76761 5.09811 5.70762 5.13913 5.68763 5.20067C5.44773 5.8468 5.33777 6.53395 5.36776 7.22111C5.37775 7.59033 5.44774 7.94929 5.56769 8.298C5.58768 8.34928 5.57768 8.41081 5.5377 8.45183C5.23782 8.79028 4.98791 9.18001 4.79799 9.59025C4.69803 9.82614 4.60809 10.062 4.53812 10.3082C4.40817 10.7902 4.3482 11.2928 4.3582 11.785C4.3582 12.1748 4.38817 12.5543 4.43815 12.944C4.50812 13.5901 4.67806 14.226 4.94795 14.8208C5.22783 15.4567 5.65764 16.0105 6.18742 16.4515C6.69721 16.8618 7.27696 17.1695 7.8967 17.3643C8.22656 17.4772 8.55643 17.5592 8.89628 17.6207C9.15618 17.672 9.41607 17.7028 9.67596 17.7438C9.71594 17.7541 9.75592 17.7643 9.7959 17.7746C9.78591 17.7848 9.78592 17.8053 9.77592 17.8156C9.48604 18.1028 9.27612 18.472 9.17617 18.872C9.13618 19.0156 9.10622 19.1694 9.07623 19.3232C9.06624 19.3848 9.03624 19.4361 8.97627 19.4463C8.46648 19.6822 7.90671 19.7745 7.34694 19.7027C6.87714 19.6412 6.43731 19.4258 6.08746 19.0771C5.91753 18.9027 5.75761 18.7181 5.63766 18.5028C5.44774 18.1848 5.21782 17.8976 4.95792 17.6515C4.67804 17.3746 4.3282 17.2002 3.93836 17.1387C3.74844 17.1079 3.56852 17.1182 3.3786 17.1592C3.15869 17.2105 3.10869 17.3541 3.23864 17.5387C3.34859 17.6925 3.49855 17.8259 3.66848 17.9079C3.8584 18.0105 4.01832 18.1541 4.14826 18.3284C4.46813 18.7284 4.72803 19.1694 4.93794 19.6412C4.99792 19.7745 5.04791 19.9078 5.10789 20.0309C5.26782 20.3386 5.5077 20.6053 5.80758 20.7899C6.16743 21.0257 6.57727 21.1693 7.00709 21.2104C7.41692 21.2616 7.82673 21.2616 8.23656 21.2206C8.45646 21.2001 8.67638 21.1591 8.89628 21.1283L8.98624 21.1181C8.98624 21.1488 8.99625 21.1693 8.99625 21.2001C8.99625 21.9385 9.00625 22.6667 9.00625 23.4051C9.01625 23.7231 8.77634 23.9897 8.46647 24C8.44648 24 8.42649 24 8.4065 24C8.24656 24 8.09664 23.959 7.9467 23.8974C7.65682 23.7846 7.35695 23.6718 7.07707 23.5385C6.7472 23.3846 6.42731 23.2205 6.11744 23.0359C5.44772 22.6565 4.818 22.2052 4.22825 21.6924C3.82841 21.3437 3.44856 20.9642 3.08871 20.5642C2.36901 19.754 1.75927 18.8412 1.27947 17.8566C1.06955 17.4361 0.88964 16.9951 0.729707 16.5541C0.439828 15.7541 0.229899 14.9131 0.119945 14.0619C0.0399784 13.4465 0 12.8209 0 12.1953C0 11.2928 0.109952 10.3902 0.309868 9.50821C0.409827 9.05694 0.529782 8.62618 0.689715 8.19543C0.979594 7.34418 1.36945 6.53395 1.82925 5.775C2.10914 5.32374 2.40899 4.89299 2.73885 4.48275C3.0887 4.05199 3.46855 3.63149 3.86838 3.25202C4.27821 2.87254 4.69804 2.51358 5.15785 2.19564C5.72761 1.7854 6.33736 1.42644 6.9671 1.12901C7.58684 0.831589 8.23656 0.595703 8.89628 0.411095C9.31611 0.298278 9.73594 0.205972 10.1558 0.144435C11.0254 0.0111067 11.905 -0.0299125 12.7747 0.0213677C13.1945 0.0521358 13.6143 0.10341 14.0342 0.175202C14.7738 0.298275 15.5035 0.503398 16.2032 0.770055C16.773 0.985432 17.3228 1.25209 17.8625 1.55977C18.5723 1.97002 19.242 2.45205 19.8617 3.00587C20.4815 3.5597 21.0512 4.17507 21.541 4.85196C22.2007 5.74424 22.7405 6.71856 23.1403 7.76468C23.4402 8.53388 23.6601 9.33385 23.8001 10.1441C23.9 10.7287 23.96 11.3133 23.97 11.9081C23.97 11.9594 23.98 12.0107 23.99 12.062L24 12.7901Z" fill="#999999"/>
</svg>
