<?xml version="1.0" encoding="utf-8"?>
<!-- Generator: Adobe Illustrator 24.0.1, SVG Export Plug-In . SVG Version: 6.00 Build 0)  -->
<svg version="1.1" id="home" xmlns="http://www.w3.org/2000/svg" xmlns:xlink="http://www.w3.org/1999/xlink" x="0px" y="0px"
	 viewBox="0 0 24 24" style="enable-background:new 0 0 24 24;" xml:space="preserve">
<style type="text/css">
	.st0{fill:none;}
	.st1{fill:#FD3B4C;}
	.st2{fill-rule:evenodd;clip-rule:evenodd;fill:#F4863B;}
	.st3{fill:#FFFFFF;}
	.st4{fill-rule:evenodd;clip-rule:evenodd;fill:#5C7BFC;}
	.st5{fill-rule:evenodd;clip-rule:evenodd;fill:#FEB92B;}
	.st6{fill-rule:evenodd;clip-rule:evenodd;fill:#3EAF66;}
	.st7{fill:#8F4DDB;}
	.st8{fill:#1D1E22;}
	.st9{fill:#FD565F;}
	.st10{fill:#25282D;}
	.st11{fill:#E6E6E6;}
	.st12{fill-rule:evenodd;clip-rule:evenodd;fill:#FD3B4C;}
	.st13{fill-rule:evenodd;clip-rule:evenodd;fill:#FFFFFF;}
	.st14{fill:#12B263;}
	.st15{fill:#3EAF66;}
	.st16{fill:#DC001A;}
	.st17{fill:#F6504B;}
	.st18{fill:#DB001A;}
	.st19{fill:#F54F4A;}
	.st20{fill:#231F20;}
	.st21{fill-rule:evenodd;clip-rule:evenodd;}
</style>
<g>
	<path d="M20.9,7.7V7.2c0-1.6-1.4-2.8-3-2.8h-6.5c-0.6-0.9-1.6-1.4-2.6-1.4H4.9c-1.7,0-3,1.3-3,2.8v12.5c0,1.6,1.4,2.8,3,2.8h14.2
		c1.7,0,3-1.3,3-2.8V9.9C22.1,9,21.7,8.2,20.9,7.7z M11.9,5.8h6c0.8,0,1.4,0.6,1.4,1.3h-6c0,0,0,0,0,0c-0.6,0-1.2-0.4-1.4-0.9
		L11.9,5.8z M3.4,5.8C3.4,5,4,4.4,4.8,4.4h3.9c0,0,0,0,0,0c0.6,0,1.2,0.4,1.3,0.9l0.5,1.2c0.4,1.2,1.6,2,2.9,2c0,0,0,0,0,0h5.7
		c0.8,0,1.4,0.6,1.5,1.3v8.3c0,0.7-0.7,1.3-1.5,1.3H4.8c-0.8,0-1.4-0.6-1.5-1.3V5.8z"/>
</g>
<path d="M15,13.7h-2.2v-2.2c0-0.4-0.3-0.8-0.8-0.8c-0.4,0-0.8,0.3-0.8,0.8v2.2H9c-0.4,0-0.8,0.3-0.8,0.8c0,0.4,0.3,0.8,0.8,0.8h2.2
	v2.3c0,0.4,0.3,0.8,0.8,0.8c0.4,0,0.8-0.3,0.8-0.8v-2.3H15c0.4,0,0.8-0.3,0.8-0.8C15.8,14,15.4,13.7,15,13.7z"/>
</svg>
