<?xml version="1.0" encoding="utf-8"?>
<!-- Generator: Adobe Illustrator 24.0.1, SVG Export Plug-In . SVG Version: 6.00 Build 0)  -->
<svg version="1.1" id="home" xmlns="http://www.w3.org/2000/svg" xmlns:xlink="http://www.w3.org/1999/xlink" x="0px" y="0px"
	 viewBox="0 0 24 24" style="enable-background:new 0 0 24 24;" xml:space="preserve">
<style type="text/css">
	.st0{fill:none;}
	.st1{fill:#FD3B4C;}
	.st2{fill-rule:evenodd;clip-rule:evenodd;fill:#F4863B;}
	.st3{fill:#FFFFFF;}
	.st4{fill-rule:evenodd;clip-rule:evenodd;fill:#5C7BFC;}
	.st5{fill-rule:evenodd;clip-rule:evenodd;fill:#FEB92B;}
	.st6{fill-rule:evenodd;clip-rule:evenodd;fill:#3EAF66;}
	.st7{fill:#8F4DDB;}
	.st8{fill:#1D1E22;}
	.st9{fill:#FD565F;}
	.st10{fill:#25282D;}
	.st11{fill:#E6E6E6;}
	.st12{fill-rule:evenodd;clip-rule:evenodd;fill:#FD3B4C;}
	.st13{fill-rule:evenodd;clip-rule:evenodd;fill:#FFFFFF;}
	.st14{fill:#12B263;}
	.st15{fill:#3EAF66;}
	.st16{fill:#DC001A;}
	.st17{fill:#F6504B;}
	.st18{fill:#DB001A;}
	.st19{fill:#F54F4A;}
	.st20{fill:#231F20;}
	.st21{fill-rule:evenodd;clip-rule:evenodd;}
</style>
<g>
	<path d="M7,10.1h5.2c0.5,0,0.7-0.3,0.7-0.7s-0.3-0.7-0.7-0.7H7c-0.5,0-0.7,0.3-0.7,0.7S6.5,10.1,7,10.1z"/>
	<path d="M7,14.9h10c0.5,0,0.7-0.3,0.7-0.7c0-0.5-0.3-0.7-0.7-0.7H7c-0.5,0-0.7,0.3-0.7,0.7C6.3,14.6,6.5,14.9,7,14.9z"/>
	<path d="M19.7,3.2l-4.4,4.4c-0.4,0.4-0.4,0.7,0,1.1c0.2,0.2,0.4,0.3,0.5,0.3c0.2,0,0.4-0.1,0.5-0.3l4.4-4.4l0.1-0.1h0
		c0.1-0.2,0.2-0.3,0.2-0.5c0-0.2-0.1-0.4-0.3-0.5C20.4,2.9,20.1,2.9,19.7,3.2z"/>
	<path d="M20.3,9.1c-0.4,0-0.7,0.3-0.7,0.7v8.3c0,0.7-0.6,1.3-1.3,1.4l-12.4,0l0,0l-0.1,0c-0.7,0-1.3-0.7-1.3-1.4V5.8
		c0-0.8,0.6-1.4,1.4-1.4h8.3c0.2,0,0.4-0.1,0.5-0.2c0.1-0.1,0.2-0.3,0.2-0.5c0-0.2-0.1-0.4-0.2-0.5C14.5,3,14.3,3,14.1,3h0H6.3v0
		c-0.3,0-0.5,0-0.8,0C3.9,3.1,2.8,4.6,3,6.1c0,0.1,0,0.1,0,0.2V18h0c0,0.1,0,0.2,0,0.3C3,19.8,4.3,21,5.8,21c0,0,0.1,0,0.1,0l12.2,0
		c1.6,0,2.9-1.3,2.9-2.9V9.9C21,9.5,20.7,9.1,20.3,9.1z"/>
</g>
</svg>
