<?xml version="1.0" encoding="utf-8"?>
<!-- Generator: Adobe Illustrator 24.0.1, SVG Export Plug-In . SVG Version: 6.00 Build 0)  -->
<svg version="1.1" id="home" xmlns="http://www.w3.org/2000/svg" xmlns:xlink="http://www.w3.org/1999/xlink" x="0px" y="0px"
	 viewBox="0 0 16 16" style="enable-background:new 0 0 16 16;" xml:space="preserve">
<style type="text/css">
	.st0{fill:none;}
	.st1{fill:#FD3B4C;}
	.st2{fill-rule:evenodd;clip-rule:evenodd;fill:#F4863B;}
	.st3{fill:#FFFFFF;}
	.st4{fill-rule:evenodd;clip-rule:evenodd;fill:#5C7BFC;}
	.st5{fill-rule:evenodd;clip-rule:evenodd;fill:#FEB92B;}
	.st6{fill-rule:evenodd;clip-rule:evenodd;fill:#3EAF66;}
	.st7{fill:#8F4DDB;}
	.st8{fill:#1D1E22;}
	.st9{fill:#FD565F;}
	.st10{fill:#25282D;}
	.st11{fill:#E6E6E6;}
	.st12{fill-rule:evenodd;clip-rule:evenodd;fill:#FD3B4C;}
	.st13{fill-rule:evenodd;clip-rule:evenodd;fill:#FFFFFF;}
	.st14{fill:#12B263;}
	.st15{fill:#3EAF66;}
	.st16{fill:#DC001A;}
	.st17{fill:#F6504B;}
	.st18{fill:#DB001A;}
	.st19{fill:#F54F4A;}
	.st20{fill:#231F20;}
	.st21{fill-rule:evenodd;clip-rule:evenodd;}
</style>
<path id="Union_10" d="M0,8c0-4.4,3.6-8,8-8s8,3.6,8,8s-3.6,8-8,8C3.6,16,0,12.4,0,8z M1,8c0,3.9,3.1,7,7,7s7-3.1,7-7s-3.1-7-7-7
	C4.1,1,1,4.1,1,8z M8.4,12.7H7.2v-1.2h1.2V12.7L8.4,12.7z M8.2,10.6h-1v-0.1c0-0.1,0-0.2,0-0.2c0-0.4,0.1-0.7,0.2-1.1
	C7.5,9,7.7,8.8,7.8,8.5C8.1,8.3,8.3,8,8.6,7.8C8.9,7.6,9.1,7.3,9.3,7c0.1-0.2,0.2-0.4,0.2-0.6C9.5,6,9.3,5.6,9,5.3
	C8.7,5,8.2,4.9,7.8,4.9C7.4,4.9,7,5,6.7,5.3C6.3,5.7,6.1,6.1,6.1,6.6L5,6.5c0.1-0.7,0.4-1.4,0.9-1.8C6.4,4.2,7.1,4,7.8,4
	c0.7,0,1.5,0.2,2,0.7c0.5,0.4,0.8,1,0.8,1.7c0,0.4-0.1,0.7-0.3,1c-0.3,0.4-0.6,0.8-1,1.2C9,8.7,8.8,9,8.6,9.2
	C8.5,9.4,8.4,9.5,8.3,9.7C8.3,10,8.2,10.3,8.2,10.6L8.2,10.6L8.2,10.6z"/>
</svg>
