<svg width="14" height="14" viewBox="0 0 14 14" fill="none" xmlns="http://www.w3.org/2000/svg">
<path fill-rule="evenodd" clip-rule="evenodd" d="M8.54962 0.587786C8.54962 0.263161 8.81278 0 9.1374 0H13.4122C13.7368 0 14 0.263161 14 0.587786V4.8626C14 5.18722 13.7368 5.45038 13.4122 5.45038C13.0876 5.45038 12.8244 5.18722 12.8244 4.8626V2.00687L5.99105 8.84055C5.76151 9.0701 5.38934 9.07011 5.15979 8.84057C4.93024 8.61103 4.93023 8.23887 5.15977 8.00932L11.9932 1.17557H9.1374C8.81278 1.17557 8.54962 0.912412 8.54962 0.587786ZM2.01272 3.31298C1.7907 3.31298 1.57776 3.40118 1.42077 3.55817C1.26377 3.71517 1.17557 3.9281 1.17557 4.15013V11.9873C1.17557 12.2093 1.26377 12.4222 1.42077 12.5792C1.57776 12.7362 1.7907 12.8244 2.01272 12.8244H9.84987C10.0719 12.8244 10.2848 12.7362 10.4418 12.5792C10.5988 12.4222 10.687 12.2093 10.687 11.9873V7.71247C10.687 7.38784 10.9502 7.12468 11.2748 7.12468C11.5994 7.12468 11.8626 7.38784 11.8626 7.71247V11.9873C11.8626 12.5211 11.6505 13.033 11.2731 13.4105C10.8956 13.7879 10.3837 14 9.84987 14H2.01272C1.47892 14 0.966972 13.7879 0.589513 13.4105C0.212054 13.033 0 12.5211 0 11.9873V4.15013C0 3.61632 0.212054 3.10438 0.589513 2.72692C0.966972 2.34946 1.47892 2.1374 2.01272 2.1374H6.28753C6.61216 2.1374 6.87532 2.40057 6.87532 2.72519C6.87532 3.04982 6.61216 3.31298 6.28753 3.31298H2.01272Z" fill="#AFAFAF"/>
</svg>
