<svg width="160" height="160" viewBox="0 0 160 160" fill="none" xmlns="http://www.w3.org/2000/svg">
<circle cx="80" cy="80" r="80" fill="#F0F8FF"/>
<path d="M68.6667 47.6667C68.6667 42.8802 72.5469 39 77.3333 39C82.1199 39 86 42.8802 86 47.6667V56.3333H107.667V78H116.333C121.12 78 125 81.8801 125 86.6667C125 91.4533 121.12 95.3333 116.333 95.3333H107.667V117H86V108.333C86 103.547 82.1199 99.6667 77.3333 99.6667C72.5469 99.6667 68.6667 103.547 68.6667 108.333V117H47V95.3333H55.6667C60.4531 95.3333 64.3333 91.4533 64.3333 86.6667C64.3333 81.8801 60.4531 78 55.6667 78H47V56.3333H68.6667V47.6667Z" fill="#72A2FF"/>
</svg>
