<?xml version="1.0" encoding="utf-8"?>
<!-- Generator: Adobe Illustrator 24.0.1, SVG Export Plug-In . SVG Version: 6.00 Build 0)  -->
<svg version="1.1" id="home" xmlns="http://www.w3.org/2000/svg" xmlns:xlink="http://www.w3.org/1999/xlink" x="0px" y="0px"
	 viewBox="0 0 24 24" style="enable-background:new 0 0 24 24;" xml:space="preserve">
<style type="text/css">
	.st0{fill:none;}
	.st1{fill:#FD3B4C;}
	.st2{fill-rule:evenodd;clip-rule:evenodd;fill:#F4863B;}
	.st3{fill:#FFFFFF;}
	.st4{fill-rule:evenodd;clip-rule:evenodd;fill:#5C7BFC;}
	.st5{fill-rule:evenodd;clip-rule:evenodd;fill:#FEB92B;}
	.st6{fill-rule:evenodd;clip-rule:evenodd;fill:#3EAF66;}
	.st7{fill:#8F4DDB;}
	.st8{fill:#1D1E22;}
	.st9{fill:#FD565F;}
	.st10{fill:#25282D;}
	.st11{fill:#E6E6E6;}
	.st12{fill-rule:evenodd;clip-rule:evenodd;fill:#FD3B4C;}
	.st13{fill-rule:evenodd;clip-rule:evenodd;fill:#FFFFFF;}
	.st14{fill:#12B263;}
	.st15{fill:#3EAF66;}
	.st16{fill:#DC001A;}
	.st17{fill:#F6504B;}
	.st18{fill:#DB001A;}
	.st19{fill:#F54F4A;}
	.st20{fill:#231F20;}
	.st21{fill-rule:evenodd;clip-rule:evenodd;}
</style>
<path d="M20.5,3.6C18.3,1.3,15.3,0,12.1,0C9.6-0.1,7.1,0.8,5,2.2C3,3.7,1.5,5.6,0.7,7.9L0.5,8.5C0.2,9.6,0,10.8,0,12
	c0,3.2,1.3,6.3,3.5,8.5c2.3,2.3,5.5,3.6,8.8,3.5c0,0,0.1,0,0.1,0c0.1,0,0.1,0,0.2,0c2.4-0.1,4.7-0.9,6.6-2.4
	c1.9-1.4,3.3-3.3,4.1-5.5l0.2-0.6c0.3-1.1,0.5-2.3,0.5-3.5C24,8.8,22.8,5.8,20.5,3.6z M18,9h3.8c0.3,1,0.4,2,0.4,3c0,1-0.1,2-0.4,3
	h-3.8c0.2-1,0.2-2.1,0.2-3.1C18.2,10.9,18.1,10,18,9z M7,16.8c0.3,1.3,0.8,2.6,1.5,3.8C8.7,21,9,21.4,9.2,21.8
	c-2.7-0.8-4.9-2.5-6.2-5H7z M15.7,16.8c-0.4,1.4-1,2.7-1.8,3.9c-1,1.4-1.6,1.5-1.6,1.5c-0.1,0-0.7-0.3-1.6-1.5
	c-0.9-1.2-1.5-2.5-1.9-3.9H15.7z M17.6,7.2c-0.3-1.3-0.8-2.5-1.4-3.6c-0.2-0.4-0.5-0.8-0.8-1.2C17.8,3.3,19.8,5,21,7.2L17.6,7.2z
	 M16.3,12.1c0,1-0.1,1.9-0.2,2.9H8.4c-0.2-1-0.2-1.9-0.2-2.9c0-1,0.1-2,0.2-3h7.6C16.3,10,16.3,11.1,16.3,12.1z M15.7,7.2H8.8
	c0.4-1.4,1-2.7,1.8-3.9c0.7-1,1.3-1.4,1.5-1.4c0.1,0,0.7,0.3,1.6,1.5l0.1,0.1C14.6,4.6,15.2,5.9,15.7,7.2z M8.5,3.4
	C7.8,4.6,7.3,5.9,7,7.2H3c1.3-2.4,3.5-4.2,6.2-5C8.9,2.6,8.7,3,8.5,3.4z M21,16.8c-1.2,2.2-3.1,3.9-5.4,4.7c1-1.4,1.7-3.1,2.1-4.7
	H21z M6.6,15H2.3c-0.3-1-0.4-2-0.4-3c0-1,0.1-2,0.4-3h4.3c-0.1,0.9-0.2,1.9-0.2,2.8C6.4,12.9,6.5,13.9,6.6,15z"/>
</svg>
