<svg width="16" height="16" viewBox="0 0 16 16" fill="none" xmlns="http://www.w3.org/2000/svg">
<g clip-path="url(#clip0_4940_283173)">
<path d="M14.6959 11.3057C14.7065 12.2818 14.2771 12.7946 13.4903 12.9156C13.1098 12.9739 12.7248 13.0152 12.3406 13.0365C12.0522 13.0528 11.8773 13.1807 11.7688 13.4397C11.6196 13.7957 11.4767 14.1556 11.2974 14.496C10.8617 15.3204 10.1577 15.548 9.32324 15.1336C8.97843 14.9624 8.65244 14.7518 8.32394 14.5493C8.10515 14.4145 7.90203 14.4082 7.68073 14.5443C7.35223 14.7468 7.02436 14.9536 6.67768 15.126C5.82132 15.5555 5.13172 15.3348 4.68787 14.4891C4.5092 14.1481 4.36187 13.7895 4.21706 13.4328C4.10735 13.1638 3.913 13.0566 3.63654 13.0409C3.29294 13.0256 2.95051 12.9907 2.61091 12.9363C1.51319 12.735 1.0963 12.0981 1.32637 11.0003C1.38217 10.7358 1.43859 10.4694 1.51946 10.2117C1.62415 9.87819 1.53764 9.63056 1.2687 9.41427C0.996495 9.20261 0.738488 8.97328 0.496342 8.72779C-0.169437 8.03819 -0.16693 7.28591 0.506998 6.60132C0.784719 6.31921 1.1151 6.08851 1.38467 5.80013C1.50016 5.66412 1.55976 5.48937 1.55143 5.31113C1.52134 4.98201 1.4204 4.65978 1.35082 4.33379C1.10005 3.16022 1.60158 2.47875 2.80211 2.36277C3.06166 2.3377 3.32183 2.30008 3.582 2.30008C3.92053 2.30008 4.12364 2.14587 4.24464 1.8368C4.37062 1.50518 4.51396 1.1804 4.67407 0.863838C5.12105 0.00622475 5.82884 -0.221963 6.6877 0.21374C6.99431 0.370731 7.29137 0.545728 7.57729 0.737828C7.86316 0.925901 8.1227 0.940328 8.41296 0.745359C8.69888 0.553055 8.99593 0.377833 9.30255 0.220627C10.1658 -0.21821 10.8698 0.00309145 11.3156 0.865093C11.4762 1.18109 11.6194 1.50569 11.7444 1.83743C11.8654 2.15089 12.0735 2.29005 12.4083 2.30071C12.7418 2.31091 13.0741 2.3457 13.4025 2.40479C14.4683 2.60101 14.8814 3.23795 14.6564 4.30307C14.6104 4.55972 14.551 4.81375 14.4783 5.06414C14.3567 5.44028 14.4482 5.72428 14.7673 5.96501C15.0345 6.166 15.2847 6.38867 15.5152 6.63078C16.1572 7.30659 16.1559 8.03631 15.5152 8.71149C15.2929 8.9471 15.0499 9.16236 14.7893 9.3547C14.447 9.60547 14.3542 9.89323 14.4758 10.3013C14.5968 10.6894 14.652 11.0944 14.6959 11.3057ZM5.95108 14.1004L7.04442 13.4472C7.687 13.0641 8.32771 13.071 8.96715 13.4541C9.21792 13.6052 9.46868 13.76 9.71945 13.908C10.0787 14.1186 10.1037 14.1104 10.2674 13.7406C10.4109 13.4165 10.5413 13.0861 10.6937 12.7664C10.9551 12.2178 11.3833 11.8855 11.9964 11.8134C12.3794 11.7683 12.7631 11.732 13.1468 11.6937C13.3875 11.6705 13.5135 11.5865 13.422 11.31C13.3398 11.0637 13.3016 10.8035 13.2339 10.5521C13.0057 9.69763 13.2038 8.98797 13.9235 8.43943C14.1392 8.27455 14.3316 8.08083 14.541 7.90843C14.7504 7.73603 14.7291 7.59497 14.5335 7.42696C14.2468 7.18371 13.9655 6.93442 13.6897 6.67906C13.212 6.23458 13.0628 5.68478 13.1982 5.05348C13.2772 4.68674 13.3568 4.32 13.4414 3.95451C13.4884 3.75327 13.4126 3.65798 13.2107 3.64105C12.9505 3.62225 12.691 3.58714 12.4308 3.57836C11.5394 3.5489 10.8962 3.17024 10.5727 2.30887C10.463 2.0161 10.3219 1.73399 10.1965 1.44812C10.1213 1.27823 10.016 1.245 9.85172 1.34907C9.54391 1.54592 9.23046 1.73337 8.91136 1.91705C8.30952 2.26624 7.70267 2.27126 7.09959 1.92144C6.81058 1.75406 6.5291 1.57349 6.2401 1.40611C5.9141 1.21804 5.88212 1.22869 5.73229 1.56409C5.57494 1.91641 5.43451 2.2769 5.26336 2.62232C5.00382 3.14642 4.57377 3.44922 3.99011 3.51944C3.62776 3.56332 3.26478 3.59779 2.9018 3.6354C2.515 3.67553 2.50183 3.69121 2.58834 4.08303C2.641 4.31707 2.69847 4.54965 2.76074 4.78077C2.99082 5.63337 2.80086 6.34804 2.08117 6.89471C1.92319 7.01445 1.77524 7.14548 1.62666 7.27901C1.18782 7.66519 1.19284 7.67208 1.61788 8.05198C1.89059 8.29523 2.17082 8.53157 2.42409 8.793C2.80024 9.18105 2.90995 9.66064 2.81278 10.1841C2.75385 10.5013 2.66795 10.811 2.59711 11.1282C2.48176 11.6423 2.48302 11.6423 2.99082 11.7113C3.09405 11.7324 3.19893 11.7446 3.30427 11.7476C4.47346 11.7044 5.22951 12.2347 5.56992 13.3582C5.62019 13.5068 5.68311 13.6509 5.758 13.7888C5.80564 13.8904 5.8746 13.9832 5.95108 14.1004Z" fill="#007FFF"/>
<path d="M5.95119 14.1004C5.87471 13.9807 5.807 13.8904 5.75685 13.7914C5.68196 13.6534 5.61904 13.5094 5.56878 13.3607C5.22836 12.2373 4.47231 11.7069 3.30312 11.7501C3.19778 11.7471 3.0929 11.735 2.98967 11.7138C2.48187 11.6448 2.48062 11.6448 2.59597 11.1308C2.66681 10.8173 2.7527 10.5038 2.81163 10.1866C2.9088 9.66315 2.79909 9.18357 2.42295 8.79551C2.17218 8.53409 1.88945 8.29774 1.61674 8.0545C1.1917 7.67459 1.18981 7.66771 1.62551 7.28153C1.77409 7.14988 1.92204 7.01697 2.08002 6.89723C2.79971 6.34931 2.98967 5.63589 2.7596 4.78329C2.69774 4.55217 2.64027 4.31959 2.5872 4.08554C2.49817 3.69373 2.51134 3.67804 2.90065 3.63792C3.26363 3.60031 3.62661 3.56582 3.98897 3.52194C4.57262 3.45172 5.00268 3.1458 5.26222 2.62484C5.43336 2.27941 5.57568 1.91893 5.73115 1.56661C5.88098 1.23121 5.91295 1.21993 6.23895 1.40863C6.52795 1.57601 6.80943 1.75656 7.09844 1.92394C7.70153 2.27376 8.30838 2.26876 8.91021 1.91957C9.22367 1.73588 9.53712 1.54843 9.85058 1.35158C10.0148 1.24752 10.1201 1.28075 10.1954 1.45064C10.3208 1.73651 10.4593 2.01862 10.5715 2.31139C10.895 3.17276 11.5382 3.55141 12.4297 3.58088C12.6899 3.58966 12.9494 3.62476 13.2096 3.64357C13.4114 3.65799 13.4873 3.75328 13.4403 3.95703C13.3556 4.32251 13.276 4.68926 13.197 5.056C13.0622 5.6873 13.2108 6.2371 13.6885 6.68157C13.9635 6.93735 14.2448 7.18665 14.5323 7.42947C14.7267 7.59435 14.7455 7.74292 14.5399 7.91094C14.3342 8.07895 14.138 8.27707 13.9224 8.44194C13.2052 8.99049 13.0071 9.70015 13.2328 10.5546C13.3005 10.8054 13.3387 11.0662 13.4208 11.3126C13.5124 11.589 13.3863 11.673 13.1456 11.6962C12.7619 11.7345 12.3783 11.7708 11.9952 11.816C11.3834 11.8881 10.9539 12.2203 10.6925 12.7689C10.5402 13.0886 10.4098 13.419 10.2662 13.7431C10.1026 14.113 10.0781 14.1192 9.7183 13.9105C9.46753 13.7625 9.21677 13.6077 8.96601 13.4566C8.32656 13.071 7.68585 13.0667 7.04327 13.4497L5.95119 14.1004ZM7.06772 8.83751C6.63578 8.39867 6.24584 7.99369 5.84525 7.59999C5.54057 7.30158 5.16505 7.29155 4.9005 7.55548C4.63594 7.81941 4.64409 8.1918 4.94689 8.49961C5.49564 9.05756 6.04899 9.61133 6.60694 10.1609C6.96554 10.5139 7.33541 10.502 7.65639 10.1196C8.7656 8.80179 9.87064 7.48067 10.9715 6.15622C11.2624 5.80703 11.2429 5.43903 10.9376 5.1889C10.653 4.95569 10.285 5.0071 10.0029 5.33372C9.70262 5.68103 9.41174 6.03649 9.11647 6.38881L7.06772 8.83751Z" fill="#007FFF"/>
<path d="M7.06749 8.83768L9.11624 6.38898C9.41151 6.03665 9.70239 5.68119 10.0027 5.33388C10.2848 5.00726 10.6528 4.95773 10.9374 5.18906C11.2427 5.43983 11.2621 5.80719 10.9713 6.15638C9.86915 7.48 8.76412 8.80112 7.65616 10.1197C7.33518 10.5021 6.96656 10.514 6.60671 10.1611C6.04876 9.61192 5.49541 9.05815 4.94666 8.49978C4.64386 8.19197 4.6332 7.82271 4.90027 7.55565C5.16733 7.28859 5.54034 7.30488 5.84502 7.60016C6.24436 7.99386 6.63555 8.39947 7.06749 8.83768Z" fill="white"/>
</g>
<defs>
<clipPath id="clip0_4940_283173">
<rect width="16" height="15.3399" fill="white"/>
</clipPath>
</defs>
</svg>
