<svg fill="none" height="24" viewBox="0 0 24 24" width="24" xmlns="http://www.w3.org/2000/svg"><path clip-rule="evenodd" d="m20.5699 8.3c1.2506 1.01598 2.3582 2.2039 3.2915 3.53h-.0488c.1212.1584.187.3538.187.555s-.0658.3966-.187.555c-1.0917 1.2884-2.3165 2.4518-3.653 3.47-2.301 1.9617-5.1565 3.115-8.1459 3.29-2.99458-.1644-5.85633-1.3188-8.15564-3.29-1.33554-1.0195-2.55731-2.1865-3.643187-3.48-.1388096-.1637-.21523921-.3732-.21523921-.59s.07642961-.4263.21523921-.59c1.095487-1.2786 2.319947-2.43502 3.652957-3.45 2.29504-1.97339 5.15338-3.13134 8.14587-3.3 3.1397.04997 6.1646 1.21664 8.5562 3.3zm1.2892 4.11.1075-.11-.0391-.06c-.8139-1.0018-1.7345-1.9074-2.7446-2.7l-.42-.31c-1.944-1.51299-4.3077-2.35353-6.7492-2.4-2.31962.13654-4.54246.99869-6.36823 2.47-1.24764.8791-2.40598 1.8841-3.45761 3l-.0293.05.0879.09c.90295.9653 1.88309 1.8517 2.93019 2.65l.45906.36c1.8368 1.4508 4.06138 2.2948 6.37799 2.42 2.3267-.1377 4.5576-.9956 6.3976-2.46 1.2437-.8803 2.3987-1.8853 3.4478-3zm-9.0079-4.33655c.8298.1781 1.5889.60515 2.1807 1.22671.5771.60209.9707 1.36294 1.133 2.19004.1702.8492.085 1.7313-.2442 2.53-.2699.659-.6936 1.2402-1.2339 1.6926-.5403.4525-1.1808.7624-1.8652.9025-.6845.1402-1.392.1063-2.0608-.0986-.6687-.2048-1.27809-.5745-1.77484-1.0765-.40428-.4013-.72582-.8815-.9456-1.4123-.21978-.5307-.33332-1.1013-.33391-1.6777-.00288-.8645.2453-1.7103.71301-2.43004.48107-.72521 1.16066-1.28879 1.95344-1.62.7858-.32588 1.6485-.40481 2.4783-.22671zm.922 6.12795c.3474-.3556.5848-.8082.6824-1.3012v-.05c.099-.4972.0479-1.0134-.1465-1.48-.1898-.4635-.5087-.8595-.9168-1.1387-.4082-.2792-.8876-.42921-1.3785-.43134-.3305.00565-.6565.0794-.9586.21684-.302.1375-.5739.3358-.7995.5832-.40477.419-.65594.9682-.7111 1.5548s.08906 1.1748.40832 1.6652c.27548.4152.66368.7388 1.11668.9307.4531.1919.9511.2438 1.4326.1493.4815-.1.9236-.3431 1.271-.6988z" fill="#afafaf" fill-rule="evenodd"/></svg>