<?xml version="1.0" encoding="utf-8"?>
<!-- Generator: Adobe Illustrator 24.0.1, SVG Export Plug-In . SVG Version: 6.00 Build 0)  -->
<svg version="1.1" id="home" xmlns="http://www.w3.org/2000/svg" xmlns:xlink="http://www.w3.org/1999/xlink" x="0px" y="0px"
	 viewBox="0 0 20 20" style="enable-background:new 0 0 20 20;" xml:space="preserve">
<style type="text/css">
	.st0{fill:none;}
	.st1{fill:#FD3B4C;}
	.st2{fill-rule:evenodd;clip-rule:evenodd;fill:#F4863B;}
	.st3{fill:#FFFFFF;}
	.st4{fill-rule:evenodd;clip-rule:evenodd;fill:#5C7BFC;}
	.st5{fill-rule:evenodd;clip-rule:evenodd;fill:#FEB92B;}
	.st6{fill-rule:evenodd;clip-rule:evenodd;fill:#3EAF66;}
	.st7{fill:#8F4DDB;}
	.st8{fill:#1D1E22;}
	.st9{fill:#FD565F;}
	.st10{fill:#25282D;}
	.st11{fill:#E6E6E6;}
	.st12{fill-rule:evenodd;clip-rule:evenodd;fill:#FD3B4C;}
	.st13{fill-rule:evenodd;clip-rule:evenodd;fill:#FFFFFF;}
	.st14{fill:#12B263;}
	.st15{fill:#3EAF66;}
	.st16{fill:#DC001A;}
	.st17{fill:#F6504B;}
	.st18{fill:#DB001A;}
	.st19{fill:#F54F4A;}
	.st20{fill:#231F20;}
	.st21{fill-rule:evenodd;clip-rule:evenodd;}
</style>
<path id="Combined-Shape_1_" d="M18,0c1.1,0,2,0.9,2,2v16c0,1.1-0.9,2-2,2H2c-1.1,0-2-0.9-2-2V2c0-1.1,0.9-2,2-2H18z M16.4,1.9
	l-2.1,2.1C11,1.5,6.3,2.3,3.9,5.6C2,8.2,2,11.8,3.9,14.4L2.3,16l1.8,1.8l1.6-1.6c3.4,2.4,8.1,1.6,10.5-1.8c1.8-2.6,1.8-6,0-8.6
	l2.1-2.1L16.4,1.9z M15.1,10c0,2.8-2.3,5.1-5.1,5.1c-0.9,0-1.8-0.2-2.6-0.7l7-7C14.9,8.2,15.1,9.1,15.1,10z M10,4.9
	c0.9,0,1.9,0.3,2.7,0.8l-7.1,7.1c-1.5-2.4-0.7-5.6,1.7-7.1C8.1,5.1,9.1,4.9,10,4.9z"/>
</svg>
