<?xml version="1.0" encoding="utf-8"?>
<!-- Generator: Adobe Illustrator 24.0.1, SVG Export Plug-In . SVG Version: 6.00 Build 0)  -->
<svg version="1.1" id="home" xmlns="http://www.w3.org/2000/svg" xmlns:xlink="http://www.w3.org/1999/xlink" x="0px" y="0px"
	 viewBox="0 0 34 34" style="enable-background:new 0 0 34 34;" xml:space="preserve">
<style type="text/css">
	.st0{fill:none;}
	.st1{fill:#FD3B4C;}
	.st2{fill-rule:evenodd;clip-rule:evenodd;fill:#F4863B;}
	.st3{fill:#FFFFFF;}
	.st4{fill-rule:evenodd;clip-rule:evenodd;fill:#5C7BFC;}
	.st5{fill-rule:evenodd;clip-rule:evenodd;fill:#FEB92B;}
	.st6{fill-rule:evenodd;clip-rule:evenodd;fill:#3EAF66;}
	.st7{fill:#8F4DDB;}
	.st8{fill:#1D1E22;}
	.st9{fill:#FD565F;}
	.st10{fill:#25282D;}
	.st11{fill:#E6E6E6;}
	.st12{fill-rule:evenodd;clip-rule:evenodd;fill:#FD3B4C;}
	.st13{fill-rule:evenodd;clip-rule:evenodd;fill:#FFFFFF;}
	.st14{fill:#12B263;}
	.st15{fill:#3EAF66;}
	.st16{fill:#DC001A;}
	.st17{fill:#F6504B;}
	.st18{fill:#DB001A;}
	.st19{fill:#F54F4A;}
	.st20{fill:#231F20;}
	.st21{fill-rule:evenodd;clip-rule:evenodd;}
</style>
<circle class="st2" cx="17" cy="17" r="17"/>
<g>
	<path class="st3" d="M23.9,17.7h-3.5l2.8-2.8c0.2-0.3,0.2-0.7,0-0.9l-4.9-4.9c-0.2-0.2-0.6-0.3-0.9,0l-6.3,6.3
		c-0.2,0.3-0.2,0.7,0,0.9l1.4,1.4h-2.4c-0.7,0-1.2,0.6-1.2,1.2v4.8c0,0.7,0.6,1.2,1.2,1.2h13.8c0.7,0,1.2-0.6,1.2-1.2V19
		C25.1,18.3,24.6,17.7,23.9,17.7z M12.9,20.5c-0.3,0-0.6,0.2-0.6,0.6c0,0.3,0.2,0.6,0.6,0.6h8.2c0.3,0,0.6-0.2,0.6-0.6
		c0-0.3-0.2-0.6-0.6-0.6h-3.5l1.7-1.7h4.6c0.1,0,0.1,0.1,0.1,0.1v4.8c0,0.1-0.1,0.1-0.1,0.1H10.1c-0.1,0-0.1-0.1-0.1-0.1V19
		c0-0.1,0.1-0.1,0.1-0.1h3.5l1.7,1.7H12.9z M16.4,20.1l-4.2-4.2l5.6-5.6l4.2,4.2L16.4,20.1z"/>
	<path class="st3" d="M15.4,15c-0.2-0.2-0.6-0.2-0.8,0c-0.2,0.2-0.2,0.6,0,0.8l1.3,1.4c0.2,0.2,0.4,0.3,0.7,0.3
		c0.3,0,0.5-0.1,0.7-0.3l2-2c0.1-0.1,0.2-0.2,0.2-0.4c0-0.1-0.1-0.3-0.2-0.4c-0.1-0.1-0.2-0.2-0.4-0.2c0,0,0,0,0,0
		c-0.1,0-0.3,0.1-0.4,0.2l-1.9,1.9L15.4,15z"/>
</g>
</svg>
