<svg width="24" height="24" viewBox="0 0 24 24" fill="none" xmlns="http://www.w3.org/2000/svg">
<path fill-rule="evenodd" clip-rule="evenodd" d="M12 24C18.627 24 24 18.6274 24 12C24 5.37256 18.627 0 12 0C5.37305 0 0 5.37256 0 12C0 18.6274 5.37305 24 12 24ZM16.5098 5.49719L17.1748 7.4917L18.0049 6.61914V5.12329L16.4678 4.5L15.2217 5.49719H16.5098ZM16.7588 8.57202L16.0107 6.20361H13.9336L14.4736 7.8656H11.8555H9.19629L9.7373 6.20361H7.70117L6.91113 8.57202L5 13.849L11.8564 19.5L18.6699 13.849L16.7588 8.57202ZM13.8086 12.2285V11.1482L15.3467 10.5249L15.5537 11.2313L13.8086 12.2285ZM6.49609 7.4917L7.16016 5.49719L8.44824 5.53882L7.20215 4.5415L5.66504 5.12329V6.61914L6.49609 7.4917ZM9.86133 12.2285L8.11621 11.2313L8.32422 10.5249L9.86133 11.1482V12.2285Z" fill="#999999"/>
</svg>

