<svg width="16" height="16" viewBox="0 0 16 16" fill="none" xmlns="http://www.w3.org/2000/svg">
<g clip-path="url(#clip0)">
<path fill-rule="evenodd" clip-rule="evenodd" d="M9.05998 0H9.10998C9.13998 0 9.17998 0.01 9.20998 0.02C9.21998 0.02 9.23998 0.03 9.24998 0.03C9.29998 0.05 9.33998 0.08 9.37998 0.12L13.98 4.72L14.03 4.84C14.02 4.77 14.02 4.77 14 4.74L13.99 4.73L14.03 4.78C14.04 4.8 14.06 4.82 14.07 4.85C14.08 4.86 14.08 4.87 14.08 4.89V4.9C14.09 4.93 14.1 4.96 14.1 4.99C14.1 5.01 14.11 5.02 14.11 5.04V11.13C14.11 12.22 13.23 13.1 12.14 13.1H11.06V13.38C11.06 14.47 10.18 15.35 9.08998 15.35H2.96998C1.87998 15.35 0.99998 14.47 0.99998 13.38V4.22C0.97998 3.15 1.82998 2.27 2.88998 2.25C2.91998 2.25 2.93998 2.25 2.96998 2.25H4.04998V1.97C4.04998 0.88 4.93998 0 6.01998 0H9.05998ZM5.55998 3.14H2.96998C2.36998 3.14 1.88998 3.62 1.88998 4.22V13.38C1.88998 13.98 2.37998 14.46 2.96998 14.46H9.07998C9.67998 14.46 10.16 13.98 10.16 13.38V7.73H7.53998C6.44998 7.73 5.56998 6.85 5.56998 5.76L5.55998 3.14ZM9.49998 1.52V3.52C9.49998 4.12 9.98998 4.6 10.58 4.6H12.58L9.49998 1.52ZM6.44998 3.76V5.76C6.44998 6.36 6.93998 6.84 7.52998 6.84H9.52998L6.44998 3.76ZM12.13 12.21C12.73 12.21 13.21 11.73 13.21 11.13V5.49H10.58C9.48998 5.49 8.60998 4.61 8.60998 3.52V0.89H6.01998C5.41998 0.89 4.93998 1.37 4.93998 1.97V2.25H6.00998L6.05998 2.26C6.08998 2.26 6.12998 2.27 6.15998 2.28L6.18998 2.29C6.23998 2.31 6.27998 2.34 6.31998 2.38L10.92 6.98L10.93 6.99C10.96 7.03 10.99 7.07 11.01 7.11C11.02 7.13 11.02 7.13 11.02 7.14V7.15C11.03 7.18 11.04 7.21 11.04 7.24C11.04 7.26 11.05 7.27 11.05 7.29V12.22L12.13 12.21Z" fill="#999999"/>
</g>
<defs>
<clipPath id="clip0">
<rect width="13.1" height="15.35" fill="white" transform="translate(1)"/>
</clipPath>
</defs>
</svg>
