<svg width="25" height="24" viewBox="0 0 25 24" fill="none" xmlns="http://www.w3.org/2000/svg">
<path fill-rule="evenodd" clip-rule="evenodd" d="M21.5635 2.85282C21.3956 2.73585 21.1918 2.68206 20.9881 2.70098C20.7849 2.71986 20.5949 2.80991 20.4515 2.95524L20.4506 2.95618L4.66046 18.7323L4.57164 18.8389L4.48982 18.9616L4.4785 18.9899C4.41423 19.1507 4.39773 19.3267 4.43099 19.4966C4.46424 19.6666 4.54582 19.8233 4.66595 19.9481L4.66773 19.9499C4.74841 20.0322 4.8449 20.0974 4.95141 20.1414C5.05791 20.1855 5.17223 20.2076 5.28749 20.2063L5.3067 20.2061L5.42411 20.1894L5.5378 20.1705L5.66033 20.1296L5.67599 20.1223C5.75834 20.0835 5.83345 20.0309 5.89806 19.9668L5.89885 19.966L8.49178 17.3731L8.77979 17.498L8.78599 17.5005C10.1778 18.0662 11.6652 18.3598 13.1675 18.3653L13.1759 18.3653L13.1842 18.3649C16.0537 18.2112 18.7953 17.1286 20.9957 15.2806C22.2736 14.3281 23.4459 13.2414 24.4921 12.0389L24.4987 12.0309C24.6294 11.8694 24.7007 11.668 24.7007 11.4602C24.7007 11.2525 24.6296 11.0509 24.4988 10.8894L24.4915 10.881C24.191 10.5376 23.7498 10.068 23.2804 9.61278L22.8548 9.21536L21.9207 8.3944L21.9161 8.39049C21.1214 7.72081 20.2783 7.11089 19.3934 6.56603L19.3243 6.52653L21.6768 4.17407L21.7655 4.06753L21.8424 3.95221L21.8516 3.93265C21.9389 3.74762 21.9578 3.53768 21.905 3.34003C21.8523 3.14238 21.7313 2.96978 21.5635 2.85282ZM16.6173 9.20538L18.0362 7.78657L18.247 7.91019C19.8405 8.87202 21.2988 10.0417 22.5837 11.3883L22.6539 11.4584L22.585 11.5309L22.5842 11.5318C21.5746 12.5767 20.4645 13.5195 19.27 14.3466L19.2638 14.3509L19.2578 14.3555C17.5036 15.7095 15.3787 16.4969 13.166 16.6132L12.7734 16.5996C11.7671 16.5493 10.7741 16.3506 9.82643 16.0103L10.9352 14.9016C11.5403 15.2899 12.2369 15.5134 12.9559 15.5493C13.701 15.5865 14.4423 15.4208 15.1006 15.0699C15.759 14.719 16.3098 14.196 16.6943 13.5567C17.0788 12.9174 17.2826 12.1857 17.2839 11.4397L17.284 11.4313L17.2694 11.1699L17.2693 11.1673C17.2242 10.4677 16.9994 9.79208 16.6173 9.20538ZM12.978 13.8174C12.7152 13.7989 12.4583 13.7364 12.2175 13.6333L15.3502 10.5006C15.4806 10.7995 15.5478 11.1234 15.5462 11.4517L15.5462 11.4532C15.5462 12.0838 15.2957 12.6885 14.8498 13.1344C14.4061 13.578 13.8052 13.8282 13.178 13.8307L12.978 13.8174ZM12.2252 4.55512L12.2352 4.55524C13.3098 4.56851 14.3753 4.75424 15.391 5.10533C15.608 5.17968 15.7871 5.33633 15.8897 5.54153C15.992 5.74609 16.0101 5.98252 15.9401 6.20017C15.9075 6.30714 15.854 6.40659 15.7827 6.49275C15.7106 6.57976 15.6219 6.65145 15.5216 6.70357C15.4214 6.75569 15.3118 6.78718 15.1991 6.79619C15.0865 6.80519 14.9733 6.79152 14.866 6.75599L14.8002 6.73417L14.792 6.72598C13.9655 6.44073 13.0985 6.28982 12.224 6.27905C9.9988 6.40455 7.86375 7.20146 6.10042 8.56482L6.09012 8.57279C4.90236 9.40952 3.79658 10.3569 2.78799 11.4027L2.69641 11.4991L2.74792 11.5643C3.52329 12.5001 4.40132 13.3458 5.3655 14.0855L5.76522 14.375L6.18334 14.6537C6.33781 14.7578 6.45474 14.9088 6.51688 15.0844C6.57902 15.26 6.58308 15.451 6.52847 15.6291C6.47386 15.8071 6.36346 15.963 6.21356 16.0735C6.06365 16.1841 5.88218 16.2436 5.69591 16.2432L5.69653 15.9505L5.68991 16.2431C5.5245 16.2394 5.36362 16.1885 5.22617 16.0965C3.53074 14.998 2.05208 13.5967 0.864161 11.9626L0.86337 11.9616C0.750697 11.8051 0.693666 11.6153 0.701374 11.4227C0.709081 11.23 0.781082 11.0454 0.905896 10.8984L0.907189 10.8969C1.94978 9.68583 3.12279 8.59347 4.4049 7.63963C6.60835 5.79757 9.34761 4.71592 12.2153 4.55567L12.2252 4.55512ZM13.3779 7.62138C13.8083 7.74898 13.9397 8.25728 13.7142 8.64546C13.4887 9.03364 12.9836 9.14312 12.5358 9.11087C12.4051 9.10146 12.2729 9.10638 12.1417 9.12608C11.7397 9.18643 11.3702 9.38193 11.0941 9.68037C10.818 9.9788 10.6518 10.3624 10.6229 10.7679C10.6135 10.9003 10.6188 11.0324 10.6384 11.162C10.7053 11.6059 10.6355 12.118 10.266 12.373C9.89651 12.628 9.37954 12.5365 9.21886 12.1173C9.04119 11.6538 8.96553 11.1539 9.00131 10.6522C9.05652 9.87819 9.37373 9.14604 9.9007 8.57638C10.4277 8.00673 11.133 7.63357 11.9004 7.51836C12.3977 7.4437 12.902 7.48027 13.3779 7.62138Z" fill="#AFAFAF"/>
</svg>
