<svg width="16" height="16" viewBox="0 0 16 16" fill="none" xmlns="http://www.w3.org/2000/svg">
<path d="M6.63295 12.195L4.7476 14.0803C3.96597 14.8619 2.70018 14.8619 1.91921 14.0805C1.13808 13.2993 1.13808 12.0334 1.91906 11.2525L5.69041 7.4811C6.47139 6.7001 7.7373 6.7001 8.51827 7.4811C8.77862 7.74144 9.20074 7.74144 9.46109 7.4811C9.72143 7.22075 9.72143 6.79863 9.46109 6.53828C8.15939 5.23659 6.04929 5.23659 4.7476 6.53828L0.97627 10.3096C-0.325423 11.6113 -0.325423 13.7214 0.97627 15.0231C2.27781 16.3255 4.38807 16.3255 5.69045 15.0231L7.5758 13.1378C7.83614 12.8774 7.83614 12.4553 7.5758 12.195C7.31545 11.9346 6.89329 11.9346 6.63295 12.195Z" />
<path d="M15.0236 5.68975C16.3253 4.38806 16.3253 2.27796 15.0236 0.976266C13.7219 -0.325396 11.6119 -0.325396 10.3095 0.97611L8.04738 3.23828C7.78703 3.49862 7.78703 3.92075 8.04738 4.18109C8.30772 4.44144 8.72985 4.44144 8.99019 4.18109L11.2522 1.91908C12.0337 1.13808 13.2997 1.13808 14.0807 1.91908C14.8617 2.70005 14.8617 3.96597 14.0807 4.74694L9.93273 8.89495C9.15172 9.67596 7.88584 9.67596 7.10487 8.89495C6.84453 8.63461 6.4224 8.63461 6.16206 8.89495C5.90171 9.1553 5.90171 9.57743 6.16206 9.83777C7.46375 11.1395 9.57385 11.1395 10.8755 9.83777L15.0236 5.68975Z" />
</svg>
