<?xml version="1.0" encoding="utf-8"?>
<!-- Generator: Adobe Illustrator 24.0.1, SVG Export Plug-In . SVG Version: 6.00 Build 0)  -->
<svg version="1.1" id="home" xmlns="http://www.w3.org/2000/svg" xmlns:xlink="http://www.w3.org/1999/xlink" x="0px" y="0px"
	 viewBox="0 0 16 16" style="enable-background:new 0 0 16 16;" xml:space="preserve">
<style type="text/css">
	.st0{fill:none;}
	.st1{fill:#FD3B4C;}
	.st2{fill-rule:evenodd;clip-rule:evenodd;fill:#F4863B;}
	.st3{fill:#FFFFFF;}
	.st4{fill-rule:evenodd;clip-rule:evenodd;fill:#5C7BFC;}
	.st5{fill-rule:evenodd;clip-rule:evenodd;fill:#FEB92B;}
	.st6{fill-rule:evenodd;clip-rule:evenodd;fill:#3EAF66;}
	.st7{fill:#8F4DDB;}
	.st8{fill:#1D1E22;}
	.st9{fill:#FD565F;}
	.st10{fill:#25282D;}
	.st11{fill:#E6E6E6;}
	.st12{fill-rule:evenodd;clip-rule:evenodd;fill:#FD3B4C;}
	.st13{fill-rule:evenodd;clip-rule:evenodd;fill:#FFFFFF;}
	.st14{fill:#12B263;}
	.st15{fill:#3EAF66;}
	.st16{fill:#DC001A;}
	.st17{fill:#F6504B;}
	.st18{fill:#DB001A;}
	.st19{fill:#F54F4A;}
	.st20{fill:#231F20;}
	.st21{fill-rule:evenodd;clip-rule:evenodd;}
</style>
<path id="Path" d="M12.4,15.6c-0.1,0-0.2,0-0.3-0.1l-0.1,0l-3.7-2.2c-0.1-0.1-0.2-0.1-0.4-0.1c-0.1,0-0.2,0-0.3,0.1l-0.1,0.1
	l-3.7,2.2c-0.1,0.1-0.2,0.1-0.4,0.1c-0.2,0-0.4-0.1-0.6-0.3c-0.1-0.2-0.2-0.4-0.2-0.6l0-0.1l1-4.1c0.1-0.2,0-0.5-0.2-0.7L3.6,9.8
	L0.3,6.9c-0.3-0.3-0.3-0.8-0.1-1.1c0.1-0.1,0.2-0.2,0.4-0.2l0.1,0l4.4-0.4c0.2,0,0.5-0.2,0.6-0.4l0-0.1l1.6-3.8
	c0.2-0.4,0.6-0.6,1-0.4c0.2,0.1,0.3,0.2,0.4,0.3l0.1,0.1l1.6,3.8c0.1,0.2,0.3,0.4,0.5,0.4l0.1,0l4.4,0.4C15.7,5.6,16,6,16,6.4
	c0,0.1-0.1,0.3-0.2,0.4l-0.1,0.1l-3.3,2.9c-0.2,0.2-0.3,0.4-0.3,0.6l0,0.1l1,4.1c0.1,0.2,0,0.5-0.1,0.6
	C12.9,15.5,12.7,15.6,12.4,15.6z M8,12.2c0.3,0,0.5,0.1,0.7,0.2l0.2,0.1l3.2,1.9l-0.8-3.5c-0.1-0.6,0-1.2,0.4-1.6l0.1-0.1l2.9-2.5
	l-3.9-0.4c-0.6-0.1-1.1-0.4-1.4-0.9L9.3,5.1L8,1.8L6.6,5.1C6.4,5.6,5.9,6,5.3,6.1l-0.1,0L1.3,6.5l2.9,2.5c0.4,0.4,0.7,1,0.6,1.6
	l0,0.2l-0.9,3.5l3.2-1.9C7.4,12.3,7.7,12.2,8,12.2z"/>
</svg>
