<svg viewBox="0 0 24 24" xmlns="http://www.w3.org/2000/svg">
<path d="M18.5338 8.10452L17.7103 7.28102C17.6546 7.21913 17.586 7.17008 17.5095 7.13727C17.4329 7.10446 17.3502 7.08866 17.2669 7.09098C17.1009 7.09839 16.9433 7.16593 16.8235 7.28102L15.3665 8.73798L14.9864 8.3579L16.4434 6.90095C16.5034 6.84374 16.5512 6.77494 16.5838 6.69872C16.6165 6.6225 16.6333 6.54044 16.6333 6.45753C16.6333 6.37461 16.6165 6.29255 16.5838 6.21633C16.5512 6.14011 16.5034 6.07131 16.4434 6.0141L15.6199 5.19061C15.5209 5.09511 15.3952 5.03188 15.2595 5.00926C15.1238 4.98664 14.9844 5.0057 14.8597 5.06392C13.9981 5.52982 13.1724 6.05916 12.3893 6.64756C11.8567 7.01972 11.4572 7.55244 11.249 8.16786C11.0868 8.76598 11.0437 9.39017 11.1223 10.0049L9.5387 11.5885L7.25824 13.869L5.61125 15.516C5.36864 15.749 5.18908 16.0397 5.08938 16.361C4.98968 16.6823 4.97308 17.0236 5.04114 17.353C5.11005 17.7008 5.26924 18.0244 5.50273 18.2913C5.73623 18.5581 6.03581 18.7588 6.3714 18.8733C6.57537 18.9458 6.78872 18.9885 7.00486 19C7.3162 18.9895 7.6223 18.9168 7.90515 18.7863C8.18799 18.6558 8.44187 18.47 8.65185 18.2399L10.1088 16.7829L12.3893 14.5024L14.2263 12.6654H14.353C14.9763 12.7093 15.5974 12.554 16.1267 12.222C16.5077 11.9253 16.8299 11.5601 17.0769 11.1451L17.2035 10.9551C17.6892 10.2641 18.1334 9.54491 18.5338 8.80132C18.5858 8.75934 18.6277 8.70626 18.6565 8.64598C18.6853 8.5857 18.7003 8.51973 18.7003 8.45292C18.7003 8.38611 18.6853 8.32014 18.6565 8.25986C18.6277 8.19957 18.5858 8.1465 18.5338 8.10452V8.10452ZM16.5067 10.4483L16.38 10.6384C16.2164 10.947 15.9766 11.2087 15.6832 11.3985C15.2765 11.6221 14.8168 11.7315 14.353 11.7152H13.8462L13.5928 11.9686L11.7558 13.8056L9.47535 16.0861L8.08174 17.543C7.81988 17.8337 7.45787 18.0147 7.06821 18.0498C6.95873 18.0597 6.84874 18.0377 6.75148 17.9865C6.56502 17.9072 6.3994 17.7859 6.26754 17.6321C6.13568 17.4782 6.04115 17.296 5.99133 17.0996C5.96034 16.9177 5.97289 16.731 6.02794 16.5548C6.08299 16.3786 6.17898 16.218 6.30806 16.0861L7.95505 14.4391L10.2355 12.1587L11.8191 10.575L12.1359 10.2583L12.0725 9.81486C12.001 9.32959 12.0225 8.83513 12.1359 8.3579C12.2856 7.93536 12.5764 7.57739 12.9594 7.34437C13.7195 6.77426 14.543 6.33083 15.1765 5.88741L15.6832 6.39418L14.4163 7.6611L13.7829 8.29456L14.4163 8.92801L14.7964 9.30809L15.4299 9.94155L16.0633 9.30809L17.3302 8.04117L17.837 8.54794C17.3302 9.30809 16.9502 9.8782 16.5067 10.4483Z" />
<path fill-rule="evenodd" clip-rule="evenodd" d="M22 1H2C1.44772 1 1 1.44772 1 2V22C1 22.5523 1.44772 23 2 23H22C22.5523 23 23 22.5523 23 22V2C23 1.44772 22.5523 1 22 1ZM2 0C0.895431 0 0 0.89543 0 2V22C0 23.1046 0.89543 24 2 24H22C23.1046 24 24 23.1046 24 22V2C24 0.895431 23.1046 0 22 0H2Z" fill="black"/>
</svg>
