<?xml version="1.0" encoding="utf-8"?>
<!-- Generator: Adobe Illustrator 24.0.1, SVG Export Plug-In . SVG Version: 6.00 Build 0)  -->
<svg version="1.1" id="home" xmlns="http://www.w3.org/2000/svg" xmlns:xlink="http://www.w3.org/1999/xlink" x="0px" y="0px"
	 viewBox="0 0 34 34" style="enable-background:new 0 0 34 34;" xml:space="preserve">
<style type="text/css">
	.st0{fill:none;}
	.st1{fill:#FD3B4C;}
	.st2{fill-rule:evenodd;clip-rule:evenodd;fill:#F4863B;}
	.st3{fill:#FFFFFF;}
	.st4{fill-rule:evenodd;clip-rule:evenodd;fill:#5C7BFC;}
	.st5{fill-rule:evenodd;clip-rule:evenodd;fill:#FEB92B;}
	.st6{fill-rule:evenodd;clip-rule:evenodd;fill:#3EAF66;}
	.st7{fill:#8F4DDB;}
	.st8{fill:#1D1E22;}
	.st9{fill:#FD565F;}
	.st10{fill:#25282D;}
	.st11{fill:#E6E6E6;}
	.st12{fill-rule:evenodd;clip-rule:evenodd;fill:#FD3B4C;}
	.st13{fill-rule:evenodd;clip-rule:evenodd;fill:#FFFFFF;}
	.st14{fill:#12B263;}
	.st15{fill:#3EAF66;}
	.st16{fill:#DC001A;}
	.st17{fill:#F6504B;}
	.st18{fill:#DB001A;}
	.st19{fill:#F54F4A;}
	.st20{fill:#231F20;}
	.st21{fill-rule:evenodd;clip-rule:evenodd;}
</style>
<circle class="st7" cx="17" cy="17" r="17"/>
<g id="icon_proposal_2_" transform="translate(72)">
	<path id="Shape_2_" class="st3" d="M-59.2,24c-1,0-1.9-0.8-2-1.9V22V12c0-1,0.8-1.9,1.9-2l0.1,0h9.7c0.3,0,0.6,0.3,0.6,0.6
		c0,0.3-0.2,0.5-0.5,0.6l-0.1,0h-9.7c-0.4,0-0.8,0.3-0.8,0.7l0,0.1V22c0,0.4,0.3,0.8,0.7,0.8l0.1,0h8.3c0.4,0,0.8-0.3,0.8-0.7l0-0.1
		v-9.2c0-0.3,0.3-0.6,0.6-0.6c0.3,0,0.5,0.2,0.6,0.5l0,0.1V22c0,1-0.8,1.9-1.9,2l-0.1,0L-59.2,24z M-57.8,18.6
		c-0.3,0-0.6-0.3-0.6-0.6c0-0.3,0.2-0.5,0.5-0.6l0.1,0h3.5c0.3,0,0.6,0.3,0.6,0.6c0,0.3-0.2,0.5-0.5,0.6l-0.1,0L-57.8,18.6z
		 M-57.8,15.8c-0.3,0-0.6-0.3-0.6-0.6c0-0.3,0.2-0.5,0.5-0.6l0.1,0h5.6c0.3,0,0.6,0.3,0.6,0.6c0,0.3-0.2,0.5-0.5,0.6l-0.1,0
		L-57.8,15.8z"/>
</g>
</svg>
