<svg width="24" height="24" viewBox="0 0 24 24" fill="none" xmlns="http://www.w3.org/2000/svg">
<path d="M21.9902 13.2001H14.7202L15.9902 12.1601C16.3002 11.9001 16.3502 11.4401 16.1002 11.1101C15.9602 10.9401 15.7502 10.8401 15.5302 10.8301C15.3602 10.8301 15.1902 10.8901 15.0602 11.0001L12.1802 13.3701C11.8102 13.6801 12.0002 14.3301 12.1202 14.4701C12.9702 15.2001 14.8402 16.7101 15.0402 16.8701L15.0702 16.8901C15.2002 17.0001 15.3602 17.0501 15.5302 17.0501C15.7502 17.0501 15.9602 16.9601 16.1002 16.7701C16.3502 16.4501 16.3102 15.9801 15.9902 15.7201L14.7202 14.6801H21.9902C22.4002 14.6801 22.7302 14.3401 22.7302 13.9301C22.7302 13.5201 22.4002 13.2001 21.9902 13.2001Z" fill="#AFAFAF"/>
<path d="M21.25 17.21C21.25 16.93 21.03 16.71 20.75 16.71H20.25C19.97 16.71 19.75 16.93 19.75 17.21V18.29C19.75 19.02 19.1 19.62 18.3 19.62H3.95C3.15 19.62 2.5 19.02 2.5 18.29V5.83C2.5 5.1 3.15 4.5 3.95 4.5H7.84C7.85 4.5 7.86 4.5 7.87 4.5C8.49 4.5 9.04 4.88 9.22 5.43L9.67 6.68C10.07 7.86 11.25 8.66 12.6 8.66C12.6 8.66 12.6 8.66 12.61 8.66H18.31C19.11 8.66 19.76 9.26 19.76 9.99V10.72C19.76 11 19.98 11.22 20.26 11.22H20.76C21.04 11.22 21.26 11 21.26 10.72V10.3V9.98V9.89C21.26 9.83 21.25 9.77 21.22 9.72C21.13 8.94 20.73 8.23 20.06 7.74V7.21C20.06 5.66 18.69 4.39 17.03 4.39H10.52C9.95 3.53 8.94 3 7.87 3H4.04C2.37 3 1 4.27 1 5.82V18.28C1 19.83 2.37 21.1 4.03 21.1H18.21C19.7 21.1 20.94 20.08 21.19 18.76C21.22 18.69 21.24 18.62 21.24 18.54V18.28V17.59V17.21H21.25ZM17.02 5.88C17.79 5.88 18.42 6.45 18.45 7.16H12.48C12.48 7.16 12.48 7.16 12.47 7.16C11.84 7.16 11.3 6.79 11.12 6.23L11 5.88H17.02Z" fill="#AFAFAF"/>
</svg>
