<?xml version="1.0" encoding="utf-8"?>
<!-- Generator: Adobe Illustrator 24.0.1, SVG Export Plug-In . SVG Version: 6.00 Build 0)  -->
<svg version="1.1" id="home" xmlns="http://www.w3.org/2000/svg" xmlns:xlink="http://www.w3.org/1999/xlink" x="0px" y="0px"
	 viewBox="0 0 24 24" style="enable-background:new 0 0 24 24;" xml:space="preserve">
<style type="text/css">
	.st0{fill:none;}
	.st1{fill:#FD3B4C;}
	.st2{fill-rule:evenodd;clip-rule:evenodd;fill:#F4863B;}
	.st3{fill:#FFFFFF;}
	.st4{fill-rule:evenodd;clip-rule:evenodd;fill:#5C7BFC;}
	.st5{fill-rule:evenodd;clip-rule:evenodd;fill:#FEB92B;}
	.st6{fill-rule:evenodd;clip-rule:evenodd;fill:#3EAF66;}
	.st7{fill:#8F4DDB;}
	.st8{fill:#1D1E22;}
	.st9{fill:#FD565F;}
	.st10{fill:#25282D;}
	.st11{fill:#E6E6E6;}
	.st12{fill-rule:evenodd;clip-rule:evenodd;fill:#FD3B4C;}
	.st13{fill-rule:evenodd;clip-rule:evenodd;fill:#FFFFFF;}
	.st14{fill:#12B263;}
	.st15{fill:#3EAF66;}
	.st16{fill:#DC001A;}
	.st17{fill:#F6504B;}
	.st18{fill:#DB001A;}
	.st19{fill:#F54F4A;}
	.st20{fill:#231F20;}
	.st21{fill-rule:evenodd;clip-rule:evenodd;}
</style>
<g>
	<path d="M2.2,5v2.9h5.7V2.2H5C3.5,2.2,2.2,3.5,2.2,5z M6.4,6.4H3.7V5c0-0.7,0.6-1.2,1.2-1.2h1.4V6.4z"/>
	<path d="M2.2,14.5h5.7V8.8H2.2V14.5z M3.7,10.3h2.7V13H3.7V10.3z"/>
	<path d="M9.2,21.7h5.7v-5.7H9.2V21.7z M10.7,17.6h2.7v2.7h-2.7V17.6z"/>
	<path d="M19,2.2H9.2v12.3h12.6V5C21.7,3.5,20.5,2.2,19,2.2z M20.2,13h-9.6V3.7H19c0.7,0,1.2,0.6,1.2,1.2V13z"/>
	<path d="M16.1,21.7H19c1.5,0,2.8-1.2,2.8-2.8v-2.9h-5.7V21.7z M17.6,17.6h2.7V19c0,0.7-0.6,1.2-1.2,1.2h-1.4V17.6z"/>
	<path d="M2.2,19c0,1.5,1.2,2.8,2.8,2.8h2.9v-5.7H2.2V19z M3.7,17.6h2.7v2.7H5c-0.7,0-1.2-0.6-1.2-1.2V17.6z"/>
</g>
</svg>
