<?xml version="1.0" encoding="utf-8"?>
<!-- Generator: Adobe Illustrator 24.0.1, SVG Export Plug-In . SVG Version: 6.00 Build 0)  -->
<svg version="1.1" id="home" xmlns="http://www.w3.org/2000/svg" xmlns:xlink="http://www.w3.org/1999/xlink" x="0px" y="0px"
	 viewBox="0 0 16 16" style="enable-background:new 0 0 16 16;" xml:space="preserve">
<style type="text/css">
	.st0{fill:none;}
	.st1{fill:#FD3B4C;}
	.st2{fill-rule:evenodd;clip-rule:evenodd;fill:#F4863B;}
	.st3{fill:#FFFFFF;}
	.st4{fill-rule:evenodd;clip-rule:evenodd;fill:#5C7BFC;}
	.st5{fill-rule:evenodd;clip-rule:evenodd;fill:#FEB92B;}
	.st6{fill-rule:evenodd;clip-rule:evenodd;fill:#3EAF66;}
	.st7{fill:#8F4DDB;}
	.st8{fill:#1D1E22;}
	.st9{fill:#FD565F;}
	.st10{fill:#25282D;}
	.st11{fill:#E6E6E6;}
	.st12{fill-rule:evenodd;clip-rule:evenodd;fill:#FD3B4C;}
	.st13{fill-rule:evenodd;clip-rule:evenodd;fill:#FFFFFF;}
	.st14{fill:#12B263;}
	.st15{fill:#3EAF66;}
	.st16{fill:#DC001A;}
	.st17{fill:#F6504B;}
	.st18{fill:#DB001A;}
	.st19{fill:#F54F4A;}
	.st20{fill:#231F20;}
	.st21{fill-rule:evenodd;clip-rule:evenodd;}
</style>
<g>
	<path d="M3.3,11.2c0.1,0,0.3-0.1,0.3-0.2c0.1-0.2,0.1-0.4-0.1-0.6l-0.3-0.2L3,10C2.3,9.5,1.6,8.9,1.1,8.2L0.9,8l0.2-0.2
		c0.7-0.8,1.5-1.4,2.4-2c1.3-1,2.9-1.6,4.5-1.7c0.7,0,1.3,0.1,1.9,0.3c0,0,0,0,0,0c0.2,0.1,0.4-0.1,0.5-0.3c0,0,0,0,0,0
		c0.1-0.2,0-0.4-0.3-0.5C9.5,3.4,8.7,3.3,8,3.3C6,3.4,4.1,4.2,2.6,5.5C1.7,6.1,0.8,6.9,0.1,7.7C0,7.9,0,8.1,0.1,8.2
		c0.8,1.1,1.9,2.1,3,2.9C3.2,11.2,3.3,11.2,3.3,11.2z"/>
	<path d="M8,6.1c0.1,0,0.2,0,0.3,0c0.2,0,0.4-0.1,0.5-0.3c0-0.2-0.1-0.4-0.3-0.5c-0.2,0-0.3,0-0.5,0C6.5,5.3,5.3,6.5,5.3,8
		c0,0.2,0,0.3,0,0.5c0,0.2,0.2,0.3,0.4,0.3c0,0,0,0,0.1,0c0.2,0,0.4-0.3,0.3-0.5c0-0.1,0-0.2,0-0.3C6.1,7,7,6.1,8,6.1z"/>
	<path d="M15.9,7.7c-0.2-0.2-0.5-0.6-0.8-0.9l-0.3-0.3l-0.3-0.3L14.1,6c-0.6-0.5-1.2-0.9-1.8-1.3L12,4.5l1.9-1.9l0-0.1l0-0.1
		c0.1-0.2,0-0.3-0.1-0.5c-0.2-0.2-0.4-0.2-0.6,0L2.1,13.3l0,0.1l0,0.1c-0.1,0.2,0,0.3,0.1,0.5C2.2,14,2.3,14,2.4,14l0.1,0l0.1,0
		l0.1,0c0,0,0.1,0,0.1-0.1L4.6,12l0,0L5,12.1c1,0.4,2,0.6,3,0.6c2-0.1,3.9-0.9,5.4-2.2c0.9-0.7,1.7-1.4,2.5-2.3
		C16,8.1,16,7.9,15.9,7.7z M9.6,7L9.6,7c0.2,0.3,0.3,0.7,0.3,1C9.9,9,9,9.9,8,9.9l-0.1,0C7.6,9.9,7.3,9.8,7,9.6l0,0L9.6,7z
		 M14.8,8.2c-0.7,0.8-1.5,1.4-2.4,2c-1.3,1-2.8,1.6-4.5,1.6l-0.3,0c-0.8,0-1.6-0.2-2.3-0.5l-0.2-0.1l1.1-1.1l0.1,0.1
		c0.4,0.3,1,0.5,1.5,0.5c1.5,0,2.7-1.2,2.7-2.7l0-0.2c0-0.5-0.2-0.9-0.5-1.3l-0.1-0.1l1.3-1.3l0.3,0.2c1.1,0.7,2.2,1.5,3.1,2.5L15,8
		L14.8,8.2z"/>
</g>
</svg>
