<svg width="16" height="14" viewBox="0 0 16 14" fill="none" xmlns="http://www.w3.org/2000/svg">
<path d="M13.6667 2.66663H11.6667C11.5233 2.66663 11.396 2.57528 11.3507 2.43863L11.14 1.80663C10.9127 1.12463 10.2773 0.666626 9.55866 0.666626H6.44131C5.72266 0.666626 5.08731 1.12463 4.86066 1.80597L4.65 2.43863C4.604 2.57528 4.47666 2.66663 4.33334 2.66663H2.33334C1.04666 2.66663 0 3.71331 0 4.99997V11C0 12.2866 1.04666 13.3333 2.33334 13.3333H13.6667C14.9533 13.3333 16 12.2866 16 11V4.99997C16 3.71331 14.9533 2.66663 13.6667 2.66663ZM15.3333 11C15.3333 11.9186 14.5853 12.6666 13.6667 12.6666H2.33334C1.41469 12.6666 0.666687 11.9186 0.666687 11V4.99997C0.666687 4.08131 1.41469 3.33331 2.33334 3.33331H4.33334C4.764 3.33331 5.14534 3.05866 5.282 2.64997L5.49334 2.01663C5.62934 1.60797 6.01069 1.33328 6.44134 1.33328H9.55869C9.98934 1.33328 10.3707 1.60794 10.5073 2.01728L10.718 2.64994C10.8547 3.05859 11.236 3.33328 11.6667 3.33328H13.6667C14.5853 3.33328 15.3333 4.08128 15.3333 4.99994V11H15.3333Z"/>
<path transform="translate(4 4)" d="M4 0C1.794 0 0 1.794 0 4C0 6.206 1.794 8 4 8C6.206 8 8 6.206 8 4C8 1.794 6.206 0 4 0ZM4 7.33334C2.162 7.33334 0.666656 5.838 0.666656 4C0.666656 2.162 2.162 0.666656 4 0.666656C5.838 0.666656 7.33334 2.162 7.33334 4C7.33334 5.838 5.838 7.33334 4 7.33334Z"/>
<path transform="translate(5 5)" d="M2.99868 0.333374C1.52803 0.333374 0.332031 1.52937 0.332031 3.00002C0.332031 3.18402 0.481374 3.33336 0.665374 3.33336C0.849373 3.33336 0.998685 3.18402 0.998685 3.00002C0.998685 1.89737 1.89603 1.00003 2.99868 1.00003C3.18268 1.00003 3.33202 0.850684 3.33202 0.666685C3.33202 0.482686 3.18268 0.333374 2.99868 0.333374Z"/>
</svg>