<svg width="16" height="16" viewBox="0 0 16 16" fill="none" xmlns="http://www.w3.org/2000/svg">
<path d="M6.63284 12.1951L4.74752 14.0804C3.96591 14.862 2.70014 14.862 1.91918 14.0806C1.13806 13.2995 1.13806 12.0336 1.91902 11.2526L5.69032 7.48131C6.47128 6.70032 7.73717 6.70032 8.51814 7.48131C8.77848 7.74165 9.2006 7.74165 9.46094 7.48131C9.72128 7.22097 9.72128 6.79885 9.46094 6.53851C8.15926 5.23684 6.04919 5.23684 4.74752 6.53851L0.976254 10.3098C-0.325418 11.6115 -0.325418 13.7216 0.976254 15.0232C2.27777 16.3256 4.388 16.3256 5.69036 15.0232L7.57568 13.1379C7.83602 12.8776 7.83602 12.4554 7.57568 12.1951C7.31534 11.9348 6.89319 11.9348 6.63284 12.1951Z" />
<path d="M15.0234 5.68991C16.3251 4.38824 16.3251 2.27817 15.0234 0.976494C13.7218 -0.325147 11.6118 -0.325147 10.3095 0.976338L8.04734 3.23847C7.787 3.49881 7.787 3.92093 8.04734 4.18127C8.30768 4.44161 8.7298 4.44161 8.99014 4.18127L11.2521 1.9193C12.0336 1.1383 13.2996 1.1383 14.0806 1.9193C14.8616 2.70026 14.8616 3.96615 14.0806 4.74711L9.93266 8.89506C9.15167 9.67605 7.88581 9.67605 7.10485 8.89506C6.84451 8.63472 6.42239 8.63472 6.16205 8.89506C5.90171 9.1554 5.90171 9.57752 6.16205 9.83786C7.46372 11.1395 9.57379 11.1395 10.8755 9.83786L15.0234 5.68991Z" />
<path d="M12.472 11.5288C12.2117 11.2684 11.7896 11.2684 11.5292 11.5288C11.2689 11.7891 11.2689 12.2112 11.5292 12.4716L13.5286 14.4709C13.7889 14.7312 14.211 14.7312 14.4714 14.4709C14.7317 14.2105 14.7317 13.7884 14.4714 13.5281L12.472 11.5288Z" />
<path d="M3.52959 4.47214C3.78993 4.73248 4.21205 4.73248 4.47239 4.47214C4.73273 4.2118 4.73273 3.78968 4.47239 3.52934L2.47107 1.52802C2.21072 1.26768 1.7886 1.26768 1.52826 1.52802C1.26792 1.78836 1.26792 2.21048 1.52826 2.47082L3.52959 4.47214Z" />
<path d="M15.3326 10H13.3327C12.9645 10 12.666 10.2985 12.666 10.6666C12.666 11.0348 12.9645 11.3333 13.3327 11.3333H15.3326C15.7008 11.3333 15.9993 11.0348 15.9993 10.6666C15.9993 10.2985 15.7008 10 15.3326 10Z" />
<path d="M5.33364 3.3333C5.70182 3.3333 6.00029 3.03484 6.00029 2.66666V0.66668C6.00029 0.298465 5.70182 0 5.33364 0C4.96546 0 4.66699 0.298465 4.66699 0.666648V2.66663C4.66696 3.03481 4.96546 3.3333 5.33364 3.3333Z" />
<path d="M0.666649 5.9998H2.66663C3.03481 5.9998 3.33327 5.70134 3.33327 5.33315C3.33327 4.96497 3.03481 4.6665 2.66663 4.6665H0.666649C0.298465 4.6665 0 4.96497 0 5.33315C0 5.70134 0.298465 5.9998 0.666649 5.9998Z" />
<path d="M10.6666 12.6665C10.2985 12.6665 10 12.965 10 13.3332V15.3331C10 15.7013 10.2985 15.9998 10.6666 15.9998C11.0348 15.9998 11.3333 15.7013 11.3333 15.3331V13.3332C11.3333 12.965 11.0348 12.6665 10.6666 12.6665Z" />
</svg>
