<?xml version="1.0" encoding="utf-8"?>
<!-- Generator: Adobe Illustrator 24.0.1, SVG Export Plug-In . SVG Version: 6.00 Build 0)  -->
<svg version="1.1" id="home" xmlns="http://www.w3.org/2000/svg" xmlns:xlink="http://www.w3.org/1999/xlink" x="0px" y="0px"
	 viewBox="0 0 90 90" style="enable-background:new 0 0 90 90;" xml:space="preserve">
<style type="text/css">
	.st0{fill:none;}
	.st1{fill:#FD3B4C;}
	.st2{fill-rule:evenodd;clip-rule:evenodd;fill:#F4863B;}
	.st3{fill:#FFFFFF;}
	.st4{fill-rule:evenodd;clip-rule:evenodd;fill:#5C7BFC;}
	.st5{fill-rule:evenodd;clip-rule:evenodd;fill:#FEB92B;}
	.st6{fill-rule:evenodd;clip-rule:evenodd;fill:#3EAF66;}
	.st7{fill:#8F4DDB;}
	.st8{fill:#1D1E22;}
	.st9{fill:#FD565F;}
	.st10{fill:#25282D;}
	.st11{fill:#E6E6E6;}
	.st12{fill-rule:evenodd;clip-rule:evenodd;fill:#FD3B4C;}
	.st13{fill-rule:evenodd;clip-rule:evenodd;fill:#FFFFFF;}
	.st14{fill:#12B263;}
	.st15{fill:#3EAF66;}
	.st16{fill:#DC001A;}
	.st17{fill:#F6504B;}
	.st18{fill:#DB001A;}
	.st19{fill:#F54F4A;}
	.st20{fill:#231F20;}
	.st21{fill-rule:evenodd;clip-rule:evenodd;}
</style>
<g id="Group_20775" transform="translate(-145 -164)">
	<g id="icon-48" transform="translate(162.999 181.624)">
		<g id="Group_20776" transform="translate(0.001 3.376)">
			<g id="Group_20775-2">
				<path id="Path_45240" class="st9" d="M53.1,38.9L32.5,3.2c-1.8-3-5.6-4.1-8.7-2.3c-1,0.6-1.8,1.4-2.3,2.3L0.8,38.9
					c-1.8,3-0.7,6.9,2.3,8.7c1,0.6,2.1,0.9,3.2,0.9h41.2c3.5,0,6.3-2.8,6.3-6.3C53.9,41,53.6,39.9,53.1,38.9z M50.3,43.7
					c-0.6,1-1.6,1.6-2.8,1.6H6.3c-1.8,0-3.2-1.4-3.2-3.2c0-0.6,0.1-1.1,0.4-1.6L24.2,4.8c0.9-1.5,2.8-2,4.3-1.2
					c0.5,0.3,0.9,0.7,1.2,1.2l20.6,35.7C50.9,41.5,50.9,42.7,50.3,43.7z"/>
			</g>
		</g>
		<g id="Group_20780" transform="translate(24.84 38.114)">
			<g id="Group_20779" transform="translate(0 0)">
				<path id="Path_45241" class="st9" d="M2.1,0C1,0,0,1,0,2.1s1,2.1,2.1,2.1c1.2,0,2.1-1,2.1-2.1c0,0,0,0,0,0C4.3,1,3.3,0,2.1,0
					C2.1,0,2.1,0,2.1,0z"/>
			</g>
		</g>
		<path id="Path_45240-2" class="st9" d="M27,34.9L27,34.9c-0.9,0-1.6-0.7-1.6-1.6c0,0,0,0,0,0V20.6c0-0.9,0.7-1.6,1.6-1.6
			c0,0,0,0,0,0l0,0c0.9,0,1.6,0.7,1.6,1.6c0,0,0,0,0,0v12.8C28.6,34.2,27.9,34.9,27,34.9C27,34.9,27,34.9,27,34.9z"/>
	</g>
</g>
</svg>
