<?xml version="1.0" encoding="utf-8"?>
<!-- Generator: Adobe Illustrator 24.0.1, SVG Export Plug-In . SVG Version: 6.00 Build 0)  -->
<svg version="1.1" id="home" xmlns="http://www.w3.org/2000/svg" xmlns:xlink="http://www.w3.org/1999/xlink" x="0px" y="0px"
	 viewBox="0 0 107.7 96.4" style="enable-background:new 0 0 107.7 96.4;" xml:space="preserve">
<style type="text/css">
	.st0{fill:none;}
	.st1{fill:#FD3B4C;}
	.st2{fill-rule:evenodd;clip-rule:evenodd;fill:#F4863B;}
	.st3{fill:#FFFFFF;}
	.st4{fill-rule:evenodd;clip-rule:evenodd;fill:#5C7BFC;}
	.st5{fill-rule:evenodd;clip-rule:evenodd;fill:#FEB92B;}
	.st6{fill-rule:evenodd;clip-rule:evenodd;fill:#3EAF66;}
	.st7{fill:#8F4DDB;}
	.st8{fill:#1D1E22;}
	.st9{fill:#FD565F;}
	.st10{fill:#25282D;}
	.st11{fill:#E6E6E6;}
	.st12{fill-rule:evenodd;clip-rule:evenodd;fill:#FD3B4C;}
	.st13{fill-rule:evenodd;clip-rule:evenodd;fill:#FFFFFF;}
	.st14{fill:#12B263;}
	.st15{fill:#3EAF66;}
	.st16{fill:#DC001A;}
	.st17{fill:#F6504B;}
	.st18{fill:#DB001A;}
	.st19{fill:#F54F4A;}
	.st20{fill:#231F20;}
	.st21{fill-rule:evenodd;clip-rule:evenodd;}
</style>
<g>
	<path class="st8" d="M39.4,19.1c-1.1-1.1-2.2-2.2-3.2-3.2v0c-0.2-0.2-0.3-0.2-0.4,0c-1.4,1.4-2.8,2.8-4.2,4.2
		c-0.2,0.2-0.2,0.2,0,0.4c0.7,0.7,1.4,1.4,2.1,2.1c0.7,0.7,1.4,1.4,2.1,2.1c0.1,0.1,0.2,0.2,0.4,0c1.1-1.1,2.2-2.2,3.3-3.3
		C40,20.8,40,19.8,39.4,19.1z"/>
	<polygon class="st8" points="46.4,31.1 46.4,31.1 46.4,31.1 	"/>
	<path class="st8" d="M38.9,31.2c-0.1-0.1-0.2-0.3,0-0.4c0.5-0.5,0.9-0.9,1.4-1.4l4-4c0.2-0.2,0.2-0.3,0-0.5
		c-0.1-0.1-0.2-0.2-0.2-0.2v0c-0.3-0.2-0.3-0.3-0.5,0l-6,6c-0.2,0.2-0.2,0.2,0,0.5c1,1,2,2,3,3c0.5,0.5,0.4,0.5,0.9,0l0,0
		c0.2-0.2,0.2-0.2,0-0.4C40.6,32.8,39.8,32,38.9,31.2z"/>
	<path class="st8" d="M58.8,43.1L58.8,43.1l-0.2-0.2l-0.1-0.1l-0.1-0.1c-0.1-0.1-0.2-0.1-0.4,0C58,42.9,57.9,43,57.8,43
		c0-0.6-0.1-1.1-0.5-1.5l0,0c-0.6-0.9-1.6-1.4-2.7-1.2c-1.7,0.3-3,1.7-3.2,3.4c-0.1,1.4,0.8,2.7,2.2,3c0.2,0,0.4,0,0.6,0L54,46.8
		l-0.2,0.2l-0.1,0.1c-0.6,0.6-1.5,0.7-2.2,0.2c-0.7-0.4-1.1-1-1.4-1.8c-0.1-0.2-0.2-0.3-0.4-0.2c-0.1,0.1-0.3,0.1-0.4,0.1
		c-0.2,0.1-0.2,0.1-0.2,0.3c0.4,1.2,1.2,2.1,2.3,2.6c0.4,0.2,0.8,0.2,1.2,0.2c0.7-0.1,1.4-0.4,1.8-0.9c1.3-1.3,2.7-2.7,4-4
		C59,43.4,59.1,43.4,58.8,43.1z M56.5,44.3c-0.4,0.5-0.8,0.9-1.3,1.2c-0.2,0.1-0.5,0.2-0.7,0.3c-1,0.1-1.8-0.5-2-1.5
		c-0.1-0.7,0.1-1.4,0.6-1.9c0,0,0-0.1,0.1-0.1l0.2-0.1c0.3-0.3,0.7-0.6,1.1-0.8l0,0c0.7-0.3,1.5,0,2,0.6
		C57.1,42.6,57.1,43.6,56.5,44.3z"/>
	<rect x="26.1" y="81.1" class="st8" width="1.4" height="1.8"/>
	<path class="st8" d="M44,33.2c0.5,0.5,1,1,1.5,1.5l1,1l0.5,0.5c0.2,0.2,0.3,0.2,0.4,0l0.2-0.2c0.2-0.2,0.3-0.3,0.4-0.5
		c0.4-0.5,0.6-1.1,0.6-1.8c-0.1-1.3-1.1-2.4-2.3-2.7c-1-0.3-2.1,0-2.9,0.7c-0.7,0.5-1.1,1.2-1.3,2.1c-0.3,1.9,0.9,3.6,2.7,4.1
		c0.7,0.2,0.8,0.2,0.9-0.6c0-0.2,0-0.2-0.2-0.3c-0.5-0.1-1.1-0.3-1.5-0.6c0,0-0.1-0.1-0.1-0.1c-1-0.8-1.1-2.3-0.3-3.3
		C43.8,33,43.9,33.1,44,33.2z M44.7,32.3c0.1,0,0.1-0.1,0.2-0.1c1-0.5,2.2-0.1,2.8,0.9c0.3,0.6,0.2,1.4-0.3,1.9
		c-0.1,0.1-0.2,0-0.3,0c-0.4-0.4-0.8-0.8-1.2-1.2c-0.4-0.4-0.8-0.8-1.2-1.2C44.6,32.5,44.5,32.4,44.7,32.3z"/>
	<rect x="36.9" y="81.1" class="st8" width="1.4" height="1.8"/>
	<path class="st8" d="M95.3,83.9c3.1-3.1,3.1-8.1,0-11.2v0c-3.1-3.1-8.1-3.1-11.2,0c-3.1,3.1-3.1,8.1,0,11.2
		C87.2,87,92.2,87,95.3,83.9z M84.9,73.4L84.9,73.4C84.9,73.4,84.9,73.4,84.9,73.4c2.7-2.7,7-2.7,9.7,0c2.7,2.7,2.7,7,0,9.7
		c-2.7,2.7-7,2.7-9.7,0C82.2,80.4,82.2,76.1,84.9,73.4z"/>
	<path class="st8" d="M33,16.3c0.1,0.1,0.2,0.1,0.4,0c0.2-0.2,0.5-0.5,0.7-0.7s0.5-0.5,0.7-0.7c0.1-0.1,0.1-0.2,0-0.3
		c-0.2-0.2-0.4-0.4-0.5-0.5l0,0c-0.6-0.5-1.5-0.5-2.1,0c-0.2,0.2-0.4,0.4-0.6,0.6c0,0,0,0,0,0c-0.1,0.1,0,0.2,0,0.3
		C32,15.4,32.5,15.9,33,16.3z"/>
	<path class="st8" d="M107.6,77.3V62.4v-0.1c0-0.5-0.4-0.8-0.9-0.8l-9.1,0L37.2,1l-0.1-0.1c-1.3-1.2-3.4-1.2-4.7,0.1L12.5,20.9
		L12.4,21c-1.2,1.3-1.2,3.4,0.1,4.7l35.8,35.8H24.3v-1.3H13.1v1.3H0.9H0.8c-0.5,0-0.8,0.4-0.8,0.9v33.1v0.1c0,0.5,0.4,0.8,0.9,0.8
		h105.8h0.1c0.5,0,0.8-0.4,0.8-0.9V79.9C107.7,79,107.7,78.1,107.6,77.3z M106.6,62.5v9.9c-0.8-2.1-2.1-4.1-3.8-5.8l-4.1-4.1H106.6z
		 M13.1,24.8c-0.8-0.9-0.8-2.3,0.1-3.2L33.1,1.8v0c0.9-0.9,2.4-0.9,3.3,0L102,67.4l0.2,0.2c2.6,2.7,4.1,6.1,4.3,9.6v2.5
		c-0.3,3.6-1.8,7.2-4.5,9.9l-1,1l-0.2,0.2c-6.1,5.9-15.9,5.9-22-0.2L13.1,24.8L13.1,24.8z M64.3,77.5V87H15.7V70.8h41.9L64.3,77.5z
		 M1.1,62.5h48.2l7.2,7.2H14.6v18.4h50.8v-9.5l12.8,12.8l0.2,0.2c1.8,1.8,3.9,3,6.2,3.8H1.1V62.5z M106.6,95.3H95.4
		c2.3-0.8,4.5-2.1,6.4-4l1-1l0.2-0.2c1.6-1.6,2.8-3.5,3.6-5.6V95.3z"/>
	<path class="st8" d="M30.2,19.1c0.1,0.1,0.2,0.1,0.3,0c0.5-0.5,1-1,1.5-1.5c0.1-0.1,0.1-0.2,0-0.4c-0.5-0.5-1-1-1.4-1.4l0,0
		c-0.1-0.1-0.2-0.1-0.4,0c-0.2,0.2-0.5,0.5-0.7,0.7L29,17.1l-0.2,0.2c-0.1,0.1-0.2,0.2,0,0.4C29.2,18.2,29.7,18.6,30.2,19.1z"/>
	<path class="st8" d="M32.1,23.2c0.1-0.1,0.1-0.3-0.1-0.3c-0.5-0.5-1-0.9-1.4-1.4l0,0c-0.1-0.2-0.3-0.1-0.4,0
		c-0.2,0.2-0.5,0.5-0.7,0.7L29,22.6l-0.2,0.2c-0.1,0.1-0.2,0.3,0,0.4c0.5,0.5,1,0.9,1.4,1.4c0,0,0,0.1,0.1,0.1
		c0.1,0.1,0.3,0,0.3-0.1C31,24.2,31.5,23.7,32.1,23.2C32,23.2,32,23.2,32.1,23.2z"/>
	<path class="st8" d="M33.3,24.2C33.3,24.2,33.3,24.2,33.3,24.2c-0.2-0.1-0.3-0.1-0.4,0c-0.2,0.2-0.5,0.5-0.7,0.7
		c-0.1,0.1-0.3,0.3-0.4,0.4c-0.5,0.6-0.6,0.4,0,1c0.6,0.7,1.6,0.8,2.3,0.3c0.3-0.2,0.5-0.4,0.7-0.7c0.1-0.1,0.1-0.2,0-0.3
		C34.3,25.2,33.8,24.7,33.3,24.2z"/>
	<path class="st8" d="M29.2,20.1c-0.5-0.5-1-1-1.5-1.5v0c0,0,0,0-0.1-0.1c-0.1-0.1-0.2,0-0.3,0c-0.2,0.2-0.4,0.4-0.6,0.6
		c-0.5,0.6-0.5,1.4-0.1,2c0.2,0.3,0.4,0.5,0.6,0.7c0,0,0,0,0.1,0.1c0.1,0.1,0.2,0,0.3-0.1c0.2-0.2,0.5-0.5,0.7-0.7
		c0.2-0.2,0.5-0.5,0.7-0.7C29.3,20.3,29.4,20.2,29.2,20.1z"/>
	<path class="st8" d="M49.5,42.2L49.5,42.2l-0.1,0.1c-0.3,0.3-0.3,0.3,0,0.6l0.2,0.2c0.2,0.2,0.2,0.2,0.5-0.1
		c1.9-1.9,3.8-3.8,5.7-5.7c0.4-0.4,0.5-0.4,0.3-0.7l-0.1-0.1l-0.1-0.1l-0.1-0.1c-0.2-0.2-0.2-0.2-0.5,0c-0.6,0.6-1.3,1.3-1.9,1.9
		c-0.1,0.1-0.1,0.1-0.2,0.2c0-0.2,0-0.4,0-0.5l0,0c0-0.1,0-0.1,0-0.2c-0.3-1.5-1.7-2.4-3.2-2.1c-1.5,0.3-2.6,1.4-3.1,2.8
		c0,0,0,0,0,0c-0.5,1.4,0.2,3,1.6,3.5c0.4,0.1,0.8,0.2,1.2,0.1C49.6,42.1,49.5,42.2,49.5,42.2z M48.1,40.6c-0.5-0.5-0.6-1.2-0.3-1.9
		c0.2-0.4,0.4-0.8,0.8-1.1c0.4-0.5,1-0.8,1.7-0.9l0,0c0.2,0,0.4,0,0.5,0c1,0.2,1.6,1.1,1.4,2.1c-0.3,1.2-1.2,2.1-2.4,2.4
		C49.2,41.3,48.5,41.1,48.1,40.6z"/>
	<rect x="51.3" y="81.1" class="st8" width="1.4" height="1.8"/>
	<rect x="33" y="74.6" class="st8" width="0.4" height="3.5"/>
	<path class="st8" d="M45.4,78.1L45.4,78.1c0.3,0,0.6-0.1,0.8-0.4v0.4h0.4v-3.7h-0.4v1.4c-0.2-0.3-0.5-0.5-0.8-0.4
		c-0.3,0-0.6,0.1-0.8,0.4c-0.2,0.3-0.3,0.6-0.3,1c0,0.3,0.1,0.7,0.3,0.9C44.8,78,45.1,78.1,45.4,78.1z M44.9,76
		c0.1-0.2,0.3-0.3,0.5-0.3c0.2,0,0.4,0.1,0.5,0.2c0.2,0.2,0.3,0.5,0.2,0.7c0,0.3-0.1,0.5-0.2,0.8c-0.1,0.2-0.3,0.2-0.5,0.2l0,0
		c-0.2,0-0.4-0.1-0.5-0.3c-0.1-0.2-0.2-0.4-0.2-0.7C44.7,76.5,44.7,76.3,44.9,76z"/>
	<path class="st8" d="M48.6,78.1L48.6,78.1c0.3,0,0.5,0,0.7-0.2v-0.4c-0.2,0.1-0.5,0.2-0.7,0.2c-0.2,0-0.5-0.1-0.7-0.2
		c-0.2-0.2-0.3-0.4-0.3-0.6h1.8c0-0.1,0-0.2,0-0.3c0-0.3-0.1-0.6-0.3-0.9c-0.2-0.2-0.5-0.3-0.8-0.3c-0.3,0-0.6,0.1-0.8,0.4
		c-0.2,0.3-0.3,0.6-0.3,1c0,0.4,0.1,0.7,0.4,1C47.8,78,48.2,78.1,48.6,78.1z M47.9,76c0.1-0.1,0.3-0.2,0.5-0.2
		c0.2,0,0.4,0.1,0.5,0.2c0.1,0.1,0.2,0.3,0.2,0.5l0,0.1h-1.4C47.6,76.4,47.7,76.2,47.9,76z"/>
	<rect x="44.1" y="81.1" class="st8" width="1.4" height="1.8"/>
	<path class="st8" d="M40.2,78.1L40.2,78.1c0.2,0,0.4,0,0.6-0.1v-0.4c-0.2,0.1-0.4,0.2-0.6,0.2c-0.3,0-0.5-0.1-0.7-0.3
		c-0.2-0.2-0.3-0.4-0.3-0.7c0-0.3,0.1-0.5,0.3-0.7c0.2-0.2,0.4-0.3,0.7-0.3c0.2,0,0.4,0.1,0.6,0.2v-0.4c-0.2-0.1-0.4-0.1-0.6-0.1
		c-0.4,0-0.7,0.1-1,0.4c-0.2,0.3-0.4,0.6-0.4,1c0,0.4,0.1,0.7,0.4,1C39.5,78,39.9,78.2,40.2,78.1z"/>
	<path class="st8" d="M34.7,76.5c0-0.6,0-1.1,0-1.4l0.1,0.2c0.1,0.1,0.2,0.3,0.3,0.5c0.1,0.3,0.3,0.5,0.5,0.8l0.9,1.5H37v-3.5h-0.4
		v1.5c0,0.7,0,1.2,0,1.5L35.7,76l-0.9-1.5h-0.5v3.5l0.4,0V76.5z"/>
	<path class="st8" d="M42.6,78.1L42.6,78.1c0.3,0,0.7-0.1,0.9-0.4c0.2-0.3,0.3-0.6,0.3-1c0-0.4-0.1-0.7-0.3-1
		c-0.2-0.3-0.6-0.4-0.9-0.4c-0.3,0-0.7,0.1-0.9,0.4c-0.2,0.3-0.4,0.6-0.3,1c0,0.4,0.1,0.7,0.3,1C41.9,78,42.2,78.1,42.6,78.1z
		 M42,76.1c0.1-0.2,0.4-0.3,0.6-0.3c0.2,0,0.5,0.1,0.6,0.3c0.1,0.2,0.2,0.5,0.2,0.7c0,0.3-0.1,0.5-0.2,0.7c-0.1,0.2-0.4,0.3-0.6,0.3
		l0,0c-0.2,0-0.4-0.1-0.6-0.3c-0.1-0.2-0.2-0.4-0.2-0.7C41.8,76.5,41.8,76.3,42,76.1z"/>
	<rect x="47.7" y="81.1" class="st8" width="1.4" height="1.8"/>
	<polygon class="st8" points="60.4,45 60.4,45 60.4,45 	"/>
	<path class="st8" d="M65.7,50c-0.5-0.2-1.1-0.3-1.7-0.1c0.1-0.1,0.2-0.2,0.4-0.4l0.1-0.1l0.1-0.1c0.3-0.3,0.3-0.3,0-0.7l-0.1-0.1
		l0,0c-0.2-0.2-0.3-0.2-0.5,0c-1.3,1.3-2.6,2.6-3.9,3.9c-0.4,0.4-0.5,0.5-0.3,0.7l0.1,0.1l0.1,0.1l0.1,0.1c0.2,0.2,0.2,0.2,0.5-0.1
		c0.6-0.6,1.2-1.2,1.7-1.7c0.3-0.3,0.7-0.6,1-0.8c0.8-0.5,1.8-0.4,2.4,0.3c0.1,0.1,0.2,0.1,0.3,0c0.1-0.1,0.3-0.3,0.4-0.4
		c0,0,0,0,0.1,0c0.1-0.1,0.1-0.2,0-0.3C66.2,50.3,66,50.2,65.7,50z"/>
	<rect x="29.7" y="81.1" class="st8" width="1.4" height="1.8"/>
	<path class="st8" d="M59.7,51.3c0-0.1,0-0.2-0.2-0.2c-0.2,0-0.4-0.1-0.7-0.1c-0.3-0.1-0.6-0.2-0.9-0.4c-1-0.8-1.2-2.3-0.4-3.4
		c0.1-0.2,0.2-0.2,0.4,0c0.5,0.5,1,1,1.5,1.5c0.5,0.5,1,1,1.6,1.6c0,0,0,0,0.1,0.1c0.1,0.1,0.3,0.1,0.3-0.1c0.2-0.2,0.5-0.5,0.6-0.7
		c0.4-0.6,0.6-1.3,0.6-2c-0.2-1.2-1.1-2.2-2.3-2.5c-1.9-0.4-3.8,0.8-4.3,2.8c-0.3,1.9,0.9,3.7,2.7,4.1
		C59.6,52.1,59.5,52.1,59.7,51.3C59.7,51.3,59.7,51.3,59.7,51.3z M58.7,46.1L58.7,46.1c0,0,0.1,0,0.1,0c1-0.5,2.2,0,2.7,1
		c0.3,0.6,0.1,1.3-0.3,1.8c-0.1,0.1-0.2,0-0.2,0l0,0c-0.4-0.4-0.8-0.8-1.2-1.2c-0.4-0.4-0.7-0.7-1.1-1.1
		C58.4,46.3,58.4,46.3,58.7,46.1z"/>
	<path class="st8" d="M30.6,76.8h0.5c0.3,0,0.7-0.1,0.9-0.3c0.2-0.2,0.4-0.5,0.3-0.8c0-0.3-0.1-0.6-0.4-0.8c-0.3-0.2-0.6-0.3-1-0.3
		h-0.9v3.5l0.4,0V76.8z M30.6,74.9h0.5c0.2,0,0.5,0.1,0.7,0.2c0.2,0.1,0.2,0.4,0.2,0.6c0,0.2-0.1,0.4-0.2,0.5
		c-0.2,0.1-0.4,0.2-0.6,0.2l0,0h-0.5V74.9z"/>
	<rect x="40.5" y="81.1" class="st8" width="1.4" height="1.8"/>
	<rect x="33.3" y="81.1" class="st8" width="1.4" height="1.8"/>
</g>
</svg>
