<?xml version="1.0" encoding="utf-8"?>
<!-- Generator: Adobe Illustrator 24.0.1, SVG Export Plug-In . SVG Version: 6.00 Build 0)  -->
<svg version="1.1" id="home" xmlns="http://www.w3.org/2000/svg" xmlns:xlink="http://www.w3.org/1999/xlink" x="0px" y="0px"
	 viewBox="0 0 24 24" style="enable-background:new 0 0 24 24;" xml:space="preserve">
<style type="text/css">
	.st0{fill:none;}
	.st1{fill:#FD3B4C;}
	.st2{fill-rule:evenodd;clip-rule:evenodd;fill:#F4863B;}
	.st3{fill:#FFFFFF;}
	.st4{fill-rule:evenodd;clip-rule:evenodd;fill:#5C7BFC;}
	.st5{fill-rule:evenodd;clip-rule:evenodd;fill:#FEB92B;}
	.st6{fill-rule:evenodd;clip-rule:evenodd;fill:#3EAF66;}
	.st7{fill:#8F4DDB;}
	.st8{fill:#1D1E22;}
	.st9{fill:#FD565F;}
	.st10{fill:#25282D;}
	.st11{fill:#E6E6E6;}
	.st12{fill-rule:evenodd;clip-rule:evenodd;fill:#FD3B4C;}
	.st13{fill-rule:evenodd;clip-rule:evenodd;fill:#FFFFFF;}
	.st14{fill:#12B263;}
	.st15{fill:#3EAF66;}
	.st16{fill:#DC001A;}
	.st17{fill:#F6504B;}
	.st18{fill:#DB001A;}
	.st19{fill:#F54F4A;}
	.st20{fill:#231F20;}
	.st21{fill-rule:evenodd;clip-rule:evenodd;}
</style>
<g>
	<polygon points="15.4,11.2 15.4,11.2 15.4,11.2 	"/>
	<path d="M8.6,11.2h6.8c0.3,0,0.6-0.3,0.6-0.6c0.1-0.4-0.2-0.8-0.6-0.8h-4.9l1.1-1c0.2-0.3,0.3-0.7,0-1c-0.3-0.3-0.7-0.4-1.1-0.1
		L8,9.9c-0.2,0.2-0.3,0.5-0.2,0.8C8,11,8.3,11.2,8.6,11.2z"/>
	<path d="M15.4,12.7H8.6c-0.3,0-0.6,0.3-0.6,0.6c-0.1,0.4,0.2,0.8,0.6,0.8h4.9l-1.1,1c-0.3,0.3-0.3,0.8,0,1.1
		c0.1,0.1,0.3,0.2,0.5,0.2v0c0.2,0,0.4-0.1,0.5-0.2L16,14c0.2-0.2,0.3-0.5,0.2-0.8C16,12.9,15.7,12.7,15.4,12.7z"/>
	<path d="M12,0C5.4,0,0,5.4,0,12c0,6.6,5.4,12,12,12s12-5.4,12-12C24,5.4,18.6,0,12,0z M12,22.5C6.2,22.5,1.5,17.8,1.5,12
		C1.5,6.2,6.2,1.5,12,1.5S22.5,6.2,22.5,12C22.5,17.8,17.8,22.5,12,22.5z"/>
</g>
</svg>
