<?xml version="1.0" encoding="utf-8"?>
<!-- Generator: Adobe Illustrator 24.0.1, SVG Export Plug-In . SVG Version: 6.00 Build 0)  -->
<svg version="1.1" id="home" xmlns="http://www.w3.org/2000/svg" xmlns:xlink="http://www.w3.org/1999/xlink" x="0px" y="0px"
	 viewBox="0 0 16 16" style="enable-background:new 0 0 16 16;" xml:space="preserve">
<style type="text/css">
	.st0{fill:none;}
	.st1{fill:#FD3B4C;}
	.st2{fill-rule:evenodd;clip-rule:evenodd;fill:#F4863B;}
	.st3{fill:#FFFFFF;}
	.st4{fill-rule:evenodd;clip-rule:evenodd;fill:#5C7BFC;}
	.st5{fill-rule:evenodd;clip-rule:evenodd;fill:#FEB92B;}
	.st6{fill-rule:evenodd;clip-rule:evenodd;fill:#3EAF66;}
	.st7{fill:#8F4DDB;}
	.st8{fill:#1D1E22;}
	.st9{fill:#FD565F;}
	.st10{fill:#25282D;}
	.st11{fill:#E6E6E6;}
	.st12{fill-rule:evenodd;clip-rule:evenodd;fill:#FD3B4C;}
	.st13{fill-rule:evenodd;clip-rule:evenodd;fill:#FFFFFF;}
	.st14{fill:#12B263;}
	.st15{fill:#3EAF66;}
	.st16{fill:#DC001A;}
	.st17{fill:#F6504B;}
	.st18{fill:#DB001A;}
	.st19{fill:#F54F4A;}
	.st20{fill:#231F20;}
	.st21{fill-rule:evenodd;clip-rule:evenodd;}
</style>
<g>
	<path d="M16,6.8c0-0.3-0.3-0.6-0.6-0.6c0,0,0,0,0,0c-0.3,0-0.5,0.2-0.6,0.5l0,8H1.2V2l8.4,0l0.1,0c0.3-0.1,0.4-0.3,0.4-0.6
		c0,0,0,0,0-0.1c0-0.3-0.3-0.6-0.6-0.6H1C0.4,0.7,0,1.2,0,1.8v13C0,15.4,0.4,16,1,16h0l13.9,0c0.6,0,1.1-0.6,1.1-1.2L16,6.8
		C16,6.8,16,6.8,16,6.8z"/>
	<path d="M4.8,11.7l0.1,0.1l0,0C5.1,11.9,5.2,12,5.3,12c0,0,0,0,0,0c0.2,0,0.5-0.1,0.6-0.3l9.8-9.8c0.3-0.3,0.3-0.7,0.1-1.1l0-0.1
		c-0.3-0.3-0.8-0.2-1.1,0.1l-9.8,9.8C4.6,10.9,4.6,11.4,4.8,11.7z"/>
</g>
</svg>
