<?xml version="1.0" encoding="utf-8"?>
<!-- Generator: Adobe Illustrator 24.0.1, SVG Export Plug-In . SVG Version: 6.00 Build 0)  -->
<svg version="1.1" id="home" xmlns="http://www.w3.org/2000/svg" xmlns:xlink="http://www.w3.org/1999/xlink" x="0px" y="0px"
	 viewBox="0 0 26 26" style="enable-background:new 0 0 26 26;" xml:space="preserve">
<style type="text/css">
	.st0{fill:none;}
	.st1{fill:#FD3B4C;}
	.st2{fill-rule:evenodd;clip-rule:evenodd;fill:#F4863B;}
	.st3{fill:#FFFFFF;}
	.st4{fill-rule:evenodd;clip-rule:evenodd;fill:#5C7BFC;}
	.st5{fill-rule:evenodd;clip-rule:evenodd;fill:#FEB92B;}
	.st6{fill-rule:evenodd;clip-rule:evenodd;fill:#3EAF66;}
	.st7{fill:#8F4DDB;}
	.st8{fill:#1D1E22;}
	.st9{fill:#FD565F;}
	.st10{fill:#25282D;}
	.st11{fill:#E6E6E6;}
	.st12{fill-rule:evenodd;clip-rule:evenodd;fill:#FD3B4C;}
	.st13{fill-rule:evenodd;clip-rule:evenodd;fill:#FFFFFF;}
	.st14{fill:#12B263;}
	.st15{fill:#3EAF66;}
	.st16{fill:#DC001A;}
	.st17{fill:#F6504B;}
	.st18{fill:#DB001A;}
	.st19{fill:#F54F4A;}
	.st20{fill:#231F20;}
	.st21{fill-rule:evenodd;clip-rule:evenodd;}
</style>
<g>
	<path d="M24,10.8c0-1.1-0.5-2.1-1.3-2.8l-7.3-6.2C14,0.7,12,0.7,10.5,1.9l-7.1,6L3.3,8C2.5,8.7,2,9.7,2,10.8v10.3
		c0,1.7,1.1,3.2,2.7,3.7C5.1,24.9,5.5,25,5.9,25h13.3v0l0.9,0c0.4,0,0.8-0.1,1.2-0.2c1.6-0.5,2.7-2,2.7-3.7L24,10.8z M22.2,21.1
		c0,0.9-0.6,1.6-1.4,1.9c-0.2,0.1-0.3,0.1-0.5,0.1H5.9c-0.2,0-0.4,0-0.6-0.1c-0.8-0.3-1.4-1-1.4-1.9l0-10.3c0-0.6,0.3-1.1,0.7-1.5
		l7.1-6C12.1,3,12.5,2.8,13,2.8c0.5,0,0.9,0.2,1.3,0.5l7.1,6l0.1,0.1c0.4,0.4,0.7,0.9,0.7,1.5V21.1z"/>
	<path d="M9.8,8.7C7.7,8.7,6,10.4,6,12.5c0,0.5,0.4,0.9,0.9,0.9c0.5,0,0.9-0.4,0.9-0.9c0-1.1,0.9-2.1,2.1-2.1c0.5,0,0.8-0.4,0.9-0.9
		C10.7,9.1,10.3,8.7,9.8,8.7z"/>
</g>
</svg>
