<?xml version="1.0" encoding="utf-8"?>
<!-- Generator: Adobe Illustrator 24.0.1, SVG Export Plug-In . SVG Version: 6.00 Build 0)  -->
<svg version="1.1" id="home" xmlns="http://www.w3.org/2000/svg" xmlns:xlink="http://www.w3.org/1999/xlink" x="0px" y="0px"
	 viewBox="0 0 26 26" style="enable-background:new 0 0 26 26;" xml:space="preserve">
<style type="text/css">
	.st0{fill:none;}
	.st1{fill:#FD3B4C;}
	.st2{fill-rule:evenodd;clip-rule:evenodd;fill:#F4863B;}
	.st3{fill:#FFFFFF;}
	.st4{fill-rule:evenodd;clip-rule:evenodd;fill:#5C7BFC;}
	.st5{fill-rule:evenodd;clip-rule:evenodd;fill:#FEB92B;}
	.st6{fill-rule:evenodd;clip-rule:evenodd;fill:#3EAF66;}
	.st7{fill:#8F4DDB;}
	.st8{fill:#1D1E22;}
	.st9{fill:#FD565F;}
	.st10{fill:#25282D;}
	.st11{fill:#E6E6E6;}
	.st12{fill-rule:evenodd;clip-rule:evenodd;fill:#FD3B4C;}
	.st13{fill-rule:evenodd;clip-rule:evenodd;fill:#FFFFFF;}
	.st14{fill:#12B263;}
	.st15{fill:#3EAF66;}
	.st16{fill:#DC001A;}
	.st17{fill:#F6504B;}
	.st18{fill:#DB001A;}
	.st19{fill:#F54F4A;}
	.st20{fill:#231F20;}
	.st21{fill-rule:evenodd;clip-rule:evenodd;}
</style>
<g>
	<path d="M18.9,8.2L12.6,14l-2-2.5c0-0.1-0.1-0.1-0.1-0.2c-0.4-0.4-1-0.4-1.3,0l-3.3,3.3c0,0,0,0,0,0c-0.4,0.4-0.3,1,0,1.3
		c0.4,0.4,1,0.3,1.3,0l2.6-2.6l2,2.4c0,0.1,0.1,0.1,0.1,0.1l0,0c0.4,0.4,0.9,0.4,1.3,0l7-6.5c0,0,0,0,0,0c0.4-0.3,0.4-0.9,0-1.3l0,0
		C19.8,7.8,19.2,7.8,18.9,8.2z"/>
	<path d="M22.2,7.9c0.1,0.4,0.4,0.7,0.9,0.7s0.8-0.3,0.9-0.7h0V4.8C24,3.2,22.8,2,21.3,2H4.8C3.2,2,2,3.2,2,4.8v16.5
		C2,22.8,3.2,24,4.8,24h16.5c1.5,0,2.8-1.2,2.8-2.8v-6.5h0v0c0-0.5-0.4-0.9-0.9-0.9s-0.9,0.4-0.9,0.9v2.1c0,0,0,0,0,0v4.4
		c0,0.5-0.4,0.9-0.9,0.9H4.8c-0.5,0-0.9-0.4-0.9-0.9V4.8c0-0.5,0.4-0.9,0.9-0.9h16.5c0.5,0,0.9,0.4,0.9,0.9v0.9c0,0,0,0,0,0v2.1
		c0,0,0,0,0,0L22.2,7.9L22.2,7.9z"/>
</g>
</svg>
