<?xml version="1.0" encoding="utf-8"?>
<!-- Generator: Adobe Illustrator 24.0.1, SVG Export Plug-In . SVG Version: 6.00 Build 0)  -->
<svg version="1.1" id="home" xmlns="http://www.w3.org/2000/svg" xmlns:xlink="http://www.w3.org/1999/xlink" x="0px" y="0px"
	 viewBox="0 0 26 26" style="enable-background:new 0 0 26 26;" xml:space="preserve">
<style type="text/css">
	.st0{fill:none;}
	.st1{fill:#FD3B4C;}
	.st2{fill-rule:evenodd;clip-rule:evenodd;fill:#F4863B;}
	.st3{fill:#FFFFFF;}
	.st4{fill-rule:evenodd;clip-rule:evenodd;fill:#5C7BFC;}
	.st5{fill-rule:evenodd;clip-rule:evenodd;fill:#FEB92B;}
	.st6{fill-rule:evenodd;clip-rule:evenodd;fill:#3EAF66;}
	.st7{fill:#8F4DDB;}
	.st8{fill:#1D1E22;}
	.st9{fill:#FD565F;}
	.st10{fill:#25282D;}
	.st11{fill:#E6E6E6;}
	.st12{fill-rule:evenodd;clip-rule:evenodd;fill:#FD3B4C;}
	.st13{fill-rule:evenodd;clip-rule:evenodd;fill:#FFFFFF;}
	.st14{fill:#12B263;}
	.st15{fill:#3EAF66;}
	.st16{fill:#DC001A;}
	.st17{fill:#F6504B;}
	.st18{fill:#DB001A;}
	.st19{fill:#F54F4A;}
	.st20{fill:#231F20;}
	.st21{fill-rule:evenodd;clip-rule:evenodd;}
</style>
<g>
	<path d="M22.2,5.3C22.1,5.1,21.8,5,21.6,5c-0.2,0-0.5,0.1-0.7,0.2c-0.2,0.2-0.3,0.4-0.3,0.6c0,0.2,0.1,0.5,0.2,0.7
		c1.5,1.8,2.3,4.1,2.3,6.5c0,5.6-4.6,10.1-10.1,10.1C7.4,23.1,2.9,18.6,2.9,13C2.9,7.4,7.4,2.8,13,2.8c0,0,0,0,0,0
		c1.9,0,3.8,0.6,5.4,1.6c0.2,0.1,0.5,0.2,0.7,0.1c0.2-0.1,0.4-0.2,0.6-0.4c0.3-0.4,0.2-1-0.3-1.3C17.5,1.6,15.3,1,13,1c0,0,0,0,0,0
		C6.4,1,1,6.4,1,13c0,6.6,5.4,12,12,12c6.6,0,12-5.4,12-12C25,10.2,24,7.5,22.2,5.3z"/>
	<path d="M13,21.6c0.5,0,0.9-0.4,0.9-0.9v-0.9c1.7-0.3,3.4-1.4,3.4-3.4c0-2.3-2.1-3.3-3.9-4.2c-1.5-0.7-2.9-1.4-2.9-2.6
		C10.5,8.5,11.8,8,13,8c1.2,0,2.5,0.5,2.5,1.6c0,0.5,0.4,0.9,0.9,0.9c0.5,0,0.9-0.4,0.9-0.9c0-2-1.7-3.1-3.4-3.4V5.3
		c0-0.2-0.1-0.5-0.3-0.7c-0.2-0.2-0.4-0.3-0.7-0.3h0c-0.5,0-0.9,0.4-0.9,0.9v0.9c-1.7,0.3-3.4,1.4-3.4,3.4c0,2.3,2.2,3.4,3.9,4.2
		c1.5,0.7,2.9,1.4,2.9,2.6c0,1.1-1.3,1.6-2.5,1.6c-1.2,0-2.5-0.5-2.5-1.6c0-0.5-0.4-0.9-0.9-0.9c-0.5,0-0.9,0.4-0.9,0.9
		c0,2,1.7,3.1,3.4,3.4v0.9C12.1,21.2,12.5,21.6,13,21.6z"/>
</g>
</svg>
