<?xml version="1.0" encoding="utf-8"?>
<!-- Generator: Adobe Illustrator 24.0.1, SVG Export Plug-In . SVG Version: 6.00 Build 0)  -->
<svg version="1.1" id="home" xmlns="http://www.w3.org/2000/svg" xmlns:xlink="http://www.w3.org/1999/xlink" x="0px" y="0px"
	 viewBox="0 0 24 24" style="enable-background:new 0 0 24 24;" xml:space="preserve">
<style type="text/css">
	.st0{fill:none;}
	.st1{fill:#FD3B4C;}
	.st2{fill-rule:evenodd;clip-rule:evenodd;fill:#F4863B;}
	.st3{fill:#FFFFFF;}
	.st4{fill-rule:evenodd;clip-rule:evenodd;fill:#5C7BFC;}
	.st5{fill-rule:evenodd;clip-rule:evenodd;fill:#FEB92B;}
	.st6{fill-rule:evenodd;clip-rule:evenodd;fill:#3EAF66;}
	.st7{fill:#8F4DDB;}
	.st8{fill:#1D1E22;}
	.st9{fill:#FD565F;}
	.st10{fill:#25282D;}
	.st11{fill:#E6E6E6;}
	.st12{fill-rule:evenodd;clip-rule:evenodd;fill:#FD3B4C;}
	.st13{fill-rule:evenodd;clip-rule:evenodd;fill:#FFFFFF;}
	.st14{fill:#12B263;}
	.st15{fill:#3EAF66;}
	.st16{fill:#DC001A;}
	.st17{fill:#F6504B;}
	.st18{fill:#DB001A;}
	.st19{fill:#F54F4A;}
	.st20{fill:#231F20;}
	.st21{fill-rule:evenodd;clip-rule:evenodd;}
</style>
<g>
	<path d="M12,0C5.4,0,0,5.4,0,12s5.4,12,12,12c6.6,0,12-5.4,12-12S18.6,0,12,0z M22.2,12c0,5.6-4.6,10.2-10.2,10.2S1.8,17.6,1.8,12
		S6.4,1.8,12,1.8S22.2,6.4,22.2,12z"/>
	<g>
		<path d="M9.8,9.8c0,0,0.1-0.1,0.2-0.2l4.7-2.5c0.6-0.3,1.4-0.2,1.9,0.3c0.5,0.5,0.6,1.3,0.3,1.9l-2.5,4.6l0,0l-0.2,0.3
			c0,0-0.1,0.1-0.2,0.2l-4.7,2.5C9,17,8.8,17.1,8.5,17.1c-0.4,0-0.9-0.2-1.2-0.5c-0.5-0.5-0.6-1.3-0.3-1.9l2.5-4.6 M11.1,11.1
			l-2,3.8l3.8-2l2-3.8L11.1,11.1z"/>
	</g>
</g>
</svg>
