<svg width="25" height="24" viewBox="0 0 25 24" fill="none" xmlns="http://www.w3.org/2000/svg">
<path fill-rule="evenodd" clip-rule="evenodd" d="M22.0307 7.21V7.74C22.7707 8.28 23.2107 9.1 23.2107 9.98V18.28C23.2107 19.83 21.8507 21.1 20.1807 21.1H6.0007C4.3407 21.1 2.9707 19.83 2.9707 18.28V5.82C2.9707 4.27 4.3407 3 6.0007 3H9.8407C10.9107 3 11.9207 3.53 12.4807 4.39H19.0007C20.6607 4.39 22.0307 5.66 22.0307 7.21ZM18.9907 5.88H12.9707L13.0907 6.23C13.2707 6.79 13.8107 7.16 14.4407 7.16H14.4507H20.4207C20.3907 6.45 19.7607 5.88 18.9907 5.88ZM5.9207 4.5C5.1207 4.5 4.4707 5.1 4.4707 5.83V18.3C4.4707 19.03 5.1207 19.63 5.9207 19.63H20.2807C21.0807 19.63 21.7307 19.03 21.7307 18.3V9.99C21.7307 9.26 21.0807 8.66 20.2807 8.66H14.5807H14.5707C13.2207 8.66 12.0407 7.86 11.6407 6.68L11.1907 5.43C11.0107 4.88 10.4607 4.5 9.8407 4.5H9.8107H5.9207ZM13.4707 13H15.7207C16.1307 13 16.4707 13.34 16.4707 13.75C16.4707 14.16 16.1307 14.5 15.7207 14.5H13.4707V16.75C13.4707 17.16 13.1307 17.5 12.7207 17.5C12.3107 17.5 11.9707 17.16 11.9707 16.75V14.5H9.7207C9.3107 14.5 8.9707 14.16 8.9707 13.75C8.9707 13.34 9.3107 13 9.7207 13H11.9707V10.75C11.9707 10.34 12.3107 10 12.7207 10C13.1307 10 13.4707 10.34 13.4707 10.75V13Z" fill="#AFAFAF"/>
</svg>
