<?xml version="1.0" encoding="utf-8"?>
<!-- Generator: Adobe Illustrator 24.0.1, SVG Export Plug-In . SVG Version: 6.00 Build 0)  -->
<svg version="1.1" id="home" xmlns="http://www.w3.org/2000/svg" xmlns:xlink="http://www.w3.org/1999/xlink" x="0px" y="0px"
	 viewBox="0 0 24 24" style="enable-background:new 0 0 24 24;" xml:space="preserve">
<style type="text/css">
	.st0{fill:none;}
	.st1{fill:#FD3B4C;}
	.st2{fill-rule:evenodd;clip-rule:evenodd;fill:#F4863B;}
	.st3{fill:#FFFFFF;}
	.st4{fill-rule:evenodd;clip-rule:evenodd;fill:#5C7BFC;}
	.st5{fill-rule:evenodd;clip-rule:evenodd;fill:#FEB92B;}
	.st6{fill-rule:evenodd;clip-rule:evenodd;fill:#3EAF66;}
	.st7{fill:#8F4DDB;}
	.st8{fill:#1D1E22;}
	.st9{fill:#FD565F;}
	.st10{fill:#25282D;}
	.st11{fill:#E6E6E6;}
	.st12{fill-rule:evenodd;clip-rule:evenodd;fill:#FD3B4C;}
	.st13{fill-rule:evenodd;clip-rule:evenodd;fill:#FFFFFF;}
	.st14{fill:#12B263;}
	.st15{fill:#3EAF66;}
	.st16{fill:#DC001A;}
	.st17{fill:#F6504B;}
	.st18{fill:#DB001A;}
	.st19{fill:#F54F4A;}
	.st20{fill:#231F20;}
	.st21{fill-rule:evenodd;clip-rule:evenodd;}
</style>
<path id="Combined_Shape_3_" d="M5,23c-2.1,0-3.8-1.7-4-3.8l0-0.3V5.1C1,3,2.6,1.2,4.7,1L5,1h13.6c0.5,0,0.9,0.4,0.9,0.9
	c0,0.4-0.3,0.8-0.7,0.9l-0.2,0H5c-1.1,0-2,0.8-2.2,1.9l0,0.2v0.2v13.8c0,1.1,0.8,2.1,1.8,2.3l0.2,0H5H19c1.1,0,2-0.8,2.2-1.9l0-0.2
	v-0.2v-1.2h-0.1h-5.5c-2.2,0-4.1-1.7-4.1-4c0-2,1.6-3.7,3.5-3.9l0.3,0l0.3,0h5.6V7.9c0-1-0.7-1.9-1.6-2.2l-0.2,0l-0.2,0H19H7.2
	c-0.5,0-0.9-0.4-0.9-0.9c0-0.4,0.3-0.8,0.7-0.9l0.2,0H19c2.1,0,3.8,1.7,4,3.8l0,0.3v11c0,2.1-1.6,3.9-3.7,4.1L19,23H5z M15.7,11.6
	c-1.2,0-2.3,1-2.3,2.2c0,1.1,0.8,2,1.9,2.2l0.2,0l0.2,0h5.5h0.1v-4.4h-0.1H15.7z M14.6,13.8c0-0.7,0.6-1.3,1.3-1.3s1.3,0.6,1.3,1.3
	c0,0.7-0.6,1.3-1.3,1.3S14.6,14.6,14.6,13.8z"/>
</svg>
