<?xml version="1.0" encoding="utf-8"?>
<!-- Generator: Adobe Illustrator 24.0.1, SVG Export Plug-In . SVG Version: 6.00 Build 0)  -->
<svg version="1.1" id="home" xmlns="http://www.w3.org/2000/svg" xmlns:xlink="http://www.w3.org/1999/xlink" x="0px" y="0px"
	 viewBox="0 0 16 16" style="enable-background:new 0 0 16 16;" xml:space="preserve">
<style type="text/css">
	.st0{fill:none;}
	.st1{fill:#FD3B4C;}
	.st2{fill-rule:evenodd;clip-rule:evenodd;fill:#F4863B;}
	.st3{fill:#FFFFFF;}
	.st4{fill-rule:evenodd;clip-rule:evenodd;fill:#5C7BFC;}
	.st5{fill-rule:evenodd;clip-rule:evenodd;fill:#FEB92B;}
	.st6{fill-rule:evenodd;clip-rule:evenodd;fill:#3EAF66;}
	.st7{fill:#8F4DDB;}
	.st8{fill:#1D1E22;}
	.st9{fill:#FD565F;}
	.st10{fill:#25282D;}
	.st11{fill:#E6E6E6;}
	.st12{fill-rule:evenodd;clip-rule:evenodd;fill:#FD3B4C;}
	.st13{fill-rule:evenodd;clip-rule:evenodd;fill:#FFFFFF;}
	.st14{fill:#12B263;}
	.st15{fill:#3EAF66;}
	.st16{fill:#DC001A;}
	.st17{fill:#F6504B;}
	.st18{fill:#DB001A;}
	.st19{fill:#F54F4A;}
	.st20{fill:#231F20;}
	.st21{fill-rule:evenodd;clip-rule:evenodd;}
</style>
<path d="M15,5.7l-2.2-3.2c-0.1-0.2-0.3-0.3-0.5-0.3c-2.8,0-5.7,0-8.5,0c-0.2,0-0.4,0.1-0.5,0.3c-0.7,1-1.4,2-2.1,3.1
	c-0.2,0.3-0.2,0.4,0,0.7c2.2,2.4,4.3,4.9,6.5,7.3c0.3,0.3,0.5,0.3,0.7,0c2.2-2.5,4.3-4.9,6.5-7.4C15,6,15.1,5.9,15,5.7z M7.6,10.9
	c-0.2,0.1-0.4,0-0.5-0.2C7,10.5,7,10.3,6.9,10.2C6.5,8.8,6.1,7.4,5.6,6.1c0,0,0-0.1-0.1-0.1c-0.1,0-0.2,0-0.3,0c-0.7,0-1.4,0-2.2,0
	C3,5.9,2.8,5.9,2.8,5.7c0-0.1,0-0.3,0-0.4c0.1-0.1,0.2-0.1,0.3-0.1c0.6,0,1.2,0,1.7,0c0.1,0,0.1,0,0.2,0C5,5,4.9,4.8,4.8,4.7
	C4.6,4.4,4.4,4.1,4.2,3.8C4.1,3.6,4.1,3.4,4.3,3.2c0.2-0.1,0.4-0.1,0.5,0.1C5.3,4,5.7,4.6,6.2,5.3c0.1,0.1,0.1,0.2,0.1,0.3
	c0.5,1.6,1,3.2,1.5,4.8c0,0,0,0.1,0,0.1C7.9,10.7,7.8,10.9,7.6,10.9z M8,5.9C8,5.9,8,5.9,8,5.9c-0.3,0-0.5,0-0.8,0
	c-0.3,0-0.4-0.2-0.4-0.4c0-0.2,0.2-0.4,0.4-0.4c0.6,0,1.1,0,1.7,0c0.3,0,0.4,0.1,0.4,0.4c0,0.2-0.2,0.4-0.4,0.4
	C8.6,5.9,8.3,5.9,8,5.9z M13.4,5.7c0,0.2-0.2,0.2-0.4,0.2c-0.7,0-1.4,0-2.2,0c-0.1,0-0.2,0-0.3,0c0,0.1,0,0.1-0.1,0.1
	c-0.4,1.4-0.9,2.7-1.3,4.1c-0.1,0.2-0.1,0.4-0.2,0.6C9,10.9,8.8,11,8.6,10.9c-0.2-0.1-0.3-0.2-0.2-0.4c0,0,0-0.1,0-0.1
	c0.5-1.6,1-3.2,1.5-4.8c0-0.1,0.1-0.2,0.1-0.3c0.4-0.6,0.9-1.3,1.3-1.9c0.1-0.2,0.4-0.3,0.5-0.1c0.2,0.1,0.2,0.3,0.1,0.6
	c-0.2,0.3-0.4,0.6-0.6,0.9C11.3,4.8,11.2,5,11,5.2c0.1,0,0.2,0,0.2,0c0.6,0,1.2,0,1.7,0c0.1,0,0.3,0.1,0.3,0.1
	C13.4,5.4,13.4,5.6,13.4,5.7z"/>
</svg>
