<?xml version="1.0" encoding="utf-8"?>
<!-- Generator: Adobe Illustrator 24.0.1, SVG Export Plug-In . SVG Version: 6.00 Build 0)  -->
<svg version="1.1" id="home" xmlns="http://www.w3.org/2000/svg" xmlns:xlink="http://www.w3.org/1999/xlink" x="0px" y="0px"
	 viewBox="0 0 16 16" style="enable-background:new 0 0 16 16;" xml:space="preserve">
<style type="text/css">
	.st0{fill:none;}
	.st1{fill:#FD3B4C;}
	.st2{fill-rule:evenodd;clip-rule:evenodd;fill:#F4863B;}
	.st3{fill:#FFFFFF;}
	.st4{fill-rule:evenodd;clip-rule:evenodd;fill:#5C7BFC;}
	.st5{fill-rule:evenodd;clip-rule:evenodd;fill:#FEB92B;}
	.st6{fill-rule:evenodd;clip-rule:evenodd;fill:#3EAF66;}
	.st7{fill:#8F4DDB;}
	.st8{fill:#1D1E22;}
	.st9{fill:#FD565F;}
	.st10{fill:#25282D;}
	.st11{fill:#E6E6E6;}
	.st12{fill-rule:evenodd;clip-rule:evenodd;fill:#FD3B4C;}
	.st13{fill-rule:evenodd;clip-rule:evenodd;fill:#FFFFFF;}
	.st14{fill:#12B263;}
	.st15{fill:#3EAF66;}
	.st16{fill:#DC001A;}
	.st17{fill:#F6504B;}
	.st18{fill:#DB001A;}
	.st19{fill:#F54F4A;}
	.st20{fill:#231F20;}
	.st21{fill-rule:evenodd;clip-rule:evenodd;}
</style>
<path id="Combined_Shape" d="M4,15.4c-0.7,0-1.2-0.5-1.2-1.2V5.8c0-0.2,0.2-0.4,0.4-0.4c0.2,0,0.4,0.2,0.4,0.4v8.4
	c0,0.2,0.2,0.4,0.4,0.4h8c0.2,0,0.4-0.2,0.4-0.4v-8l0,0V5.8c0-0.2,0.2-0.4,0.4-0.4c0.2,0,0.4,0.2,0.4,0.4v0.8c0,0,0,0,0,0v7.6
	c0,0.7-0.5,1.2-1.2,1.2H4z M9.2,12.2V5.8c0-0.2,0.2-0.4,0.4-0.4c0.2,0,0.4,0.2,0.4,0.4v6.4c0,0.2-0.2,0.4-0.4,0.4
	C9.4,12.6,9.2,12.4,9.2,12.2z M6,12.2V5.8c0-0.2,0.2-0.4,0.4-0.4s0.4,0.2,0.4,0.4v6.4c0,0.2-0.2,0.4-0.4,0.4S6,12.4,6,12.2z
	 M1.2,4.6C1,4.6,0.8,4.4,0.8,4.2C0.8,4,1,3.8,1.2,3.8h2.6v-2c0-0.7,0.5-1.2,1.2-1.2h6c0.7,0,1.2,0.5,1.2,1.2v2h-0.8v-2
	c0-0.2-0.2-0.4-0.4-0.4H5c-0.2,0-0.4,0.2-0.4,0.4l0,0v2h10.2c0.2,0,0.4,0.2,0.4,0.4c0,0.2-0.2,0.4-0.4,0.4H1.2z"/>
</svg>
