<svg fill="none" height="24" viewBox="0 0 25 24" width="25" xmlns="http://www.w3.org/2000/svg" xmlns:xlink="http://www.w3.org/1999/xlink"><clipPath id="a"><path d="m.030273 0h24v24h-24z"/></clipPath><g clip-path="url(#a)"><path clip-rule="evenodd" d="m21.0303 8.85 2.1.675c.525.15.9.675.9 1.2v2.55c0 .525-.375.975-.825 1.125l-2.175.675-.45 1.125 1.05 1.95c.225.45.15 1.05-.225 1.425l-1.8 1.8c-.375.375-.975.45-1.425.225l-1.95-1.05-1.125.45-.675 2.175c-.15.45-.6.825-1.125.825h-2.55c-.525 0-.97503-.375-1.12503-.825l-.675-2.175-1.125-.45-1.95 1.05c-.45.225-1.05.15-1.425-.225l-1.8-1.8c-.375-.375-.45-.975-.225-1.425l1.05-1.95-.45-1.125-2.099997-.675c-.525-.15-.8999996-.6-.8999996-1.125v-2.55c0-.525.3749996-.975.8249996-1.125l2.099997-.675c.075-.1875.15-.39375.225-.6s.15-.4125.225-.6l-.975-1.875c-.225-.45-.15-1.05.225-1.425l1.8-1.8c.375-.375.975-.45 1.425-.225l1.95 1.05c.375-.225.75-.375 1.2-.45l.675-2.1c.075-.525.52503-.9 1.05003-.9h2.55c.525 0 .975.375 1.125.825l.675 2.1 1.125.45 1.95-1.05c.45-.225 1.05-.15 1.425.225l1.8 1.8c.375.375.45.975.225 1.425l-1.05 1.95zm-1.2 5.025 2.7-.825v-2.1l-2.7-.825-.075-.375c-.15-.525-.375-1.05-.675-1.575l-.225-.375 1.35-2.475-1.5-1.5-2.475 1.35-.375-.225c-.525-.3-1.05-.525-1.575-.675l-.375-.15-.825-2.625h-2.1l-.825 2.625-.37503.15c-.6.15-1.125.375-1.65.675l-.375.225-2.4-1.35-1.5 1.5 1.275 2.475-.225.375c-.3.525-.525 1.05-.675 1.65l-.15.375-2.55.75v2.1l2.7.825.075.375c.15.525.375 1.05.675 1.575l.225.375-1.35 2.475 1.5 1.5 2.475-1.35.375.225 1.575.675.37503.075.825 2.7h2.1l.825-2.7.375-.075c.525-.15 1.05-.375 1.575-.675l.375-.225 2.475 1.35 1.5-1.5-1.35-2.475.225-.375.675-1.575zm-12.97422-1.875c0-2.925 2.325-5.25 5.25002-5.25 2.925 0 5.25 2.325 5.25 5.25s-2.325 5.25-5.25 5.25c-2.92502 0-5.25002-2.325-5.25002-5.25zm1.5 0c0 2.1 1.65002 3.75 3.75002 3.75s3.75-1.65 3.75-3.75-1.65-3.75-3.75-3.75-3.75002 1.65-3.75002 3.75z" fill-rule="evenodd"/></g></svg>