<svg width="24" height="24" viewBox="0 0 24 24" fill="none" xmlns="http://www.w3.org/2000/svg">
<path fill-rule="evenodd" clip-rule="evenodd" d="M12 24C18.6274 24 24 18.6274 24 12C24 5.37258 18.6274 0 12 0C5.37258 0 0 5.37258 0 12C0 18.6274 5.37258 24 12 24ZM16.5095 5.49723L17.1743 7.4917L18.0054 6.61912V5.12327L16.468 4.5L15.2214 5.49723H16.5095ZM16.759 8.572L16.0111 6.20357H13.9335L14.4737 7.86562H11.856H11.8559H9.19669L9.73685 6.20357H7.70084L6.91136 8.572L5 13.849L11.8559 19.5V19.5L11.856 19.5L11.856 19.5V19.5L18.6704 13.849L16.759 8.572ZM13.8089 12.2285V11.1482L15.3463 10.5249L15.554 11.2313L13.8089 12.2285ZM6.4957 7.49169L7.16052 5.49722L8.44861 5.53877L7.20207 4.54154L5.66467 5.12326V6.61911L6.4957 7.49169ZM9.86151 12.2285L8.11635 11.2313L8.32411 10.5249L9.86151 11.1482V12.2285Z" fill="#999999"/>
</svg>
