<?xml version="1.0" encoding="utf-8"?>
<!-- Generator: Adobe Illustrator 24.0.1, SVG Export Plug-In . SVG Version: 6.00 Build 0)  -->
<svg version="1.1" id="home" xmlns="http://www.w3.org/2000/svg" xmlns:xlink="http://www.w3.org/1999/xlink" x="0px" y="0px"
	 viewBox="0 0 67.5 90" style="enable-background:new 0 0 67.5 90;" xml:space="preserve">
<style type="text/css">
	.st0{fill:none;}
	.st1{fill:#FD3B4C;}
	.st2{fill-rule:evenodd;clip-rule:evenodd;fill:#F4863B;}
	.st3{fill:#FFFFFF;}
	.st4{fill-rule:evenodd;clip-rule:evenodd;fill:#5C7BFC;}
	.st5{fill-rule:evenodd;clip-rule:evenodd;fill:#FEB92B;}
	.st6{fill-rule:evenodd;clip-rule:evenodd;fill:#3EAF66;}
	.st7{fill:#8F4DDB;}
	.st8{fill:#1D1E22;}
	.st9{fill:#FD565F;}
	.st10{fill:#25282D;}
	.st11{fill:#E6E6E6;}
	.st12{fill-rule:evenodd;clip-rule:evenodd;fill:#FD3B4C;}
	.st13{fill-rule:evenodd;clip-rule:evenodd;fill:#FFFFFF;}
	.st14{fill:#12B263;}
	.st15{fill:#3EAF66;}
	.st16{fill:#DC001A;}
	.st17{fill:#F6504B;}
	.st18{fill:#DB001A;}
	.st19{fill:#F54F4A;}
	.st20{fill:#231F20;}
	.st21{fill-rule:evenodd;clip-rule:evenodd;}
</style>
<path d="M33.7,75c4,0.5,7.5,2.8,9.4,6.4c0.4,0.6,0.9,1.2,1.3,1.7c0.7,0.7,0.7,1.9,0,2.6c-0.6,0.6-1.4,0.7-2.1,0.3
	c-0.2-0.1-0.3-0.2-0.5-0.3c-0.6-0.7-1.2-1.4-1.7-2.1c-1.6-2.1-3.6-4.8-6.3-4.8c-2,0-3.5,5.6-3.7,9.5c-0.1,1-0.9,1.8-1.9,1.8H28
	c-1-0.1-1.8-0.9-1.8-2c0,0,0,0,0,0c0-0.3,0.1-0.8,0.1-1.5c0.1-1.2,0.3-2.4,0.6-3.6c0.1-0.4,0.2-0.8,0.3-1.2c0.2-0.6,0.4-1.2,0.6-1.8
	c0.1-0.2,0.2-0.5,0.3-0.7C29.4,76.9,31.1,75,33.7,75z M26.1,64.9c0,0.1,0,0.1,0.1,0.2c0,0,0,0,0,0c0.4,1.3,0.6,2.7,0.6,4.1
	c0,0.2,0,0.3,0,0.5c0,0.7-0.1,1.4-0.2,2.1c0,0.2-0.1,0.5-0.1,0.7c-0.2,1.1-0.4,2.2-0.7,3.2c-1.4,4.7-4.3,9.1-8.2,10.4
	c-0.5,0.1-1,0.1-1.4-0.1c0,0,0,0,0,0l-0.1,0c-0.1,0-0.1-0.1-0.2-0.1c0,0,0,0,0,0c-0.1-0.1-0.2-0.1-0.2-0.2c-0.2-0.2-0.3-0.4-0.4-0.7
	c-0.3-1,0.2-2,1.2-2.3c2-0.7,3.8-2.9,5-5.6c1.6-3.6,2.2-7.9,1.3-10.8c-0.4-1,0.1-2.1,1.1-2.4S25.7,63.9,26.1,64.9L26.1,64.9z
	 M32.1,37.9l0.3,0l0.1,0c0.1,0,0.2,0,0.3,0c0.1,0,0.2,0,0.3,0c0.1,0,0.3,0,0.4,0.1l0.2,0c0.1,0,0.3,0.1,0.4,0.1c0.1,0,0.2,0,0.3,0.1
	c0.1,0,0.2,0.1,0.3,0.1c0.1,0,0.2,0.1,0.3,0.1c0.1,0,0.3,0.1,0.4,0.1l0.2,0.1c0.1,0.1,0.2,0.1,0.4,0.2c0.1,0.1,0.2,0.1,0.3,0.2
	s0.2,0.1,0.3,0.1s0.2,0.1,0.3,0.2s0.2,0.1,0.3,0.2s0.2,0.1,0.3,0.2c0.1,0.1,0.2,0.1,0.2,0.2s0.2,0.1,0.3,0.2
	c0.1,0.1,0.2,0.2,0.3,0.3c0,0,0.1,0.1,0.1,0.1c0.1,0.1,0.2,0.2,0.3,0.3l0.1,0.1c0.1,0.1,0.2,0.2,0.2,0.3c0.1,0.1,0.1,0.1,0.2,0.2
	c0.1,0.1,0.1,0.1,0.1,0.2c0.1,0.1,0.2,0.3,0.3,0.4l0.1,0.1c0.4,0.5,0.7,1,0.9,1.6c0.1,0.3,0.2,0.5,0.3,0.8
	c2,6.9,15.5,17.6,20.7,21.7c0.8,0.6,1,1.8,0.4,2.6s-1.8,1-2.6,0.4l0,0l-0.1-0.1l0,0c-9.7-7.7-19.9-16.5-21.9-23.6
	c-0.6-2.2-2.5-3.8-4.7-4c-0.1,0-0.1,0-0.2,0l0.2,0c-0.2,0-0.4,0-0.5,0c-3.1,0-5.7,2.4-5.7,5.5c0,0.6,0.1,1.1,0.2,1.6
	c3.1,10.7,14.9,20.7,25.7,29.3c0.8,0.6,0.9,1.8,0.3,2.6c-0.4,0.4-0.9,0.7-1.5,0.7c0,0,0,0,0,0h0H51c0,0-0.1,0-0.1,0l0.2,0
	c-0.2,0-0.3,0-0.5-0.1c0,0,0,0-0.1,0c-0.1,0-0.2-0.1-0.3-0.1c0,0,0,0,0,0c-0.1-0.1-0.2-0.1-0.3-0.2c-11-8.7-23-18.9-26.7-30.3
	c-0.1-0.3-0.2-0.6-0.3-0.9c-0.1-0.4-0.2-0.8-0.2-1.2c0-0.1,0-0.2,0-0.3c0-0.1,0-0.3,0-0.4l0,0.4c0-0.2,0-0.5,0-0.7
	c0-0.1,0-0.2,0-0.4l0,0.4c0-0.2,0-0.4,0-0.6s0-0.4,0.1-0.6c0,0,0-0.1,0-0.1c0-0.2,0.1-0.4,0.1-0.6c0,0,0-0.1,0-0.1
	c0-0.1,0.1-0.3,0.1-0.4c0-0.1,0-0.1,0.1-0.2c0-0.1,0-0.1,0.1-0.2c0-0.1,0.1-0.3,0.1-0.4c0-0.1,0.1-0.2,0.1-0.3
	c0-0.1,0.1-0.2,0.1-0.3s0.1-0.2,0.1-0.3s0.1-0.2,0.2-0.3c0-0.1,0.1-0.2,0.1-0.3c0.1-0.1,0.1-0.2,0.2-0.3c0-0.1,0.1-0.1,0.1-0.2
	c0.1-0.1,0.2-0.2,0.3-0.4c0.1-0.1,0.1-0.2,0.2-0.3c0-0.1,0.1-0.1,0.1-0.2c0.1-0.1,0.2-0.2,0.3-0.3s0.2-0.2,0.2-0.2s0.2-0.2,0.3-0.3
	c0.1-0.1,0.1-0.1,0.2-0.2c0.1-0.1,0.2-0.2,0.3-0.3c0.1-0.1,0.2-0.1,0.2-0.2c0.1-0.1,0.2-0.1,0.2-0.2c0.1-0.1,0.2-0.2,0.4-0.2
	c0.1-0.1,0.2-0.1,0.3-0.2c0.1-0.1,0.2-0.1,0.3-0.1c0.1-0.1,0.2-0.1,0.3-0.2c0.1-0.1,0.3-0.1,0.4-0.2l0.2-0.1
	c0.2-0.1,0.3-0.1,0.5-0.2l0.1,0l0,0c0.1,0,0.2-0.1,0.4-0.1L29,38.4c0.3-0.1,0.5-0.2,0.8-0.2l0,0l0.1,0c0.2,0,0.4-0.1,0.5-0.1
	l-0.7,0.1c0.3-0.1,0.6-0.1,0.9-0.2c0.1,0,0.3,0,0.5-0.1c0.1,0,0.2,0,0.3,0c0.1,0,0.3,0,0.4,0C31.9,37.9,32,37.9,32.1,37.9L32.1,37.9
	z M47.5,40.6l0.2,0.6c0.1,0.4,0.3,0.7,0.4,1.1c0.1,0.3,0.2,0.6,0.4,0.9c1.1,2.1,4.5,6,16.5,15.4c0.8,0.6,1,1.8,0.4,2.6
	s-1.8,1-2.6,0.4l0,0l-0.1-0.1l0,0C47.2,49.3,45.2,45.8,44.5,43.3c-0.7-2.3-2-4.5-3.8-6.1c-0.1,0-0.1-0.1-0.2-0.1l0.2,0.1
	c-0.2-0.1-0.3-0.3-0.5-0.4l0.3,0.3c-0.2-0.2-0.4-0.3-0.6-0.5l0.2,0.2c-0.2-0.1-0.4-0.3-0.5-0.4l0.3,0.2c-0.2-0.2-0.4-0.3-0.6-0.5
	l0.3,0.2c-0.2-0.1-0.4-0.3-0.6-0.4l0.2,0.2c-3.2-2.2-7.3-2.9-11-1.8c-6.9,2.2-10.8,9.4-9,16.3c3.7,17,1.6,24.2-8.4,27.7
	c-0.3,0.1-0.7,0.2-1,0.3c-0.1,0-0.2,0.1-0.3,0.1l0.3-0.1c-0.1,0-0.3,0.1-0.4,0.1c0,0-0.1,0-0.1,0H9.3c-0.1,0-0.1,0-0.2,0l0.3,0
	c-0.2,0-0.3,0-0.4-0.1c0,0-0.1,0-0.1,0c-0.1,0-0.2-0.1-0.2-0.1l-0.1,0c-0.3-0.2-0.6-0.4-0.7-0.7c0-0.1-0.1-0.1-0.1-0.2
	c0-0.1,0-0.1-0.1-0.2l0-0.1l0-0.1c0-0.1,0-0.2,0-0.2l0.1,0.3c0-0.1-0.1-0.3-0.1-0.5c0,0,0-0.1,0-0.1v-0.1c0-0.1,0-0.1,0-0.2l0,0.3
	c0-0.2,0-0.3,0.1-0.4c0,0,0-0.1,0-0.1c0-0.1,0-0.1,0.1-0.2c0,0,0-0.1,0.1-0.1c0-0.1,0.1-0.1,0.1-0.2c0,0,0-0.1,0.1-0.1
	C8,75.6,8,75.6,8.1,75.5c0,0,0.1-0.1,0.1-0.1c0.1-0.1,0.1-0.1,0.2-0.1c0,0,0.1,0,0.1-0.1c0.1-0.1,0.2-0.1,0.3-0.1
	c7.8-2.4,10.6-6.4,6.8-23.6c-1.1-4.4-0.5-9,1.7-12.9c0.2-0.3,0.4-0.6,0.6-0.9c2.2-3.3,5.5-5.7,9.2-6.9c0.6-0.2,1.2-0.3,1.7-0.4
	l0.9-0.1C37.4,29.3,44.6,33.5,47.5,40.6L47.5,40.6z M33.6,46.3L33.6,46.3L33.6,46.3c2.6,9.1,13.2,17.2,19.6,22
	c0.7,0.5,1.5,1.1,2.2,1.6c0.6,0.5,1.2,0.9,1.7,1.4c0.2,0.1,0.3,0.3,0.5,0.4c0.7,0.7,0.7,1.9-0.1,2.6c-0.7,0.7-1.9,0.7-2.6,0
	c-0.6-0.5-1.3-1.1-1.9-1.6c-0.7-0.5-1.3-1.1-2-1.6C44.2,66.2,33,57.7,30,47.4l0-0.2l0-0.2c-0.1-1,0.7-1.9,1.7-2
	C32.6,44.9,33.4,45.5,33.6,46.3L33.6,46.3z M55.1,39.5c0.3,0.2,0.9,0.8,1.9,1.6c0.1,0.1,0.3,0.2,0.4,0.4c0.8,0.7,1.9,1.5,2.9,2.4
	l0.1,0.1l1,0.8c0.8,0.7,1.6,1.3,2.4,2l0.2,0.1l0.9,0.7c0.7,0.6,1.3,1.1,1.9,1.6l0,0.1l0.2,0.2c0.7,0.8,0.5,2-0.3,2.6
	c-0.7,0.6-1.7,0.6-2.4,0c-12-9.8-12.4-10.5-12.6-10.8c-0.1-0.1-0.1-0.3-0.2-0.4c-3-9.7-12.5-15.7-22.5-14.4l-1,0.2
	c-0.6,0.1-1.3,0.3-1.9,0.4l-0.4,0.1l-0.5,0.2c-0.5,0.2-0.9,0.3-1.3,0.5c-0.8,0.3-1.5,0.7-2.2,1.1L21,29.4c-1,0.6-1.9,1.3-2.8,2.1
	c0,0-0.1,0.1-0.1,0.1l0.1-0.1c-0.9,0.8-1.6,1.6-2.4,2.5c-0.1,0.1-0.2,0.2-0.3,0.4c-3.8,4.9-5.2,11.3-3.7,17.4l0.2,0.9l0,0
	c0.5,1.6,0.8,3.2,0.9,4.8c0.6,8.1-4.1,12.6-9,14.1c-0.3,0.1-0.6,0.1-0.9,0.1l0.3,0c-0.1,0-0.2,0-0.3,0c-0.3-0.1-0.6-0.2-0.9-0.4
	c0,0-0.1-0.1-0.1-0.1l0.1,0.1c-0.8-0.7-0.9-1.9-0.2-2.6c0.2-0.3,0.5-0.5,0.9-0.6c2.1-0.7,8.7-3.6,5.6-14.3C6.5,47,7.5,39.8,11.2,34
	c0.2-0.3,0.4-0.6,0.6-0.8c1.3-1.9,2.8-3.6,4.6-5c0.2-0.1,0.3-0.3,0.5-0.4c0.3-0.3,0.7-0.5,1.1-0.8c0.2-0.1,0.4-0.2,0.5-0.4
	c1.4-0.9,2.9-1.7,4.5-2.3c0.7-0.3,1.4-0.5,2.2-0.7C37.8,19.9,51,27,55.1,39.5L55.1,39.5z M1.9,52.5c1,0,1.9,0.8,1.9,1.9c0,0,0,0,0,0
	c0.1,0.5,0.2,1,0.3,1.5c0.3,1.1,0.8,2.3,1.3,3.3c0.1,0.1,0.1,0.2,0.1,0.3l-0.1-0.3c0.1,0.1,0.1,0.3,0.1,0.4c0,0.1,0,0.2,0,0.2
	c0,0,0,0.1,0,0.1s0,0.1,0,0.1v0.1c0,0.1,0,0.1,0,0.2l0-0.3c0,0.3-0.1,0.6-0.2,0.8c0,0,0,0.1,0,0.1c-0.1,0.2-0.3,0.4-0.5,0.5l0,0
	c-0.1,0.1-0.2,0.1-0.2,0.2l-0.1,0l-0.1,0c0,0-0.1,0-0.1,0.1l0,0l-0.2,0.1h0l0,0l-0.3,0l0,0c-0.7,0-1.4-0.4-1.7-1
	c-1.1-2-1.8-4.2-2.1-6.5C0,53.4,0.8,52.5,1.9,52.5C1.9,52.5,1.9,52.5,1.9,52.5z M31.9,15c16.6,0,23,9.2,27.5,16.4
	c0.1,0.1,0.2,0.3,0.3,0.4c0.1,0.1,0.2,0.3,0.3,0.4c0.3,0.4,0.5,0.8,0.8,1.2c0.2,0.3,0.4,0.6,0.5,0.8c1.6,2.5,3.2,4.5,5,5.1
	c0.1,0,0.3,0.1,0.4,0.2l-0.3-0.1c0.1,0,0.3,0.1,0.4,0.2c0.1,0,0.2,0.1,0.2,0.2l0.1,0.1c0.1,0.1,0.1,0.1,0.2,0.2l0.1,0.1
	c0,0.1,0.1,0.1,0.1,0.2c0,0,0,0,0,0.1c0.1,0.2,0.1,0.4,0.2,0.6c0,0,0,0.1,0,0.1c0,0.1,0,0.2,0,0.2c0,0,0,0.1,0,0.1
	c0,0.1,0,0.1-0.1,0.2c0,0,0,0,0,0c-0.1,0.2-0.1,0.3-0.2,0.5c0,0-0.1,0.1-0.1,0.1c0,0.1-0.1,0.1-0.2,0.2l-0.1,0.1
	c-0.5,0.4-1.1,0.5-1.7,0.3c0,0,0,0,0,0c0,0,0,0,0,0c-3-1-5-3.6-7.1-6.7c-0.3-0.4-0.6-0.9-0.8-1.3c-0.1-0.2-0.3-0.5-0.4-0.7
	c-4.1-6.7-9.3-15-23.4-15.5l-1.4,0l0,0c-0.7,0-1.4,0-2,0.1l-1,0.1c-14.2,1.6-25,13.6-25,27.9c0,0.9-0.6,1.7-1.5,1.8l-0.3,0l0,0
	c-1,0-1.9-0.8-1.9-1.9C0,29.3,14.3,15.1,31.9,15z M63.2,23.1l0.2,0.3c1.6,2.5,2.9,5.2,3.9,7.9c0.3,1-0.2,2-1.2,2.4
	c-1,0.3-2-0.2-2.4-1.2c0,0,0,0,0-0.1l-0.7-1.8l-0.1-0.3c-0.8-1.7-1.7-3.4-2.7-5c-0.3-0.5-0.4-1.2-0.1-1.8c0.2-0.3,0.4-0.6,0.7-0.8
	C61.6,22.4,62.6,22.5,63.2,23.1z M30,7.6c8.7-0.1,17.2,2.4,24.4,7.1c0.3,0.2,0.6,0.4,0.9,0.6c1.6,1.1,3,2.4,4.1,4l0.3,0.4l0.2,0.3
	c0.1,0.4,0.1,0.9,0,1.3c0,0.1-0.1,0.2-0.1,0.2c-0.1,0.2-0.2,0.4-0.4,0.5c-0.1,0.1-0.2,0.2-0.3,0.2c-0.1,0.1-0.2,0.1-0.3,0.2l0.3-0.2
	c-0.1,0.1-0.3,0.1-0.4,0.2c-0.1,0-0.2,0-0.3,0.1c0,0-0.1,0-0.1,0c-0.1,0-0.1,0-0.2,0c-0.1,0-0.2,0-0.2,0l0.2,0c-0.1,0-0.3,0-0.4-0.1
	l-0.1,0c-0.1,0-0.1,0-0.2-0.1c-0.1,0-0.1-0.1-0.2-0.1c0,0-0.1-0.1-0.1-0.1c-0.1,0-0.1-0.1-0.2-0.1c-0.1-0.1-0.3-0.3-0.4-0.4
	c-0.1-0.2-0.3-0.4-0.5-0.6l-0.3-0.4c-3-3.3-12-8.9-24.4-9.3l-1.4,0l0,0c-14.5,0-22.5,7.2-24.5,10.1l-0.2,0.3l-0.1,0.1L5.1,22
	c-0.7,0.8-1.9,0.9-2.6,0.2c-0.7-0.6-0.9-1.6-0.4-2.4c0,0,0-0.1,0.1-0.1l0,0l0.1-0.2l0.1-0.1c0-0.1,0.1-0.1,0.1-0.2
	c0.4-0.6,0.9-1.2,1.4-1.7c2.1-2.2,4.5-4,7.2-5.4C16.9,9,23.4,7.4,30,7.6z M49.1,3.1L50,3.5l0.1,0l0.2,0.1c0.3,0.1,0.6,0.2,0.9,0.3
	c1,0.3,1.5,1.4,1.2,2.4c0,0,0,0,0,0c-0.2,0.7-0.8,1.2-1.5,1.3l-0.3,0l0,0c-0.2,0-0.4,0-0.6-0.1c-0.8-0.3-1.5-0.5-2.2-0.8
	C42.1,4.4,36.1,3.5,30,3.8c-9,0-11,1-13.8,2.5c-0.7,0.4-1.4,0.7-2.3,1.1c-0.1,0.1-0.3,0.1-0.4,0.1l0.3-0.1c-1,0.4-2-0.1-2.4-1
	c-0.4-1,0.1-2.1,1-2.4c0.8-0.4,1.5-0.7,2.1-1l0.4-0.2l0.8-0.4c1.9-0.9,3.9-1.6,6-1.8c0.7-0.1,1.4-0.2,2.2-0.2l0.9-0.1
	c1.5-0.1,3.2-0.2,5.3-0.2C36.5-0.3,43,0.8,49.1,3.1L49.1,3.1z"/>
</svg>
