<?xml version="1.0" encoding="utf-8"?>
<!-- Generator: Adobe Illustrator 24.0.1, SVG Export Plug-In . SVG Version: 6.00 Build 0)  -->
<svg version="1.1" id="home" xmlns="http://www.w3.org/2000/svg" xmlns:xlink="http://www.w3.org/1999/xlink" x="0px" y="0px"
	 viewBox="0 0 24 24" style="enable-background:new 0 0 24 24;" xml:space="preserve">
<style type="text/css">
	.st0{fill:none;}
	.st1{fill:#FD3B4C;}
	.st2{fill-rule:evenodd;clip-rule:evenodd;fill:#F4863B;}
	.st3{fill:#FFFFFF;}
	.st4{fill-rule:evenodd;clip-rule:evenodd;fill:#5C7BFC;}
	.st5{fill-rule:evenodd;clip-rule:evenodd;fill:#FEB92B;}
	.st6{fill-rule:evenodd;clip-rule:evenodd;fill:#3EAF66;}
	.st7{fill:#8F4DDB;}
	.st8{fill:#1D1E22;}
	.st9{fill:#FD565F;}
	.st10{fill:#25282D;}
	.st11{fill:#E6E6E6;}
	.st12{fill-rule:evenodd;clip-rule:evenodd;fill:#FD3B4C;}
	.st13{fill-rule:evenodd;clip-rule:evenodd;fill:#FFFFFF;}
	.st14{fill:#12B263;}
	.st15{fill:#3EAF66;}
	.st16{fill:#DC001A;}
	.st17{fill:#F6504B;}
	.st18{fill:#DB001A;}
	.st19{fill:#F54F4A;}
	.st20{fill:#231F20;}
	.st21{fill-rule:evenodd;clip-rule:evenodd;}
</style>
<g>
	<path d="M11.5,1.9H11c-6.1,0-11.1,5-11.1,11.1c0,5.6,4.3,10.4,9.8,11v0.1H11c6.1,0,11.1-5,11.1-11.1v-0.5H11.5V1.9z M1.7,13.1
		c0-4.7,3.4-8.6,8-9.2v18.5C5.1,21.6,1.7,17.7,1.7,13.1z M19.2,17.5l-5.4-3.1h6.5C20.1,15.5,19.7,16.6,19.2,17.5z M11.5,22.4v-7.3
		l6.7,3.9C16.5,21,14.1,22.2,11.5,22.4z"/>
	<path d="M12.8,0.2h-0.5v11.6h11.6v-0.5C23.9,5.1,18.9,0.2,12.8,0.2z M14.1,9.9V2.1c4.1,0.6,7.3,3.8,7.9,7.9H14.1z"/>
</g>
</svg>
