<svg width="48" height="48" viewBox="0 0 48 48" fill="none" xmlns="http://www.w3.org/2000/svg">
<path d="M24 48C37.2548 48 48 37.2548 48 24C48 10.7452 37.2548 0 24 0C10.7452 0 0 10.7452 0 24C0 37.2548 10.7452 48 24 48Z" fill="#FD565F"/>
<path transform="translate(11 12.5)" d="M16.6562 22.8024H9.35741C8.52165 22.7999 7.70116 22.5783 6.97781 22.1596C6.25446 21.741 5.65355 21.1399 5.23506 20.4165L1.57859 14.0918C1.16239 13.3681 0.943359 12.5478 0.943359 11.7129C0.943359 10.8781 1.16239 10.0578 1.57859 9.33413L5.23506 3.00942C5.65355 2.28598 6.25446 1.68495 6.97781 1.2663C7.70116 0.847646 8.52165 0.626019 9.35741 0.623535H16.6562C17.492 0.626019 18.3125 0.847646 19.0358 1.2663C19.7592 1.68495 20.3601 2.28598 20.7786 3.00942L24.4351 9.33413C24.8513 10.0578 25.0703 10.8781 25.0703 11.7129C25.0703 12.5478 24.8513 13.3681 24.4351 14.0918L20.7786 20.4165C20.3601 21.1399 19.7592 21.741 19.0358 22.1596C18.3125 22.5783 17.492 22.7999 16.6562 22.8024ZM9.34329 2.16236C8.77779 2.16511 8.22272 2.31493 7.73264 2.5971C7.24255 2.87927 6.8343 3.28409 6.548 3.77177L2.89153 10.0965C2.60721 10.5852 2.45743 11.1405 2.45743 11.7059C2.45743 12.2713 2.60721 12.8266 2.89153 13.3153L6.548 19.64C6.83334 20.1285 7.24137 20.5341 7.73168 20.8163C8.22198 21.0986 8.77753 21.2479 9.34329 21.2494H16.6421C17.2076 21.2467 17.7627 21.0969 18.2528 20.8147C18.7429 20.5325 19.1511 20.1277 19.4374 19.64L23.0939 13.3153C23.3782 12.8266 23.528 12.2713 23.528 11.7059C23.528 11.1405 23.3782 10.5852 23.0939 10.0965L19.4374 3.77177C19.1521 3.28323 18.744 2.87773 18.2537 2.59543C17.7634 2.31314 17.2079 2.16385 16.6421 2.16236H9.34329Z" fill="white"/>
<path transform="translate(19 18.5)" d="M5.00011 10.5483C4.04518 10.5483 3.11169 10.2652 2.31769 9.73462C1.52369 9.20408 0.904842 8.45002 0.539404 7.56777C0.173967 6.68553 0.078352 5.71473 0.264651 4.77814C0.450949 3.84156 0.910793 2.98125 1.58603 2.30601C2.26128 1.63076 3.12158 1.17092 4.05817 0.984621C4.99476 0.798322 5.96555 0.893938 6.8478 1.25938C7.73004 1.62481 8.48411 2.24366 9.01464 3.03766C9.54518 3.83166 9.82835 4.76515 9.82835 5.72008C9.82648 7.00004 9.31719 8.22703 8.41213 9.1321C7.50706 10.0372 6.28007 10.5465 5.00011 10.5483ZM5.00011 2.41655C4.34953 2.41655 3.71355 2.60947 3.17261 2.97092C2.63167 3.33237 2.21006 3.8461 1.96109 4.44716C1.71212 5.04822 1.64698 5.70962 1.77391 6.3477C1.90083 6.98578 2.21411 7.5719 2.67415 8.03193C3.13418 8.49196 3.7203 8.80525 4.35838 8.93218C4.99646 9.0591 5.65786 8.99396 6.25892 8.74499C6.85998 8.49602 7.37371 8.07441 7.73516 7.53347C8.0966 6.99253 8.28952 6.35655 8.28952 5.70597C8.28878 4.83379 7.94198 3.99755 7.32525 3.38083C6.70853 2.7641 5.87229 2.4173 5.00011 2.41655Z" fill="white"/>
</svg>
