<?xml version="1.0" encoding="utf-8"?>
<!-- Generator: Adobe Illustrator 24.0.1, SVG Export Plug-In . SVG Version: 6.00 Build 0)  -->
<svg version="1.1" id="home" xmlns="http://www.w3.org/2000/svg" xmlns:xlink="http://www.w3.org/1999/xlink" x="0px" y="0px"
	 viewBox="0 0 140 47.6" style="enable-background:new 0 0 140 47.6;" xml:space="preserve">
<style type="text/css">
	.st0{fill:none;}
	.st1{fill:#FD3B4C;}
	.st2{fill-rule:evenodd;clip-rule:evenodd;fill:#F4863B;}
	.st3{fill:#FFFFFF;}
	.st4{fill-rule:evenodd;clip-rule:evenodd;fill:#5C7BFC;}
	.st5{fill-rule:evenodd;clip-rule:evenodd;fill:#FEB92B;}
	.st6{fill-rule:evenodd;clip-rule:evenodd;fill:#3EAF66;}
	.st7{fill:#8F4DDB;}
	.st8{fill:#1D1E22;}
	.st9{fill:#FD565F;}
	.st10{fill:#25282D;}
	.st11{fill:#E6E6E6;}
	.st12{fill-rule:evenodd;clip-rule:evenodd;fill:#FD3B4C;}
	.st13{fill-rule:evenodd;clip-rule:evenodd;fill:#FFFFFF;}
	.st14{fill:#12B263;}
	.st15{fill:#3EAF66;}
	.st16{fill:#DC001A;}
	.st17{fill:#F6504B;}
	.st18{fill:#DB001A;}
	.st19{fill:#F54F4A;}
	.st20{fill:#231F20;}
	.st21{fill-rule:evenodd;clip-rule:evenodd;}
</style>
<path id="Combined-Shape" d="M31.6,0v1.7h107.2c0.6,0,1.1,0.5,1.2,1.1l0,0.1v43.5c0,0.6-0.5,1.1-1.1,1.2l-0.1,0H1.2
	c-0.6,0-1.1-0.5-1.2-1.1l0-0.1V2.8c0-0.6,0.5-1.1,1.1-1.2l0.1,0h15.9V0H31.6z M138.6,3.1H1.4v43.1h137.2V3.1z M117.6,15.8
	c5.7,0,10.3,4.6,10.3,10.3c0,5.7-4.6,10.3-10.3,10.3c-5.7,0-10.3-4.6-10.3-10.3c0,0,0,0,0,0C107.3,20.4,111.9,15.8,117.6,15.8
	C117.6,15.8,117.6,15.8,117.6,15.8z M117.6,17.2c-4.9,0-8.9,4-8.9,8.9c0,4.9,4,8.9,8.9,8.9c4.9,0,8.9-4,8.9-8.9c0,0,0,0,0,0
	C126.5,21.2,122.5,17.2,117.6,17.2C117.6,17.2,117.6,17.2,117.6,17.2z M36.2,21c1.1,0,2,0.9,2,2v3.6c0,1.1-0.9,2-2,2h-3.6
	c-1.1,0-2-0.9-2-2V23c0-1.1,0.9-2,2-2H36.2z M34.9,23h-1v1.4h-1.4v1h1.4v1.4h1v-1.4h1.4v-1h-1.4L34.9,23z M53.3,21c1.1,0,2,0.9,2,2
	v3.6c0,1.1-0.9,2-2,2h-3.6c-1.1,0-2-0.9-2-2V23c0-1.1,0.9-2,2-2H53.3z M54.1,21.8l-0.8,0.8c-1.2-1-3-0.7-4,0.5c-0.8,1-0.8,2.5,0,3.5
	l-0.6,0.6l0.7,0.7l0.6-0.6c1.3,0.9,3.1,0.5,3.9-0.8c0.6-0.9,0.6-2.2,0-3.1l0.8-0.8L54.1,21.8z M53.5,24.8c0,1.1-0.9,2-2,2
	c-0.3,0-0.6-0.1-0.9-0.2l2.6-2.6C53.4,24.2,53.5,24.5,53.5,24.8z M51.5,22.9c0.4,0,0.8,0.1,1.1,0.3l-2.7,2.7
	c-0.6-0.9-0.4-2.1,0.5-2.7C50.8,23,51.1,22.9,51.5,22.9z M41.7,34.2c0.4,0,0.8-0.1,1.1-0.3l0,0v-0.6c-0.3,0.2-0.7,0.3-1.1,0.3
	c-0.5,0-0.9-0.2-1.2-0.5c-0.3-0.4-0.5-0.8-0.5-1.3c0-0.5,0.2-0.9,0.5-1.3c0.3-0.3,0.7-0.5,1.2-0.5c0.2,0,0.4,0,0.6,0.1
	c0.2,0.1,0.4,0.1,0.5,0.2l0,0v-0.5c-0.3-0.2-0.7-0.3-1.1-0.2c-1.2,0-2.2,0.9-2.2,2.1c0,0.1,0,0.1,0,0.2c0,0.6,0.2,1.2,0.6,1.7
	C40.5,34,41.1,34.2,41.7,34.2L41.7,34.2z M44.9,34.2c0.4,0,0.9-0.2,1.2-0.5c0.3-0.3,0.4-0.8,0.4-1.2c0-0.4-0.1-0.9-0.4-1.2
	c-0.3-0.3-0.7-0.5-1.2-0.5c-0.4,0-0.8,0.2-1.1,0.5c-0.3,0.3-0.4,0.8-0.4,1.2c0,0.4,0.1,0.9,0.4,1.2C44.1,34,44.5,34.2,44.9,34.2
	L44.9,34.2z M44.9,33.7c-0.3,0-0.6-0.1-0.7-0.4c-0.2-0.3-0.3-0.6-0.3-0.9c0-0.3,0.1-0.6,0.3-0.9c0.2-0.2,0.4-0.4,0.7-0.4
	c0.3,0,0.6,0.1,0.8,0.4c0.2,0.3,0.3,0.6,0.3,0.9c0,0.3-0.1,0.6-0.3,0.9C45.5,33.6,45.2,33.7,44.9,33.7L44.9,33.7z M48.1,34.2
	c0.3,0,0.6-0.1,0.8-0.2c0.2-0.2,0.3-0.4,0.3-0.7c0-0.2-0.1-0.4-0.2-0.6c-0.2-0.2-0.4-0.3-0.7-0.4c-0.1-0.1-0.2-0.1-0.3-0.1
	c-0.1,0-0.1-0.1-0.2-0.1c-0.1,0-0.1-0.1-0.2-0.2c0-0.1,0-0.1,0-0.2c0-0.1,0.1-0.2,0.2-0.3c0.1-0.1,0.3-0.1,0.4-0.1
	c0.3,0,0.6,0,0.8,0.2l0,0v-0.5c-0.3-0.1-0.5-0.2-0.8-0.1c-0.3,0-0.6,0.1-0.8,0.2c-0.2,0.2-0.3,0.4-0.3,0.7c0,0.2,0.1,0.4,0.2,0.6
	c0.2,0.2,0.4,0.3,0.6,0.4c0.2,0.1,0.4,0.2,0.6,0.3c0.1,0.1,0.2,0.2,0.2,0.4c0,0.1-0.1,0.2-0.2,0.3c-0.1,0.1-0.3,0.1-0.5,0.1
	c-0.3,0-0.7-0.1-0.9-0.3l0,0V34C47.5,34.1,47.8,34.2,48.1,34.2L48.1,34.2z M50.5,34.1v-1.8c0-0.3,0.1-0.6,0.2-0.8
	c0.1-0.2,0.3-0.3,0.6-0.3c0.4,0,0.6,0.3,0.6,0.8l0,0v2.1h0.5v-1.8c0-0.3,0.1-0.6,0.2-0.8c0.1-0.2,0.3-0.3,0.6-0.3
	c0.4,0,0.6,0.3,0.6,0.8l0,0v2.1h0.5v-2.3c0-0.3-0.1-0.6-0.3-0.8c-0.2-0.2-0.5-0.3-0.8-0.3c-0.2,0-0.4,0.1-0.6,0.2
	c-0.2,0.1-0.3,0.3-0.4,0.5c-0.1-0.4-0.5-0.7-1-0.6c-0.4,0-0.8,0.2-0.9,0.6l0,0v-0.5h-0.5v3.3L50.5,34.1z M56.6,34.2
	c0.4,0,0.9-0.2,1.2-0.5c0.3-0.3,0.4-0.8,0.4-1.2c0-0.4-0.1-0.9-0.4-1.2c-0.3-0.3-0.7-0.5-1.2-0.5c-0.4,0-0.8,0.2-1.1,0.5
	c-0.3,0.3-0.4,0.8-0.4,1.2c0,0.4,0.1,0.9,0.4,1.2C55.8,34,56.2,34.2,56.6,34.2L56.6,34.2z M56.6,33.7c-0.3,0-0.6-0.1-0.7-0.4
	c-0.2-0.3-0.3-0.6-0.3-0.9c0-0.3,0.1-0.6,0.3-0.9c0.2-0.2,0.4-0.4,0.7-0.4c0.3,0,0.6,0.1,0.8,0.4c0.2,0.3,0.3,0.6,0.3,0.9
	c0,0.3-0.1,0.6-0.3,0.9C57.2,33.6,56.9,33.7,56.6,33.7L56.6,33.7z M59.9,34.2c0.3,0,0.6-0.1,0.8-0.2c0.2-0.2,0.3-0.4,0.3-0.7
	c0-0.2-0.1-0.4-0.2-0.6c-0.2-0.2-0.4-0.3-0.7-0.4c-0.1-0.1-0.2-0.1-0.3-0.1c-0.1,0-0.1-0.1-0.2-0.1c-0.1,0-0.1-0.1-0.2-0.2
	c0-0.1,0-0.1,0-0.2c0-0.1,0.1-0.2,0.2-0.3c0.1-0.1,0.3-0.1,0.4-0.1c0.3,0,0.6,0,0.8,0.2l0,0v-0.5c-0.3-0.1-0.5-0.2-0.8-0.1
	c-0.3,0-0.6,0.1-0.8,0.2c-0.2,0.2-0.3,0.4-0.3,0.7c0,0.2,0.1,0.4,0.2,0.6c0.2,0.2,0.4,0.3,0.6,0.4c0.2,0.1,0.4,0.2,0.6,0.3
	c0.1,0.1,0.2,0.2,0.2,0.4c0,0.1-0.1,0.2-0.2,0.3c-0.1,0.1-0.3,0.1-0.5,0.1c-0.3,0-0.7-0.1-0.9-0.3l0,0V34
	C59.2,34.1,59.5,34.2,59.9,34.2L59.9,34.2z M84.8,14.4v23.8H19.2V14.4H84.8z M83.4,15.8H20.6v21h62.8L83.4,15.8z M70.5,21
	c1.1,0,2,0.9,2,2v3.6c0,1.1-0.9,2-2,2h-3.6c-1.1,0-2-0.9-2-2V23c0-1.1,0.9-2,2-2H70.5z M69.8,25.8h-2.4l1.2,1.9L69.8,25.8z M68.7,22
	l-1.2,3.3h2.4L68.7,22z"/>
</svg>
