<?xml version="1.0" encoding="utf-8"?>
<!-- Generator: Adobe Illustrator 24.0.1, SVG Export Plug-In . SVG Version: 6.00 Build 0)  -->
<svg version="1.1" id="home" xmlns="http://www.w3.org/2000/svg" xmlns:xlink="http://www.w3.org/1999/xlink" x="0px" y="0px"
	 viewBox="0 0 157.8 79.6" style="enable-background:new 0 0 157.8 79.6;" xml:space="preserve">
<style type="text/css">
	.st0{fill:none;}
	.st1{fill:#FD3B4C;}
	.st2{fill-rule:evenodd;clip-rule:evenodd;fill:#F4863B;}
	.st3{fill:#FFFFFF;}
	.st4{fill-rule:evenodd;clip-rule:evenodd;fill:#5C7BFC;}
	.st5{fill-rule:evenodd;clip-rule:evenodd;fill:#FEB92B;}
	.st6{fill-rule:evenodd;clip-rule:evenodd;fill:#3EAF66;}
	.st7{fill:#8F4DDB;}
	.st8{fill:#1D1E22;}
	.st9{fill:#FD565F;}
	.st10{fill:#25282D;}
	.st11{fill:#E6E6E6;}
	.st12{fill-rule:evenodd;clip-rule:evenodd;fill:#FD3B4C;}
	.st13{fill-rule:evenodd;clip-rule:evenodd;fill:#FFFFFF;}
	.st14{fill:#12B263;}
	.st15{fill:#3EAF66;}
	.st16{fill:#DC001A;}
	.st17{fill:#F6504B;}
	.st18{fill:#DB001A;}
	.st19{fill:#F54F4A;}
	.st20{fill:#231F20;}
	.st21{fill-rule:evenodd;clip-rule:evenodd;}
</style>
<g>
	<path d="M40.4,0H4.8C2.1,0,0,2.1,0,4.8v70c0,2.6,2.1,4.8,4.8,4.8h35.7c2.6,0,4.8-2.1,4.8-4.8v-70C45.2,2.1,43.1,0,40.4,0z M43,74.8
		c0,1.4-1.2,2.6-2.6,2.6H4.8c-1.4,0-2.6-1.2-2.6-2.6v-70c0-1.4,1.2-2.6,2.6-2.6h35.7c1.4,0,2.6,1.2,2.6,2.6V74.8z"/>
	<path d="M22.6,67.7c-1.8,0-3.2,1.4-3.2,3.2c0,1.8,1.4,3.2,3.2,3.2c1.8,0,3.2-1.4,3.2-3.2C25.8,69.1,24.4,67.7,22.6,67.7z
		 M22.6,73.3c-1.4,0-2.5-1.1-2.5-2.5c0-1.4,1.1-2.5,2.5-2.5c1.4,0,2.5,1.1,2.5,2.5C25.1,72.2,24,73.3,22.6,73.3z"/>
	<path d="M29,40.4l-5.3-4.9l5.3-4.9c0.1-0.1,0.2-0.3,0.2-0.5c0-0.2-0.1-0.4-0.2-0.5l-5.9-5.9c-0.3-0.3-0.7-0.3-1,0
		c-0.1,0.1-0.2,0.3-0.2,0.5v9.7l-4.7-4.3c-0.3-0.3-0.7-0.2-1,0c-0.3,0.3-0.2,0.7,0,1l5.3,4.9l-5.3,4.9c-0.3,0.3-0.3,0.7,0,1
		c0.3,0.3,0.7,0.3,1,0c0,0,0,0,0,0l4.7-4.3v9.7c0,0.3,0.2,0.5,0.4,0.7c0.1,0,0.2,0.1,0.3,0.1c0.2,0,0.4-0.1,0.5-0.2l5.9-5.9
		C29.3,41.2,29.3,40.8,29,40.4C29,40.5,29,40.5,29,40.4z M23.3,25.9l4.2,4.2l-4.2,3.8V25.9z M23.3,45.2v-8l4.2,3.8L23.3,45.2z"/>
	<path d="M151.3,33c-3.6,0-6.5,2.9-6.5,6.5v33.4c0,1.9,1.5,3.4,3.4,3.4h6.2c1.9,0,3.4-1.5,3.4-3.4V39.5
		C157.8,35.9,154.9,33,151.3,33z M154.4,74.1h-6.2c-0.7,0-1.2-0.5-1.2-1.2V39.5c0-2.4,1.9-4.3,4.3-4.3s4.3,1.9,4.3,4.3v33.4h0
		C155.6,73.6,155,74.1,154.4,74.1z"/>
	<path d="M154.4,4h-6.2c-1.9,0-3.4,1.5-3.4,3.4V34c0.6-0.7,1.4-1.3,2.2-1.8V7.4c0-0.7,0.5-1.2,1.2-1.2h6.2c0.7,0,1.2,0.5,1.2,1.2
		v24.8c0.8,0.5,1.6,1.1,2.2,1.8V7.4C157.8,5.5,156.2,4,154.4,4z"/>
	<path d="M151.2,37.1c-1.7,0-3,1.4-3,3c0,1.7,1.4,3,3,3s3-1.4,3-3C154.2,38.5,152.8,37.1,151.2,37.1z M151.2,42.1
		c-1.1,0-1.9-0.9-1.9-1.9c0-1.1,0.9-1.9,1.9-1.9s1.9,0.9,1.9,1.9C153.1,41.2,152.2,42.1,151.2,42.1z"/>
	<path d="M154.2,11.1c0-1.7-1.4-3-3-3s-3,1.4-3,3c0,1.7,1.4,3,3,3C152.8,14.1,154.2,12.7,154.2,11.1z M149.2,11.1L149.2,11.1
		c0-1.1,0.9-1.9,1.9-1.9c1.1,0,1.9,0.9,1.9,1.9s-0.9,1.9-1.9,1.9C150.1,13,149.2,12.1,149.2,11.1z"/>
</g>
</svg>
