<?xml version="1.0" encoding="utf-8"?>
<!-- Generator: Adobe Illustrator 24.0.1, SVG Export Plug-In . SVG Version: 6.00 Build 0)  -->
<svg version="1.1" id="home" xmlns="http://www.w3.org/2000/svg" xmlns:xlink="http://www.w3.org/1999/xlink" x="0px" y="0px"
	 viewBox="0 0 34 34" style="enable-background:new 0 0 34 34;" xml:space="preserve">
<style type="text/css">
	.st0{fill:none;}
	.st1{fill:#FD3B4C;}
	.st2{fill-rule:evenodd;clip-rule:evenodd;fill:#F4863B;}
	.st3{fill:#FFFFFF;}
	.st4{fill-rule:evenodd;clip-rule:evenodd;fill:#5C7BFC;}
	.st5{fill-rule:evenodd;clip-rule:evenodd;fill:#FEB92B;}
	.st6{fill-rule:evenodd;clip-rule:evenodd;fill:#3EAF66;}
	.st7{fill:#8F4DDB;}
	.st8{fill:#1D1E22;}
	.st9{fill:#FD565F;}
	.st10{fill:#25282D;}
	.st11{fill:#E6E6E6;}
	.st12{fill-rule:evenodd;clip-rule:evenodd;fill:#FD3B4C;}
	.st13{fill-rule:evenodd;clip-rule:evenodd;fill:#FFFFFF;}
	.st14{fill:#12B263;}
	.st15{fill:#3EAF66;}
	.st16{fill:#DC001A;}
	.st17{fill:#F6504B;}
	.st18{fill:#DB001A;}
	.st19{fill:#F54F4A;}
	.st20{fill:#231F20;}
	.st21{fill-rule:evenodd;clip-rule:evenodd;}
</style>
<g>
	<circle class="st1" cx="17" cy="17" r="17"/>
</g>
<g>
	<g>
		<path class="st3" d="M19.6,25.4h-5.2c-1.2,0-2.3-0.6-2.9-1.7l-2.6-4.5c-0.6-1-0.6-2.3,0-3.4l2.6-4.5c0.6-1,1.7-1.7,2.9-1.7h5.2
			c1.2,0,2.3,0.6,2.9,1.7l2.6,4.5c0.6,1,0.6,2.3,0,3.4l-2.6,4.5C21.9,24.7,20.8,25.4,19.6,25.4z M14.4,10.7c-0.8,0-1.6,0.4-2,1.1
			l-2.6,4.5c-0.4,0.7-0.4,1.6,0,2.3l2.6,4.5c0.4,0.7,1.2,1.1,2,1.1h5.2c0.8,0,1.6-0.4,2-1.1l2.6-4.5c0.4-0.7,0.4-1.6,0-2.3v0
			l-2.6-4.5c-0.4-0.7-1.2-1.1-2-1.1H14.4z"/>
	</g>
	<g>
		<path class="st3" d="M17,20.9c-1.9,0-3.4-1.5-3.4-3.4c0-1.9,1.5-3.4,3.4-3.4c1.9,0,3.4,1.5,3.4,3.4C20.4,19.4,18.9,20.9,17,20.9z
			 M17,15.2c-1.3,0-2.3,1-2.3,2.3s1,2.3,2.3,2.3s2.3-1,2.3-2.3S18.3,15.2,17,15.2z"/>
	</g>
</g>
</svg>
