<?xml version="1.0" encoding="utf-8"?>
<!-- Generator: Adobe Illustrator 24.0.1, SVG Export Plug-In . SVG Version: 6.00 Build 0)  -->
<svg version="1.1" id="home" xmlns="http://www.w3.org/2000/svg" xmlns:xlink="http://www.w3.org/1999/xlink" x="0px" y="0px"
	 viewBox="0 0 24 24" style="enable-background:new 0 0 24 24;" xml:space="preserve">
<style type="text/css">
	.st0{fill:none;}
	.st1{fill:#FD3B4C;}
	.st2{fill-rule:evenodd;clip-rule:evenodd;fill:#F4863B;}
	.st3{fill:#FFFFFF;}
	.st4{fill-rule:evenodd;clip-rule:evenodd;fill:#5C7BFC;}
	.st5{fill-rule:evenodd;clip-rule:evenodd;fill:#FEB92B;}
	.st6{fill-rule:evenodd;clip-rule:evenodd;fill:#3EAF66;}
	.st7{fill:#8F4DDB;}
	.st8{fill:#1D1E22;}
	.st9{fill:#FD565F;}
	.st10{fill:#25282D;}
	.st11{fill:#E6E6E6;}
	.st12{fill-rule:evenodd;clip-rule:evenodd;fill:#FD3B4C;}
	.st13{fill-rule:evenodd;clip-rule:evenodd;fill:#FFFFFF;}
	.st14{fill:#12B263;}
	.st15{fill:#3EAF66;}
	.st16{fill:#DC001A;}
	.st17{fill:#F6504B;}
	.st18{fill:#DB001A;}
	.st19{fill:#F54F4A;}
	.st20{fill:#231F20;}
	.st21{fill-rule:evenodd;clip-rule:evenodd;}
</style>
<g>
	<path d="M23,10.8c0-0.1,0-0.1,0-0.2c-0.1-0.7-0.6-1.2-1.1-1.6l-2.2-1.3V2.5c0-1.3-1-2.4-2.3-2.4H6.8c-1.3,0-2.3,1.1-2.3,2.4v5.3
		L2.3,9c-0.6,0.3-1,0.8-1.2,1.4c0,0-0.1,0.2-0.1,0.3V11c0,0,0,0,0,0c0,0,0,0.1,0,0.1V12v9.6C1.1,23,2.1,24,3.5,24h17.2
		C22,24,23,23,23,21.6V11.1C23,11,23,10.9,23,10.8z M19.7,9.7l1,0.6l0.4,0.2l-1.4,0.8V9.7z M6.1,2.5c0-0.4,0.3-0.7,0.7-0.7h10.5
		c0.4,0,0.7,0.3,0.7,0.7v9.8L12,15.7l-5.9-3.4V2.5z M3.1,10.5L3.1,10.5l0.4-0.2l1-0.6v1.6L3.1,10.5C3.1,10.5,3.1,10.5,3.1,10.5z
		 M21.3,21.6c0,0.4-0.3,0.7-0.7,0.7H3.5c-0.4,0-0.7-0.3-0.7-0.7v-9.3v0l8.8,5.1c0.3,0.1,0.6,0.1,0.9,0l8.9-5.1V21.6z"/>
	<path d="M12.1,10.4c0.5,0,0.8-0.4,0.8-0.8c0-0.5-0.4-0.8-0.8-0.8H7.8C7.4,8.7,7,9.1,7,9.5c0,0.5,0.4,0.8,0.8,0.8H12.1
		C12,10.4,12.1,10.4,12.1,10.4z"/>
	<path d="M7.8,7h7.6c0,0,0,0,0,0c0.5,0,0.8-0.4,0.8-0.8c0-0.5-0.4-0.8-0.8-0.8H7.8c0,0,0,0,0,0C7.3,5.3,7,5.7,7,6.1
		C7,6.6,7.4,7,7.8,7z"/>
</g>
</svg>
