<svg width="16" height="16" viewBox="0 0 16 16" fill="none" xmlns="http://www.w3.org/2000/svg">
<path d="M15.6253 6.5099L13.0353 2.03057C12.7869 1.60065 12.4299 1.24358 12 0.995174C11.5701 0.746763 11.0824 0.615737 10.5859 0.615234H5.41792C4.92142 0.615737 4.43377 0.746763 4.00388 0.995174C3.57399 1.24358 3.21696 1.60065 2.96859 2.03057L0.378588 6.5099C0.130731 6.9392 0.000244141 7.42619 0.000244141 7.9219C0.000244141 8.41762 0.130731 8.9046 0.378588 9.3339L2.96926 13.8132C3.21757 14.2431 3.57449 14.6001 4.00426 14.8485C4.43402 15.0969 4.92153 15.2279 5.41792 15.2286H10.5926C11.089 15.2279 11.5765 15.0969 12.0063 14.8485C12.436 14.6001 12.7929 14.2431 13.0413 13.8132L15.6313 9.33523C15.8743 8.90388 16.0016 8.41691 16.0005 7.92178C15.9994 7.42664 15.8702 6.94022 15.6253 6.5099ZM14.5546 8.72523L11.9646 13.2019C11.8242 13.445 11.6224 13.6469 11.3794 13.7873C11.1363 13.9277 10.8606 14.0017 10.5799 14.0019H5.41792C5.13752 14.0003 4.86239 13.9256 4.6196 13.7854C4.3768 13.6451 4.17473 13.444 4.03326 13.2019L1.44925 8.72457C1.31006 8.48213 1.23681 8.20746 1.23681 7.9279C1.23681 7.64835 1.31006 7.37367 1.44925 7.13123L4.03926 2.6519C4.1796 2.40881 4.38143 2.20692 4.62447 2.0665C4.86752 1.92608 5.14323 1.85207 5.42392 1.8519H10.5986C10.879 1.85354 11.1541 1.92817 11.3969 2.06844C11.6397 2.20872 11.8418 2.4098 11.9833 2.6519L14.5739 7.13123C14.7056 7.37681 14.7729 7.65176 14.7695 7.93039C14.7662 8.20903 14.6922 8.48226 14.5546 8.72457V8.72523Z" fill="#AFAFAF"/>
<path d="M8.00184 4.80469C7.38476 4.80469 6.78154 4.98767 6.26846 5.3305C5.75538 5.67333 5.35548 6.16061 5.11933 6.73072C4.88319 7.30082 4.8214 7.92815 4.94179 8.53337C5.06217 9.13859 5.35932 9.69452 5.79566 10.1309C6.232 10.5672 6.78793 10.8644 7.39316 10.9847C7.99838 11.1051 8.6257 11.0433 9.19581 10.8072C9.76592 10.571 10.2532 10.1711 10.596 9.65807C10.9389 9.14499 11.1218 8.54177 11.1218 7.92469C11.1208 7.09754 10.7917 6.30457 10.2068 5.71968C9.62196 5.1348 8.82899 4.80575 8.00184 4.80469ZM8.00184 9.71136C7.64847 9.71136 7.30304 9.60657 7.00922 9.41025C6.7154 9.21393 6.4864 8.93489 6.35117 8.60842C6.21594 8.28195 6.18056 7.92271 6.2495 7.57613C6.31844 7.22955 6.4886 6.91119 6.73847 6.66132C6.98834 6.41145 7.3067 6.24129 7.65328 6.17235C7.99986 6.10341 8.35909 6.13879 8.68557 6.27402C9.01204 6.40925 9.29107 6.63825 9.4874 6.93207C9.68372 7.22589 9.7885 7.57132 9.7885 7.92469C9.7885 8.39854 9.60027 8.85299 9.2652 9.18805C8.93014 9.52312 8.47569 9.71136 8.00184 9.71136Z" fill="#AFAFAF"/>
</svg>
