<?xml version="1.0" encoding="utf-8"?>
<!-- Generator: Adobe Illustrator 24.0.1, SVG Export Plug-In . SVG Version: 6.00 Build 0)  -->
<svg version="1.1" id="home" xmlns="http://www.w3.org/2000/svg" xmlns:xlink="http://www.w3.org/1999/xlink" x="0px" y="0px"
	 viewBox="0 0 26 26" style="enable-background:new 0 0 26 26;" xml:space="preserve">
<style type="text/css">
	.st0{fill:none;}
	.st1{fill:#FD3B4C;}
	.st2{fill-rule:evenodd;clip-rule:evenodd;fill:#F4863B;}
	.st3{fill:#FFFFFF;}
	.st4{fill-rule:evenodd;clip-rule:evenodd;fill:#5C7BFC;}
	.st5{fill-rule:evenodd;clip-rule:evenodd;fill:#FEB92B;}
	.st6{fill-rule:evenodd;clip-rule:evenodd;fill:#3EAF66;}
	.st7{fill:#8F4DDB;}
	.st8{fill:#1D1E22;}
	.st9{fill:#FD565F;}
	.st10{fill:#25282D;}
	.st11{fill:#E6E6E6;}
	.st12{fill-rule:evenodd;clip-rule:evenodd;fill:#FD3B4C;}
	.st13{fill-rule:evenodd;clip-rule:evenodd;fill:#FFFFFF;}
	.st14{fill:#12B263;}
	.st15{fill:#3EAF66;}
	.st16{fill:#DC001A;}
	.st17{fill:#F6504B;}
	.st18{fill:#DB001A;}
	.st19{fill:#F54F4A;}
	.st20{fill:#231F20;}
	.st21{fill-rule:evenodd;clip-rule:evenodd;}
</style>
<path d="M19,21H7c-0.3,0-0.6-0.2-0.7-0.6v-9.4c0.1-0.3,0.4-0.6,0.7-0.6h2.5c0.3,0,0.5,0.3,0.5,0.6c0,0.3-0.2,0.5-0.5,0.5
	c0,0,0,0,0,0H7.4v8.4h11.3v-8.4h-2.5c-0.3,0-0.5-0.2-0.5-0.5c0,0,0,0,0,0c0-0.3,0.2-0.6,0.5-0.6H19c0.4,0,0.6,0.3,0.7,0.6v9.4
	C19.6,20.8,19.3,21,19,21z M13,15.4c-0.3,0-0.5-0.2-0.5-0.5V7l-1.4,1.7c-0.2,0.2-0.5,0.3-0.8,0.1C10.1,8.6,10,8.3,10.2,8
	c0,0,0,0,0,0c0,0,1.6-2,2.4-2.9c0.1,0,0.6-0.2,0.8,0.1L15.8,8c0.1,0.1,0.1,0.2,0.1,0.3c0,0.2-0.1,0.3-0.2,0.4
	c-0.2,0.2-0.6,0.1-0.8-0.1L13.5,7v7.8C13.5,15.1,13.3,15.4,13,15.4z"/>
</svg>
