<?xml version="1.0" encoding="utf-8"?>
<!-- Generator: Adobe Illustrator 24.0.1, SVG Export Plug-In . SVG Version: 6.00 Build 0)  -->
<svg version="1.1" id="home" xmlns="http://www.w3.org/2000/svg" xmlns:xlink="http://www.w3.org/1999/xlink" x="0px" y="0px"
	 viewBox="0 0 24 24" style="enable-background:new 0 0 24 24;" xml:space="preserve">
<style type="text/css">
	.st0{fill:none;}
	.st1{fill:#FD3B4C;}
	.st2{fill-rule:evenodd;clip-rule:evenodd;fill:#F4863B;}
	.st3{fill:#FFFFFF;}
	.st4{fill-rule:evenodd;clip-rule:evenodd;fill:#5C7BFC;}
	.st5{fill-rule:evenodd;clip-rule:evenodd;fill:#FEB92B;}
	.st6{fill-rule:evenodd;clip-rule:evenodd;fill:#3EAF66;}
	.st7{fill:#8F4DDB;}
	.st8{fill:#1D1E22;}
	.st9{fill:#FD565F;}
	.st10{fill:#25282D;}
	.st11{fill:#E6E6E6;}
	.st12{fill-rule:evenodd;clip-rule:evenodd;fill:#FD3B4C;}
	.st13{fill-rule:evenodd;clip-rule:evenodd;fill:#FFFFFF;}
	.st14{fill:#12B263;}
	.st15{fill:#3EAF66;}
	.st16{fill:#DC001A;}
	.st17{fill:#F6504B;}
	.st18{fill:#DB001A;}
	.st19{fill:#F54F4A;}
	.st20{fill:#231F20;}
	.st21{fill-rule:evenodd;clip-rule:evenodd;}
</style>
<path d="M22.5,6.1l-1.3-1.3c-0.2-0.2-0.4-0.3-0.7-0.3c-0.2,0-0.5,0.1-0.7,0.3l-2.3,2.3l-0.6-0.6l2.3-2.3c0.4-0.4,0.4-1,0-1.4
	l-1.3-1.3c-0.2-0.2-0.4-0.3-0.7-0.3c-0.2,0-0.3,0-0.5,0.1c-1.1,0.6-2.6,1.5-3.9,2.5C12,4.5,11.3,5.1,11,6.2
	c-0.3,1.1-0.3,2.1-0.2,2.9l-2.5,2.5l-3.6,3.6l-2.6,2.6c-0.8,0.8-1.1,1.8-0.9,2.9c0.2,1.1,1,2,2.1,2.4c0.3,0.1,0.7,0.2,1,0.2
	c0.9,0,1.8-0.4,2.6-1.2l2.3-2.3l3.6-3.6l2.9-2.9c0.1,0,0.2,0,0.2,0c1.2,0,2.1-0.2,2.8-0.7c0.6-0.4,1.1-1.1,1.5-1.7l0.2-0.3
	c0.7-1,1.4-2.1,2.1-3.4C22.9,6.9,22.8,6.4,22.5,6.1z M19.3,9.8l-0.2,0.3c-0.3,0.5-0.7,1-1.1,1.2c-0.5,0.3-1.2,0.5-2.1,0.5l-0.2,0
	l-0.6,0l-0.4,0.4l-2.9,2.9l-3.6,3.6L6,21c-0.5,0.5-1.1,0.8-1.6,0.8c-0.2,0-0.3,0-0.5-0.1c-0.6-0.3-1.1-0.8-1.2-1.4
	c-0.1-0.6,0.1-1.2,0.5-1.6l2.6-2.6l3.6-3.6l2.5-2.5l0.5-0.5l-0.1-0.7c-0.1-0.6-0.1-1.5,0.1-2.3c0.2-0.6,0.5-1,1.3-1.6
	c1.2-0.9,2.5-1.6,3.5-2.3l0.8,0.8l-2,2l-1,1l1,1l0.6,0.6l1,1l1-1l2-2l0.8,0.8C20.6,8,20,8.9,19.3,9.8z"/>
</svg>
