<?xml version="1.0" encoding="utf-8"?>
<!-- Generator: Adobe Illustrator 24.0.1, SVG Export Plug-In . SVG Version: 6.00 Build 0)  -->
<svg version="1.1" id="home" xmlns="http://www.w3.org/2000/svg" xmlns:xlink="http://www.w3.org/1999/xlink" x="0px" y="0px"
	 viewBox="0 0 34 34" style="enable-background:new 0 0 34 34;" xml:space="preserve">
<style type="text/css">
	.st0{fill:none;}
	.st1{fill:#FD3B4C;}
	.st2{fill-rule:evenodd;clip-rule:evenodd;fill:#F4863B;}
	.st3{fill:#FFFFFF;}
	.st4{fill-rule:evenodd;clip-rule:evenodd;fill:#5C7BFC;}
	.st5{fill-rule:evenodd;clip-rule:evenodd;fill:#FEB92B;}
	.st6{fill-rule:evenodd;clip-rule:evenodd;fill:#3EAF66;}
	.st7{fill:#8F4DDB;}
	.st8{fill:#1D1E22;}
	.st9{fill:#FD565F;}
	.st10{fill:#25282D;}
	.st11{fill:#E6E6E6;}
	.st12{fill-rule:evenodd;clip-rule:evenodd;fill:#FD3B4C;}
	.st13{fill-rule:evenodd;clip-rule:evenodd;fill:#FFFFFF;}
	.st14{fill:#12B263;}
	.st15{fill:#3EAF66;}
	.st16{fill:#DC001A;}
	.st17{fill:#F6504B;}
	.st18{fill:#DB001A;}
	.st19{fill:#F54F4A;}
	.st20{fill:#231F20;}
	.st21{fill-rule:evenodd;clip-rule:evenodd;}
</style>
<circle class="st5" cx="17" cy="17" r="17"/>
<g>
	<path class="st3" d="M14.2,9h-1C12.5,9,12,9.6,12,10.2v2.5h-0.6c-1,0-1.8,0.8-1.8,1.8v9.2c0,0.7,0.5,1.2,1.2,1.2h12.4
		c0.7,0,1.2-0.6,1.2-1.2V17c0-0.7-0.5-1.2-1.2-1.2H22v-5.5C22,9.6,21.5,9,20.8,9v0H14.2 M15.9,10.1h5v5.7h-7.8v-5.7H15.9 M10.7,14.4
		L10.7,14.4c0-0.4,0.3-0.7,0.6-0.7H12v0v2h-1.3V14.4z M23.3,20.9h-2.5l-0.1,0c-0.3-0.1-0.5-0.4-0.5-0.8c0-0.5,0.3-0.8,0.6-0.8h2.5
		l0,0V20.9z M23.3,18.1h-2.4h-0.1c-0.9,0.1-1.7,0.9-1.7,1.9c0,1.1,0.8,1.9,1.8,1.9h2.4v1.9h-12l-0.1,0c-0.3,0-0.5-0.3-0.5-0.6v-6.4
		h12.6V18.1z"/>
	<path class="st3" d="M17.7,13.2l-0.3,0.3v-2.1c0-0.3-0.2-0.5-0.4-0.5s-0.4,0.2-0.4,0.5v2.1l-0.3-0.3c-0.2-0.2-0.4-0.2-0.6-0.1
		c-0.1,0.1-0.2,0.2-0.2,0.4c0,0.1,0,0.2,0.1,0.3l1,1.3c0.1,0.1,0.2,0.1,0.3,0.1c0.1,0,0.3-0.1,0.3-0.1c0.3-0.4,1.1-1.4,1.1-1.4
		c0.1-0.1,0.1-0.2,0.1-0.3c0-0.1-0.1-0.2-0.2-0.3C18.1,13,17.9,13,17.7,13.2z"/>
</g>
</svg>
