<?xml version="1.0" encoding="utf-8"?>
<!-- Generator: Adobe Illustrator 24.0.1, SVG Export Plug-In . SVG Version: 6.00 Build 0)  -->
<svg version="1.1" id="home" xmlns="http://www.w3.org/2000/svg" xmlns:xlink="http://www.w3.org/1999/xlink" x="0px" y="0px"
	 viewBox="0 0 20 20" style="enable-background:new 0 0 20 20;" xml:space="preserve">
<style type="text/css">
	.st0{fill:none;}
	.st1{fill:#FD3B4C;}
	.st2{fill-rule:evenodd;clip-rule:evenodd;fill:#F4863B;}
	.st3{fill:#FFFFFF;}
	.st4{fill-rule:evenodd;clip-rule:evenodd;fill:#5C7BFC;}
	.st5{fill-rule:evenodd;clip-rule:evenodd;fill:#FEB92B;}
	.st6{fill-rule:evenodd;clip-rule:evenodd;fill:#3EAF66;}
	.st7{fill:#8F4DDB;}
	.st8{fill:#1D1E22;}
	.st9{fill:#FD565F;}
	.st10{fill:#25282D;}
	.st11{fill:#E6E6E6;}
	.st12{fill-rule:evenodd;clip-rule:evenodd;fill:#FD3B4C;}
	.st13{fill-rule:evenodd;clip-rule:evenodd;fill:#FFFFFF;}
	.st14{fill:#12B263;}
	.st15{fill:#3EAF66;}
	.st16{fill:#DC001A;}
	.st17{fill:#F6504B;}
	.st18{fill:#DB001A;}
	.st19{fill:#F54F4A;}
	.st20{fill:#231F20;}
	.st21{fill-rule:evenodd;clip-rule:evenodd;}
</style>
<g>
	<path d="M16.5,0C16.8,0,17,0.2,17,0.5v12.6l0.1,0c1.1,0.3,1.9,1.3,1.9,2.4c0,1.1-0.8,2.1-1.9,2.4L17,18v1.5c0,0.3-0.2,0.5-0.5,0.5
		S16,19.8,16,19.5V18c-1.2-0.2-2-1.3-2-2.5c0-1.2,0.8-2.2,2-2.5h0V0.5C16,0.2,16.2,0,16.5,0z M10,0c0.3,0,0.5,0.2,0.5,0.5V2
		c1.2,0.2,2,1.3,2,2.4c0,1.2-0.8,2.2-2,2.5h0v12.5c0,0.3-0.2,0.5-0.5,0.5s-0.5-0.2-0.5-0.5V6.9l-0.1,0C8.3,6.6,7.5,5.6,7.5,4.5
		c0-1.1,0.8-2.1,1.9-2.4l0.1,0V0.5C9.5,0.2,9.7,0,10,0z M3.5,0C3.8,0,4,0.2,4,0.5v12.6l0.1,0C5.2,13.4,6,14.4,6,15.5
		c0,1.1-0.8,2.1-1.9,2.4L4,18v1.5C4,19.8,3.8,20,3.5,20S3,19.8,3,19.5V18c-1.2-0.2-2-1.3-2-2.5c0-1.2,0.8-2.2,2-2.5h0V0.5
		C3,0.2,3.2,0,3.5,0z M16.5,14c-0.8,0-1.5,0.7-1.5,1.5c0,0.8,0.7,1.5,1.5,1.5c0.8,0,1.5-0.7,1.5-1.5C18,14.7,17.3,14,16.5,14z
		 M3.5,14C2.7,14,2,14.7,2,15.5C2,16.3,2.7,17,3.5,17S5,16.3,5,15.5C5,14.7,4.3,14,3.5,14z M10,3C9.2,3,8.5,3.7,8.5,4.5
		C8.5,5.3,9.2,6,10,6s1.5-0.7,1.5-1.5C11.5,3.7,10.8,3,10,3z"/>
</g>
</svg>
