<svg width="16" height="14" viewBox="0 0 16 14" fill="none" xmlns="http://www.w3.org/2000/svg">
<path d="M15.787 6.4879L9.48393 0.2121C9.19995 -0.0706999 8.73944 -0.0706999 8.45542 0.2121C8.17139 0.494899 8.17139 0.953374 8.45542 1.23617L13.517 6.27597L0.727176 6.27665C0.325576 6.27665 0 6.60087 0 7.00079C0 7.4007 0.325673 7.72492 0.727321 7.72487L13.5168 7.7242L8.45547 12.7638C8.17144 13.0466 8.17144 13.5051 8.45547 13.7879C8.59743 13.9293 8.78356 14 8.9697 14C9.15583 14 9.34196 13.9293 9.48393 13.7879L15.787 7.51198C15.9233 7.37618 16 7.192 16 6.99996C16 6.80792 15.9234 6.6237 15.787 6.4879Z"/>
</svg>
