<svg width="24" height="24" viewBox="0 0 24 24" fill="none" xmlns="http://www.w3.org/2000/svg">
<path fill-rule="evenodd" clip-rule="evenodd" d="M2.89052 2.89052C3.14057 2.64048 3.47971 2.5 3.83333 2.5H8.49999C9.05227 2.5 9.49999 2.05228 9.49999 1.5C9.49999 0.947715 9.05227 0.5 8.49999 0.5H3.83333C2.94928 0.5 2.10143 0.851189 1.47631 1.47631C0.851189 2.10143 0.5 2.94928 0.5 3.83333V20.1666C0.5 21.0507 0.851189 21.8985 1.47631 22.5237C2.10143 23.1488 2.94927 23.5 3.83333 23.5H8.49999C9.05227 23.5 9.49999 23.0522 9.49999 22.5C9.49999 21.9477 9.05227 21.5 8.49999 21.5H3.83333C3.47971 21.5 3.14057 21.3595 2.89052 21.1094C2.64048 20.8594 2.5 20.5203 2.5 20.1666V3.83333C2.5 3.47971 2.64048 3.14057 2.89052 2.89052ZM15.9595 5.4594C16.35 5.06887 16.9832 5.06887 17.3737 5.4594L23.2071 11.2927C23.5976 11.6832 23.5976 12.3164 23.2071 12.7069L17.3737 18.5403C16.9832 18.9308 16.35 18.9308 15.9595 18.5403C15.569 18.1497 15.569 17.5166 15.9595 17.126L20.0856 13H8.43762C7.91986 13 7.50012 12.5523 7.50012 12C7.50012 11.4477 7.91986 11 8.43762 11H20.0859L15.9595 6.87361C15.569 6.48309 15.569 5.84992 15.9595 5.4594Z" />
</svg>
