<svg viewBox="0 0 24 24" fill="none" xmlns="http://www.w3.org/2000/svg">
<path d="M13.0443 0.0599726C13.5841 0.109952 14.1139 0.189921 14.6436 0.319866C16.423 0.729696 18.0923 1.52936 19.5217 2.66889C19.8816 2.93877 20.2115 3.23865 20.5314 3.54852C21.2011 4.25823 21.7909 5.0479 22.2807 5.88755C22.5806 6.37734 22.8404 6.89712 23.0704 7.41691C23.4202 8.23657 23.6701 9.1062 23.8301 9.98584C23.91 10.4057 23.96 10.8255 23.98 11.2453C23.98 11.3453 23.99 11.4352 24 11.5252V12.4548C24 12.4748 23.99 12.5048 23.99 12.5248C23.98 12.8147 23.95 13.0945 23.92 13.3844C23.8501 13.9942 23.7201 14.6039 23.5502 15.2037C23.1203 16.723 22.4006 18.1524 21.441 19.4019C20.5613 20.5514 19.4718 21.521 18.2222 22.2507C16.9727 22.9904 15.6133 23.5102 14.1938 23.7901C13.684 23.89 13.1742 23.95 12.6544 23.98C12.5145 23.99 12.3745 23.98 12.2446 24H11.7748C11.7548 24 11.7348 23.99 11.7148 23.99C11.4749 23.99 11.235 23.97 10.9951 23.95C10.5352 23.91 10.0754 23.8501 9.6156 23.7501C8.3161 23.4802 7.0666 23.0004 5.92705 22.3307C4.80749 21.691 3.79787 20.8613 2.93821 19.8817C2.20849 19.0221 1.59873 18.0725 1.12892 17.0429C0.459179 15.6035 0.0793326 14.0441 0.00935986 12.4548C-0.0106323 11.905 -0.000648439 11.3653 0.0593282 10.8155C0.119305 10.2257 0.229269 9.64598 0.379211 9.06622C0.819039 7.36693 1.60873 5.78759 2.7083 4.41816C3.37804 3.56851 4.17773 2.81882 5.06738 2.19908C6.09698 1.49937 7.21654 0.939608 8.40608 0.569762C9.48566 0.219908 10.6052 0.0299875 11.7448 0C12.1846 0 12.6144 0.0199892 13.0443 0.0599726ZM17.3026 7.25698C17.2326 7.26697 17.1627 7.27696 17.0927 7.30695C16.8128 7.41691 16.5329 7.51686 16.253 7.62682L5.91704 11.6052C5.67714 11.6851 5.44723 11.7851 5.21732 11.895C5.11736 11.945 5.0274 12.025 4.95743 12.115C4.85747 12.2349 4.87745 12.4248 4.9974 12.5248C5.0174 12.5448 5.04739 12.5648 5.07737 12.5748C5.16734 12.6147 5.26729 12.6547 5.36726 12.6747C6.31688 12.9646 7.27651 13.2545 8.22614 13.5543C8.28612 13.5743 8.34611 13.5643 8.39609 13.5344C10.6452 12.115 12.8843 10.7055 15.1334 9.29613C15.1934 9.25615 15.2534 9.21616 15.3234 9.18617C15.4033 9.14619 15.4933 9.13619 15.5733 9.16618C15.6233 9.17617 15.6533 9.22616 15.6433 9.26614C15.6433 9.27614 15.6333 9.28613 15.6333 9.29613C15.6133 9.33611 15.5833 9.3761 15.5433 9.40608L14.4437 10.4057L11.7848 12.8347L10.0654 14.404C10.0254 14.434 9.99545 14.484 9.99545 14.5339C9.98546 14.6739 9.97546 14.8138 9.96547 14.9438L9.85551 16.3432C9.82552 16.703 9.79553 17.0729 9.77554 17.4327C9.76554 17.5127 9.77554 17.5227 9.85551 17.5027C10.0654 17.4527 10.2554 17.3428 10.4053 17.1928C10.8551 16.763 11.305 16.3332 11.7548 15.8934C11.7748 15.8534 11.8247 15.8434 11.8647 15.8734C11.8747 15.8734 11.8747 15.8834 11.8847 15.8834L14.7136 17.9825C14.8436 18.0825 14.9935 18.1424 15.1435 18.1824C15.3834 18.2624 15.6533 18.1424 15.7532 17.9025C15.8032 17.8126 15.8432 17.7026 15.8632 17.6027C15.9831 17.0329 16.1131 16.4531 16.233 15.8834C16.4929 14.6539 16.7528 13.4244 17.0227 12.1849C17.2826 10.9454 17.5425 9.72595 17.8024 8.50646C17.8624 8.30654 17.8924 8.09663 17.9024 7.88671C17.9024 7.83673 17.8924 7.78675 17.8924 7.73677C17.8424 7.45689 17.5925 7.24698 17.3026 7.25698Z" fill="#999999"/>
</svg>
