<svg width="16" height="16" viewBox="0 0 16 16" fill="none" xmlns="http://www.w3.org/2000/svg">
<g clip-path="url(#clip0_5006_290283)">
<path d="M14.6961 11.3057C14.7068 12.2818 14.2773 12.7946 13.4905 12.9156C13.11 12.9739 12.7251 13.0152 12.3408 13.0365C12.0524 13.0528 11.8775 13.1807 11.7691 13.4397C11.6199 13.7957 11.4769 14.1556 11.2976 14.496C10.8619 15.3204 10.1579 15.548 9.32348 15.1336C8.97868 14.9624 8.65269 14.7518 8.32419 14.5493C8.1054 14.4145 7.90228 14.4082 7.68098 14.5443C7.35248 14.7468 7.0246 14.9536 6.67792 15.126C5.82156 15.5555 5.13196 15.3348 4.68811 14.4891C4.50944 14.1481 4.36212 13.7895 4.2173 13.4328C4.10759 13.1638 3.91325 13.0566 3.63678 13.0409C3.29319 13.0256 2.95076 12.9907 2.61116 12.9363C1.51344 12.735 1.09654 12.0981 1.32662 11.0003C1.38241 10.7358 1.43883 10.4694 1.5197 10.2117C1.6244 9.87819 1.53788 9.63056 1.26894 9.41427C0.996739 9.20261 0.738732 8.97328 0.496586 8.72779C-0.169193 8.03819 -0.166686 7.28591 0.507242 6.60132C0.784963 6.31921 1.11534 6.08851 1.38492 5.80013C1.50041 5.66412 1.56 5.48937 1.55168 5.31113C1.52158 4.98201 1.42065 4.65978 1.35106 4.33379C1.1003 3.16022 1.60183 2.47875 2.80236 2.36277C3.0619 2.3377 3.32207 2.30008 3.58224 2.30008C3.92077 2.30008 4.12389 2.14587 4.24488 1.8368C4.37086 1.50518 4.51421 1.1804 4.67431 0.863838C5.1213 0.00622475 5.82908 -0.221963 6.68795 0.21374C6.99456 0.370731 7.29161 0.545728 7.57754 0.737828C7.86341 0.925901 8.12295 0.940328 8.4132 0.745359C8.69912 0.553055 8.99617 0.377833 9.30279 0.220627C10.166 -0.21821 10.8701 0.00309145 11.3158 0.865093C11.4765 1.18109 11.6196 1.50569 11.7446 1.83743C11.8656 2.15089 12.0737 2.29005 12.4085 2.30071C12.742 2.31091 13.0744 2.3457 13.4028 2.40479C14.4685 2.60101 14.8817 3.23795 14.6566 4.30307C14.6107 4.55972 14.5513 4.81375 14.4786 5.06414C14.3569 5.44028 14.4485 5.72428 14.7676 5.96501C15.0347 6.166 15.2849 6.38867 15.5155 6.63078C16.1574 7.30659 16.1562 8.03631 15.5155 8.71149C15.2931 8.9471 15.0502 9.16236 14.7895 9.35471C14.4472 9.60547 14.3544 9.89323 14.4761 10.3013C14.5971 10.6894 14.6522 11.0944 14.6961 11.3057ZM5.95133 14.1004L7.04466 13.4472C7.68725 13.0641 8.32795 13.071 8.9674 13.4541C9.21816 13.6052 9.46893 13.76 9.71969 13.908C10.0789 14.1186 10.104 14.1104 10.2676 13.7406C10.4112 13.4165 10.5416 13.0861 10.6939 12.7664C10.9553 12.2178 11.3835 11.8855 11.9966 11.8134C12.3797 11.7683 12.7633 11.732 13.147 11.6937C13.3877 11.6705 13.5137 11.5865 13.4222 11.31C13.3401 11.0637 13.3019 10.8035 13.2341 10.5521C13.0059 9.69763 13.2041 8.98797 13.9237 8.43943C14.1394 8.27455 14.3319 8.08083 14.5413 7.90843C14.7506 7.73603 14.7293 7.59497 14.5337 7.42696C14.247 7.18371 13.9658 6.93442 13.6899 6.67906C13.2122 6.23458 13.063 5.68478 13.1984 5.05348C13.2774 4.68674 13.357 4.32 13.4417 3.95451C13.4887 3.75327 13.4128 3.65798 13.2109 3.64105C12.9508 3.62225 12.6912 3.58714 12.4311 3.57836C11.5396 3.5489 10.8964 3.17024 10.5729 2.30887C10.4632 2.0161 10.3222 1.73399 10.1968 1.44812C10.1215 1.27823 10.0162 1.245 9.85197 1.34907C9.54416 1.54592 9.2307 1.73337 8.9116 1.91705C8.30977 2.26624 7.70292 2.27126 7.09983 1.92144C6.81083 1.75406 6.52935 1.57349 6.24034 1.40611C5.91435 1.21804 5.88237 1.22869 5.73254 1.56409C5.57518 1.91641 5.43476 2.2769 5.26361 2.62232C5.00407 3.14642 4.57401 3.44922 3.99036 3.51944C3.628 3.56332 3.26502 3.59779 2.90204 3.6354C2.51524 3.67553 2.50207 3.69121 2.58859 4.08303C2.64125 4.31707 2.69872 4.54965 2.76099 4.78077C2.99106 5.63337 2.80111 6.34804 2.08141 6.89471C1.92343 7.01445 1.77548 7.14548 1.6269 7.27901C1.18807 7.66519 1.19308 7.67208 1.61812 8.05198C1.89083 8.29523 2.17107 8.53157 2.42434 8.793C2.80048 9.18105 2.91019 9.66064 2.81302 10.1841C2.75409 10.5013 2.6682 10.811 2.59736 11.1282C2.48201 11.6423 2.48326 11.6423 2.99106 11.7113C3.09429 11.7324 3.19917 11.7446 3.30451 11.7476C4.4737 11.7044 5.22976 12.2347 5.57017 13.3582C5.62043 13.5068 5.68336 13.6509 5.75824 13.7888C5.80589 13.8904 5.87484 13.9832 5.95133 14.1004Z" fill="#007FFF"/>
<path d="M5.95119 14.1007C5.87471 13.9809 5.807 13.8907 5.75685 13.7916C5.68196 13.6537 5.61904 13.5096 5.56878 13.3609C5.22836 12.2375 4.47231 11.7071 3.30312 11.7504C3.19778 11.7474 3.0929 11.7352 2.98967 11.714C2.48187 11.6451 2.48062 11.6451 2.59597 11.131C2.66681 10.8175 2.7527 10.5041 2.81163 10.1869C2.9088 9.6634 2.79909 9.18382 2.42295 8.79576C2.17218 8.53434 1.88945 8.29799 1.61674 8.05475C1.1917 7.67484 1.18981 7.66795 1.62551 7.28178C1.77409 7.15013 1.92204 7.01721 2.08002 6.89747C2.79971 6.34955 2.98967 5.63613 2.7596 4.78353C2.69774 4.55241 2.64027 4.31984 2.5872 4.08579C2.49817 3.69397 2.51134 3.67829 2.90065 3.63817C3.26363 3.60055 3.62661 3.56607 3.98897 3.52218C4.57262 3.45197 5.00268 3.14605 5.26222 2.62509C5.43336 2.27966 5.57568 1.91918 5.73115 1.56685C5.88098 1.23146 5.91295 1.22017 6.23895 1.40887C6.52795 1.57626 6.80943 1.7568 7.09844 1.92419C7.70153 2.274 8.30838 2.269 8.91021 1.91981C9.22367 1.73613 9.53712 1.54868 9.85058 1.35183C10.0148 1.24776 10.1201 1.28099 10.1954 1.45088C10.3208 1.73675 10.4593 2.01886 10.5715 2.31163C10.895 3.173 11.5382 3.55166 12.4297 3.58112C12.6899 3.5899 12.9494 3.62501 13.2096 3.64381C13.4114 3.65823 13.4873 3.75352 13.4403 3.95727C13.3556 4.32276 13.276 4.6895 13.197 5.05624C13.0622 5.68754 13.2108 6.23734 13.6885 6.68182C13.9635 6.9376 14.2448 7.18689 14.5323 7.42972C14.7267 7.5946 14.7455 7.74317 14.5399 7.91118C14.3342 8.07919 14.138 8.27731 13.9224 8.44219C13.2052 8.99073 13.0071 9.70039 13.2328 10.5549C13.3005 10.8056 13.3387 11.0664 13.4208 11.3128C13.5124 11.5893 13.3863 11.6733 13.1456 11.6965C12.7619 11.7347 12.3783 11.7711 11.9952 11.8162C11.3834 11.8883 10.9539 12.2206 10.6925 12.7691C10.5402 13.0888 10.4098 13.4192 10.2662 13.7433C10.1026 14.1132 10.0781 14.1195 9.7183 13.9107C9.46753 13.7628 9.21677 13.6079 8.96601 13.4568C8.32656 13.0713 7.68585 13.0669 7.04327 13.4499L5.95119 14.1007ZM7.06772 8.83776C6.63578 8.39892 6.24584 7.99394 5.84525 7.60024C5.54057 7.30183 5.16505 7.2918 4.9005 7.55573C4.63594 7.81966 4.64409 8.19205 4.94689 8.49986C5.49564 9.05781 6.04899 9.61158 6.60694 10.1612C6.96554 10.5141 7.33541 10.5022 7.65639 10.1198C8.7656 8.80203 9.87064 7.48091 10.9715 6.15646C11.2624 5.80727 11.2429 5.43928 10.9376 5.18914C10.653 4.95593 10.285 5.00734 10.0029 5.33396C9.70262 5.68127 9.41174 6.03673 9.11647 6.38906L7.06772 8.83776Z" fill="#007FFF"/>
<path d="M7.06774 8.83768L9.11648 6.38898C9.41176 6.03665 9.70264 5.68119 10.0029 5.33388C10.285 5.00726 10.653 4.95773 10.9377 5.18906C11.243 5.43983 11.2624 5.80719 10.9715 6.15638C9.8694 7.48 8.76436 8.80112 7.65641 10.1197C7.33543 10.5021 6.9668 10.514 6.60696 10.1611C6.04901 9.61192 5.49566 9.05815 4.9469 8.49978C4.6441 8.19197 4.63345 7.82271 4.90051 7.55565C5.16757 7.28859 5.54058 7.30488 5.84526 7.60016C6.2446 7.99386 6.63579 8.39947 7.06774 8.83768Z" fill="white"/>
</g>
<defs>
<clipPath id="clip0_5006_290283">
<rect width="16" height="15.3399" fill="white"/>
</clipPath>
</defs>
</svg>
