<svg viewBox="0 0 24 24" fill="none" xmlns="http://www.w3.org/2000/svg">
<path d="M20.1883 8.12998C20.0182 8.17998 19.8682 8.24998 19.7081 8.30998C19.6181 8.34998 19.528 8.37998 19.428 8.39998C19.2579 8.44998 19.0879 8.47998 18.9078 8.49998C18.8878 8.49998 18.8778 8.50998 18.8577 8.50998C18.7777 8.53998 18.6677 8.51998 18.5876 8.55998C18.5776 8.55998 18.5676 8.55997 18.5576 8.54997C18.5476 8.53997 18.5576 8.51998 18.5676 8.50998C18.5877 8.47998 18.6076 8.45998 18.6377 8.44998C18.7977 8.33998 18.9478 8.20998 19.0878 8.07998C19.338 7.82998 19.548 7.52998 19.7081 7.20998C19.7481 7.12998 19.7781 7.04998 19.8182 6.96998C19.8282 6.95998 19.8282 6.93998 19.8182 6.92998C19.8082 6.91998 19.7881 6.92998 19.7681 6.92998H19.7581C19.518 7.03998 19.2879 7.14998 19.0378 7.24998C18.8177 7.32998 18.5977 7.40998 18.3776 7.47998C18.2575 7.51998 18.1275 7.54998 17.9974 7.57998C17.9174 7.60998 17.8273 7.59998 17.7573 7.53998C17.6072 7.41998 17.4572 7.30998 17.2971 7.20998C17.127 7.09998 16.957 6.99998 16.7669 6.92998C16.6368 6.87998 16.5168 6.83998 16.3768 6.79998C16.2267 6.74998 16.0766 6.71998 15.9165 6.69998C15.7565 6.67998 15.5964 6.66998 15.4364 6.67998C15.3563 6.68998 15.2763 6.68998 15.2063 6.69998C15.0862 6.69998 14.9662 6.71998 14.8461 6.74998C14.606 6.79998 14.3759 6.88998 14.1658 7.01998C13.9457 7.15998 13.7357 7.30998 13.5456 7.47998C13.4255 7.58998 13.3155 7.70998 13.2155 7.83998C13.1154 7.95998 13.0254 8.08998 12.9553 8.22997C12.8253 8.46997 12.7253 8.71997 12.6552 8.97997C12.6052 9.17997 12.5652 9.38997 12.5552 9.59997C12.5352 9.75997 12.5352 9.92997 12.5752 10.09C12.5852 10.12 12.5852 10.15 12.5852 10.19C12.5852 10.25 12.5852 10.31 12.5952 10.37C12.6052 10.43 12.5852 10.46 12.5152 10.45C12.4151 10.44 12.3151 10.41 12.205 10.4C12.075 10.38 11.945 10.36 11.8149 10.32C11.7349 10.3 11.6548 10.3 11.5748 10.27C11.4947 10.24 11.4147 10.22 11.3347 10.21C11.1546 10.17 10.9845 10.12 10.8045 10.07C10.5344 9.98997 10.2642 9.88998 10.0041 9.78998C9.72402 9.67998 9.45393 9.55998 9.18382 9.42998C8.91371 9.29998 8.63359 9.14997 8.36348 8.98997C8.06336 8.80998 7.76322 8.61998 7.4731 8.39998C7.26302 8.23998 7.05296 8.07998 6.84287 7.89998C6.71282 7.78998 6.58275 7.66998 6.4527 7.54998C6.37266 7.46998 6.28262 7.37998 6.19258 7.29998C6.14256 7.25998 6.11255 7.25998 6.10255 7.31998C6.07254 7.44998 6.03252 7.56998 6.01252 7.70998C5.99251 7.82998 5.97251 7.94998 5.96251 8.06998C5.9525 8.21998 5.94248 8.37998 5.94248 8.52998C5.94248 8.60998 5.96251 8.68998 5.96251 8.75998C5.96251 8.84998 5.9725 8.93998 5.9825 9.02998C5.99251 9.10998 6.00252 9.19998 6.02253 9.27997C6.04254 9.35997 6.06254 9.44998 6.08255 9.52997C6.12257 9.68997 6.17258 9.83997 6.23261 9.98997C6.30263 10.18 6.39268 10.36 6.49272 10.53C6.59276 10.71 6.71282 10.88 6.84287 11.04C6.90289 11.12 6.9729 11.2 7.03292 11.28C7.04292 11.29 7.05294 11.31 7.04293 11.33C7.03293 11.35 7.01293 11.34 6.99293 11.34C6.89288 11.31 6.80284 11.28 6.7028 11.26C6.56274 11.23 6.42267 11.19 6.28261 11.14C6.22259 11.12 6.17259 11.12 6.11256 11.1C6.03253 11.07 5.94249 11.05 5.86246 11.03C5.82244 11.02 5.79242 11.01 5.7524 11C5.71238 10.99 5.69238 11.01 5.69238 11.05C5.69238 11.13 5.70238 11.21 5.72239 11.29C5.7524 11.38 5.7524 11.48 5.78241 11.58C5.82243 11.72 5.87246 11.86 5.92248 12C6.02252 12.24 6.15257 12.46 6.29263 12.68C6.45269 12.92 6.65279 13.13 6.87288 13.32C7.18301 13.59 7.53313 13.8 7.91328 13.94C7.9533 13.95 7.99331 13.97 8.03333 13.99C8.05334 14 8.08336 14.01 8.07335 14.04C8.06335 14.07 8.04335 14.06 8.02334 14.07C7.98333 14.08 7.94332 14.08 7.9033 14.08C7.75324 14.07 7.61318 14.08 7.46312 14.09C7.33307 14.11 7.19301 14.12 7.06296 14.12C6.99293 14.12 6.9329 14.12 6.86287 14.12C6.79284 14.12 6.78284 14.14 6.80285 14.2C6.83286 14.28 6.87286 14.37 6.91288 14.45C7.04293 14.71 7.20301 14.94 7.4031 15.16C7.69321 15.48 8.05334 15.75 8.4435 15.93C8.71361 16.06 9.00374 16.15 9.30387 16.19C9.3839 16.21 9.47393 16.22 9.55397 16.22C9.57398 16.22 9.59397 16.23 9.60398 16.25C9.61398 16.27 9.60399 16.29 9.58398 16.3C9.56397 16.32 9.54396 16.33 9.52396 16.35C9.44392 16.41 9.35388 16.48 9.26384 16.54C9.06376 16.68 8.85367 16.81 8.63358 16.92C8.4435 17.02 8.24342 17.11 8.04334 17.19C7.92329 17.24 7.79323 17.29 7.66318 17.32C7.53313 17.35 7.41307 17.4 7.28302 17.42C7.20299 17.44 7.11297 17.46 7.02294 17.48C6.90289 17.5 6.77284 17.52 6.65279 17.54C6.56275 17.55 6.46271 17.56 6.37268 17.57C6.32266 17.57 6.27263 17.57 6.21261 17.58C6.01253 17.61 5.80243 17.61 5.60234 17.59C5.46229 17.57 5.33223 17.57 5.19217 17.57C5.17217 17.57 5.14216 17.56 5.13215 17.59C5.14216 17.61 5.15217 17.62 5.17218 17.63C5.26221 17.7 5.35225 17.76 5.45229 17.82C5.77242 18.03 6.11257 18.2 6.46271 18.35C6.59276 18.4 6.72281 18.47 6.86287 18.51C6.97291 18.54 7.08294 18.5799 7.19299 18.6199C7.30303 18.6599 7.4131 18.6799 7.52314 18.6999C7.60317 18.7199 7.68321 18.74 7.77324 18.76C7.88329 18.78 8.00333 18.8 8.11338 18.82C8.18341 18.83 8.25344 18.84 8.33347 18.85C8.4035 18.86 8.4635 18.8699 8.53353 18.8699C8.68359 18.8599 8.83367 18.87 8.98373 18.89C9.05376 18.9 9.12379 18.91 9.20382 18.9H9.98413C10.0242 18.9 10.0642 18.9 10.0942 18.89C10.1942 18.87 10.3043 18.86 10.4043 18.86C10.4844 18.86 10.5644 18.85 10.6444 18.83C10.7044 18.81 10.7745 18.7999 10.8345 18.8099C10.8745 18.8099 10.9145 18.8099 10.9545 18.7999C11.0546 18.7599 11.1646 18.77 11.2647 18.75C11.3347 18.73 11.4047 18.73 11.4647 18.71C11.5348 18.69 11.6148 18.68 11.6848 18.67C11.7649 18.66 11.8449 18.64 11.9249 18.61C12.095 18.55 12.2751 18.52 12.4451 18.46C12.6152 18.4 12.7953 18.35 12.9654 18.28C13.1855 18.2 13.4055 18.1 13.6156 18C14.1058 17.77 14.586 17.5 15.0362 17.2C15.2463 17.05 15.4564 16.89 15.6565 16.73C15.7965 16.62 15.9266 16.5 16.0566 16.38C16.1366 16.31 16.2167 16.23 16.2967 16.15C16.4067 16 16.5168 15.85 16.6269 15.7C16.8269 15.42 17.007 15.13 17.1771 14.83C17.3471 14.52 17.5172 14.2 17.6573 13.87C17.7473 13.66 17.8373 13.45 17.9174 13.23C17.9874 13.06 18.0474 12.89 18.0975 12.71C18.1575 12.53 18.1975 12.38 18.2475 12.22C18.2775 12.11 18.2975 12 18.3275 11.89C18.3675 11.74 18.3976 11.58 18.4276 11.43C18.4576 11.31 18.4676 11.2 18.4876 11.08C18.5176 10.96 18.5276 10.84 18.5376 10.72C18.5576 10.58 18.5776 10.43 18.5876 10.29C18.5876 10.12 18.6377 9.95997 18.6277 9.77997C18.6277 9.71997 18.6477 9.66997 18.6877 9.63997C18.9278 9.43997 19.1579 9.23998 19.388 9.03998C19.518 8.92998 19.6381 8.79997 19.7481 8.65997C19.8682 8.49997 19.9882 8.33998 20.1083 8.17998C20.1883 8.15998 20.1983 8.13998 20.1883 8.12998ZM12.015 0C13.9357 0.00999997 15.8265 0.469999 17.5372 1.36C19.408 2.31999 20.9786 3.76999 22.1091 5.53999C23.3596 7.46998 24.0099 9.70998 23.9999 12.01C24.0099 14.01 23.5096 15.99 22.5392 17.74C21.5488 19.5699 20.0983 21.0999 18.3275 22.1899C16.4268 23.3699 14.2359 23.9899 12.0049 23.9999C8.89368 24.0099 5.90248 22.7899 3.68158 20.6199C1.32062 18.3699 -0.00994807 15.25 5.60081e-05 11.98C0.0100601 9.96997 0.520279 7.99998 1.48067 6.23998C2.50109 4.36999 4.0017 2.80999 5.83245 1.72C7.69321 0.59 9.83407 0 12.015 0Z" fill="#999999"/>
</svg>
