<svg width="24" height="24" viewBox="0 0 24 24" xmlns="http://www.w3.org/2000/svg">
<path fill-rule="evenodd" clip-rule="evenodd" d="M12 24C18.6274 24 24 18.6274 24 12C24 5.37258 18.6274 0 12 0C5.37258 0 0 5.37258 0 12C0 18.6274 5.37258 24 12 24ZM9.26601 12.933C9.26724 12.8741 9.26849 12.8145 9.26849 12.7538C9.68212 12.632 10.0389 12.3669 10.2749 12.0061C10.5109 11.6452 10.6108 11.2122 10.5566 10.7844C10.4272 9.92105 9.75755 9.30114 8.85473 9.23973C8.04914 9.18417 7.25817 9.77631 7.0564 10.5804C6.84587 11.4167 7.2377 12.2932 8.01551 12.631C8.26406 12.7399 8.3145 12.87 8.30792 13.1134C8.28891 13.8679 8.62007 14.4337 9.28238 14.7992C9.45742 14.8956 9.63142 14.9943 9.80547 15.093C10.1591 15.2935 10.513 15.4942 10.876 15.6764C11.1523 15.8153 11.2934 15.9725 11.2467 16.2978C11.2255 16.4418 11.1962 16.5113 11.0544 16.5668C10.6693 16.7227 10.3506 17.0079 10.1531 17.3734C9.95552 17.7388 9.89151 18.1617 9.97204 18.5692C10.0526 18.9768 10.2726 19.3435 10.5943 19.6064C10.916 19.8693 11.3192 20.0118 11.7347 20.0095C12.1501 20.0072 12.5517 19.8602 12.8705 19.5938C13.1893 19.3274 13.4052 18.9583 13.4812 18.5498C13.5573 18.1414 13.4886 17.7193 13.287 17.356C13.0855 16.9928 12.7636 16.7111 12.3768 16.5595C12.2489 16.5098 12.2043 16.4513 12.2043 16.3124C12.2116 15.5765 12.2116 14.8406 12.2043 14.1047C12.1986 14.0459 12.2112 13.9867 12.2404 13.9353C12.2696 13.8839 12.3139 13.8427 12.3673 13.8174C13.1086 13.3773 13.8476 12.9341 14.5845 12.4877C14.8131 12.3584 15.0091 12.1787 15.1577 11.9622C15.3063 11.7457 15.4035 11.4981 15.442 11.2384C15.4659 11.085 15.4708 10.9287 15.4759 10.7667C15.4783 10.6908 15.4807 10.6137 15.4851 10.5351H15.9238C16.2622 10.5271 16.4501 10.3363 16.4501 9.99488V8.13442C16.4494 7.81057 16.2688 7.60881 15.9508 7.60881C15.307 7.6015 14.663 7.6015 14.0187 7.60881C13.7131 7.6132 13.5304 7.80253 13.5304 8.10518C13.526 8.7363 13.526 9.36864 13.5304 10.0022C13.5326 10.3472 13.7175 10.5278 14.0618 10.5337H14.4873C14.5772 11.1696 14.4449 11.4452 13.9273 11.7545C13.4073 12.0669 12.8868 12.3793 12.3659 12.6916C12.3363 12.708 12.3065 12.7224 12.276 12.7371C12.2575 12.746 12.2387 12.7551 12.2196 12.7647V7.58469C12.3396 7.58469 12.4577 7.58377 12.5745 7.58287C12.8046 7.58109 13.0298 7.57935 13.2548 7.58469C13.4792 7.5898 13.6715 7.5262 13.7767 7.32517C13.882 7.12414 13.8257 6.93992 13.7117 6.75862C13.4601 6.35908 13.2101 5.95864 12.96 5.55811C12.7022 5.1452 12.4443 4.73218 12.1846 4.31992C11.917 3.89373 11.5215 3.893 11.2547 4.31992C11.0408 4.66124 10.8277 5.00307 10.6147 5.34494C10.3203 5.81727 10.0259 6.28966 9.72904 6.76082C9.61061 6.94869 9.55652 7.14241 9.66983 7.34052C9.78313 7.53863 9.96589 7.58907 10.1815 7.58469C10.4109 7.58128 10.6403 7.58241 10.8703 7.58355C10.9856 7.58412 11.101 7.58469 11.2167 7.58469V14.7707C11.1216 14.7179 11.027 14.6654 10.9328 14.6132C10.494 14.3699 10.0648 14.1318 9.64351 13.8869C9.53441 13.8243 9.44285 13.7352 9.3773 13.6279C9.31175 13.5206 9.27432 13.3984 9.26849 13.2728C9.26123 13.161 9.26359 13.0485 9.26601 12.933ZM8.47556 10.2645C8.57607 10.2255 8.68335 10.2069 8.79113 10.2098C8.8989 10.209 9.00574 10.2298 9.10529 10.2711C9.20485 10.3124 9.29508 10.3733 9.37064 10.4502C9.4462 10.527 9.50554 10.6183 9.54513 10.7185C9.58472 10.8188 9.60376 10.9259 9.60111 11.0337C9.60044 11.1416 9.57843 11.2484 9.53635 11.3478C9.49426 11.4472 9.43293 11.5373 9.35588 11.6129C9.27883 11.6886 9.18759 11.7482 9.08741 11.7884C8.98722 11.8286 8.88007 11.8487 8.77212 11.8473C8.55417 11.8431 8.34661 11.7533 8.19425 11.5974C8.04189 11.4415 7.95695 11.2319 7.95776 11.0139C7.95869 10.9061 7.9811 10.7996 8.02367 10.7005C8.06625 10.6015 8.12814 10.5119 8.20573 10.437C8.28332 10.3622 8.37505 10.3035 8.47556 10.2645ZM10.9604 18.5192C10.9215 18.4184 10.9033 18.3108 10.9067 18.2029C10.9051 18.0949 10.9256 17.9877 10.9669 17.8879C11.0082 17.788 11.0694 17.6977 11.1468 17.6223C11.2242 17.547 11.3161 17.4882 11.417 17.4497C11.5179 17.4111 11.6256 17.3935 11.7335 17.398C11.8415 17.398 11.9484 17.4195 12.0479 17.4613C12.1475 17.503 12.2377 17.5642 12.3133 17.6413C12.3889 17.7183 12.4484 17.8097 12.4883 17.91C12.5282 18.0103 12.5477 18.1176 12.5457 18.2255C12.5413 18.4435 12.4512 18.6509 12.2949 18.8029C12.1387 18.9549 11.9288 19.0393 11.7109 19.0377C11.6028 19.0371 11.496 19.0148 11.3967 18.9722C11.2974 18.9297 11.2077 18.8677 11.1327 18.7899C11.0578 18.7121 10.9992 18.62 10.9604 18.5192ZM14.4975 9.54823V8.57742H15.4727V9.54823H14.4975ZM11.26 6.14192C11.4122 5.89739 11.5636 5.65399 11.7196 5.40403L12.474 6.61096H10.9681C11.0666 6.45284 11.1635 6.29715 11.26 6.14192Z" />
</svg>
