<svg viewBox="0 0 24 24" fill="none" xmlns="http://www.w3.org/2000/svg">
<path d="M20.42 3.4915C18.19 1.25058 15.16 -0.00994505 12 5.90974e-05C5.44 0.0100632 0.120006 5.33227 0.100006 11.895C0.100006 13.9859 0.650002 16.0367 1.69 17.8375L0 24L6.31001 22.3493C8.05 23.2997 10.01 23.7999 11.99 23.7999C18.58 23.7999 23.94 18.4977 24 11.905C23.97 8.73368 22.68 5.71242 20.42 3.4915ZM17.82 16.1568C17.38 16.8871 16.65 17.3973 15.82 17.5673C14.58 17.7074 13.33 17.4473 12.26 16.827C10.21 15.7966 8.46 14.246 7.18 12.3452C6.48 11.4548 6.06 10.3844 5.96 9.2639C5.94 8.32351 6.32 7.42313 7 6.78287C7.2 6.55277 7.49 6.41272 7.8 6.40271H8L7.81001 6.41271C8 6.41271 8.21 6.41271 8.38 6.42272H8.47C8.64 6.42272 8.85 6.44273 9.05 6.93293C9.3 7.52318 9.89 8.99378 9.97 9.13384C10.07 9.29391 10.08 9.48399 9.99001 9.65406C9.42001 10.7945 8.81 10.7545 9.12 11.2747C10.03 12.8754 11.45 14.1259 13.16 14.8062C13.46 14.9563 13.63 14.9262 13.8 14.7262C13.97 14.5261 14.54 13.8658 14.74 13.5657C14.94 13.2656 15.14 13.3256 15.41 13.4156C15.68 13.5057 17.14 14.236 17.44 14.386C17.74 14.5361 17.93 14.6061 18.01 14.7262C18.08 15.2064 18.01 15.6966 17.82 16.1568Z" fill="#999999"/>
</svg>
