<svg width="300" height="300" viewBox="0 0 300 300" fill="none" xmlns="http://www.w3.org/2000/svg">
<circle cx="150" cy="150" r="150" fill="#ED6C53"/>
<path fill-rule="evenodd" clip-rule="evenodd" d="M114.962 236.666C126.133 236.666 138.907 233.809 151.871 228.468C152.276 228.304 152.68 228.129 153.081 227.948C153.451 227.783 153.818 227.612 154.178 227.443L154.339 227.369L154.365 227.356C159.841 225.992 165.538 224.121 171.231 221.744C207.8 206.572 223.253 182.341 225.494 164.517C228.188 142.708 214.45 121.852 197.183 106.206C188.968 96.5471 178.787 88.092 168.67 81.5676C155.857 73.2765 142.735 67.5954 131.195 64.978C119.695 62.3692 109.589 62.7648 102.965 66.8739C96.6002 70.801 91.9185 78.27 88.6878 89.4419C83.9696 94.9686 80.4964 103.332 78.1266 114.69C75.7332 126.16 74.4516 140.764 74.1983 158.753C73.9429 177.57 75.2244 192.968 78.0536 204.847C80.8785 216.706 85.2726 225.174 91.3475 229.981C96.9007 234.382 105.109 236.666 114.962 236.666ZM160.541 210.786C172.532 205.805 182.264 199.846 190.033 193.446C182.453 203.531 170.318 213.654 152.377 221.607C148.382 222.571 144.527 223.239 140.874 223.608C137.051 223.995 133.446 224.056 130.128 223.79C123.613 223.27 118.259 221.499 114.498 218.536L114.058 218.167C117.014 218.698 120.213 218.987 123.628 218.987C134.799 218.987 147.577 216.127 160.541 210.786ZM200.021 170.466C199.939 171.242 199.815 172.032 199.656 172.846C199.508 173.598 199.33 174.37 199.126 175.171C191.231 185.942 178.113 196.865 158.233 205.138C148.033 209.374 138.145 211.889 129.422 212.679C120.822 213.455 113.417 212.549 107.951 210.024C102.126 198.667 99.2942 179.339 99.6848 152.112C99.936 134.94 101.145 120.974 103.325 110.087C105.459 99.4331 108.507 91.8149 112.425 87.0129C124.66 87.9079 140.749 93.9646 156.688 104.298C168.268 111.795 179.929 121.88 188.277 133.339C196.631 144.804 201.618 157.567 200.021 170.466ZM160.006 99.1909C145.927 90.0873 131.467 84.1162 119.139 81.9125C120.524 81.3508 122.087 80.9329 123.828 80.6663C125.319 80.4378 126.942 80.3203 128.692 80.3203C141.563 80.3203 159.289 86.777 176.157 97.6907C181.899 101.383 187.641 105.747 192.995 110.612C203.644 123.221 210.556 137.942 208.742 152.787C208.375 155.77 207.588 158.972 206.304 162.283C205.413 150.153 199.853 138.511 191.952 128.137C183.209 116.653 171.551 106.661 160.006 99.1909ZM94.1938 92.3777C95.2328 91.3071 96.3598 90.3941 97.5275 89.68C98.5064 89.0695 99.5968 88.5617 100.795 88.1565C102.044 87.7344 103.413 87.4223 104.897 87.2213C101.402 93.0559 98.7725 100.951 96.9308 111.018C94.9215 121.99 93.8354 135.597 93.61 152.031C93.3159 172.132 94.8056 188.327 98.0749 200.507C95.3852 195.817 93.2644 189.54 91.7489 181.658C89.6967 170.981 88.7673 157.444 88.9927 141.097C89.2717 120.179 90.9954 104.008 94.1938 92.3777ZM118.002 69.3061C127.183 69.3061 138.888 72.6164 150.999 78.5197C145.553 76.6704 140.326 75.4041 135.484 74.763C126.691 73.6003 119.049 74.4868 113.711 77.8321C112.279 78.7165 111.012 79.7501 109.767 80.9699C105.208 80.9138 101.091 81.5349 97.622 82.8943C100.022 77.6649 102.939 74.0986 106.253 72.0557C109.113 70.2487 113.037 69.3061 118.002 69.3061ZM102.473 213.91L102.769 214.095C103.031 214.256 103.3 214.416 103.57 214.572C105.614 218.168 108.007 221.072 110.759 223.259C114.876 226.53 120.449 228.605 127.062 229.482C121.121 230.519 115.589 230.833 110.688 230.434C104.199 229.907 98.8713 228.135 95.1383 225.198C90.081 221.173 86.2278 213.668 83.7185 202.53C81.2134 191.416 80.0757 176.817 80.3269 158.776C80.5716 141.127 81.8424 126.884 84.1435 115.875C83.4416 123.39 83.0273 131.762 82.9199 141.018C82.6366 159.834 83.9181 175.233 86.7538 187.111C89.5873 198.972 93.9964 207.44 100.069 212.246L100.086 212.259C100.677 212.703 101.282 213.132 101.911 213.547L102.473 213.91ZM214.749 153.558C215.466 147.679 214.991 141.864 213.583 136.213C218.211 145.043 220.564 154.407 219.379 163.801C217.741 176.942 207.643 194.519 184.57 208.298C195.62 198.266 202.013 187.417 204.724 177.775C210.704 169.353 213.832 160.905 214.749 153.558Z" fill="white"/>
</svg>
